<svg width="15" height="16" viewBox="0 0 15 16" fill="none" xmlns="http://www.w3.org/2000/svg">
<path d="M8.648 4.144C8.52 5.808 8.072 7.344 7.304 8.752C6.568 10.16 5.736 11.376 4.808 12.4C3.912 13.424 3.032 14.224 2.168 14.8C1.304 15.376 0.712 15.664 0.392 15.664C0.136 15.664 0.0240001 15.648 0.0560001 15.616C0.0880001 15.552 0.104 15.44 0.104 15.28C0.104 15.152 0.232 14.992 0.488 14.8C0.744 14.608 1.048 14.384 1.4 14.128C1.752 13.84 2.12 13.52 2.504 13.168C2.888 12.816 3.24 12.416 3.56 11.968C4.008 11.328 4.328 10.64 4.52 9.904C4.712 9.168 4.84 8.448 4.904 7.744C4.936 7.264 4.92 6.864 4.856 6.544C4.792 6.192 4.712 5.872 4.616 5.584C4.552 5.264 4.488 4.944 4.424 4.624C4.36 4.272 4.344 3.872 4.376 3.424C4.408 3.008 4.552 2.656 4.808 2.368C5.096 2.08 5.368 1.824 5.624 1.6C6.136 1.184 6.504 0.911999 6.728 0.783998C6.984 0.655998 7.24 0.591998 7.496 0.591998C7.944 0.591998 8.28 0.815998 8.504 1.264C8.728 1.712 8.776 2.672 8.648 4.144ZM14.888 4.144C14.76 5.808 14.312 7.344 13.544 8.752C12.808 10.16 11.976 11.376 11.048 12.4C10.152 13.424 9.272 14.224 8.408 14.8C7.544 15.376 6.952 15.664 6.632 15.664C6.376 15.664 6.264 15.648 6.296 15.616C6.328 15.552 6.344 15.44 6.344 15.28C6.344 15.152 6.472 14.992 6.728 14.8C6.984 14.608 7.288 14.384 7.64 14.128C7.992 13.84 8.36 13.52 8.744 13.168C9.128 12.816 9.48 12.416 9.8 11.968C10.248 11.328 10.568 10.64 10.76 9.904C10.952 9.168 11.08 8.448 11.144 7.744C11.176 7.264 11.16 6.864 11.096 6.544C11.032 6.192 10.952 5.872 10.856 5.584C10.792 5.264 10.728 4.944 10.664 4.624C10.6 4.272 10.584 3.872 10.616 3.424C10.648 3.008 10.792 2.656 11.048 2.368C11.336 2.08 11.608 1.824 11.864 1.6C12.376 1.184 12.744 0.911999 12.968 0.783998C13.224 0.655998 13.48 0.591998 13.736 0.591998C14.184 0.591998 14.52 0.815998 14.744 1.264C14.968 1.712 15.016 2.672 14.888 4.144Z" fill="black"/>
</svg>
