<svg width="161" height="48" viewBox="0 0 161 48" fill="none" xmlns="http://www.w3.org/2000/svg">
<path fill-rule="evenodd" clip-rule="evenodd" d="M23.99 0C10.7407 0 0 10.7407 0 23.99C0 37.2393 10.7407 47.98 23.99 47.98H137.01C150.259 47.98 161 37.2393 161 23.99C161 10.7407 150.259 0 137.01 0H23.99ZM24.1718 0.615128C11.2623 0.615128 0.796967 11.0804 0.796967 23.99C0.796967 36.8996 11.2623 47.3649 24.1719 47.3649H136.828C149.738 47.3649 160.203 36.8996 160.203 23.99C160.203 11.0804 149.738 0.615128 136.828 0.615128H24.1718Z" fill="#D8D8D8"/>
<mask id="mask0" mask-type="alpha" maskUnits="userSpaceOnUse" x="0" y="0" width="161" height="48">
<path fill-rule="evenodd" clip-rule="evenodd" d="M23.99 0C10.7407 0 0 10.7407 0 23.99C0 37.2393 10.7407 47.98 23.99 47.98H137.01C150.259 47.98 161 37.2393 161 23.99C161 10.7407 150.259 0 137.01 0H23.99ZM24.1718 0.615128C11.2623 0.615128 0.796967 11.0804 0.796967 23.99C0.796967 36.8996 11.2623 47.3649 24.1719 47.3649H136.828C149.738 47.3649 160.203 36.8996 160.203 23.99C160.203 11.0804 149.738 0.615128 136.828 0.615128H24.1718Z" fill="white"/>
</mask>
<g mask="url(#mask0)">
<rect y="-44.2936" width="161" height="132.282" rx="6" fill="url(#paint0_linear)"/>
</g>
<defs>
<linearGradient id="paint0_linear" x1="0" y1="87.9887" x2="161" y2="87.9887" gradientUnits="userSpaceOnUse">
<stop stop-color="#8700FF"/>
<stop offset="1" stop-color="#00D7FF"/>
</linearGradient>
</defs>
</svg>
