<svg width="40" height="39" viewBox="0 0 40 39" fill="none" xmlns="http://www.w3.org/2000/svg">
<mask id="mask0" mask-type="alpha" maskUnits="userSpaceOnUse" x="0" y="0" width="40" height="39">
<path fill-rule="evenodd" clip-rule="evenodd" d="M3.25237 0.0419922C3.24813 0.0419922 3.24386 0.0420341 3.23958 0.042076C2.39262 0.053271 1.54524 0.0712165 0.698825 0.0510069C0.399118 0.0437951 0.22851 0.182495 0.0919063 0.394864C-0.044404 0.606856 -0.0179051 0.85281 0.0981956 1.0573C0.216057 1.26497 0.378321 1.41646 0.675009 1.40032C1.24721 1.36912 1.82222 1.38665 2.39606 1.38841C2.67648 1.38933 2.73467 1.45067 2.73736 1.74132C2.74197 2.23797 2.74381 2.73465 2.7436 3.2313C2.74155 8.45629 2.73857 11.1236 2.73639 16.3485C2.73534 18.7555 2.73606 21.1624 2.73501 23.5692C2.73396 26.1216 2.73015 28.6739 2.73073 31.2263C2.73124 33.2216 2.73752 32.4915 2.73929 34.4868C2.74042 35.6774 2.73191 36.8682 2.73996 38.0588C2.74293 38.4972 3.01069 38.764 3.39476 38.7567C3.81589 38.7487 4.05635 38.4752 4.05375 38.017C4.04897 37.1607 4.04683 36.3045 4.04595 35.4482C4.04394 33.4534 4.04214 34.184 4.04386 32.1893C4.04398 31.9956 4.12243 31.8572 4.35237 31.8724C4.9083 31.9092 5.46486 31.896 6.02155 31.8944C7.99237 31.8889 7.02298 31.8934 8.79962 31.8859C8.84675 31.8835 8.90599 31.8807 8.97933 31.8776C9.00981 31.8763 9.03828 31.8788 9.06465 31.8848C9.39233 31.884 9.36453 31.8883 9.22486 31.8926C9.18939 31.8937 9.14666 31.8947 9.10075 31.8957C9.21857 31.9409 9.28339 32.0661 9.27367 32.2412C9.22067 33.1913 9.27493 34.142 9.254 35.0924C9.24528 35.4879 9.55694 35.7836 9.95077 35.7837C10.4813 35.7839 11.0117 35.7834 11.5422 35.783C12.2023 35.7823 12.8623 35.7817 13.5224 35.7824C16.546 35.7853 19.5696 35.7928 22.5931 35.7925C24.7085 35.7924 26.8239 35.7797 28.9392 35.7777C30.1741 35.7766 31.4089 35.7777 32.6438 35.7788C33.5846 35.7797 34.5255 35.7806 35.4662 35.7804C35.8797 35.7804 36.1705 35.5056 36.1732 35.0965C36.1792 34.1545 36.1758 33.2124 36.1703 32.2704C36.1685 31.9635 36.063 31.8673 36.3765 31.8718C37.361 31.8859 38.2625 31.9155 39.2462 31.889C39.7934 31.8744 39.9283 31.6945 39.952 31.1491C39.9731 30.6622 39.9489 30.1734 39.9488 29.6854C39.9475 25.1966 39.9462 20.7078 39.9466 16.219C39.947 12.6383 39.9496 9.05767 39.9517 5.47704C39.9519 5.04954 39.6959 4.78023 39.2783 4.77981C36.0064 4.77671 35.7114 4.77356 32.4396 4.77252C28.7651 4.7713 25.0907 4.77218 21.4162 4.77218V4.77742C20.8338 4.77742 20.2514 4.77725 19.6689 4.77746C16.3114 4.7783 16.4338 4.77855 13.0763 4.78048C10.9952 4.78166 9.37534 4.78237 7.29434 4.7895C6.97618 4.79059 6.65803 4.78719 6.33987 4.7838C5.69916 4.77692 5.05841 4.77004 4.41765 4.7999C4.14373 4.81268 4.05128 4.70979 4.04029 4.43034C4.03195 4.21646 4.02696 4.00224 4.0283 3.78824C4.04046 1.95587 4.05526 2.6812 4.06713 0.848827C4.07052 0.321992 3.78478 0.0445079 3.26658 0.0419922H3.25237ZM38.293 6.10359C38.3396 6.10219 38.3798 6.11389 38.4142 6.13769C38.1275 6.12839 37.8742 6.11599 38.293 6.10359ZM4.04415 30.13C4.04851 27.5005 4.05635 24.871 4.05643 22.2416C4.05664 18.9101 4.04939 15.5786 4.0478 12.247C4.047 10.4741 4.05157 8.7012 4.053 6.92832C4.05308 6.76585 4.04616 6.60338 4.04545 6.4409C4.04411 6.16916 4.11098 6.09235 4.38776 6.08874C4.89295 6.08208 5.39828 6.08526 5.9036 6.08707C7.51375 6.09273 8.66264 6.1038 10.2727 6.10468C11.446 6.10539 12.6193 6.08828 13.7926 6.08799C17.2868 6.08715 17.301 6.0918 20.7953 6.09227C22.064 6.09247 23.3329 6.09159 24.6017 6.09071C26.3047 6.08954 28.0078 6.08841 29.7109 6.08971C32.6186 6.09201 35.5261 6.10212 38.4338 6.10514C38.5429 6.14568 38.5865 6.24392 38.5874 6.38501C38.5906 6.83038 38.5898 7.27583 38.5901 7.7212C38.5916 9.77688 38.5949 11.8325 38.5936 13.8881C38.5919 16.663 38.5848 19.4379 38.5831 22.2128C38.5815 24.7651 38.5745 27.3174 38.5901 29.8697C38.5946 30.6091 37.4054 30.5939 36.6522 30.5787C36.5296 30.5762 36.4186 30.5737 36.3261 30.5745C34.8189 30.5873 35.1563 30.5611 33.6489 30.5608C30.7968 30.5601 27.9447 30.5672 25.0925 30.5696C22.9855 30.5714 20.8785 30.571 18.7715 30.5715C18.5831 30.5716 18.3949 30.5715 18.2066 30.5715C16.6306 30.5718 15.0548 30.5723 13.4788 30.5718C9.21379 30.5705 11.5735 30.5673 7.30847 30.5684C6.37505 30.5686 5.44159 30.583 4.50813 30.5913C4.50386 30.5913 4.49962 30.5913 4.49543 30.5913C4.1626 30.5913 4.0436 30.4694 4.04415 30.13ZM31.8226 31.8801C32.0141 31.8296 32.1406 31.9979 32.1508 32.2712C32.1613 32.5552 32.2304 32.7838 32.5281 32.9058C32.9885 33.0945 33.5093 32.7576 33.4989 32.2617C33.4913 31.9016 33.5439 31.8563 33.8898 31.8777C34.1112 31.8913 34.3341 31.8853 34.5563 31.8833C34.7919 31.8812 34.8691 32.0141 34.8679 32.227C34.8645 32.8336 34.8603 33.4402 34.8638 34.0468C34.8656 34.3638 34.743 34.4948 34.4387 34.4861C33.2917 34.4536 32.1444 34.4681 30.9971 34.4695C28.7363 34.4723 26.4755 34.4628 24.2147 34.4588C23.7096 34.4578 23.2045 34.4586 22.6995 34.4586V34.4599C20.1987 34.4599 17.698 34.4594 15.1973 34.4601C13.8021 34.4605 12.4069 34.4624 11.0117 34.4642C10.6137 34.4648 10.5689 34.4127 10.5697 34.0306C10.571 33.4235 10.5632 32.8162 10.55 32.2092C10.5455 32.0039 10.6356 31.8948 10.8313 31.8941C10.9119 31.8937 10.9925 31.8957 11.073 31.8978C11.2654 31.9026 11.4578 31.9074 11.6508 31.8803C11.8067 31.8585 11.8436 32.0021 11.8847 32.1103C11.9112 32.1798 11.913 32.2618 11.9124 32.3381C11.9083 32.8213 12.2849 32.9616 12.6296 32.9589C12.9701 32.9564 13.2377 32.6215 13.2222 32.2548C13.21 31.9674 13.2917 31.8836 13.5682 31.8864C13.8837 31.8895 14.1987 31.9167 14.5152 31.8835C14.7055 31.8635 14.8236 32.0171 14.8048 32.21C14.7712 32.5547 14.9129 32.8381 15.3934 32.9701C15.6066 33.0287 15.9428 32.8247 16.0568 32.5629C16.1083 32.4446 16.1506 32.3264 16.1529 32.1936C16.157 31.9672 16.2888 31.886 16.5049 31.8827C16.6119 31.8812 16.7188 31.8856 16.8257 31.89C17.0171 31.8978 17.2087 31.9058 17.4019 31.8794C17.6313 31.848 17.6711 32.0254 17.6934 32.2129C17.7269 32.4938 17.7625 32.7715 18.0892 32.8991C18.6071 33.1015 19.0398 32.7486 19.0839 32.244C19.1119 31.9224 19.1492 31.8782 19.4667 31.8886C19.7145 31.8967 19.964 31.9025 20.2104 31.8812C20.4378 31.8616 20.5283 31.953 20.5288 32.168C20.5291 32.3322 20.5562 32.4882 20.642 32.6353C20.7547 32.8286 21.0487 33.0002 21.2542 32.9752C21.559 32.9381 21.7919 32.7322 21.8474 32.4505C21.9619 31.8707 21.9619 31.8722 22.5667 31.8864C22.6639 31.8886 22.7614 31.8864 22.8588 31.8843C22.9412 31.8824 23.0235 31.8806 23.1058 31.8814C23.4086 31.8845 23.5259 31.9832 23.4992 32.2838C23.4722 32.5877 23.5899 32.7739 23.851 32.8972C24.1017 33.0156 24.331 32.9672 24.5537 32.8214C24.6948 32.7289 24.7607 32.6039 24.7651 32.4352C24.7683 32.3165 24.7848 32.1968 24.8091 32.0804C24.835 31.9565 24.9221 31.892 25.0498 31.8906C25.3907 31.8869 25.7322 31.8719 26.0723 31.8873C26.2771 31.8965 26.3164 32.063 26.3251 32.2412C26.3413 32.5729 26.4576 32.8331 26.8102 32.945C27.1749 33.0609 27.5813 32.8091 27.6197 32.4268C27.6323 32.3002 27.6028 32.1662 27.6686 32.0485C27.7445 31.9126 27.8732 31.8812 28.0194 31.8822C28.3017 31.8841 28.5841 31.8794 28.8665 31.8787C29.1081 31.8782 29.2376 31.9986 29.2333 32.2303C29.2225 32.8009 29.7836 33.1664 30.3007 32.8594C30.4971 32.7429 30.5621 32.532 30.5833 32.3109C30.6221 31.9058 30.6238 31.9222 31.0055 31.8894C31.1168 31.8798 31.2272 31.8887 31.3377 31.8976C31.4144 31.9038 31.4912 31.91 31.5685 31.91C31.6525 31.91 31.737 31.9027 31.8226 31.8801ZM8.99132 31.9036C8.92402 31.9043 8.86029 31.9049 8.79962 31.9056C8.42558 31.9508 8.82239 31.9437 9.10075 31.9291C9.08922 31.9185 9.07719 31.9098 9.06465 31.903C9.04193 31.9032 9.01752 31.9034 8.99132 31.9036Z" fill="white"/>
</mask>
<g mask="url(#mask0)">
<path fill-rule="evenodd" clip-rule="evenodd" d="M3.25237 0.0419922C3.24813 0.0419922 3.24386 0.0420341 3.23958 0.042076C2.39262 0.053271 1.54524 0.0712165 0.698825 0.0510069C0.399118 0.0437951 0.22851 0.182495 0.0919063 0.394864C-0.044404 0.606856 -0.0179051 0.85281 0.0981956 1.0573C0.216057 1.26497 0.378321 1.41646 0.675009 1.40032C1.24721 1.36912 1.82222 1.38665 2.39606 1.38841C2.67648 1.38933 2.73467 1.45067 2.73736 1.74132C2.74197 2.23797 2.74381 2.73465 2.7436 3.2313C2.74155 8.45629 2.73857 11.1236 2.73639 16.3485C2.73534 18.7555 2.73606 21.1624 2.73501 23.5692C2.73396 26.1216 2.73015 28.6739 2.73073 31.2263C2.73124 33.2216 2.73752 32.4915 2.73929 34.4868C2.74042 35.6774 2.73191 36.8682 2.73996 38.0588C2.74293 38.4972 3.01069 38.764 3.39476 38.7567C3.81589 38.7487 4.05635 38.4752 4.05375 38.017C4.04897 37.1607 4.04683 36.3045 4.04595 35.4482C4.04394 33.4534 4.04214 34.184 4.04386 32.1893C4.04398 31.9956 4.12243 31.8572 4.35237 31.8724C4.9083 31.9092 5.46486 31.896 6.02155 31.8944C7.99237 31.8889 7.02298 31.8934 8.79962 31.8859C8.84675 31.8835 8.90599 31.8807 8.97933 31.8776C9.00981 31.8763 9.03828 31.8788 9.06465 31.8848C9.39233 31.884 9.36453 31.8883 9.22486 31.8926C9.18939 31.8937 9.14666 31.8947 9.10075 31.8957C9.21857 31.9409 9.28339 32.0661 9.27367 32.2412C9.22067 33.1913 9.27493 34.142 9.254 35.0924C9.24528 35.4879 9.55694 35.7836 9.95077 35.7837C10.4813 35.7839 11.0117 35.7834 11.5422 35.783C12.2023 35.7823 12.8623 35.7817 13.5224 35.7824C16.546 35.7853 19.5696 35.7928 22.5931 35.7925C24.7085 35.7924 26.8239 35.7797 28.9392 35.7777C30.1741 35.7766 31.4089 35.7777 32.6438 35.7788C33.5846 35.7797 34.5255 35.7806 35.4662 35.7804C35.8797 35.7804 36.1705 35.5056 36.1732 35.0965C36.1792 34.1545 36.1758 33.2124 36.1703 32.2704C36.1685 31.9635 36.063 31.8673 36.3765 31.8718C37.361 31.8859 38.2625 31.9155 39.2462 31.889C39.7934 31.8744 39.9283 31.6945 39.952 31.1491C39.9731 30.6622 39.9489 30.1734 39.9488 29.6854C39.9475 25.1966 39.9462 20.7078 39.9466 16.219C39.947 12.6383 39.9496 9.05767 39.9517 5.47704C39.9519 5.04954 39.6959 4.78023 39.2783 4.77981C36.0064 4.77671 35.7114 4.77356 32.4396 4.77252C28.7651 4.7713 25.0907 4.77218 21.4162 4.77218V4.77742C20.8338 4.77742 20.2514 4.77725 19.6689 4.77746C16.3114 4.7783 16.4338 4.77855 13.0763 4.78048C10.9952 4.78166 9.37534 4.78237 7.29434 4.7895C6.97618 4.79059 6.65803 4.78719 6.33987 4.7838C5.69916 4.77692 5.05841 4.77004 4.41765 4.7999C4.14373 4.81268 4.05128 4.70979 4.04029 4.43034C4.03195 4.21646 4.02696 4.00224 4.0283 3.78824C4.04046 1.95587 4.05526 2.6812 4.06713 0.848827C4.07052 0.321992 3.78478 0.0445079 3.26658 0.0419922H3.25237ZM38.293 6.10359C38.3396 6.10219 38.3798 6.11389 38.4142 6.13769C38.1275 6.12839 37.8742 6.11599 38.293 6.10359ZM4.04415 30.13C4.04851 27.5005 4.05635 24.871 4.05643 22.2416C4.05664 18.9101 4.04939 15.5786 4.0478 12.247C4.047 10.4741 4.05157 8.7012 4.053 6.92832C4.05308 6.76585 4.04616 6.60338 4.04545 6.4409C4.04411 6.16916 4.11098 6.09235 4.38776 6.08874C4.89295 6.08208 5.39828 6.08526 5.9036 6.08707C7.51375 6.09273 8.66264 6.1038 10.2727 6.10468C11.446 6.10539 12.6193 6.08828 13.7926 6.08799C17.2868 6.08715 17.301 6.0918 20.7953 6.09227C22.064 6.09247 23.3329 6.09159 24.6017 6.09071C26.3047 6.08954 28.0078 6.08841 29.7109 6.08971C32.6186 6.09201 35.5261 6.10212 38.4338 6.10514C38.5429 6.14568 38.5865 6.24392 38.5874 6.38501C38.5906 6.83038 38.5898 7.27583 38.5901 7.7212C38.5916 9.77688 38.5949 11.8325 38.5936 13.8881C38.5919 16.663 38.5848 19.4379 38.5831 22.2128C38.5815 24.7651 38.5745 27.3174 38.5901 29.8697C38.5946 30.6091 37.4054 30.5939 36.6522 30.5787C36.5296 30.5762 36.4186 30.5737 36.3261 30.5745C34.8189 30.5873 35.1563 30.5611 33.6489 30.5608C30.7968 30.5601 27.9447 30.5672 25.0925 30.5696C22.9855 30.5714 20.8785 30.571 18.7715 30.5715C18.5831 30.5716 18.3949 30.5715 18.2066 30.5715C16.6306 30.5718 15.0548 30.5723 13.4788 30.5718C9.21379 30.5705 11.5735 30.5673 7.30847 30.5684C6.37505 30.5686 5.44159 30.583 4.50813 30.5913C4.50386 30.5913 4.49962 30.5913 4.49543 30.5913C4.1626 30.5913 4.0436 30.4694 4.04415 30.13ZM31.8226 31.8801C32.0141 31.8296 32.1406 31.9979 32.1508 32.2712C32.1613 32.5552 32.2304 32.7838 32.5281 32.9058C32.9885 33.0945 33.5093 32.7576 33.4989 32.2617C33.4913 31.9016 33.5439 31.8563 33.8898 31.8777C34.1112 31.8913 34.3341 31.8853 34.5563 31.8833C34.7919 31.8812 34.8691 32.0141 34.8679 32.227C34.8645 32.8336 34.8603 33.4402 34.8638 34.0468C34.8656 34.3638 34.743 34.4948 34.4387 34.4861C33.2917 34.4536 32.1444 34.4681 30.9971 34.4695C28.7363 34.4723 26.4755 34.4628 24.2147 34.4588C23.7096 34.4578 23.2045 34.4586 22.6995 34.4586V34.4599C20.1987 34.4599 17.698 34.4594 15.1973 34.4601C13.8021 34.4605 12.4069 34.4624 11.0117 34.4642C10.6137 34.4648 10.5689 34.4127 10.5697 34.0306C10.571 33.4235 10.5632 32.8162 10.55 32.2092C10.5455 32.0039 10.6356 31.8948 10.8313 31.8941C10.9119 31.8937 10.9925 31.8957 11.073 31.8978C11.2654 31.9026 11.4578 31.9074 11.6508 31.8803C11.8067 31.8585 11.8436 32.0021 11.8847 32.1103C11.9112 32.1798 11.913 32.2618 11.9124 32.3381C11.9083 32.8213 12.2849 32.9616 12.6296 32.9589C12.9701 32.9564 13.2377 32.6215 13.2222 32.2548C13.21 31.9674 13.2917 31.8836 13.5682 31.8864C13.8837 31.8895 14.1987 31.9167 14.5152 31.8835C14.7055 31.8635 14.8236 32.0171 14.8048 32.21C14.7712 32.5547 14.9129 32.8381 15.3934 32.9701C15.6066 33.0287 15.9428 32.8247 16.0568 32.5629C16.1083 32.4446 16.1506 32.3264 16.1529 32.1936C16.157 31.9672 16.2888 31.886 16.5049 31.8827C16.6119 31.8812 16.7188 31.8856 16.8257 31.89C17.0171 31.8978 17.2087 31.9058 17.4019 31.8794C17.6313 31.848 17.6711 32.0254 17.6934 32.2129C17.7269 32.4938 17.7625 32.7715 18.0892 32.8991C18.6071 33.1015 19.0398 32.7486 19.0839 32.244C19.1119 31.9224 19.1492 31.8782 19.4667 31.8886C19.7145 31.8967 19.964 31.9025 20.2104 31.8812C20.4378 31.8616 20.5283 31.953 20.5288 32.168C20.5291 32.3322 20.5562 32.4882 20.642 32.6353C20.7547 32.8286 21.0487 33.0002 21.2542 32.9752C21.559 32.9381 21.7919 32.7322 21.8474 32.4505C21.9619 31.8707 21.9619 31.8722 22.5667 31.8864C22.6639 31.8886 22.7614 31.8864 22.8588 31.8843C22.9412 31.8824 23.0235 31.8806 23.1058 31.8814C23.4086 31.8845 23.5259 31.9832 23.4992 32.2838C23.4722 32.5877 23.5899 32.7739 23.851 32.8972C24.1017 33.0156 24.331 32.9672 24.5537 32.8214C24.6948 32.7289 24.7607 32.6039 24.7651 32.4352C24.7683 32.3165 24.7848 32.1968 24.8091 32.0804C24.835 31.9565 24.9221 31.892 25.0498 31.8906C25.3907 31.8869 25.7322 31.8719 26.0723 31.8873C26.2771 31.8965 26.3164 32.063 26.3251 32.2412C26.3413 32.5729 26.4576 32.8331 26.8102 32.945C27.1749 33.0609 27.5813 32.8091 27.6197 32.4268C27.6323 32.3002 27.6028 32.1662 27.6686 32.0485C27.7445 31.9126 27.8732 31.8812 28.0194 31.8822C28.3017 31.8841 28.5841 31.8794 28.8665 31.8787C29.1081 31.8782 29.2376 31.9986 29.2333 32.2303C29.2225 32.8009 29.7836 33.1664 30.3007 32.8594C30.4971 32.7429 30.5621 32.532 30.5833 32.3109C30.6221 31.9058 30.6238 31.9222 31.0055 31.8894C31.1168 31.8798 31.2272 31.8887 31.3377 31.8976C31.4144 31.9038 31.4912 31.91 31.5685 31.91C31.6525 31.91 31.737 31.9027 31.8226 31.8801ZM8.99132 31.9036C8.92402 31.9043 8.86029 31.9049 8.79962 31.9056C8.42558 31.9508 8.82239 31.9437 9.10075 31.9291C9.08922 31.9185 9.07719 31.9098 9.06465 31.903C9.04193 31.9032 9.01752 31.9034 8.99132 31.9036Z" fill="url(#paint0_linear)"/>
</g>
<mask id="mask1" mask-type="alpha" maskUnits="userSpaceOnUse" x="5" y="8" width="8" height="19">
<path fill-rule="evenodd" clip-rule="evenodd" d="M10.6259 8.60434C10.6003 8.60493 10.5746 8.60627 10.5489 8.60635C9.43582 8.60992 8.78396 8.61633 7.67092 8.61516C7.29109 8.61474 6.97247 8.93289 6.98417 9.31734C6.98832 9.45394 6.98794 9.59105 6.98157 9.72761C6.95612 10.2734 6.95494 10.2734 6.42496 10.3079C6.15381 10.3255 5.85834 10.5418 5.82144 10.7497C5.75088 11.1475 5.89092 11.4378 6.21452 11.579C6.3627 11.6437 6.51612 11.6388 6.6692 11.6258C6.89016 11.6071 6.98714 11.7071 6.98534 11.9227C6.9827 12.2395 6.97884 12.5564 6.98396 12.8731C6.99369 13.4816 6.99616 13.4816 6.39251 13.5163C6.12111 13.5318 5.86341 13.7703 5.82199 14.044C5.77016 14.3865 5.93469 14.7052 6.22937 14.7851C6.36652 14.8224 6.51977 14.8267 6.66228 14.8122C6.91088 14.7867 6.98471 14.9131 6.98408 15.1277C6.98308 15.4359 6.97595 15.7442 6.98153 16.0523C6.99213 16.6425 6.99507 16.6502 6.42178 16.6498C6.16798 16.6497 5.97691 16.759 5.87935 16.9674C5.77394 17.1924 5.76257 17.436 5.91075 17.6734C6.07922 17.9432 6.33964 17.9182 6.59339 17.9279C6.92593 17.9406 6.97197 17.9819 6.97788 18.3207C6.98459 18.7058 6.98555 19.0911 6.99021 19.4763C6.99394 19.7859 6.93104 19.8457 6.61369 19.8339C6.54555 19.8314 6.47624 19.83 6.40895 19.8389C5.96073 19.8979 5.78752 20.1646 5.83507 20.7176C5.85524 20.9519 6.23582 21.1863 6.55364 21.1601C6.59628 21.1565 6.63901 21.1535 6.68148 21.1484C6.88941 21.1232 6.98454 21.2134 6.98115 21.4242C6.97549 21.7752 6.97431 22.1265 6.97767 22.4775C6.9827 23.0083 6.98505 23.0081 6.46995 23.0327C6.43582 23.0344 6.40161 23.0378 6.36782 23.043C6.02366 23.0945 5.79335 23.3743 5.80681 23.7238C5.82073 24.0827 6.03167 24.296 6.40534 24.3254C6.49909 24.3329 6.59473 24.3444 6.68719 24.3337C6.88677 24.3109 6.97909 24.3995 6.97972 24.5917C6.98048 24.8226 6.9718 25.0536 6.9741 25.2845C6.9788 25.75 7.28408 26.0477 7.74656 26.0466C8.32895 26.0454 8.91134 26.0464 9.49364 26.0464C9.49369 26.052 9.49369 26.0576 9.49369 26.0632C10.1102 26.0632 10.2653 26.0607 10.8818 26.0643C11.1516 26.0659 11.3484 25.9666 11.5021 25.7332C11.642 25.5208 11.638 25.3031 11.6295 25.0696C11.6005 24.2622 11.6969 24.2908 12.2709 24.3163C12.6101 24.3315 12.8527 24.0131 12.8528 23.6345C12.8528 23.318 12.6006 23.0583 12.27 23.0376C12.1419 23.0296 12.0134 23.0256 11.8851 23.023C11.7012 23.0192 11.622 22.912 11.6203 22.7437C11.6159 22.3076 11.6187 21.8714 11.6175 21.4352C11.617 21.2582 11.6977 21.1611 11.8802 21.1618C11.9571 21.1622 12.0341 21.1684 12.1109 21.1673C12.6141 21.1601 12.9555 20.7591 12.8439 20.308C12.7639 19.9847 12.508 19.8265 12.0889 19.841C11.6983 19.8547 11.6079 19.7671 11.6327 19.386C11.6511 19.1031 11.6414 18.8214 11.6224 18.5391C11.5896 18.0513 11.6683 17.965 12.1559 17.9401C12.4649 17.9243 12.6983 17.7759 12.8273 17.5012C12.9336 17.2749 12.8177 16.9507 12.5924 16.7646C12.4275 16.6284 12.2263 16.645 12.0296 16.6479C11.7022 16.6528 11.6217 16.5615 11.6304 16.2382C11.6384 15.9387 11.641 15.6381 11.6236 15.3393C11.5982 14.9057 11.7078 14.779 12.1451 14.819C12.6592 14.8661 13.004 14.3187 12.7799 13.8646C12.6464 13.5941 12.4355 13.4981 12.1319 13.5215C11.6996 13.5548 11.6226 13.4646 11.6234 13.0288C11.6239 12.7719 11.6149 12.5147 11.6259 12.2582C11.6471 11.7641 11.5291 11.6113 12.1989 11.6343C12.5578 11.6466 12.866 11.2783 12.856 10.9134C12.8474 10.597 12.5291 10.3145 12.1797 10.3131C11.6601 10.3109 11.612 10.2612 11.6204 9.73579C11.6211 9.69293 11.6223 9.65017 11.624 9.60736C11.6547 8.82602 11.4638 8.60333 10.7168 8.60333C10.6874 8.60333 10.6571 8.60367 10.6259 8.60434ZM8.32811 24.3292C8.32962 21.9914 8.32891 19.6536 8.32891 17.3159C8.33507 17.3159 8.34115 17.3158 8.34723 17.3158C8.34723 15.7315 8.35008 14.1472 8.34605 12.5629C8.34408 11.8011 8.32941 11.0393 8.32006 10.2775C8.31645 9.98451 8.38408 9.91092 8.67809 9.90924C9.2513 9.90602 9.36337 9.90501 9.93662 9.90656C10.2778 9.90748 10.3243 9.94715 10.3242 10.2925C10.3235 12.2103 10.3169 14.128 10.3143 16.0458C10.3125 17.3303 10.3121 18.6147 10.3147 19.8992C10.3176 21.3461 10.3243 22.7931 10.3301 24.2401C10.3317 24.6349 10.2429 24.7324 9.8596 24.7367C9.33725 24.7425 9.27608 24.7461 8.7536 24.7476C8.75146 24.7476 8.74937 24.7476 8.74723 24.7476C8.39993 24.7476 8.3279 24.6672 8.32811 24.3292Z" fill="white"/>
</mask>
<g mask="url(#mask1)">
<path fill-rule="evenodd" clip-rule="evenodd" d="M10.6259 8.60434C10.6003 8.60493 10.5746 8.60627 10.5489 8.60635C9.43582 8.60992 8.78396 8.61633 7.67092 8.61516C7.29109 8.61474 6.97247 8.93289 6.98417 9.31734C6.98832 9.45394 6.98794 9.59105 6.98157 9.72761C6.95612 10.2734 6.95494 10.2734 6.42496 10.3079C6.15381 10.3255 5.85834 10.5418 5.82144 10.7497C5.75088 11.1475 5.89092 11.4378 6.21452 11.579C6.3627 11.6437 6.51612 11.6388 6.6692 11.6258C6.89016 11.6071 6.98714 11.7071 6.98534 11.9227C6.9827 12.2395 6.97884 12.5564 6.98396 12.8731C6.99369 13.4816 6.99616 13.4816 6.39251 13.5163C6.12111 13.5318 5.86341 13.7703 5.82199 14.044C5.77016 14.3865 5.93469 14.7052 6.22937 14.7851C6.36652 14.8224 6.51977 14.8267 6.66228 14.8122C6.91088 14.7867 6.98471 14.9131 6.98408 15.1277C6.98308 15.4359 6.97595 15.7442 6.98153 16.0523C6.99213 16.6425 6.99507 16.6502 6.42178 16.6498C6.16798 16.6497 5.97691 16.759 5.87935 16.9674C5.77394 17.1924 5.76257 17.436 5.91075 17.6734C6.07922 17.9432 6.33964 17.9182 6.59339 17.9279C6.92593 17.9406 6.97197 17.9819 6.97788 18.3207C6.98459 18.7058 6.98555 19.0911 6.99021 19.4763C6.99394 19.7859 6.93104 19.8457 6.61369 19.8339C6.54555 19.8314 6.47624 19.83 6.40895 19.8389C5.96073 19.8979 5.78752 20.1646 5.83507 20.7176C5.85524 20.9519 6.23582 21.1863 6.55364 21.1601C6.59628 21.1565 6.63901 21.1535 6.68148 21.1484C6.88941 21.1232 6.98454 21.2134 6.98115 21.4242C6.97549 21.7752 6.97431 22.1265 6.97767 22.4775C6.9827 23.0083 6.98505 23.0081 6.46995 23.0327C6.43582 23.0344 6.40161 23.0378 6.36782 23.043C6.02366 23.0945 5.79335 23.3743 5.80681 23.7238C5.82073 24.0827 6.03167 24.296 6.40534 24.3254C6.49909 24.3329 6.59473 24.3444 6.68719 24.3337C6.88677 24.3109 6.97909 24.3995 6.97972 24.5917C6.98048 24.8226 6.9718 25.0536 6.9741 25.2845C6.9788 25.75 7.28408 26.0477 7.74656 26.0466C8.32895 26.0454 8.91134 26.0464 9.49364 26.0464C9.49369 26.052 9.49369 26.0576 9.49369 26.0632C10.1102 26.0632 10.2653 26.0607 10.8818 26.0643C11.1516 26.0659 11.3484 25.9666 11.5021 25.7332C11.642 25.5208 11.638 25.3031 11.6295 25.0696C11.6005 24.2622 11.6969 24.2908 12.2709 24.3163C12.6101 24.3315 12.8527 24.0131 12.8528 23.6345C12.8528 23.318 12.6006 23.0583 12.27 23.0376C12.1419 23.0296 12.0134 23.0256 11.8851 23.023C11.7012 23.0192 11.622 22.912 11.6203 22.7437C11.6159 22.3076 11.6187 21.8714 11.6175 21.4352C11.617 21.2582 11.6977 21.1611 11.8802 21.1618C11.9571 21.1622 12.0341 21.1684 12.1109 21.1673C12.6141 21.1601 12.9555 20.7591 12.8439 20.308C12.7639 19.9847 12.508 19.8265 12.0889 19.841C11.6983 19.8547 11.6079 19.7671 11.6327 19.386C11.6511 19.1031 11.6414 18.8214 11.6224 18.5391C11.5896 18.0513 11.6683 17.965 12.1559 17.9401C12.4649 17.9243 12.6983 17.7759 12.8273 17.5012C12.9336 17.2749 12.8177 16.9507 12.5924 16.7646C12.4275 16.6284 12.2263 16.645 12.0296 16.6479C11.7022 16.6528 11.6217 16.5615 11.6304 16.2382C11.6384 15.9387 11.641 15.6381 11.6236 15.3393C11.5982 14.9057 11.7078 14.779 12.1451 14.819C12.6592 14.8661 13.004 14.3187 12.7799 13.8646C12.6464 13.5941 12.4355 13.4981 12.1319 13.5215C11.6996 13.5548 11.6226 13.4646 11.6234 13.0288C11.6239 12.7719 11.6149 12.5147 11.6259 12.2582C11.6471 11.7641 11.5291 11.6113 12.1989 11.6343C12.5578 11.6466 12.866 11.2783 12.856 10.9134C12.8474 10.597 12.5291 10.3145 12.1797 10.3131C11.6601 10.3109 11.612 10.2612 11.6204 9.73579C11.6211 9.69293 11.6223 9.65017 11.624 9.60736C11.6547 8.82602 11.4638 8.60333 10.7168 8.60333C10.6874 8.60333 10.6571 8.60367 10.6259 8.60434ZM8.32811 24.3292C8.32962 21.9914 8.32891 19.6536 8.32891 17.3159C8.33507 17.3159 8.34115 17.3158 8.34723 17.3158C8.34723 15.7315 8.35008 14.1472 8.34605 12.5629C8.34408 11.8011 8.32941 11.0393 8.32006 10.2775C8.31645 9.98451 8.38408 9.91092 8.67809 9.90924C9.2513 9.90602 9.36337 9.90501 9.93662 9.90656C10.2778 9.90748 10.3243 9.94715 10.3242 10.2925C10.3235 12.2103 10.3169 14.128 10.3143 16.0458C10.3125 17.3303 10.3121 18.6147 10.3147 19.8992C10.3176 21.3461 10.3243 22.7931 10.3301 24.2401C10.3317 24.6349 10.2429 24.7324 9.8596 24.7367C9.33725 24.7425 9.27608 24.7461 8.7536 24.7476C8.75146 24.7476 8.74937 24.7476 8.74723 24.7476C8.39993 24.7476 8.3279 24.6672 8.32811 24.3292Z" fill="url(#paint1_linear)"/>
</g>
<mask id="mask2" mask-type="alpha" maskUnits="userSpaceOnUse" x="21" y="9" width="14" height="14">
<path fill-rule="evenodd" clip-rule="evenodd" d="M21.5699 15.4861C21.5052 19.2805 24.5696 22.1926 28.1695 22.1849C31.7073 22.1523 34.7068 19.2718 34.688 15.5449C34.6696 11.9201 31.6124 9.07672 28.2704 9.04753C28.2492 9.04733 28.2282 9.04724 28.2071 9.04724C24.4304 9.04733 21.6291 12.0095 21.5699 15.4861ZM32.1226 18.6762C31.2219 17.7401 30.274 16.8507 29.369 15.9199C28.2672 14.7868 27.1217 13.698 26.0222 12.563C25.7607 12.2931 25.4841 12.0376 25.2143 11.7756C24.9619 11.5306 24.9802 11.438 25.2741 11.2577C25.7552 10.9627 26.257 10.7011 26.7959 10.5488C27.3283 10.3984 27.8829 10.3405 28.4443 10.3803C29.1358 10.4293 29.7963 10.5935 30.4018 10.9243C31.0748 11.292 31.6885 11.7208 32.1818 12.3464C32.5984 12.8746 32.9125 13.4384 33.1374 14.0525C33.3315 14.5824 33.3866 15.149 33.348 15.843C33.3829 16.437 33.1677 17.1004 32.9057 17.7569C32.7735 18.0884 32.5358 18.351 32.3687 18.6586C32.3355 18.7198 32.2962 18.749 32.2527 18.749C32.2125 18.749 32.1686 18.7241 32.1226 18.6762ZM26.666 20.6156C25.8008 20.3963 25.0497 19.9395 24.4441 19.2658C24.0842 18.8656 23.7175 18.4695 23.4724 17.9849C23.1007 17.2499 22.8895 16.4729 22.9077 15.6434C22.9139 15.1368 22.9548 14.6356 23.1022 14.147C23.2666 13.602 23.5232 13.1049 23.8604 12.649C23.9802 12.4872 24.0731 12.468 24.2318 12.6539C24.5301 13.0033 24.8768 13.3111 25.2008 13.6386C26.066 14.513 26.927 15.3916 27.7951 16.2632C28.8869 17.3597 29.9838 18.4512 31.0793 19.5441C31.232 19.6963 31.2227 19.8578 31.0386 19.963C30.4519 20.2982 29.8425 20.5439 29.1729 20.7069C28.8321 20.7898 28.4975 20.8254 28.1672 20.8254C27.6595 20.8254 27.1617 20.7413 26.666 20.6156Z" fill="white"/>
</mask>
<g mask="url(#mask2)">
<path fill-rule="evenodd" clip-rule="evenodd" d="M21.5699 15.4861C21.5052 19.2805 24.5696 22.1926 28.1695 22.1849C31.7073 22.1523 34.7068 19.2718 34.688 15.5449C34.6696 11.9201 31.6124 9.07672 28.2704 9.04753C28.2492 9.04733 28.2282 9.04724 28.2071 9.04724C24.4304 9.04733 21.6291 12.0095 21.5699 15.4861ZM32.1226 18.6762C31.2219 17.7401 30.274 16.8507 29.369 15.9199C28.2672 14.7868 27.1217 13.698 26.0222 12.563C25.7607 12.2931 25.4841 12.0376 25.2143 11.7756C24.9619 11.5306 24.9802 11.438 25.2741 11.2577C25.7552 10.9627 26.257 10.7011 26.7959 10.5488C27.3283 10.3984 27.8829 10.3405 28.4443 10.3803C29.1358 10.4293 29.7963 10.5935 30.4018 10.9243C31.0748 11.292 31.6885 11.7208 32.1818 12.3464C32.5984 12.8746 32.9125 13.4384 33.1374 14.0525C33.3315 14.5824 33.3866 15.149 33.348 15.843C33.3829 16.437 33.1677 17.1004 32.9057 17.7569C32.7735 18.0884 32.5358 18.351 32.3687 18.6586C32.3355 18.7198 32.2962 18.749 32.2527 18.749C32.2125 18.749 32.1686 18.7241 32.1226 18.6762ZM26.666 20.6156C25.8008 20.3963 25.0497 19.9395 24.4441 19.2658C24.0842 18.8656 23.7175 18.4695 23.4724 17.9849C23.1007 17.2499 22.8895 16.4729 22.9077 15.6434C22.9139 15.1368 22.9548 14.6356 23.1022 14.147C23.2666 13.602 23.5232 13.1049 23.8604 12.649C23.9802 12.4872 24.0731 12.468 24.2318 12.6539C24.5301 13.0033 24.8768 13.3111 25.2008 13.6386C26.066 14.513 26.927 15.3916 27.7951 16.2632C28.8869 17.3597 29.9838 18.4512 31.0793 19.5441C31.232 19.6963 31.2227 19.8578 31.0386 19.963C30.4519 20.2982 29.8425 20.5439 29.1729 20.7069C28.8321 20.7898 28.4975 20.8254 28.1672 20.8254C27.6595 20.8254 27.1617 20.7413 26.666 20.6156Z" fill="url(#paint2_linear)"/>
</g>
<mask id="mask3" mask-type="alpha" maskUnits="userSpaceOnUse" x="29" y="25" width="3" height="3">
<path fill-rule="evenodd" clip-rule="evenodd" d="M29.7073 26.1174C29.6217 26.466 29.6533 26.8101 29.7129 27.1601C29.7653 27.4677 29.9981 27.5605 30.2334 27.6203C30.4454 27.6743 30.6431 27.5721 30.8134 27.4276C31.0716 27.2086 31.1224 26.9297 31.0763 26.6156C31.0763 26.5043 31.0779 26.393 31.076 26.2817C31.0698 25.9267 30.8224 25.651 30.4787 25.6144C30.4112 25.6072 30.3497 25.6034 30.2933 25.6034C29.9481 25.6034 29.7987 25.7454 29.7073 26.1174Z" fill="white"/>
</mask>
<g mask="url(#mask3)">
<path fill-rule="evenodd" clip-rule="evenodd" d="M29.7073 26.1174C29.6217 26.466 29.6533 26.8101 29.7129 27.1601C29.7653 27.4677 29.9981 27.5605 30.2334 27.6203C30.4454 27.6743 30.6431 27.5721 30.8134 27.4276C31.0716 27.2086 31.1224 26.9297 31.0763 26.6156C31.0763 26.5043 31.0779 26.393 31.076 26.2817C31.0698 25.9267 30.8224 25.651 30.4787 25.6144C30.4112 25.6072 30.3497 25.6034 30.2933 25.6034C29.9481 25.6034 29.7987 25.7454 29.7073 26.1174Z" fill="url(#paint3_linear)"/>
</g>
<mask id="mask4" mask-type="alpha" maskUnits="userSpaceOnUse" x="21" y="25" width="3" height="3">
<path fill-rule="evenodd" clip-rule="evenodd" d="M22.2982 25.5623C21.8608 25.6104 21.6259 25.878 21.6232 26.3327C21.6221 26.52 21.635 26.7083 21.6206 26.8945C21.593 27.2524 21.8625 27.5766 22.2591 27.6435C22.5077 27.6854 22.8771 27.4209 22.9593 27.1492C23.0122 26.9744 23.0001 26.7936 23.0242 26.6163C23.0308 26.471 23.0349 26.3267 23.0018 26.1828C22.9179 25.8172 22.6465 25.5593 22.3529 25.5593C22.3348 25.5593 22.3165 25.5603 22.2982 25.5623Z" fill="white"/>
</mask>
<g mask="url(#mask4)">
<path fill-rule="evenodd" clip-rule="evenodd" d="M22.2982 25.5623C21.8608 25.6104 21.6259 25.878 21.6232 26.3327C21.6221 26.52 21.635 26.7083 21.6206 26.8945C21.593 27.2524 21.8625 27.5766 22.2591 27.6435C22.5077 27.6854 22.8771 27.4209 22.9593 27.1492C23.0122 26.9744 23.0001 26.7936 23.0242 26.6163C23.0308 26.471 23.0349 26.3267 23.0018 26.1828C22.9179 25.8172 22.6465 25.5593 22.3529 25.5593C22.3348 25.5593 22.3165 25.5603 22.2982 25.5623Z" fill="url(#paint4_linear)"/>
</g>
<mask id="mask5" mask-type="alpha" maskUnits="userSpaceOnUse" x="17" y="25" width="2" height="3">
<path fill-rule="evenodd" clip-rule="evenodd" d="M18.0263 25.6188C17.8549 25.6423 17.7469 25.7417 17.6888 25.9234C17.5707 26.2925 17.6247 26.6707 17.6024 27.0435C17.5896 27.2572 17.8924 27.5622 18.0931 27.6103C18.4053 27.685 18.5849 27.5943 18.7943 27.3273C18.9877 27.0807 18.9292 26.8098 18.9245 26.5887C18.9493 26.4207 18.9385 26.3034 18.9161 26.1839C18.8332 25.7425 18.6609 25.5963 18.3078 25.5963C18.2245 25.5963 18.131 25.6044 18.0263 25.6188Z" fill="white"/>
</mask>
<g mask="url(#mask5)">
<path fill-rule="evenodd" clip-rule="evenodd" d="M18.0263 25.6188C17.8549 25.6423 17.7469 25.7417 17.6888 25.9234C17.5707 26.2925 17.6247 26.6707 17.6024 27.0435C17.5896 27.2572 17.8924 27.5622 18.0931 27.6103C18.4053 27.685 18.5849 27.5943 18.7943 27.3273C18.9877 27.0807 18.9292 26.8098 18.9245 26.5887C18.9493 26.4207 18.9385 26.3034 18.9161 26.1839C18.8332 25.7425 18.6609 25.5963 18.3078 25.5963C18.2245 25.5963 18.131 25.6044 18.0263 25.6188Z" fill="url(#paint5_linear)"/>
</g>
<mask id="mask6" mask-type="alpha" maskUnits="userSpaceOnUse" x="33" y="25" width="3" height="3">
<path fill-rule="evenodd" clip-rule="evenodd" d="M34.315 25.5877C34.1145 25.6155 33.9193 25.6538 33.8261 25.9218C33.6972 26.2927 33.7297 26.6686 33.7372 27.0333C33.7427 27.3042 33.9341 27.5563 34.2635 27.6148C34.5401 27.6641 34.7278 27.5458 34.9087 27.345C35.0957 27.1373 35.0541 26.9016 35.0647 26.6662C35.0767 26.3673 35.0915 26.07 34.9063 25.8033C34.7874 25.6322 34.6228 25.5777 34.4505 25.5777C34.4056 25.5777 34.3603 25.5814 34.315 25.5877Z" fill="white"/>
</mask>
<g mask="url(#mask6)">
<path fill-rule="evenodd" clip-rule="evenodd" d="M34.315 25.5877C34.1145 25.6155 33.9193 25.6538 33.8261 25.9218C33.6972 26.2927 33.7297 26.6686 33.7372 27.0333C33.7427 27.3042 33.9341 27.5563 34.2635 27.6148C34.5401 27.6641 34.7278 27.5458 34.9087 27.345C35.0957 27.1373 35.0541 26.9016 35.0647 26.6662C35.0767 26.3673 35.0915 26.07 34.9063 25.8033C34.7874 25.6322 34.6228 25.5777 34.4505 25.5777C34.4056 25.5777 34.3603 25.5814 34.315 25.5877Z" fill="url(#paint6_linear)"/>
</g>
<mask id="mask7" mask-type="alpha" maskUnits="userSpaceOnUse" x="25" y="25" width="2" height="3">
<path fill-rule="evenodd" clip-rule="evenodd" d="M25.7064 25.9937C25.6265 26.2031 25.6746 26.4181 25.655 26.666C25.655 26.7585 25.6471 26.8875 25.6564 27.0153C25.684 27.3907 25.9761 27.6484 26.3444 27.63C26.6954 27.6125 26.9585 27.3039 26.9517 26.9377C26.9474 26.7078 26.9306 26.4788 26.9567 26.2467C26.9912 25.9415 26.7536 25.6715 26.4245 25.5998C26.3775 25.5896 26.331 25.5847 26.2855 25.5847C26.0285 25.5847 25.8026 25.7421 25.7064 25.9937Z" fill="white"/>
</mask>
<g mask="url(#mask7)">
<path fill-rule="evenodd" clip-rule="evenodd" d="M25.7064 25.9937C25.6265 26.2031 25.6746 26.4181 25.655 26.666C25.655 26.7585 25.6471 26.8875 25.6564 27.0153C25.684 27.3907 25.9761 27.6484 26.3444 27.63C26.6954 27.6125 26.9585 27.3039 26.9517 26.9377C26.9474 26.7078 26.9306 26.4788 26.9567 26.2467C26.9912 25.9415 26.7536 25.6715 26.4245 25.5998C26.3775 25.5896 26.331 25.5847 26.2855 25.5847C26.0285 25.5847 25.8026 25.7421 25.7064 25.9937Z" fill="url(#paint7_linear)"/>
</g>
<defs>
<linearGradient id="paint0_linear" x1="-1.49483e-06" y1="38.7569" x2="39.9606" y2="38.7569" gradientUnits="userSpaceOnUse">
<stop stop-color="#8700FF"/>
<stop offset="1" stop-color="#00C8FF"/>
</linearGradient>
<linearGradient id="paint1_linear" x1="5.79981" y1="26.0644" x2="12.8671" y2="26.0644" gradientUnits="userSpaceOnUse">
<stop stop-color="#8700FF"/>
<stop offset="1" stop-color="#00C8FF"/>
</linearGradient>
<linearGradient id="paint2_linear" x1="21.5689" y1="22.1849" x2="34.6881" y2="22.1849" gradientUnits="userSpaceOnUse">
<stop stop-color="#8700FF"/>
<stop offset="1" stop-color="#00C8FF"/>
</linearGradient>
<linearGradient id="paint3_linear" x1="29.6548" y1="27.635" x2="31.0915" y2="27.635" gradientUnits="userSpaceOnUse">
<stop stop-color="#8700FF"/>
<stop offset="1" stop-color="#00C8FF"/>
</linearGradient>
<linearGradient id="paint4_linear" x1="21.6187" y1="27.6479" x2="23.0287" y2="27.6479" gradientUnits="userSpaceOnUse">
<stop stop-color="#8700FF"/>
<stop offset="1" stop-color="#00C8FF"/>
</linearGradient>
<linearGradient id="paint5_linear" x1="17.602" y1="27.6355" x2="18.9387" y2="27.6355" gradientUnits="userSpaceOnUse">
<stop stop-color="#8700FF"/>
<stop offset="1" stop-color="#00C8FF"/>
</linearGradient>
<linearGradient id="paint6_linear" x1="33.728" y1="27.626" x2="35.0711" y2="27.626" gradientUnits="userSpaceOnUse">
<stop stop-color="#8700FF"/>
<stop offset="1" stop-color="#00C8FF"/>
</linearGradient>
<linearGradient id="paint7_linear" x1="25.6518" y1="27.6309" x2="26.9601" y2="27.6309" gradientUnits="userSpaceOnUse">
<stop stop-color="#8700FF"/>
<stop offset="1" stop-color="#00C8FF"/>
</linearGradient>
</defs>
</svg>
