<svg width="28" height="40" viewBox="0 0 28 40" fill="none" xmlns="http://www.w3.org/2000/svg">
<mask id="mask0" mask-type="alpha" maskUnits="userSpaceOnUse" x="12" y="0" width="3" height="7">
<path fill-rule="evenodd" clip-rule="evenodd" d="M13.781 0.0435181C13.4018 0.0435615 13.0899 0.366862 13.0709 0.779588C13.0576 1.06671 13.0552 1.35835 13.053 1.64039C13.052 1.75544 13.0511 1.87053 13.0494 1.98554C13.0403 2.62584 13.0258 3.27683 13.0118 3.90641C13.0001 4.43236 12.988 4.97624 12.9791 5.51127C12.9718 5.94914 13.2909 6.27366 13.7378 6.28282L13.7453 6.28291C13.9021 6.28291 14.1008 6.18515 14.2516 6.03383C14.3967 5.88817 14.4764 5.71353 14.4757 5.54206C14.473 4.79774 14.4886 4.04061 14.5037 3.3084C14.5107 2.96995 14.5179 2.61998 14.5233 2.2757C14.5257 2.11366 14.5338 1.94858 14.5416 1.78888C14.5587 1.43983 14.5763 1.07891 14.5375 0.722606C14.4991 0.369555 14.3143 0.161651 13.9561 0.0683606C13.8999 0.0519871 13.8405 0.0435181 13.781 0.0435181H13.781Z" fill="white"/>
</mask>
<g mask="url(#mask0)">
<path fill-rule="evenodd" clip-rule="evenodd" d="M13.781 0.0435181C13.4018 0.0435615 13.0899 0.366862 13.0709 0.779588C13.0576 1.06671 13.0552 1.35835 13.053 1.64039C13.052 1.75544 13.0511 1.87053 13.0494 1.98554C13.0403 2.62584 13.0258 3.27683 13.0118 3.90641C13.0001 4.43236 12.988 4.97624 12.9791 5.51127C12.9718 5.94914 13.2909 6.27366 13.7378 6.28282L13.7453 6.28291C13.9021 6.28291 14.1008 6.18515 14.2516 6.03383C14.3967 5.88817 14.4764 5.71353 14.4757 5.54206C14.473 4.79774 14.4886 4.04061 14.5037 3.3084C14.5107 2.96995 14.5179 2.61998 14.5233 2.2757C14.5257 2.11366 14.5338 1.94858 14.5416 1.78888C14.5587 1.43983 14.5763 1.07891 14.5375 0.722606C14.4991 0.369555 14.3143 0.161651 13.9561 0.0683606C13.8999 0.0519871 13.8405 0.0435181 13.781 0.0435181H13.781Z" fill="url(#paint0_linear)"/>
</g>
<mask id="mask1" mask-type="alpha" maskUnits="userSpaceOnUse" x="18" y="3" width="6" height="6">
<path fill-rule="evenodd" clip-rule="evenodd" d="M22.2368 4.23327C22.028 4.41794 21.8262 4.61686 21.6311 4.80917C21.5577 4.88135 21.4846 4.95354 21.4108 5.0252C21.2438 5.18737 21.0771 5.34989 20.9104 5.51241C20.2858 6.12144 19.64 6.75128 18.9867 7.35154C18.8579 7.46997 18.722 7.6136 18.6904 7.78168C18.5859 8.1607 18.6997 8.4543 19.0288 8.65434C19.133 8.7177 19.2546 8.75119 19.3803 8.75119C19.5673 8.75119 19.7528 8.67992 19.9028 8.5505C20.1114 8.37047 20.3102 8.1746 20.5024 7.98524C20.6264 7.86302 20.7547 7.73664 20.8841 7.61603C21.4938 7.04774 22.1006 6.45616 22.6874 5.88405C22.9047 5.67215 23.1221 5.4602 23.3401 5.24895C23.5538 5.04174 23.6172 4.69516 23.4876 4.44266C23.3356 4.14654 23.1008 3.98346 22.8265 3.98346C22.6283 3.98346 22.4189 4.07219 22.2368 4.23327Z" fill="white"/>
</mask>
<g mask="url(#mask1)">
<path fill-rule="evenodd" clip-rule="evenodd" d="M22.2368 4.23327C22.028 4.41794 21.8262 4.61686 21.6311 4.80917C21.5577 4.88135 21.4846 4.95354 21.4108 5.0252C21.2438 5.18737 21.0771 5.34989 20.9104 5.51241C20.2858 6.12144 19.64 6.75128 18.9867 7.35154C18.8579 7.46997 18.722 7.6136 18.6904 7.78168C18.5859 8.1607 18.6997 8.4543 19.0288 8.65434C19.133 8.7177 19.2546 8.75119 19.3803 8.75119C19.5673 8.75119 19.7528 8.67992 19.9028 8.5505C20.1114 8.37047 20.3102 8.1746 20.5024 7.98524C20.6264 7.86302 20.7547 7.73664 20.8841 7.61603C21.4938 7.04774 22.1006 6.45616 22.6874 5.88405C22.9047 5.67215 23.1221 5.4602 23.3401 5.24895C23.5538 5.04174 23.6172 4.69516 23.4876 4.44266C23.3356 4.14654 23.1008 3.98346 22.8265 3.98346C22.6283 3.98346 22.4189 4.07219 22.2368 4.23327Z" fill="url(#paint1_linear)"/>
</g>
<mask id="mask2" mask-type="alpha" maskUnits="userSpaceOnUse" x="3" y="3" width="6" height="6">
<path fill-rule="evenodd" clip-rule="evenodd" d="M4.6488 3.64142C4.39711 3.64142 4.17523 3.76446 4.04007 3.97901C3.85922 4.26613 3.89119 4.60659 4.12346 4.86752C4.27525 5.03812 4.43946 5.21419 4.62543 5.40598C4.83195 5.61892 5.04289 5.83443 5.24689 6.04276C5.47842 6.2792 5.71768 6.52368 5.9516 6.76546C6.12554 6.94531 6.30065 7.13002 6.47004 7.30861C6.78747 7.64342 7.11573 7.98965 7.4504 8.31873C7.59173 8.45771 7.77418 8.53427 7.96411 8.53427C8.27004 8.53427 8.54031 8.34205 8.65279 8.04455C8.76693 7.7424 8.69345 7.46578 8.42821 7.1989C7.8901 6.6574 7.35234 6.09723 6.83229 5.55551C6.73379 5.45288 6.63525 5.35026 6.53666 5.24772C6.4002 5.1057 6.26335 4.95925 6.13093 4.81757C5.93605 4.60898 5.73449 4.39325 5.52971 4.18704C5.48923 4.14626 5.44928 4.10192 5.41062 4.05905C5.26521 3.89766 5.11494 3.7308 4.8759 3.67417C4.80154 3.65258 4.72445 3.64142 4.64888 3.64142H4.6488Z" fill="white"/>
</mask>
<g mask="url(#mask2)">
<path fill-rule="evenodd" clip-rule="evenodd" d="M4.6488 3.64142C4.39711 3.64142 4.17523 3.76446 4.04007 3.97901C3.85922 4.26613 3.89119 4.60659 4.12346 4.86752C4.27525 5.03812 4.43946 5.21419 4.62543 5.40598C4.83195 5.61892 5.04289 5.83443 5.24689 6.04276C5.47842 6.2792 5.71768 6.52368 5.9516 6.76546C6.12554 6.94531 6.30065 7.13002 6.47004 7.30861C6.78747 7.64342 7.11573 7.98965 7.4504 8.31873C7.59173 8.45771 7.77418 8.53427 7.96411 8.53427C8.27004 8.53427 8.54031 8.34205 8.65279 8.04455C8.76693 7.7424 8.69345 7.46578 8.42821 7.1989C7.8901 6.6574 7.35234 6.09723 6.83229 5.55551C6.73379 5.45288 6.63525 5.35026 6.53666 5.24772C6.4002 5.1057 6.26335 4.95925 6.13093 4.81757C5.93605 4.60898 5.73449 4.39325 5.52971 4.18704C5.48923 4.14626 5.44928 4.10192 5.41062 4.05905C5.26521 3.89766 5.11494 3.7308 4.8759 3.67417C4.80154 3.65258 4.72445 3.64142 4.64888 3.64142H4.6488Z" fill="url(#paint2_linear)"/>
</g>
<mask id="mask3" mask-type="alpha" maskUnits="userSpaceOnUse" x="20" y="13" width="8" height="2">
<path fill-rule="evenodd" clip-rule="evenodd" d="M21.88 13.0242C21.7615 13.0242 21.6559 13.0305 21.5572 13.0434C21.1784 13.0931 20.931 13.3682 20.9116 13.7614C20.8946 14.1074 21.1043 14.3851 21.459 14.486L21.4684 14.4883C21.5358 14.5041 21.6055 14.5205 21.6823 14.5213C22.5492 14.5301 23.3948 14.5421 24.1958 14.557C24.4553 14.5618 24.7192 14.5693 24.9744 14.5765C25.4076 14.5889 25.8555 14.6016 26.2963 14.6016C26.3205 14.6016 26.3447 14.6016 26.3688 14.6015C26.5875 14.6008 26.7837 14.5233 26.9212 14.3832C27.0516 14.2505 27.1218 14.0699 27.1189 13.8747C27.1123 13.4208 26.8192 13.1289 26.354 13.1129C26.3209 13.1117 26.2864 13.1112 26.2488 13.1112C26.1757 13.1112 26.1017 13.1134 26.03 13.1154C25.9591 13.1175 25.8858 13.1196 25.814 13.1196C25.7696 13.1196 25.7294 13.1188 25.6913 13.1172C24.8845 13.0825 24.0641 13.0735 23.2707 13.0648C23.0667 13.0626 22.8629 13.0604 22.6591 13.0577C22.538 13.0561 22.4145 13.0485 22.295 13.0412C22.1592 13.0328 22.0188 13.0242 21.8801 13.0242H21.88Z" fill="white"/>
</mask>
<g mask="url(#mask3)">
<path fill-rule="evenodd" clip-rule="evenodd" d="M21.88 13.0242C21.7615 13.0242 21.6559 13.0305 21.5572 13.0434C21.1784 13.0931 20.931 13.3682 20.9116 13.7614C20.8946 14.1074 21.1043 14.3851 21.459 14.486L21.4684 14.4883C21.5358 14.5041 21.6055 14.5205 21.6823 14.5213C22.5492 14.5301 23.3948 14.5421 24.1958 14.557C24.4553 14.5618 24.7192 14.5693 24.9744 14.5765C25.4076 14.5889 25.8555 14.6016 26.2963 14.6016C26.3205 14.6016 26.3447 14.6016 26.3688 14.6015C26.5875 14.6008 26.7837 14.5233 26.9212 14.3832C27.0516 14.2505 27.1218 14.0699 27.1189 13.8747C27.1123 13.4208 26.8192 13.1289 26.354 13.1129C26.3209 13.1117 26.2864 13.1112 26.2488 13.1112C26.1757 13.1112 26.1017 13.1134 26.03 13.1154C25.9591 13.1175 25.8858 13.1196 25.814 13.1196C25.7696 13.1196 25.7294 13.1188 25.6913 13.1172C24.8845 13.0825 24.0641 13.0735 23.2707 13.0648C23.0667 13.0626 22.8629 13.0604 22.6591 13.0577C22.538 13.0561 22.4145 13.0485 22.295 13.0412C22.1592 13.0328 22.0188 13.0242 21.8801 13.0242H21.88Z" fill="url(#paint3_linear)"/>
</g>
<mask id="mask4" mask-type="alpha" maskUnits="userSpaceOnUse" x="0" y="12" width="7" height="3">
<path fill-rule="evenodd" clip-rule="evenodd" d="M0.949908 12.6236C0.81284 12.6236 0.692014 12.631 0.580527 12.6463C0.317248 12.6824 0.129626 12.8571 0.0379861 13.1514C-0.0464004 13.4224 0.00997306 13.6643 0.2055 13.8705C0.413361 14.0897 0.648583 14.1179 0.830299 14.1179C0.920071 14.1179 1.01193 14.11 1.10074 14.1025C1.15707 14.0976 1.21505 14.093 1.27195 14.09C1.32454 14.1249 1.3804 14.1301 1.42426 14.1301C1.44172 14.1301 1.45922 14.1293 1.47668 14.1284C1.49267 14.1277 1.50861 14.1269 1.52428 14.1269H1.52806C1.75017 14.1287 1.97605 14.1344 2.1946 14.1398C2.46409 14.1465 2.74283 14.1535 3.01753 14.1535C3.03768 14.1535 3.05775 14.1535 3.07786 14.1534C3.10926 14.1533 3.14061 14.1532 3.17206 14.1532C3.65462 14.1532 4.14561 14.167 4.62044 14.1804C4.90404 14.1884 5.19729 14.1966 5.4858 14.2019L5.49644 14.202C5.85358 14.202 6.20763 13.8798 6.22496 13.539C6.24711 13.1044 5.95777 12.7578 5.55191 12.7326C5.23017 12.7127 4.85102 12.6923 4.47833 12.6923C4.426 12.6923 4.37362 12.6927 4.32133 12.6935C4.31277 12.6936 4.30431 12.6937 4.29575 12.6937C4.23525 12.6937 4.17275 12.6904 4.11238 12.6874C4.05067 12.6842 3.98691 12.6809 3.92368 12.6809C3.8128 12.6809 3.72129 12.6922 3.63781 12.7147C3.61062 12.6846 3.57167 12.6837 3.55243 12.6834C3.33814 12.6797 3.12381 12.6753 2.90952 12.6708C2.52085 12.6628 2.1189 12.6545 1.72342 12.6514C1.60068 12.6505 1.47542 12.644 1.35429 12.6377C1.22196 12.6307 1.08507 12.6236 0.949951 12.6236H0.949908Z" fill="white"/>
</mask>
<g mask="url(#mask4)">
<path fill-rule="evenodd" clip-rule="evenodd" d="M0.949908 12.6236C0.81284 12.6236 0.692014 12.631 0.580527 12.6463C0.317248 12.6824 0.129626 12.8571 0.0379861 13.1514C-0.0464004 13.4224 0.00997306 13.6643 0.2055 13.8705C0.413361 14.0897 0.648583 14.1179 0.830299 14.1179C0.920071 14.1179 1.01193 14.11 1.10074 14.1025C1.15707 14.0976 1.21505 14.093 1.27195 14.09C1.32454 14.1249 1.3804 14.1301 1.42426 14.1301C1.44172 14.1301 1.45922 14.1293 1.47668 14.1284C1.49267 14.1277 1.50861 14.1269 1.52428 14.1269H1.52806C1.75017 14.1287 1.97605 14.1344 2.1946 14.1398C2.46409 14.1465 2.74283 14.1535 3.01753 14.1535C3.03768 14.1535 3.05775 14.1535 3.07786 14.1534C3.10926 14.1533 3.14061 14.1532 3.17206 14.1532C3.65462 14.1532 4.14561 14.167 4.62044 14.1804C4.90404 14.1884 5.19729 14.1966 5.4858 14.2019L5.49644 14.202C5.85358 14.202 6.20763 13.8798 6.22496 13.539C6.24711 13.1044 5.95777 12.7578 5.55191 12.7326C5.23017 12.7127 4.85102 12.6923 4.47833 12.6923C4.426 12.6923 4.37362 12.6927 4.32133 12.6935C4.31277 12.6936 4.30431 12.6937 4.29575 12.6937C4.23525 12.6937 4.17275 12.6904 4.11238 12.6874C4.05067 12.6842 3.98691 12.6809 3.92368 12.6809C3.8128 12.6809 3.72129 12.6922 3.63781 12.7147C3.61062 12.6846 3.57167 12.6837 3.55243 12.6834C3.33814 12.6797 3.12381 12.6753 2.90952 12.6708C2.52085 12.6628 2.1189 12.6545 1.72342 12.6514C1.60068 12.6505 1.47542 12.644 1.35429 12.6377C1.22196 12.6307 1.08507 12.6236 0.949951 12.6236H0.949908Z" fill="url(#paint4_linear)"/>
</g>
<mask id="mask5" mask-type="alpha" maskUnits="userSpaceOnUse" x="3" y="8" width="25" height="32">
<path fill-rule="evenodd" clip-rule="evenodd" d="M12.8743 8.84599C12.2111 9.00351 11.5989 9.37819 11.1505 9.90106C10.6956 10.4313 10.4296 11.0929 10.4015 11.7638C10.3708 12.4971 10.3618 13.2432 10.3533 13.9648C10.3475 14.4497 10.3416 14.9511 10.329 15.4439C10.2939 16.8224 10.2594 18.3061 10.2452 19.8152C10.2379 20.5923 10.2162 21.3824 10.1953 22.1466C10.1841 22.5586 10.1724 22.9847 10.1632 23.4037C10.1501 23.9921 10.1398 24.5699 10.1288 25.1818C10.1244 25.4264 10.1199 25.6734 10.1153 25.9232C9.98726 25.8403 9.86122 25.758 9.73879 25.678C9.41323 25.4654 9.10574 25.2645 8.78882 25.0708C8.37011 24.8149 7.90722 24.5741 7.33202 24.3129C6.85471 24.0961 6.39634 23.9861 5.96954 23.9861C5.32793 23.9861 4.73236 24.2341 4.19947 24.7231C3.81315 25.0775 3.54383 25.5307 3.42057 26.0336C3.29792 26.5338 3.32542 27.0596 3.49992 27.5541L3.51482 27.5966C3.56919 27.7519 3.62544 27.9125 3.72967 28.0545C4.00654 28.4319 4.30813 28.7986 4.59977 29.1533C4.8035 29.4012 5.01419 29.6573 5.21432 29.9146C5.35673 30.0978 5.49983 30.2806 5.64285 30.4633C6.16624 31.132 6.70748 31.8234 7.21124 32.5246C7.27647 32.6154 7.34192 32.7059 7.40746 32.7966C7.65436 33.1383 7.90978 33.4917 8.14609 33.8485C8.29193 34.0687 8.432 34.2986 8.56733 34.521C8.75334 34.8263 8.94565 35.1421 9.15638 35.4383C9.91808 36.509 10.5863 37.2597 11.3231 37.872C12.2209 38.6181 13.1073 39.1246 14.033 39.4204C14.7905 39.6624 15.4693 39.8148 16.108 39.8861C16.6234 39.9437 17.0982 39.9717 17.5595 39.9717C17.9351 39.9717 18.3031 39.9522 18.6534 39.9137C19.8644 39.7809 21.0001 39.4479 22.029 38.9239C22.8524 38.5045 23.5842 37.9978 24.2041 37.4178C25.2334 36.4547 26.0164 35.334 26.5315 34.0865C26.93 33.1216 27.1783 32.1098 27.2693 31.0793C27.3266 30.4328 27.3318 29.7739 27.3369 29.1368C27.3396 28.7924 27.3424 28.4363 27.3534 28.0867C27.3746 27.4135 27.3859 26.729 27.3968 26.0669C27.4046 25.5952 27.4127 25.1074 27.4242 24.6278C27.4283 24.4573 27.4326 24.2808 27.4327 24.1004V24.082C27.4323 23.5768 27.3986 23.0414 27.2385 22.5199C26.9823 21.6849 26.5566 21.0642 25.9373 20.6222C25.3872 20.2297 24.7708 20.0307 24.1055 20.0307C23.7354 20.0307 23.3401 20.0921 22.9305 20.2135C22.8964 20.2236 22.867 20.2285 22.8408 20.2285C22.789 20.2285 22.7447 20.2099 22.6827 20.1622C22.1507 19.7528 21.5429 19.5149 20.8761 19.4551C20.7784 19.4464 20.6792 19.4419 20.5814 19.4419C20.1042 19.4419 19.629 19.5438 19.1286 19.7534L19.1207 19.7567C19.0773 19.7749 19.0398 19.7907 19.0046 19.7907C18.979 19.7907 18.9554 19.7822 18.9302 19.7638C18.3634 19.3508 17.6985 19.1414 16.9537 19.1414C16.9135 19.1414 16.8724 19.142 16.8316 19.1432C16.8266 19.1433 16.8219 19.1434 16.8173 19.1434C16.7751 19.1434 16.7597 19.1369 16.7543 19.1315C16.7427 19.1199 16.7418 19.0785 16.7419 19.0406C16.7424 18.65 16.7515 18.2526 16.7603 17.8684C16.7631 17.7455 16.7659 17.6226 16.7684 17.4998C16.7768 17.1011 16.7859 16.7023 16.795 16.3036C16.8193 15.2429 16.8445 14.1461 16.8525 13.0668C16.8535 12.9167 16.8592 12.7638 16.8647 12.616C16.8832 12.1149 16.9024 11.5968 16.7495 11.0853C16.5436 10.3965 16.1643 9.8393 15.6222 9.42909C15.0251 8.97741 14.3714 8.74835 13.6792 8.74835C13.4179 8.74835 13.1471 8.78123 12.8743 8.84599ZM11.34 28.4022C11.4968 28.3199 11.5716 28.1758 11.5755 27.9489C11.5863 27.3251 11.6013 26.6909 11.6158 26.0775C11.6374 25.1668 11.6596 24.225 11.6687 23.2984C11.672 22.9552 11.6816 22.6063 11.6908 22.269C11.7007 21.9009 11.7111 21.5204 11.7135 21.1457C11.7213 19.9468 11.7504 18.7282 11.7787 17.5497C11.7851 17.2786 11.7916 17.0077 11.7979 16.7367C11.8199 15.7782 11.8371 14.8037 11.8538 13.8613C11.862 13.3937 11.8702 12.9261 11.879 12.4584C11.8805 12.3808 11.8802 12.3024 11.8798 12.2265C11.8791 12.0576 11.8783 11.883 11.8977 11.7108C11.9817 10.9653 12.7772 10.2687 13.5667 10.2493C13.5849 10.2488 13.6029 10.2486 13.6207 10.2486C14.237 10.2486 14.7258 10.515 15.1149 11.0628C15.3755 11.4298 15.4022 11.8736 15.3922 12.2984C15.3809 12.7807 15.3678 13.271 15.3553 13.7451C15.3371 14.4278 15.3182 15.1337 15.3042 15.8281C15.2938 16.3482 15.2881 16.877 15.2825 17.3884C15.2774 17.85 15.2722 18.3274 15.2635 18.7968C15.2591 19.0393 15.2498 19.2861 15.2409 19.5247C15.2245 19.9631 15.2075 20.4165 15.2193 20.8638C15.2229 21.0003 15.2269 21.1532 15.3945 21.2315C15.4404 21.2529 15.4864 21.2637 15.5313 21.2637C15.6509 21.2637 15.7447 21.1897 15.8305 21.114C16.0761 20.8972 16.2807 20.778 16.5147 20.7153C16.6914 20.6679 16.8671 20.6439 17.0369 20.6439C17.6595 20.6439 18.2019 20.9626 18.5643 21.5411C18.6429 21.6665 18.7317 21.7825 18.8484 21.7825C18.9308 21.7825 19.0143 21.7281 19.1275 21.6005C19.5239 21.1533 19.9955 20.936 20.5693 20.936C20.6931 20.936 20.8233 20.9466 20.9562 20.9674C21.4875 21.0508 21.8963 21.3492 22.2061 21.8793C22.2792 22.0045 22.3817 22.1482 22.527 22.1482C22.6183 22.1482 22.7179 22.0927 22.8406 21.9737C23.1444 21.6786 23.5165 21.5352 23.978 21.5352C24.0943 21.5352 24.219 21.5446 24.3484 21.563C24.9804 21.6532 25.4288 22.0276 25.719 22.7076C25.8543 23.0245 25.9221 23.3767 25.9265 23.7844C25.932 24.3009 25.9173 24.8263 25.903 25.3342C25.894 25.6575 25.8846 25.9918 25.8806 26.3208C25.8679 27.3423 25.8457 28.3808 25.8243 29.385C25.8161 29.7695 25.8078 30.1539 25.8001 30.5384C25.7759 31.7473 25.4931 32.8974 24.9596 33.9568C24.4219 35.0245 23.7086 35.92 22.8394 36.6184C21.8475 37.4153 20.7719 37.944 19.5511 38.2344C18.8977 38.3899 18.2168 38.4687 17.5274 38.4687C16.9926 38.4687 16.4343 38.4213 15.8679 38.3279C15.8091 38.3182 15.7503 38.3088 15.6914 38.2994C15.4145 38.2555 15.1282 38.2099 14.8546 38.1269C13.7343 37.755 12.8315 37.245 12.0959 36.5681C11.2953 35.8314 10.5748 34.9241 9.82852 33.7127C9.4703 33.1312 9.06492 32.5337 8.51408 31.7752C7.95365 31.0037 7.511 30.4186 7.07877 29.8782C6.9014 29.6565 6.72459 29.428 6.55356 29.2069C6.20937 28.7621 5.85341 28.3021 5.47382 27.8723C5.32863 27.7079 5.19252 27.5295 5.06088 27.357L5.05775 27.353C4.7523 26.9525 4.7672 26.3734 5.09488 25.9119C5.24498 25.7004 5.62644 25.4758 6.03773 25.4758C6.14031 25.4758 6.23842 25.4902 6.32937 25.5186C6.89923 25.6965 7.41336 26.0035 7.91061 26.3003C7.9873 26.3461 8.06396 26.392 8.14092 26.4373C9.00025 26.944 9.87404 27.5564 10.8122 28.3094C10.9302 28.4042 11.0414 28.4503 11.1521 28.4503C11.2161 28.4503 11.2793 28.4341 11.34 28.4022Z" fill="white"/>
</mask>
<g mask="url(#mask5)">
<path fill-rule="evenodd" clip-rule="evenodd" d="M12.8743 8.84599C12.2111 9.00351 11.5989 9.37819 11.1505 9.90106C10.6956 10.4313 10.4296 11.0929 10.4015 11.7638C10.3708 12.4971 10.3618 13.2432 10.3533 13.9648C10.3475 14.4497 10.3416 14.9511 10.329 15.4439C10.2939 16.8224 10.2594 18.3061 10.2452 19.8152C10.2379 20.5923 10.2162 21.3824 10.1953 22.1466C10.1841 22.5586 10.1724 22.9847 10.1632 23.4037C10.1501 23.9921 10.1398 24.5699 10.1288 25.1818C10.1244 25.4264 10.1199 25.6734 10.1153 25.9232C9.98726 25.8403 9.86122 25.758 9.73879 25.678C9.41323 25.4654 9.10574 25.2645 8.78882 25.0708C8.37011 24.8149 7.90722 24.5741 7.33202 24.3129C6.85471 24.0961 6.39634 23.9861 5.96954 23.9861C5.32793 23.9861 4.73236 24.2341 4.19947 24.7231C3.81315 25.0775 3.54383 25.5307 3.42057 26.0336C3.29792 26.5338 3.32542 27.0596 3.49992 27.5541L3.51482 27.5966C3.56919 27.7519 3.62544 27.9125 3.72967 28.0545C4.00654 28.4319 4.30813 28.7986 4.59977 29.1533C4.8035 29.4012 5.01419 29.6573 5.21432 29.9146C5.35673 30.0978 5.49983 30.2806 5.64285 30.4633C6.16624 31.132 6.70748 31.8234 7.21124 32.5246C7.27647 32.6154 7.34192 32.7059 7.40746 32.7966C7.65436 33.1383 7.90978 33.4917 8.14609 33.8485C8.29193 34.0687 8.432 34.2986 8.56733 34.521C8.75334 34.8263 8.94565 35.1421 9.15638 35.4383C9.91808 36.509 10.5863 37.2597 11.3231 37.872C12.2209 38.6181 13.1073 39.1246 14.033 39.4204C14.7905 39.6624 15.4693 39.8148 16.108 39.8861C16.6234 39.9437 17.0982 39.9717 17.5595 39.9717C17.9351 39.9717 18.3031 39.9522 18.6534 39.9137C19.8644 39.7809 21.0001 39.4479 22.029 38.9239C22.8524 38.5045 23.5842 37.9978 24.2041 37.4178C25.2334 36.4547 26.0164 35.334 26.5315 34.0865C26.93 33.1216 27.1783 32.1098 27.2693 31.0793C27.3266 30.4328 27.3318 29.7739 27.3369 29.1368C27.3396 28.7924 27.3424 28.4363 27.3534 28.0867C27.3746 27.4135 27.3859 26.729 27.3968 26.0669C27.4046 25.5952 27.4127 25.1074 27.4242 24.6278C27.4283 24.4573 27.4326 24.2808 27.4327 24.1004V24.082C27.4323 23.5768 27.3986 23.0414 27.2385 22.5199C26.9823 21.6849 26.5566 21.0642 25.9373 20.6222C25.3872 20.2297 24.7708 20.0307 24.1055 20.0307C23.7354 20.0307 23.3401 20.0921 22.9305 20.2135C22.8964 20.2236 22.867 20.2285 22.8408 20.2285C22.789 20.2285 22.7447 20.2099 22.6827 20.1622C22.1507 19.7528 21.5429 19.5149 20.8761 19.4551C20.7784 19.4464 20.6792 19.4419 20.5814 19.4419C20.1042 19.4419 19.629 19.5438 19.1286 19.7534L19.1207 19.7567C19.0773 19.7749 19.0398 19.7907 19.0046 19.7907C18.979 19.7907 18.9554 19.7822 18.9302 19.7638C18.3634 19.3508 17.6985 19.1414 16.9537 19.1414C16.9135 19.1414 16.8724 19.142 16.8316 19.1432C16.8266 19.1433 16.8219 19.1434 16.8173 19.1434C16.7751 19.1434 16.7597 19.1369 16.7543 19.1315C16.7427 19.1199 16.7418 19.0785 16.7419 19.0406C16.7424 18.65 16.7515 18.2526 16.7603 17.8684C16.7631 17.7455 16.7659 17.6226 16.7684 17.4998C16.7768 17.1011 16.7859 16.7023 16.795 16.3036C16.8193 15.2429 16.8445 14.1461 16.8525 13.0668C16.8535 12.9167 16.8592 12.7638 16.8647 12.616C16.8832 12.1149 16.9024 11.5968 16.7495 11.0853C16.5436 10.3965 16.1643 9.8393 15.6222 9.42909C15.0251 8.97741 14.3714 8.74835 13.6792 8.74835C13.4179 8.74835 13.1471 8.78123 12.8743 8.84599ZM11.34 28.4022C11.4968 28.3199 11.5716 28.1758 11.5755 27.9489C11.5863 27.3251 11.6013 26.6909 11.6158 26.0775C11.6374 25.1668 11.6596 24.225 11.6687 23.2984C11.672 22.9552 11.6816 22.6063 11.6908 22.269C11.7007 21.9009 11.7111 21.5204 11.7135 21.1457C11.7213 19.9468 11.7504 18.7282 11.7787 17.5497C11.7851 17.2786 11.7916 17.0077 11.7979 16.7367C11.8199 15.7782 11.8371 14.8037 11.8538 13.8613C11.862 13.3937 11.8702 12.9261 11.879 12.4584C11.8805 12.3808 11.8802 12.3024 11.8798 12.2265C11.8791 12.0576 11.8783 11.883 11.8977 11.7108C11.9817 10.9653 12.7772 10.2687 13.5667 10.2493C13.5849 10.2488 13.6029 10.2486 13.6207 10.2486C14.237 10.2486 14.7258 10.515 15.1149 11.0628C15.3755 11.4298 15.4022 11.8736 15.3922 12.2984C15.3809 12.7807 15.3678 13.271 15.3553 13.7451C15.3371 14.4278 15.3182 15.1337 15.3042 15.8281C15.2938 16.3482 15.2881 16.877 15.2825 17.3884C15.2774 17.85 15.2722 18.3274 15.2635 18.7968C15.2591 19.0393 15.2498 19.2861 15.2409 19.5247C15.2245 19.9631 15.2075 20.4165 15.2193 20.8638C15.2229 21.0003 15.2269 21.1532 15.3945 21.2315C15.4404 21.2529 15.4864 21.2637 15.5313 21.2637C15.6509 21.2637 15.7447 21.1897 15.8305 21.114C16.0761 20.8972 16.2807 20.778 16.5147 20.7153C16.6914 20.6679 16.8671 20.6439 17.0369 20.6439C17.6595 20.6439 18.2019 20.9626 18.5643 21.5411C18.6429 21.6665 18.7317 21.7825 18.8484 21.7825C18.9308 21.7825 19.0143 21.7281 19.1275 21.6005C19.5239 21.1533 19.9955 20.936 20.5693 20.936C20.6931 20.936 20.8233 20.9466 20.9562 20.9674C21.4875 21.0508 21.8963 21.3492 22.2061 21.8793C22.2792 22.0045 22.3817 22.1482 22.527 22.1482C22.6183 22.1482 22.7179 22.0927 22.8406 21.9737C23.1444 21.6786 23.5165 21.5352 23.978 21.5352C24.0943 21.5352 24.219 21.5446 24.3484 21.563C24.9804 21.6532 25.4288 22.0276 25.719 22.7076C25.8543 23.0245 25.9221 23.3767 25.9265 23.7844C25.932 24.3009 25.9173 24.8263 25.903 25.3342C25.894 25.6575 25.8846 25.9918 25.8806 26.3208C25.8679 27.3423 25.8457 28.3808 25.8243 29.385C25.8161 29.7695 25.8078 30.1539 25.8001 30.5384C25.7759 31.7473 25.4931 32.8974 24.9596 33.9568C24.4219 35.0245 23.7086 35.92 22.8394 36.6184C21.8475 37.4153 20.7719 37.944 19.5511 38.2344C18.8977 38.3899 18.2168 38.4687 17.5274 38.4687C16.9926 38.4687 16.4343 38.4213 15.8679 38.3279C15.8091 38.3182 15.7503 38.3088 15.6914 38.2994C15.4145 38.2555 15.1282 38.2099 14.8546 38.1269C13.7343 37.755 12.8315 37.245 12.0959 36.5681C11.2953 35.8314 10.5748 34.9241 9.82852 33.7127C9.4703 33.1312 9.06492 32.5337 8.51408 31.7752C7.95365 31.0037 7.511 30.4186 7.07877 29.8782C6.9014 29.6565 6.72459 29.428 6.55356 29.2069C6.20937 28.7621 5.85341 28.3021 5.47382 27.8723C5.32863 27.7079 5.19252 27.5295 5.06088 27.357L5.05775 27.353C4.7523 26.9525 4.7672 26.3734 5.09488 25.9119C5.24498 25.7004 5.62644 25.4758 6.03773 25.4758C6.14031 25.4758 6.23842 25.4902 6.32937 25.5186C6.89923 25.6965 7.41336 26.0035 7.91061 26.3003C7.9873 26.3461 8.06396 26.392 8.14092 26.4373C9.00025 26.944 9.87404 27.5564 10.8122 28.3094C10.9302 28.4042 11.0414 28.4503 11.1521 28.4503C11.2161 28.4503 11.2793 28.4341 11.34 28.4022Z" fill="url(#paint5_linear)"/>
</g>
<defs>
<linearGradient id="paint0_linear" x1="12.979" y1="6.2829" x2="14.5608" y2="6.2829" gradientUnits="userSpaceOnUse">
<stop stop-color="#8700FF"/>
<stop offset="1" stop-color="#00C8FF"/>
</linearGradient>
<linearGradient id="paint1_linear" x1="18.6528" y1="8.75118" x2="23.5546" y2="8.75118" gradientUnits="userSpaceOnUse">
<stop stop-color="#8700FF"/>
<stop offset="1" stop-color="#00C8FF"/>
</linearGradient>
<linearGradient id="paint2_linear" x1="3.92383" y1="8.53427" x2="8.70475" y2="8.53427" gradientUnits="userSpaceOnUse">
<stop stop-color="#8700FF"/>
<stop offset="1" stop-color="#00C8FF"/>
</linearGradient>
<linearGradient id="paint3_linear" x1="20.9106" y1="14.6016" x2="27.119" y2="14.6016" gradientUnits="userSpaceOnUse">
<stop stop-color="#8700FF"/>
<stop offset="1" stop-color="#00C8FF"/>
</linearGradient>
<linearGradient id="paint4_linear" x1="-1.60827e-05" y1="14.202" x2="6.22614" y2="14.202" gradientUnits="userSpaceOnUse">
<stop stop-color="#8700FF"/>
<stop offset="1" stop-color="#00C8FF"/>
</linearGradient>
<linearGradient id="paint5_linear" x1="3.34523" y1="39.9717" x2="27.4327" y2="39.9717" gradientUnits="userSpaceOnUse">
<stop stop-color="#8700FF"/>
<stop offset="1" stop-color="#00C8FF"/>
</linearGradient>
</defs>
</svg>
