<svg width="36" height="40" viewBox="0 0 36 40" fill="none" xmlns="http://www.w3.org/2000/svg">
<mask id="mask0" mask-type="alpha" maskUnits="userSpaceOnUse" x="5" y="3" width="25" height="32">
<path fill-rule="evenodd" clip-rule="evenodd" d="M18.4975 3.83742C17.7761 3.84879 17.0616 3.90983 16.3558 4.05447C10.1638 5.32362 5.74128 10.5169 5.368 16.9533C5.31247 17.911 5.38215 18.0516 6.32991 18.2541C6.85755 18.3668 6.9841 18.5636 6.91052 19.1041C6.37304 23.0493 7.21221 26.6819 9.60041 29.8855C13.4364 35.0312 19.9876 35.9399 24.7641 31.9692C28.1228 29.177 29.4959 25.4347 29.6343 21.2579C29.6034 20.2304 29.5273 19.3045 29.3777 18.3841C29.302 17.9187 29.0772 17.6431 28.5964 17.5133C25.8218 16.7642 23.5558 15.1821 21.5744 13.1516C20.867 12.4267 20.7863 12.4119 19.9283 12.9955C18.4605 13.9937 17.0117 15.0209 15.4423 15.8615C12.8985 17.2238 10.2338 17.7945 7.36288 17.1878C6.8395 17.0772 6.63629 16.8994 6.70818 16.3268C6.9713 14.2334 7.62228 12.2861 8.83972 10.5595C11.2007 7.2113 14.3902 5.31082 18.5337 5.14163C19.0016 5.12254 19.3578 4.9628 19.3461 4.46692C19.3345 3.9782 18.9797 3.83716 18.5323 3.83716C18.5207 3.83716 18.5092 3.83724 18.4975 3.83742ZM19.1342 15.1346C19.6219 14.8026 20.1234 14.2269 20.6099 14.2357C21.0434 14.2436 21.4608 14.9099 21.8925 15.2773C23.5986 16.7297 25.4727 17.8932 27.6198 18.5805C27.8901 18.667 28.1026 18.7417 28.1478 19.1011C28.6575 23.1475 27.7912 26.8179 25.0401 29.8947C20.9874 34.4273 14.5731 34.1347 10.7915 29.2904C8.92779 26.903 8.09577 24.1563 8.06809 21.1491C8.04544 20.4467 8.13911 19.755 8.22028 19.0616C8.24896 18.8163 8.3215 18.664 8.60731 18.6878C8.94605 18.7161 9.28037 18.7297 9.60957 18.7297C13.1887 18.7299 16.2231 17.1163 19.1342 15.1346Z" fill="white"/>
</mask>
<g mask="url(#mask0)">
<path fill-rule="evenodd" clip-rule="evenodd" d="M18.4975 3.83742C17.7761 3.84879 17.0616 3.90983 16.3558 4.05447C10.1638 5.32362 5.74128 10.5169 5.368 16.9533C5.31247 17.911 5.38215 18.0516 6.32991 18.2541C6.85755 18.3668 6.9841 18.5636 6.91052 19.1041C6.37304 23.0493 7.21221 26.6819 9.60041 29.8855C13.4364 35.0312 19.9876 35.9399 24.7641 31.9692C28.1228 29.177 29.4959 25.4347 29.6343 21.2579C29.6034 20.2304 29.5273 19.3045 29.3777 18.3841C29.302 17.9187 29.0772 17.6431 28.5964 17.5133C25.8218 16.7642 23.5558 15.1821 21.5744 13.1516C20.867 12.4267 20.7863 12.4119 19.9283 12.9955C18.4605 13.9937 17.0117 15.0209 15.4423 15.8615C12.8985 17.2238 10.2338 17.7945 7.36288 17.1878C6.8395 17.0772 6.63629 16.8994 6.70818 16.3268C6.9713 14.2334 7.62228 12.2861 8.83972 10.5595C11.2007 7.2113 14.3902 5.31082 18.5337 5.14163C19.0016 5.12254 19.3578 4.9628 19.3461 4.46692C19.3345 3.9782 18.9797 3.83716 18.5323 3.83716C18.5207 3.83716 18.5092 3.83724 18.4975 3.83742ZM19.1342 15.1346C19.6219 14.8026 20.1234 14.2269 20.6099 14.2357C21.0434 14.2436 21.4608 14.9099 21.8925 15.2773C23.5986 16.7297 25.4727 17.8932 27.6198 18.5805C27.8901 18.667 28.1026 18.7417 28.1478 19.1011C28.6575 23.1475 27.7912 26.8179 25.0401 29.8947C20.9874 34.4273 14.5731 34.1347 10.7915 29.2904C8.92779 26.903 8.09577 24.1563 8.06809 21.1491C8.04544 20.4467 8.13911 19.755 8.22028 19.0616C8.24896 18.8163 8.3215 18.664 8.60731 18.6878C8.94605 18.7161 9.28037 18.7297 9.60957 18.7297C13.1887 18.7299 16.2231 17.1163 19.1342 15.1346Z" fill="url(#paint0_linear)"/>
</g>
<mask id="mask1" mask-type="alpha" maskUnits="userSpaceOnUse" x="0" y="0" width="36" height="40">
<path fill-rule="evenodd" clip-rule="evenodd" d="M14.1417 0.433331C12.4342 0.975066 10.7497 1.56904 9.24838 2.58058C4.64821 5.68019 2.16031 9.97277 1.93345 15.5402C1.91714 15.9407 1.90599 16.3428 1.92209 16.7429C1.95957 17.6713 1.87198 18.4377 1.03328 19.1577C0.573368 19.5525 0.390678 20.1693 0.180006 20.7411C-0.0466321 21.8773 -0.0730096 22.9815 0.180006 24.0411C0.260309 24.2323 0.338531 24.4244 0.421394 24.6145C0.967424 25.8669 1.91667 26.569 3.2784 26.7163C3.84421 26.7775 4.10014 26.5463 4.09779 25.9673C4.08768 23.5558 4.0899 21.1443 4.0971 18.7328C4.09831 18.339 3.96434 18.0657 3.55914 18.0028C3.29554 17.962 3.22382 17.8374 3.22534 17.5812C3.23298 16.3124 3.18747 15.041 3.38539 13.7815C4.8394 4.52852 14.4281 -1.0291 23.1552 2.34322C28.7316 4.49806 33.068 9.91932 32.5495 17.6502C32.536 17.8513 32.4859 17.9572 32.2746 17.9857C31.7604 18.055 31.6699 18.4039 31.6724 18.8594C31.6849 21.0593 31.6744 23.2593 31.6809 25.4593C31.6823 25.9294 31.5527 26.4379 32.0917 26.765C32.2755 26.8764 32.1436 27.114 32.0948 27.2952C31.7129 28.714 31.1381 30.0478 30.3169 31.2684C27.9407 34.8005 24.4661 36.5083 20.401 37.2514C19.928 37.3378 19.6666 37.2658 19.3679 36.8465C18.705 35.9156 17.4033 35.8448 16.578 36.6143C15.7688 37.3687 15.7645 38.6224 16.5686 39.3821C16.9447 39.7376 17.4254 39.9188 17.8986 39.9196H17.9046C18.4397 39.9188 18.9646 39.6873 19.3176 39.2163C19.6489 38.7742 20.0242 38.6059 20.521 38.5457C20.835 38.5079 21.1473 38.447 21.4564 38.3791C27.4915 37.0555 31.64 33.6503 33.3312 27.565C33.5211 26.8818 33.6626 26.2297 34.3984 25.907C34.5781 25.8282 34.7119 25.6267 34.8456 25.464C35.9709 24.094 36.0438 20.411 34.7522 19.2145C33.8896 18.4155 33.7961 17.596 33.8493 16.6008C33.8685 16.2425 33.8531 15.8816 33.8382 15.5224C33.6075 9.96635 31.121 5.68266 26.5337 2.58626C25.0301 1.57129 23.3415 0.976107 21.6302 0.433331C20.4218 0.173504 19.1931 0.043396 17.9445 0.043396C16.6969 0.0433526 15.4296 0.173201 14.1417 0.433331ZM32.8085 25.24C32.8207 24.6097 32.8006 23.5454 32.8094 22.9155C32.8202 22.1486 32.8007 21.3819 32.8129 20.6152C32.8158 20.4328 32.8085 19.8164 32.8059 19.6339C32.8033 19.4632 32.8414 19.4377 33.0041 19.4767C33.2704 19.5406 33.459 19.6014 33.6827 19.7557C34.5401 20.3466 34.4892 21.24 34.5835 21.5613C34.6882 21.9184 34.6142 23.2629 34.5264 23.5678C34.2798 24.4246 33.9327 24.8585 33.3059 25.1933C33.1532 25.2749 33.0619 25.2703 32.8991 25.3184C32.8868 25.3221 32.8758 25.3238 32.8662 25.3238C32.8263 25.3238 32.8074 25.294 32.8085 25.24ZM2.87124 25.4052C2.70838 25.357 2.61714 25.3617 2.46439 25.2801C1.83758 24.9453 1.4905 24.5114 1.24387 23.6545C1.1561 23.3496 1.082 22.0051 1.18682 21.648C1.28109 21.3267 1.2302 20.4333 2.08751 19.8424C2.31129 19.6882 2.49988 19.6273 2.76617 19.5635C2.92894 19.5245 2.96695 19.55 2.96447 19.7207C2.96174 19.9031 2.9545 20.5195 2.95745 20.702C2.96955 21.4687 2.95007 22.2354 2.96087 23.0022C2.96968 23.6322 2.94964 24.6965 2.96183 25.3268C2.96283 25.3807 2.94404 25.4106 2.90417 25.4106C2.89445 25.4106 2.88348 25.4088 2.87124 25.4052ZM16.8809 38.0039C16.8901 37.4664 17.3256 37.0089 17.9112 37.014C18.425 37.0185 18.8951 37.4557 18.8979 38.013C18.9009 38.586 18.4397 39.0289 17.8956 39.0339C17.8949 39.0339 17.8942 39.0339 17.8935 39.0339C17.3409 39.034 16.871 38.5867 16.8809 38.0039Z" fill="white"/>
</mask>
<g mask="url(#mask1)">
<path fill-rule="evenodd" clip-rule="evenodd" d="M14.1417 0.433331C12.4342 0.975066 10.7497 1.56904 9.24838 2.58058C4.64821 5.68019 2.16031 9.97277 1.93345 15.5402C1.91714 15.9407 1.90599 16.3428 1.92209 16.7429C1.95957 17.6713 1.87198 18.4377 1.03328 19.1577C0.573368 19.5525 0.390678 20.1693 0.180006 20.7411C-0.0466321 21.8773 -0.0730096 22.9815 0.180006 24.0411C0.260309 24.2323 0.338531 24.4244 0.421394 24.6145C0.967424 25.8669 1.91667 26.569 3.2784 26.7163C3.84421 26.7775 4.10014 26.5463 4.09779 25.9673C4.08768 23.5558 4.0899 21.1443 4.0971 18.7328C4.09831 18.339 3.96434 18.0657 3.55914 18.0028C3.29554 17.962 3.22382 17.8374 3.22534 17.5812C3.23298 16.3124 3.18747 15.041 3.38539 13.7815C4.8394 4.52852 14.4281 -1.0291 23.1552 2.34322C28.7316 4.49806 33.068 9.91932 32.5495 17.6502C32.536 17.8513 32.4859 17.9572 32.2746 17.9857C31.7604 18.055 31.6699 18.4039 31.6724 18.8594C31.6849 21.0593 31.6744 23.2593 31.6809 25.4593C31.6823 25.9294 31.5527 26.4379 32.0917 26.765C32.2755 26.8764 32.1436 27.114 32.0948 27.2952C31.7129 28.714 31.1381 30.0478 30.3169 31.2684C27.9407 34.8005 24.4661 36.5083 20.401 37.2514C19.928 37.3378 19.6666 37.2658 19.3679 36.8465C18.705 35.9156 17.4033 35.8448 16.578 36.6143C15.7688 37.3687 15.7645 38.6224 16.5686 39.3821C16.9447 39.7376 17.4254 39.9188 17.8986 39.9196H17.9046C18.4397 39.9188 18.9646 39.6873 19.3176 39.2163C19.6489 38.7742 20.0242 38.6059 20.521 38.5457C20.835 38.5079 21.1473 38.447 21.4564 38.3791C27.4915 37.0555 31.64 33.6503 33.3312 27.565C33.5211 26.8818 33.6626 26.2297 34.3984 25.907C34.5781 25.8282 34.7119 25.6267 34.8456 25.464C35.9709 24.094 36.0438 20.411 34.7522 19.2145C33.8896 18.4155 33.7961 17.596 33.8493 16.6008C33.8685 16.2425 33.8531 15.8816 33.8382 15.5224C33.6075 9.96635 31.121 5.68266 26.5337 2.58626C25.0301 1.57129 23.3415 0.976107 21.6302 0.433331C20.4218 0.173504 19.1931 0.043396 17.9445 0.043396C16.6969 0.0433526 15.4296 0.173201 14.1417 0.433331ZM32.8085 25.24C32.8207 24.6097 32.8006 23.5454 32.8094 22.9155C32.8202 22.1486 32.8007 21.3819 32.8129 20.6152C32.8158 20.4328 32.8085 19.8164 32.8059 19.6339C32.8033 19.4632 32.8414 19.4377 33.0041 19.4767C33.2704 19.5406 33.459 19.6014 33.6827 19.7557C34.5401 20.3466 34.4892 21.24 34.5835 21.5613C34.6882 21.9184 34.6142 23.2629 34.5264 23.5678C34.2798 24.4246 33.9327 24.8585 33.3059 25.1933C33.1532 25.2749 33.0619 25.2703 32.8991 25.3184C32.8868 25.3221 32.8758 25.3238 32.8662 25.3238C32.8263 25.3238 32.8074 25.294 32.8085 25.24ZM2.87124 25.4052C2.70838 25.357 2.61714 25.3617 2.46439 25.2801C1.83758 24.9453 1.4905 24.5114 1.24387 23.6545C1.1561 23.3496 1.082 22.0051 1.18682 21.648C1.28109 21.3267 1.2302 20.4333 2.08751 19.8424C2.31129 19.6882 2.49988 19.6273 2.76617 19.5635C2.92894 19.5245 2.96695 19.55 2.96447 19.7207C2.96174 19.9031 2.9545 20.5195 2.95745 20.702C2.96955 21.4687 2.95007 22.2354 2.96087 23.0022C2.96968 23.6322 2.94964 24.6965 2.96183 25.3268C2.96283 25.3807 2.94404 25.4106 2.90417 25.4106C2.89445 25.4106 2.88348 25.4088 2.87124 25.4052ZM16.8809 38.0039C16.8901 37.4664 17.3256 37.0089 17.9112 37.014C18.425 37.0185 18.8951 37.4557 18.8979 38.013C18.9009 38.586 18.4397 39.0289 17.8956 39.0339C17.8949 39.0339 17.8942 39.0339 17.8935 39.0339C17.3409 39.034 16.871 38.5867 16.8809 38.0039Z" fill="url(#paint1_linear)"/>
</g>
<defs>
<linearGradient id="paint0_linear" x1="5.35401" y1="34.4377" x2="29.6343" y2="34.4377" gradientUnits="userSpaceOnUse">
<stop stop-color="#8700FF"/>
<stop offset="1" stop-color="#00C8FF"/>
</linearGradient>
<linearGradient id="paint1_linear" x1="5.634e-06" y1="39.9196" x2="35.7052" y2="39.9196" gradientUnits="userSpaceOnUse">
<stop stop-color="#8700FF"/>
<stop offset="1" stop-color="#00C8FF"/>
</linearGradient>
</defs>
</svg>
