<svg width="40" height="41" viewBox="0 0 40 41" fill="none" xmlns="http://www.w3.org/2000/svg">
<mask id="mask0" mask-type="alpha" maskUnits="userSpaceOnUse" x="0" y="0" width="40" height="41">
<path fill-rule="evenodd" clip-rule="evenodd" d="M10.6623 0.794312C10.6592 2.14832 10.6575 3.50241 10.6655 4.85642C10.6666 5.03653 10.6122 5.07591 10.4421 5.07422C9.60606 5.06597 8.76992 5.06867 7.93383 5.07089C6.22702 5.07538 5.02941 6.27356 5.02639 7.97877C5.02493 8.82228 5.0224 9.66583 5.02924 10.5093C5.03048 10.6613 4.99323 10.7129 4.8339 10.7093C4.36797 10.6987 3.90169 10.7055 3.43554 10.7056C3.17405 10.7056 2.91257 10.7054 2.65117 10.7052C2.01729 10.7047 1.38347 10.7041 0.74968 10.7068C0.289658 10.7088 -0.0204862 11.0285 0.0069944 11.459C0.0313229 11.841 0.333387 12.1022 0.768104 12.1031C2.11474 12.1057 3.46142 12.107 4.80802 12.1005C4.98125 12.0996 5.03199 12.1475 5.02999 12.3228C5.02076 13.1292 5.01712 13.936 5.03168 14.7422C5.03572 14.9648 4.98107 15.0228 4.7551 15.0208C3.43079 15.0089 2.10622 15.0141 0.781822 15.0157C0.378937 15.0161 0.0985815 15.2203 0.0202241 15.5615C-0.0860578 16.0243 0.257649 16.416 0.780224 16.417C2.12686 16.4195 3.47354 16.4208 4.82014 16.4142C4.98684 16.4134 5.03159 16.4594 5.0299 16.6249C5.02147 17.4461 5.01898 18.2676 5.03101 19.0887C5.03385 19.2862 4.98049 19.3336 4.78613 19.3323C3.89405 19.3265 3.00193 19.3269 2.10977 19.3273C1.67004 19.3275 1.23035 19.3277 0.790613 19.3271C0.600202 19.3269 0.422799 19.3593 0.270302 19.4805C0.0344306 19.668 -0.0547592 19.9767 0.0441975 20.2586C0.148792 20.5564 0.399403 20.7281 0.749192 20.7286C2.09583 20.7305 3.44247 20.7322 4.7891 20.726C4.95994 20.7252 5.03465 20.7488 5.03119 20.9491C5.01805 21.7036 5.02591 22.4585 5.02595 23.2132C5.02595 23.6392 5.026 23.6392 4.59527 23.6392C4.23035 23.6393 3.86546 23.6392 3.50058 23.6391C2.59283 23.6388 1.68504 23.6384 0.777338 23.6402C0.295918 23.6411 -0.0181776 23.951 0.00717198 24.3887C0.0297691 24.7794 0.336806 25.0407 0.784797 25.0413C2.13139 25.0432 3.47807 25.0426 4.82475 25.0413C4.94218 25.0412 5.03203 25.0313 5.03012 25.2068C5.02067 26.065 5.02289 26.9234 5.02875 27.7817C5.02972 27.922 4.97983 27.9595 4.84939 27.955C4.62768 27.9473 4.40553 27.9532 4.18351 27.9532C3.04406 27.9532 1.90462 27.9547 0.76513 27.9527C0.436784 27.952 0.187549 28.0806 0.057738 28.3877C-0.144082 28.8648 0.206018 29.3493 0.752877 29.3505C2.08469 29.3534 3.41663 29.3587 4.74835 29.345C4.99141 29.3425 5.03421 29.4195 5.03092 29.6399C5.01858 30.461 5.02413 31.2825 5.02657 32.1038C5.03146 33.7783 6.23634 34.9809 7.91483 34.9861C8.76575 34.9888 9.61672 34.9906 10.4675 34.9831C10.6242 34.9817 10.6664 35.0269 10.6646 35.1817C10.6564 35.8624 10.6611 36.5431 10.6613 37.2239C10.6616 37.9193 10.6571 38.615 10.6634 39.3104C10.667 39.6993 10.9555 39.9919 11.3276 40.006C11.716 40.0206 12.0241 39.7457 12.0556 39.3525C12.0627 39.2642 12.059 39.175 12.059 39.0863C12.0592 37.7914 12.0595 36.4965 12.0583 35.2017C12.0581 35.0776 12.0461 34.98 12.2347 34.9823C13.0929 34.993 13.9513 34.9892 14.8096 34.9844C14.9349 34.9837 14.975 35.021 14.9729 35.1473C14.966 35.5615 14.9704 35.9759 14.9705 36.3903C14.9705 37.3448 14.9681 38.2993 14.9718 39.2538C14.9736 39.7269 15.2989 40.0403 15.7384 40.005C16.1171 39.9745 16.372 39.6688 16.3726 39.2319C16.3745 37.8852 16.3764 36.5386 16.3697 35.192C16.3689 35.0248 16.416 34.9811 16.5809 34.9828C17.3947 34.9912 18.2088 34.995 19.0225 34.9811C19.2385 34.9774 19.2904 35.0356 19.2888 35.2486C19.2784 36.5803 19.2845 37.9122 19.2829 39.2441C19.2825 39.5613 19.4013 39.808 19.6955 39.9445C20.1746 40.1667 20.6814 39.8193 20.6831 39.2633C20.6873 37.9166 20.6892 36.57 20.6795 35.2233C20.678 35.0231 20.7348 34.9792 20.9264 34.982C21.6883 34.9933 22.4505 34.9867 23.2127 34.9866C23.5947 34.9866 23.5947 34.9866 23.5948 35.3726C23.5948 36.66 23.5934 37.9474 23.5955 39.2349C23.5963 39.7155 23.9053 40.0297 24.3435 40.0054C24.7344 39.9838 24.9961 39.678 24.9969 39.2286C24.9991 37.8893 25.0016 36.5501 24.9932 35.2109C24.992 35.0227 25.0473 34.9796 25.2282 34.9823C25.6498 34.9887 26.0716 34.9881 26.4933 34.9875C26.7745 34.9871 27.0557 34.9867 27.3368 34.9884C27.3909 34.9887 27.4497 34.9818 27.5088 34.975C27.6496 34.9586 27.7915 34.9423 27.8719 35.0233C27.986 35.1386 27.9073 35.3762 27.9077 35.5599C27.9105 36.7881 27.9104 38.0164 27.9081 39.2446C27.9075 39.5726 28.0328 39.8229 28.34 39.954C28.4325 39.9935 28.5254 40.0122 28.6151 40.0128H28.623C28.9921 40.0106 29.3045 39.7003 29.3056 39.2627C29.3093 37.9087 29.3107 36.5546 29.3026 35.2007C29.3016 35.0204 29.3562 34.9813 29.5261 34.9829C30.0877 34.9883 30.6495 34.9877 31.2113 34.9872C31.5004 34.9869 31.7896 34.9866 32.0787 34.9872C32.3016 34.9876 32.5223 34.9691 32.7395 34.9205C34.0675 34.6237 34.9345 33.5152 34.9413 32.1005C34.9453 31.2495 34.9457 30.3986 34.9388 29.5478C34.9376 29.3956 34.9749 29.342 35.1343 29.3479C35.4668 29.36 35.8001 29.3516 36.1331 29.3516C36.433 29.3515 36.7329 29.3518 37.0328 29.352C37.7762 29.3527 38.5195 29.3533 39.2629 29.3493C39.6624 29.3471 39.9547 29.0505 39.9616 28.6653C39.9686 28.28 39.6869 27.9818 39.2882 27.9557C39.1998 27.95 39.1107 27.9532 39.022 27.9532C37.7345 27.9531 36.447 27.9526 35.1596 27.9538C35.0354 27.954 34.9358 27.9661 34.938 27.7782C34.9477 26.92 34.9445 26.0617 34.9398 25.2034C34.9392 25.0782 34.9761 25.0373 35.1024 25.0398C35.4723 25.0469 35.8423 25.0422 36.2123 25.0421C36.5004 25.0421 36.7886 25.0423 37.0767 25.0425C37.7875 25.0429 38.4982 25.0433 39.209 25.0408C39.6727 25.0391 39.9826 24.7267 39.9611 24.2965C39.9416 23.9055 39.6343 23.6407 39.1874 23.64C37.8407 23.638 36.4941 23.6362 35.1475 23.643C34.98 23.6438 34.9364 23.5964 34.9382 23.4317C34.9469 22.6771 34.9421 21.9223 34.9422 21.1675C34.9422 20.7295 34.9422 20.7295 35.3822 20.7295C35.7476 20.7295 36.113 20.7295 36.4784 20.7296C37.3857 20.7298 38.2929 20.73 39.2002 20.7288C39.6485 20.7282 39.9574 20.4446 39.9616 20.038C39.966 19.6211 39.6549 19.3293 39.1963 19.3287C37.8569 19.3268 36.5177 19.323 35.1785 19.3329C34.9768 19.3344 34.9347 19.276 34.9376 19.0853C34.9489 18.3456 34.9422 17.6055 34.9422 16.8656C34.9421 16.4179 34.9421 16.4179 35.3955 16.4179C35.7558 16.4179 36.116 16.418 36.4762 16.4181C37.3813 16.4184 38.2863 16.4187 39.1913 16.4169C39.6724 16.416 39.9865 16.1056 39.961 15.668C39.9385 15.2846 39.6344 15.017 39.205 15.0162C37.8509 15.0135 36.4969 15.0145 35.1428 15.0159C35.0247 15.016 34.9361 15.0244 34.938 14.8498C34.9474 13.9915 34.9454 13.1332 34.9392 12.2749C34.9382 12.1331 34.9893 12.0976 35.1192 12.1021C35.3409 12.1098 35.5631 12.104 35.7851 12.104C36.9246 12.104 38.064 12.1028 39.2035 12.1048C39.5314 12.1053 39.7814 11.978 39.9107 11.67C40.1114 11.192 39.763 10.7085 39.215 10.7069C38.4643 10.7048 37.7137 10.705 36.963 10.7053C36.3892 10.7055 35.8154 10.7057 35.2416 10.7047C35.2018 10.7047 35.1671 10.7053 35.1371 10.706C34.9123 10.7109 34.9437 10.7159 34.9429 10.417C34.9407 9.59578 34.9468 8.77451 34.9413 7.95338C34.9301 6.27049 33.7329 5.07693 32.0532 5.07107C31.2023 5.0681 30.3513 5.06654 29.5005 5.074C29.3437 5.07542 29.3027 5.02987 29.3036 4.87533C29.3102 3.82468 29.3071 2.77398 29.307 1.72332C29.3069 1.39036 29.3144 1.05713 29.3037 0.724522C29.2912 0.340372 28.9924 0.0550441 28.6176 0.0510042C28.2389 0.046831 27.9439 0.319062 27.9126 0.704855C27.906 0.785743 27.9091 0.867564 27.9091 0.948895C27.9089 2.25114 27.9085 3.55342 27.9099 4.85567C27.91 4.98028 27.9212 5.07706 27.7331 5.07476C26.875 5.06419 26.0166 5.06796 25.1583 5.07271C25.0327 5.07342 24.9932 5.03551 24.9952 4.90961C25.002 4.49531 24.9978 4.08093 24.9976 3.66659C24.9973 2.70468 25.0009 1.74272 24.9948 0.780949C24.992 0.33238 24.6743 0.0297833 24.2514 0.0515813C23.8604 0.0717367 23.596 0.379439 23.5955 0.825433C23.5937 2.1647 23.5927 3.50392 23.5973 4.84319C23.5978 5.00044 23.5792 5.07875 23.3869 5.07542C22.662 5.06304 21.9368 5.07049 21.2117 5.07049C20.6845 5.07045 20.6845 5.07045 20.6845 4.54201C20.6845 3.29895 20.6858 2.05589 20.6838 0.812869C20.683 0.337885 20.3649 0.0219697 19.9266 0.0518921C19.5451 0.077952 19.2846 0.384189 19.2841 0.816243C19.2827 2.15547 19.2788 3.49478 19.2886 4.83396C19.2901 5.03462 19.2327 5.078 19.0415 5.07507C18.2944 5.06375 17.547 5.07045 16.7996 5.07049C16.3733 5.07054 16.3733 5.07054 16.3733 4.63999C16.3733 3.36732 16.3749 2.09469 16.3724 0.822059C16.3715 0.341126 16.0616 0.0267644 15.6243 0.0515369C15.2397 0.0732905 14.9725 0.376243 14.9716 0.806565C14.969 2.15316 14.9664 3.49988 14.9751 4.84648C14.9763 5.03627 14.9197 5.0772 14.7397 5.07467C14.0073 5.06446 13.2747 5.07045 12.5422 5.07045C12.0589 5.07049 12.0589 5.07045 12.0589 4.58588C12.0588 3.32799 12.0575 2.07014 12.0597 0.812292C12.0604 0.4843 11.9346 0.233379 11.6276 0.102902C11.5338 0.0629908 11.4397 0.0443893 11.3489 0.0444337C10.9776 0.0444337 10.6633 0.355777 10.6623 0.794312ZM7.89929 33.5831C7.18156 33.5829 6.65157 33.1942 6.47288 32.5487C6.43479 32.411 6.42946 32.2715 6.42946 32.131C6.42924 24.0667 6.4287 16.0025 6.42995 7.93824C6.43012 7.05593 7.0089 6.4744 7.88726 6.47422C15.9515 6.47298 24.0157 6.47302 32.0799 6.47422C32.9587 6.4744 33.538 7.05549 33.5381 7.93731C33.5394 15.9941 33.5393 24.051 33.5383 32.1078C33.5381 33.0137 32.9611 33.583 32.0476 33.5833C28.0229 33.5842 23.9982 33.5837 19.9735 33.5837C18.9103 33.5837 17.8472 33.5837 16.784 33.5837C15.9091 33.5838 15.0343 33.5838 14.1594 33.5838C12.0727 33.5838 9.986 33.5837 7.89929 33.5831Z" fill="white"/>
</mask>
<g mask="url(#mask0)">
<path fill-rule="evenodd" clip-rule="evenodd" d="M10.6623 0.794312C10.6592 2.14832 10.6575 3.50241 10.6655 4.85642C10.6666 5.03653 10.6122 5.07591 10.4421 5.07422C9.60606 5.06597 8.76992 5.06867 7.93383 5.07089C6.22702 5.07538 5.02941 6.27356 5.02639 7.97877C5.02493 8.82228 5.0224 9.66583 5.02924 10.5093C5.03048 10.6613 4.99323 10.7129 4.8339 10.7093C4.36797 10.6987 3.90169 10.7055 3.43554 10.7056C3.17405 10.7056 2.91257 10.7054 2.65117 10.7052C2.01729 10.7047 1.38347 10.7041 0.74968 10.7068C0.289658 10.7088 -0.0204862 11.0285 0.0069944 11.459C0.0313229 11.841 0.333387 12.1022 0.768104 12.1031C2.11474 12.1057 3.46142 12.107 4.80802 12.1005C4.98125 12.0996 5.03199 12.1475 5.02999 12.3228C5.02076 13.1292 5.01712 13.936 5.03168 14.7422C5.03572 14.9648 4.98107 15.0228 4.7551 15.0208C3.43079 15.0089 2.10622 15.0141 0.781822 15.0157C0.378937 15.0161 0.0985815 15.2203 0.0202241 15.5615C-0.0860578 16.0243 0.257649 16.416 0.780224 16.417C2.12686 16.4195 3.47354 16.4208 4.82014 16.4142C4.98684 16.4134 5.03159 16.4594 5.0299 16.6249C5.02147 17.4461 5.01898 18.2676 5.03101 19.0887C5.03385 19.2862 4.98049 19.3336 4.78613 19.3323C3.89405 19.3265 3.00193 19.3269 2.10977 19.3273C1.67004 19.3275 1.23035 19.3277 0.790613 19.3271C0.600202 19.3269 0.422799 19.3593 0.270302 19.4805C0.0344306 19.668 -0.0547592 19.9767 0.0441975 20.2586C0.148792 20.5564 0.399403 20.7281 0.749192 20.7286C2.09583 20.7305 3.44247 20.7322 4.7891 20.726C4.95994 20.7252 5.03465 20.7488 5.03119 20.9491C5.01805 21.7036 5.02591 22.4585 5.02595 23.2132C5.02595 23.6392 5.026 23.6392 4.59527 23.6392C4.23035 23.6393 3.86546 23.6392 3.50058 23.6391C2.59283 23.6388 1.68504 23.6384 0.777338 23.6402C0.295918 23.6411 -0.0181776 23.951 0.00717198 24.3887C0.0297691 24.7794 0.336806 25.0407 0.784797 25.0413C2.13139 25.0432 3.47807 25.0426 4.82475 25.0413C4.94218 25.0412 5.03203 25.0313 5.03012 25.2068C5.02067 26.065 5.02289 26.9234 5.02875 27.7817C5.02972 27.922 4.97983 27.9595 4.84939 27.955C4.62768 27.9473 4.40553 27.9532 4.18351 27.9532C3.04406 27.9532 1.90462 27.9547 0.76513 27.9527C0.436784 27.952 0.187549 28.0806 0.057738 28.3877C-0.144082 28.8648 0.206018 29.3493 0.752877 29.3505C2.08469 29.3534 3.41663 29.3587 4.74835 29.345C4.99141 29.3425 5.03421 29.4195 5.03092 29.6399C5.01858 30.461 5.02413 31.2825 5.02657 32.1038C5.03146 33.7783 6.23634 34.9809 7.91483 34.9861C8.76575 34.9888 9.61672 34.9906 10.4675 34.9831C10.6242 34.9817 10.6664 35.0269 10.6646 35.1817C10.6564 35.8624 10.6611 36.5431 10.6613 37.2239C10.6616 37.9193 10.6571 38.615 10.6634 39.3104C10.667 39.6993 10.9555 39.9919 11.3276 40.006C11.716 40.0206 12.0241 39.7457 12.0556 39.3525C12.0627 39.2642 12.059 39.175 12.059 39.0863C12.0592 37.7914 12.0595 36.4965 12.0583 35.2017C12.0581 35.0776 12.0461 34.98 12.2347 34.9823C13.0929 34.993 13.9513 34.9892 14.8096 34.9844C14.9349 34.9837 14.975 35.021 14.9729 35.1473C14.966 35.5615 14.9704 35.9759 14.9705 36.3903C14.9705 37.3448 14.9681 38.2993 14.9718 39.2538C14.9736 39.7269 15.2989 40.0403 15.7384 40.005C16.1171 39.9745 16.372 39.6688 16.3726 39.2319C16.3745 37.8852 16.3764 36.5386 16.3697 35.192C16.3689 35.0248 16.416 34.9811 16.5809 34.9828C17.3947 34.9912 18.2088 34.995 19.0225 34.9811C19.2385 34.9774 19.2904 35.0356 19.2888 35.2486C19.2784 36.5803 19.2845 37.9122 19.2829 39.2441C19.2825 39.5613 19.4013 39.808 19.6955 39.9445C20.1746 40.1667 20.6814 39.8193 20.6831 39.2633C20.6873 37.9166 20.6892 36.57 20.6795 35.2233C20.678 35.0231 20.7348 34.9792 20.9264 34.982C21.6883 34.9933 22.4505 34.9867 23.2127 34.9866C23.5947 34.9866 23.5947 34.9866 23.5948 35.3726C23.5948 36.66 23.5934 37.9474 23.5955 39.2349C23.5963 39.7155 23.9053 40.0297 24.3435 40.0054C24.7344 39.9838 24.9961 39.678 24.9969 39.2286C24.9991 37.8893 25.0016 36.5501 24.9932 35.2109C24.992 35.0227 25.0473 34.9796 25.2282 34.9823C25.6498 34.9887 26.0716 34.9881 26.4933 34.9875C26.7745 34.9871 27.0557 34.9867 27.3368 34.9884C27.3909 34.9887 27.4497 34.9818 27.5088 34.975C27.6496 34.9586 27.7915 34.9423 27.8719 35.0233C27.986 35.1386 27.9073 35.3762 27.9077 35.5599C27.9105 36.7881 27.9104 38.0164 27.9081 39.2446C27.9075 39.5726 28.0328 39.8229 28.34 39.954C28.4325 39.9935 28.5254 40.0122 28.6151 40.0128H28.623C28.9921 40.0106 29.3045 39.7003 29.3056 39.2627C29.3093 37.9087 29.3107 36.5546 29.3026 35.2007C29.3016 35.0204 29.3562 34.9813 29.5261 34.9829C30.0877 34.9883 30.6495 34.9877 31.2113 34.9872C31.5004 34.9869 31.7896 34.9866 32.0787 34.9872C32.3016 34.9876 32.5223 34.9691 32.7395 34.9205C34.0675 34.6237 34.9345 33.5152 34.9413 32.1005C34.9453 31.2495 34.9457 30.3986 34.9388 29.5478C34.9376 29.3956 34.9749 29.342 35.1343 29.3479C35.4668 29.36 35.8001 29.3516 36.1331 29.3516C36.433 29.3515 36.7329 29.3518 37.0328 29.352C37.7762 29.3527 38.5195 29.3533 39.2629 29.3493C39.6624 29.3471 39.9547 29.0505 39.9616 28.6653C39.9686 28.28 39.6869 27.9818 39.2882 27.9557C39.1998 27.95 39.1107 27.9532 39.022 27.9532C37.7345 27.9531 36.447 27.9526 35.1596 27.9538C35.0354 27.954 34.9358 27.9661 34.938 27.7782C34.9477 26.92 34.9445 26.0617 34.9398 25.2034C34.9392 25.0782 34.9761 25.0373 35.1024 25.0398C35.4723 25.0469 35.8423 25.0422 36.2123 25.0421C36.5004 25.0421 36.7886 25.0423 37.0767 25.0425C37.7875 25.0429 38.4982 25.0433 39.209 25.0408C39.6727 25.0391 39.9826 24.7267 39.9611 24.2965C39.9416 23.9055 39.6343 23.6407 39.1874 23.64C37.8407 23.638 36.4941 23.6362 35.1475 23.643C34.98 23.6438 34.9364 23.5964 34.9382 23.4317C34.9469 22.6771 34.9421 21.9223 34.9422 21.1675C34.9422 20.7295 34.9422 20.7295 35.3822 20.7295C35.7476 20.7295 36.113 20.7295 36.4784 20.7296C37.3857 20.7298 38.2929 20.73 39.2002 20.7288C39.6485 20.7282 39.9574 20.4446 39.9616 20.038C39.966 19.6211 39.6549 19.3293 39.1963 19.3287C37.8569 19.3268 36.5177 19.323 35.1785 19.3329C34.9768 19.3344 34.9347 19.276 34.9376 19.0853C34.9489 18.3456 34.9422 17.6055 34.9422 16.8656C34.9421 16.4179 34.9421 16.4179 35.3955 16.4179C35.7558 16.4179 36.116 16.418 36.4762 16.4181C37.3813 16.4184 38.2863 16.4187 39.1913 16.4169C39.6724 16.416 39.9865 16.1056 39.961 15.668C39.9385 15.2846 39.6344 15.017 39.205 15.0162C37.8509 15.0135 36.4969 15.0145 35.1428 15.0159C35.0247 15.016 34.9361 15.0244 34.938 14.8498C34.9474 13.9915 34.9454 13.1332 34.9392 12.2749C34.9382 12.1331 34.9893 12.0976 35.1192 12.1021C35.3409 12.1098 35.5631 12.104 35.7851 12.104C36.9246 12.104 38.064 12.1028 39.2035 12.1048C39.5314 12.1053 39.7814 11.978 39.9107 11.67C40.1114 11.192 39.763 10.7085 39.215 10.7069C38.4643 10.7048 37.7137 10.705 36.963 10.7053C36.3892 10.7055 35.8154 10.7057 35.2416 10.7047C35.2018 10.7047 35.1671 10.7053 35.1371 10.706C34.9123 10.7109 34.9437 10.7159 34.9429 10.417C34.9407 9.59578 34.9468 8.77451 34.9413 7.95338C34.9301 6.27049 33.7329 5.07693 32.0532 5.07107C31.2023 5.0681 30.3513 5.06654 29.5005 5.074C29.3437 5.07542 29.3027 5.02987 29.3036 4.87533C29.3102 3.82468 29.3071 2.77398 29.307 1.72332C29.3069 1.39036 29.3144 1.05713 29.3037 0.724522C29.2912 0.340372 28.9924 0.0550441 28.6176 0.0510042C28.2389 0.046831 27.9439 0.319062 27.9126 0.704855C27.906 0.785743 27.9091 0.867564 27.9091 0.948895C27.9089 2.25114 27.9085 3.55342 27.9099 4.85567C27.91 4.98028 27.9212 5.07706 27.7331 5.07476C26.875 5.06419 26.0166 5.06796 25.1583 5.07271C25.0327 5.07342 24.9932 5.03551 24.9952 4.90961C25.002 4.49531 24.9978 4.08093 24.9976 3.66659C24.9973 2.70468 25.0009 1.74272 24.9948 0.780949C24.992 0.33238 24.6743 0.0297833 24.2514 0.0515813C23.8604 0.0717367 23.596 0.379439 23.5955 0.825433C23.5937 2.1647 23.5927 3.50392 23.5973 4.84319C23.5978 5.00044 23.5792 5.07875 23.3869 5.07542C22.662 5.06304 21.9368 5.07049 21.2117 5.07049C20.6845 5.07045 20.6845 5.07045 20.6845 4.54201C20.6845 3.29895 20.6858 2.05589 20.6838 0.812869C20.683 0.337885 20.3649 0.0219697 19.9266 0.0518921C19.5451 0.077952 19.2846 0.384189 19.2841 0.816243C19.2827 2.15547 19.2788 3.49478 19.2886 4.83396C19.2901 5.03462 19.2327 5.078 19.0415 5.07507C18.2944 5.06375 17.547 5.07045 16.7996 5.07049C16.3733 5.07054 16.3733 5.07054 16.3733 4.63999C16.3733 3.36732 16.3749 2.09469 16.3724 0.822059C16.3715 0.341126 16.0616 0.0267644 15.6243 0.0515369C15.2397 0.0732905 14.9725 0.376243 14.9716 0.806565C14.969 2.15316 14.9664 3.49988 14.9751 4.84648C14.9763 5.03627 14.9197 5.0772 14.7397 5.07467C14.0073 5.06446 13.2747 5.07045 12.5422 5.07045C12.0589 5.07049 12.0589 5.07045 12.0589 4.58588C12.0588 3.32799 12.0575 2.07014 12.0597 0.812292C12.0604 0.4843 11.9346 0.233379 11.6276 0.102902C11.5338 0.0629908 11.4397 0.0443893 11.3489 0.0444337C10.9776 0.0444337 10.6633 0.355777 10.6623 0.794312ZM7.89929 33.5831C7.18156 33.5829 6.65157 33.1942 6.47288 32.5487C6.43479 32.411 6.42946 32.2715 6.42946 32.131C6.42924 24.0667 6.4287 16.0025 6.42995 7.93824C6.43012 7.05593 7.0089 6.4744 7.88726 6.47422C15.9515 6.47298 24.0157 6.47302 32.0799 6.47422C32.9587 6.4744 33.538 7.05549 33.5381 7.93731C33.5394 15.9941 33.5393 24.051 33.5383 32.1078C33.5381 33.0137 32.9611 33.583 32.0476 33.5833C28.0229 33.5842 23.9982 33.5837 19.9735 33.5837C18.9103 33.5837 17.8472 33.5837 16.784 33.5837C15.9091 33.5838 15.0343 33.5838 14.1594 33.5838C12.0727 33.5838 9.986 33.5837 7.89929 33.5831Z" fill="url(#paint0_linear)"/>
</g>
<mask id="mask1" mask-type="alpha" maskUnits="userSpaceOnUse" x="9" y="9" width="22" height="22">
<path fill-rule="evenodd" clip-rule="evenodd" d="M19.9437 9.19024C16.9326 9.19019 13.9214 9.18926 10.9103 9.19072C9.81895 9.19126 9.10219 9.90628 9.10197 10.9969C9.10072 17.0191 9.10086 23.0415 9.10188 29.0638C9.10201 30.1512 9.82148 30.8664 10.9136 30.8665C16.9285 30.8673 22.9434 30.8673 28.9583 30.8665C30.0644 30.8664 30.7779 30.1535 30.7781 29.0493C30.7788 23.0344 30.7786 17.0194 30.7771 11.0046C30.7771 10.8646 30.7738 10.722 30.7475 10.5853C30.5847 9.73976 29.8988 9.19157 28.9994 9.19099C27.6423 9.1901 26.2856 9.18988 24.9285 9.18988C23.267 9.18988 21.6051 9.19024 19.9437 9.19024ZM28.8853 10.5822C29.3055 10.5822 29.3861 10.6648 29.3861 11.0923C29.3861 17.0474 29.3861 23.0024 29.3861 28.9574C29.3861 29.3983 29.3099 29.4749 28.8706 29.475C22.9156 29.4751 16.9605 29.4751 11.0055 29.4749C10.5692 29.4749 10.4937 29.3978 10.4937 28.954C10.4936 22.9989 10.4936 17.0439 10.4937 11.0888C10.4937 10.6639 10.5747 10.5822 10.998 10.5822C13.9866 10.5821 16.9752 10.5821 19.9638 10.5821C22.9377 10.5821 25.9114 10.5821 28.8853 10.5822Z" fill="white"/>
</mask>
<g mask="url(#mask1)">
<path fill-rule="evenodd" clip-rule="evenodd" d="M19.9437 9.19024C16.9326 9.19019 13.9214 9.18926 10.9103 9.19072C9.81895 9.19126 9.10219 9.90628 9.10197 10.9969C9.10072 17.0191 9.10086 23.0415 9.10188 29.0638C9.10201 30.1512 9.82148 30.8664 10.9136 30.8665C16.9285 30.8673 22.9434 30.8673 28.9583 30.8665C30.0644 30.8664 30.7779 30.1535 30.7781 29.0493C30.7788 23.0344 30.7786 17.0194 30.7771 11.0046C30.7771 10.8646 30.7738 10.722 30.7475 10.5853C30.5847 9.73976 29.8988 9.19157 28.9994 9.19099C27.6423 9.1901 26.2856 9.18988 24.9285 9.18988C23.267 9.18988 21.6051 9.19024 19.9437 9.19024ZM28.8853 10.5822C29.3055 10.5822 29.3861 10.6648 29.3861 11.0923C29.3861 17.0474 29.3861 23.0024 29.3861 28.9574C29.3861 29.3983 29.3099 29.4749 28.8706 29.475C22.9156 29.4751 16.9605 29.4751 11.0055 29.4749C10.5692 29.4749 10.4937 29.3978 10.4937 28.954C10.4936 22.9989 10.4936 17.0439 10.4937 11.0888C10.4937 10.6639 10.5747 10.5822 10.998 10.5822C13.9866 10.5821 16.9752 10.5821 19.9638 10.5821C22.9377 10.5821 25.9114 10.5821 28.8853 10.5822Z" fill="url(#paint1_linear)"/>
</g>
<mask id="mask2" mask-type="alpha" maskUnits="userSpaceOnUse" x="12" y="18" width="2" height="6">
<path fill-rule="evenodd" clip-rule="evenodd" d="M13.1866 18.87C12.7783 18.8719 12.4939 19.1787 12.4915 19.6257C12.489 20.0915 12.4909 20.5573 12.4909 21.0231C12.4909 21.4963 12.4893 21.9696 12.4914 22.4429C12.4935 22.8888 12.7779 23.1986 13.1844 23.2025C13.5919 23.2064 13.8896 22.8983 13.8912 22.4567C13.8946 21.5103 13.8944 20.5638 13.8909 19.6174C13.8893 19.176 13.5969 18.8699 13.1906 18.8699C13.1892 18.8699 13.1879 18.87 13.1866 18.87Z" fill="white"/>
</mask>
<g mask="url(#mask2)">
<path fill-rule="evenodd" clip-rule="evenodd" d="M13.1866 18.87C12.7783 18.8719 12.4939 19.1787 12.4915 19.6257C12.489 20.0915 12.4909 20.5573 12.4909 21.0231C12.4909 21.4963 12.4893 21.9696 12.4914 22.4429C12.4935 22.8888 12.7779 23.1986 13.1844 23.2025C13.5919 23.2064 13.8896 22.8983 13.8912 22.4567C13.8946 21.5103 13.8944 20.5638 13.8909 19.6174C13.8893 19.176 13.5969 18.8699 13.1906 18.8699C13.1892 18.8699 13.1879 18.87 13.1866 18.87Z" fill="url(#paint2_linear)"/>
</g>
<mask id="mask3" mask-type="alpha" maskUnits="userSpaceOnUse" x="12" y="24" width="2" height="4">
<path fill-rule="evenodd" clip-rule="evenodd" d="M12.4921 25.468C12.4874 25.749 12.4912 26.03 12.4912 26.3109C12.4911 26.4514 12.4911 26.5919 12.4911 26.7323C12.491 26.8729 12.4882 27.0135 12.4914 27.1538C12.5011 27.5808 12.7945 27.886 13.1917 27.8854C13.5886 27.8849 13.8862 27.5803 13.8909 27.1527C13.8972 26.5908 13.8973 26.0288 13.8908 25.4669C13.8859 25.0564 13.5866 24.7503 13.2018 24.7443C13.198 24.7442 13.1942 24.7442 13.1904 24.7442C12.8022 24.7442 12.499 25.0543 12.4921 25.468Z" fill="white"/>
</mask>
<g mask="url(#mask3)">
<path fill-rule="evenodd" clip-rule="evenodd" d="M12.4921 25.468C12.4874 25.749 12.4912 26.03 12.4912 26.3109C12.4911 26.4514 12.4911 26.5919 12.4911 26.7323C12.491 26.8729 12.4882 27.0135 12.4914 27.1538C12.5011 27.5808 12.7945 27.886 13.1917 27.8854C13.5886 27.8849 13.8862 27.5803 13.8909 27.1527C13.8972 26.5908 13.8973 26.0288 13.8908 25.4669C13.8859 25.0564 13.5866 24.7503 13.2018 24.7443C13.198 24.7442 13.1942 24.7442 13.1904 24.7442C12.8022 24.7442 12.499 25.0543 12.4921 25.468Z" fill="url(#paint3_linear)"/>
</g>
<mask id="mask4" mask-type="alpha" maskUnits="userSpaceOnUse" x="12" y="14" width="2" height="4">
<path fill-rule="evenodd" clip-rule="evenodd" d="M13.1858 14.1858C12.7969 14.1905 12.5011 14.4921 12.4923 14.9023C12.4863 15.1831 12.4911 15.4641 12.4911 15.7451C12.491 16.0334 12.4865 16.3218 12.492 16.61C12.4998 17.0212 12.7953 17.3215 13.1855 17.3234C13.5788 17.3254 13.8828 17.0329 13.8894 16.6214C13.8986 16.0449 13.8986 15.4681 13.8894 14.8916C13.8829 14.4876 13.5742 14.1857 13.1944 14.1858C13.1916 14.1858 13.1887 14.1858 13.1858 14.1858Z" fill="white"/>
</mask>
<g mask="url(#mask4)">
<path fill-rule="evenodd" clip-rule="evenodd" d="M13.1858 14.1858C12.7969 14.1905 12.5011 14.4921 12.4923 14.9023C12.4863 15.1831 12.4911 15.4641 12.4911 15.7451C12.491 16.0334 12.4865 16.3218 12.492 16.61C12.4998 17.0212 12.7953 17.3215 13.1855 17.3234C13.5788 17.3254 13.8828 17.0329 13.8894 16.6214C13.8986 16.0449 13.8986 15.4681 13.8894 14.8916C13.8829 14.4876 13.5742 14.1857 13.1944 14.1858C13.1916 14.1858 13.1887 14.1858 13.1858 14.1858Z" fill="url(#paint4_linear)"/>
</g>
<defs>
<linearGradient id="paint0_linear" x1="-2.00309e-05" y1="40.0128" x2="39.9681" y2="40.0128" gradientUnits="userSpaceOnUse">
<stop stop-color="#8700FF"/>
<stop offset="1" stop-color="#00C8FF"/>
</linearGradient>
<linearGradient id="paint1_linear" x1="9.10108" y1="30.8671" x2="30.7785" y2="30.8671" gradientUnits="userSpaceOnUse">
<stop stop-color="#8700FF"/>
<stop offset="1" stop-color="#00C8FF"/>
</linearGradient>
<linearGradient id="paint2_linear" x1="12.4902" y1="23.2025" x2="13.8937" y2="23.2025" gradientUnits="userSpaceOnUse">
<stop stop-color="#8700FF"/>
<stop offset="1" stop-color="#00C8FF"/>
</linearGradient>
<linearGradient id="paint3_linear" x1="12.4897" y1="27.8854" x2="13.8957" y2="27.8854" gradientUnits="userSpaceOnUse">
<stop stop-color="#8700FF"/>
<stop offset="1" stop-color="#00C8FF"/>
</linearGradient>
<linearGradient id="paint4_linear" x1="12.4893" y1="17.3234" x2="13.8963" y2="17.3234" gradientUnits="userSpaceOnUse">
<stop stop-color="#8700FF"/>
<stop offset="1" stop-color="#00C8FF"/>
</linearGradient>
</defs>
</svg>
