<svg width="37" height="40" viewBox="0 0 37 40" fill="none" xmlns="http://www.w3.org/2000/svg">
<mask id="mask0" mask-type="alpha" maskUnits="userSpaceOnUse" x="0" y="0" width="37" height="40">
<path fill-rule="evenodd" clip-rule="evenodd" d="M9.9845 0.0194463C8.9301 0.128062 8.10104 0.646733 7.46614 1.47659C6.66392 2.52505 6.18184 3.67539 6.38303 5.03597C6.52035 5.96452 6.88992 6.79185 7.43114 7.54817C8.29533 8.75579 9.42755 9.67132 10.6528 10.4831C11.3327 10.9337 12.0429 11.3327 12.7684 11.7047C12.8397 11.7413 12.9108 11.778 13.0077 11.828C12.9301 11.8676 12.8644 11.8645 12.8038 11.8613C12.7874 11.8605 12.7713 11.8596 12.7555 11.8596C8.84031 11.8607 4.92501 11.8607 1.00979 11.8602C0.811916 11.8602 0.613776 11.8566 0.435792 11.9623C0.193577 12.1062 0.0420819 12.3126 0.0123145 12.5978C0.00385382 12.6787 0.00194906 12.7606 0.00190476 12.8421C0.0014175 15.4862 0.00256921 18.1304 0 20.7745V20.7784C0.000177187 21.059 0.0453156 21.3166 0.260155 21.519C0.420598 21.6702 0.609612 21.7495 0.830875 21.7498C1.21156 21.7504 1.59296 21.7663 1.97249 21.746C2.19149 21.7344 2.22441 21.8132 2.22383 22.0091C2.21728 24.3066 2.21958 26.6041 2.21958 28.9016C2.21958 32.2662 2.22831 35.6309 2.21174 38.9955C2.20873 39.6088 2.60718 39.9845 3.2031 39.9846H3.20492C11.2399 39.9763 19.2459 39.9767 27.223 39.9771C29.1155 39.9772 31.0063 39.9773 32.8955 39.9772C33.5699 39.9772 33.8817 39.6669 33.8818 38.9963C33.8819 33.3342 33.8817 27.672 33.8823 22.0098C33.8823 21.7438 33.8538 21.7454 34.0686 21.747C34.0904 21.7472 34.1148 21.7472 34.142 21.7472C34.324 21.7463 34.506 21.7465 34.6881 21.7467C34.8528 21.7469 35.0174 21.7471 35.182 21.7464C35.6999 21.7447 35.98 21.5146 36.0926 21.0017C36.0983 20.9757 36.1107 20.9512 36.1201 20.926V12.6864C36.1061 12.6277 36.0915 12.5693 36.0783 12.5105C35.9981 12.155 35.6926 11.8906 35.3294 11.8663C35.2346 11.8599 35.1392 11.8608 35.044 11.8608C31.0812 11.8606 27.1184 11.8606 23.1555 11.8606H22.9108C22.9249 11.7685 22.9961 11.762 23.0435 11.7348C24.1101 11.1237 25.1976 10.5383 26.1985 9.82915C27.3789 8.99269 28.1844 7.88049 28.2056 6.35012C28.2212 5.226 27.3897 3.4186 25.6435 2.82219C23.8981 2.226 22.3154 2.48487 20.9205 3.72173C19.9516 4.58082 19.2823 5.65298 18.7374 6.81227C18.5034 7.31003 18.3037 7.82179 18.1219 8.3414C18.0445 8.31654 18.0452 8.24514 18.0247 8.19353C17.2862 6.33395 16.3125 4.5988 15.1427 2.98396C14.4113 1.97409 13.5268 1.0897 12.3851 0.522303C11.7444 0.20381 11.073 -4.42896e-05 10.3631 7.21775e-09C10.2381 7.21775e-09 10.1118 0.00633445 9.9845 0.0194463ZM10.1472 7.86197C9.45865 7.31371 8.84066 6.69453 8.36904 5.94361C7.94064 5.26157 7.65289 4.52062 7.78467 3.71216C7.94494 2.7293 8.42272 1.90769 9.30777 1.38587C9.71468 1.14596 10.1713 1.13227 10.6245 1.2342C11.1931 1.36204 11.7133 1.59282 12.1737 1.96372C13.1522 2.75189 13.8935 3.73037 14.5353 4.79956C15.4416 6.30946 16.2738 7.85236 16.8006 9.54259C16.9664 10.0744 17.0865 10.6159 17.1533 11.1688C17.1656 11.2711 17.1654 11.3748 17.1728 11.5114C14.6262 10.6263 12.239 9.52753 10.1472 7.86197ZM18.9865 11.4884C19.3588 9.48009 19.9293 7.54272 21.0495 5.80797C21.5301 5.06361 22.1223 4.42525 22.9173 3.99907C23.275 3.80731 23.6697 3.82241 24.0537 3.77759C24.6882 3.70361 25.2668 3.90281 25.7626 4.25847C26.3514 4.68097 26.6704 5.2944 26.7264 5.94844C26.7041 6.66746 26.3841 7.16297 25.9802 7.6194C25.7342 7.89723 25.45 8.12381 25.1308 8.3169C23.478 9.31659 21.8249 10.3153 20.0957 11.1802C19.7852 11.3355 19.4702 11.4824 19.1401 11.5926C19.1042 11.6046 19.0663 11.6185 19.0364 11.6185C18.9938 11.6185 18.9675 11.5903 18.9865 11.4884ZM1.28049 19.779C1.28647 17.7131 1.28713 15.6472 1.27982 13.5813C1.27911 13.3776 1.3212 13.3138 1.53971 13.3145C4.10645 13.3233 6.67313 13.3201 9.23991 13.3201C11.8066 13.3201 14.5949 13.3227 17.1616 13.3152C17.3675 13.3146 17.4121 13.3735 17.4114 13.5705C17.4042 15.6364 17.4043 17.7023 17.4113 19.7682C17.4121 19.9644 17.3685 20.024 17.162 20.0237C12.0216 20.0176 6.65967 20.0177 1.5192 20.0235C1.5188 20.0235 1.51845 20.0235 1.51805 20.0235C1.3219 20.0235 1.27996 19.9636 1.28049 19.779ZM34.5692 13.3162C34.7494 13.3161 34.8035 13.3573 34.8029 13.5448C34.7959 15.6315 34.7963 17.7183 34.8023 19.8051C34.8029 19.9819 34.7493 20.0229 34.5792 20.0225C31.9986 20.0173 29.418 20.0189 26.8373 20.0189C24.2705 20.0189 21.6152 20.0169 19.0485 20.0229C18.8609 20.0234 18.8036 19.9783 18.8043 19.7839C18.8114 17.7041 18.8113 15.6242 18.8043 13.5444C18.8036 13.3564 18.8586 13.3161 19.0384 13.3162C21.612 13.3187 24.2079 13.3199 26.8038 13.3199C29.3996 13.3199 31.9955 13.3187 34.5692 13.3162ZM17.1458 21.72C17.3554 21.7196 17.4121 21.7688 17.4118 21.982C17.4057 27.4625 17.4057 32.9431 17.412 38.4236C17.4122 38.6322 17.3497 38.6695 17.1558 38.6692C12.7742 38.6636 8.17107 38.6637 3.78946 38.669C3.60279 38.6692 3.54835 38.6268 3.54879 38.4329C3.55561 35.6857 3.55344 32.9385 3.55344 30.1912C3.55344 27.451 3.55584 24.7107 3.54862 21.9705C3.54808 21.7682 3.59956 21.7199 3.80031 21.7202C5.9775 21.7233 8.20913 21.7248 10.4414 21.7248C12.6945 21.7248 14.9483 21.7232 17.1458 21.72ZM18.8041 38.4341C18.8098 32.9467 18.8098 27.4592 18.8042 21.9717C18.8039 21.7683 18.8601 21.7202 19.0593 21.7204C23.4409 21.7263 27.9111 21.7261 32.2928 21.7207C32.4827 21.7204 32.5341 21.7679 32.5337 21.9599C32.5273 24.7071 32.5293 27.4543 32.5293 30.2015C32.5293 32.9487 32.5272 35.6959 32.534 38.4431C32.5345 38.6304 32.4843 38.6693 32.3039 38.6691C27.9153 38.6637 23.4381 38.6638 19.0496 38.6687C19.0491 38.6687 19.0486 38.6687 19.0481 38.6687C18.8664 38.6687 18.8039 38.6319 18.8041 38.4341Z" fill="white"/>
</mask>
<g mask="url(#mask0)">
<path fill-rule="evenodd" clip-rule="evenodd" d="M9.9845 0.0194463C8.9301 0.128062 8.10104 0.646733 7.46614 1.47659C6.66392 2.52505 6.18184 3.67539 6.38303 5.03597C6.52035 5.96452 6.88992 6.79185 7.43114 7.54817C8.29533 8.75579 9.42755 9.67132 10.6528 10.4831C11.3327 10.9337 12.0429 11.3327 12.7684 11.7047C12.8397 11.7413 12.9108 11.778 13.0077 11.828C12.9301 11.8676 12.8644 11.8645 12.8038 11.8613C12.7874 11.8605 12.7713 11.8596 12.7555 11.8596C8.84031 11.8607 4.92501 11.8607 1.00979 11.8602C0.811916 11.8602 0.613776 11.8566 0.435792 11.9623C0.193577 12.1062 0.0420819 12.3126 0.0123145 12.5978C0.00385382 12.6787 0.00194906 12.7606 0.00190476 12.8421C0.0014175 15.4862 0.00256921 18.1304 0 20.7745V20.7784C0.000177187 21.059 0.0453156 21.3166 0.260155 21.519C0.420598 21.6702 0.609612 21.7495 0.830875 21.7498C1.21156 21.7504 1.59296 21.7663 1.97249 21.746C2.19149 21.7344 2.22441 21.8132 2.22383 22.0091C2.21728 24.3066 2.21958 26.6041 2.21958 28.9016C2.21958 32.2662 2.22831 35.6309 2.21174 38.9955C2.20873 39.6088 2.60718 39.9845 3.2031 39.9846H3.20492C11.2399 39.9763 19.2459 39.9767 27.223 39.9771C29.1155 39.9772 31.0063 39.9773 32.8955 39.9772C33.5699 39.9772 33.8817 39.6669 33.8818 38.9963C33.8819 33.3342 33.8817 27.672 33.8823 22.0098C33.8823 21.7438 33.8538 21.7454 34.0686 21.747C34.0904 21.7472 34.1148 21.7472 34.142 21.7472C34.324 21.7463 34.506 21.7465 34.6881 21.7467C34.8528 21.7469 35.0174 21.7471 35.182 21.7464C35.6999 21.7447 35.98 21.5146 36.0926 21.0017C36.0983 20.9757 36.1107 20.9512 36.1201 20.926V12.6864C36.1061 12.6277 36.0915 12.5693 36.0783 12.5105C35.9981 12.155 35.6926 11.8906 35.3294 11.8663C35.2346 11.8599 35.1392 11.8608 35.044 11.8608C31.0812 11.8606 27.1184 11.8606 23.1555 11.8606H22.9108C22.9249 11.7685 22.9961 11.762 23.0435 11.7348C24.1101 11.1237 25.1976 10.5383 26.1985 9.82915C27.3789 8.99269 28.1844 7.88049 28.2056 6.35012C28.2212 5.226 27.3897 3.4186 25.6435 2.82219C23.8981 2.226 22.3154 2.48487 20.9205 3.72173C19.9516 4.58082 19.2823 5.65298 18.7374 6.81227C18.5034 7.31003 18.3037 7.82179 18.1219 8.3414C18.0445 8.31654 18.0452 8.24514 18.0247 8.19353C17.2862 6.33395 16.3125 4.5988 15.1427 2.98396C14.4113 1.97409 13.5268 1.0897 12.3851 0.522303C11.7444 0.20381 11.073 -4.42896e-05 10.3631 7.21775e-09C10.2381 7.21775e-09 10.1118 0.00633445 9.9845 0.0194463ZM10.1472 7.86197C9.45865 7.31371 8.84066 6.69453 8.36904 5.94361C7.94064 5.26157 7.65289 4.52062 7.78467 3.71216C7.94494 2.7293 8.42272 1.90769 9.30777 1.38587C9.71468 1.14596 10.1713 1.13227 10.6245 1.2342C11.1931 1.36204 11.7133 1.59282 12.1737 1.96372C13.1522 2.75189 13.8935 3.73037 14.5353 4.79956C15.4416 6.30946 16.2738 7.85236 16.8006 9.54259C16.9664 10.0744 17.0865 10.6159 17.1533 11.1688C17.1656 11.2711 17.1654 11.3748 17.1728 11.5114C14.6262 10.6263 12.239 9.52753 10.1472 7.86197ZM18.9865 11.4884C19.3588 9.48009 19.9293 7.54272 21.0495 5.80797C21.5301 5.06361 22.1223 4.42525 22.9173 3.99907C23.275 3.80731 23.6697 3.82241 24.0537 3.77759C24.6882 3.70361 25.2668 3.90281 25.7626 4.25847C26.3514 4.68097 26.6704 5.2944 26.7264 5.94844C26.7041 6.66746 26.3841 7.16297 25.9802 7.6194C25.7342 7.89723 25.45 8.12381 25.1308 8.3169C23.478 9.31659 21.8249 10.3153 20.0957 11.1802C19.7852 11.3355 19.4702 11.4824 19.1401 11.5926C19.1042 11.6046 19.0663 11.6185 19.0364 11.6185C18.9938 11.6185 18.9675 11.5903 18.9865 11.4884ZM1.28049 19.779C1.28647 17.7131 1.28713 15.6472 1.27982 13.5813C1.27911 13.3776 1.3212 13.3138 1.53971 13.3145C4.10645 13.3233 6.67313 13.3201 9.23991 13.3201C11.8066 13.3201 14.5949 13.3227 17.1616 13.3152C17.3675 13.3146 17.4121 13.3735 17.4114 13.5705C17.4042 15.6364 17.4043 17.7023 17.4113 19.7682C17.4121 19.9644 17.3685 20.024 17.162 20.0237C12.0216 20.0176 6.65967 20.0177 1.5192 20.0235C1.5188 20.0235 1.51845 20.0235 1.51805 20.0235C1.3219 20.0235 1.27996 19.9636 1.28049 19.779ZM34.5692 13.3162C34.7494 13.3161 34.8035 13.3573 34.8029 13.5448C34.7959 15.6315 34.7963 17.7183 34.8023 19.8051C34.8029 19.9819 34.7493 20.0229 34.5792 20.0225C31.9986 20.0173 29.418 20.0189 26.8373 20.0189C24.2705 20.0189 21.6152 20.0169 19.0485 20.0229C18.8609 20.0234 18.8036 19.9783 18.8043 19.7839C18.8114 17.7041 18.8113 15.6242 18.8043 13.5444C18.8036 13.3564 18.8586 13.3161 19.0384 13.3162C21.612 13.3187 24.2079 13.3199 26.8038 13.3199C29.3996 13.3199 31.9955 13.3187 34.5692 13.3162ZM17.1458 21.72C17.3554 21.7196 17.4121 21.7688 17.4118 21.982C17.4057 27.4625 17.4057 32.9431 17.412 38.4236C17.4122 38.6322 17.3497 38.6695 17.1558 38.6692C12.7742 38.6636 8.17107 38.6637 3.78946 38.669C3.60279 38.6692 3.54835 38.6268 3.54879 38.4329C3.55561 35.6857 3.55344 32.9385 3.55344 30.1912C3.55344 27.451 3.55584 24.7107 3.54862 21.9705C3.54808 21.7682 3.59956 21.7199 3.80031 21.7202C5.9775 21.7233 8.20913 21.7248 10.4414 21.7248C12.6945 21.7248 14.9483 21.7232 17.1458 21.72ZM18.8041 38.4341C18.8098 32.9467 18.8098 27.4592 18.8042 21.9717C18.8039 21.7683 18.8601 21.7202 19.0593 21.7204C23.4409 21.7263 27.9111 21.7261 32.2928 21.7207C32.4827 21.7204 32.5341 21.7679 32.5337 21.9599C32.5273 24.7071 32.5293 27.4543 32.5293 30.2015C32.5293 32.9487 32.5272 35.6959 32.534 38.4431C32.5345 38.6304 32.4843 38.6693 32.3039 38.6691C27.9153 38.6637 23.4381 38.6638 19.0496 38.6687C19.0491 38.6687 19.0486 38.6687 19.0481 38.6687C18.8664 38.6687 18.8039 38.6319 18.8041 38.4341Z" fill="url(#paint0_linear)"/>
</g>
<defs>
<linearGradient id="paint0_linear" x1="0" y1="39.9846" x2="36.1201" y2="39.9846" gradientUnits="userSpaceOnUse">
<stop stop-color="#8700FF"/>
<stop offset="1" stop-color="#00C8FF"/>
</linearGradient>
</defs>
</svg>
