<svg width="40" height="40" viewBox="0 0 40 40" fill="none" xmlns="http://www.w3.org/2000/svg">
<mask id="mask0" mask-type="alpha" maskUnits="userSpaceOnUse" x="0" y="0" width="40" height="40">
<path fill-rule="evenodd" clip-rule="evenodd" d="M0.0263672 0.0226746H39.3021V39.2811H0.0263672V0.0226746Z" fill="white"/>
</mask>
<g mask="url(#mask0)">
<path fill-rule="evenodd" clip-rule="evenodd" d="M31.8736 39.2811H7.4548C3.36915 39.2811 0.0263672 35.9383 0.0263672 31.8527V7.45113C0.0263672 3.36543 3.36915 0.022644 7.4548 0.022644H31.8736C35.9593 0.022644 39.3021 3.36543 39.3021 7.45113V31.8527C39.3021 35.9383 35.9593 39.2811 31.8736 39.2811Z" fill="#FFDB00"/>
</g>
<path fill-rule="evenodd" clip-rule="evenodd" d="M14.5482 26.2994C13.2178 24.583 12.6238 22.6082 12.604 20.4463C12.5879 19.9413 12.6547 19.4439 12.7127 18.9455C12.7332 18.7691 12.7849 18.6596 12.989 18.6768C15.8599 18.9181 18.2346 17.678 20.504 16.1222C20.8521 15.8835 21.2102 15.4696 21.5574 15.476C21.8669 15.4816 22.165 15.9606 22.4731 16.2248C23.691 17.2689 25.029 18.1055 26.5617 18.5996C26.7547 18.6618 26.9064 18.7155 26.9387 18.9739C27.3026 21.883 26.684 24.5217 24.7201 26.7338C21.8269 29.9925 17.2478 29.7821 14.5482 26.2994ZM24.5231 28.2253C26.9208 26.2179 27.901 23.5274 27.9998 20.5245C27.9778 19.7858 27.9235 19.1201 27.8166 18.4585C27.7627 18.1238 27.6021 17.9257 27.2589 17.8323C25.2781 17.2938 23.6605 16.1563 22.246 14.6966C21.741 14.1755 21.6834 14.1647 21.0709 14.5843C20.023 15.3019 18.9888 16.0405 17.8683 16.6448C16.0525 17.6242 14.1501 18.0345 12.1006 17.5983C11.727 17.5188 11.5819 17.391 11.6332 16.9793C11.821 15.4743 12.2857 14.0743 13.1549 12.8329C14.8404 10.4258 17.1173 9.05947 20.0753 8.93788C20.4093 8.92415 20.6636 8.80928 20.6553 8.45275C20.6468 8.09237 20.3805 7.99497 20.0495 8.0002C19.5344 8.00843 19.0244 8.05229 18.5205 8.15625C14.1002 9.06869 10.9429 12.8024 10.6765 17.4297C10.6368 18.1183 10.6866 18.2193 11.3631 18.3649C11.7398 18.4459 11.8302 18.5874 11.7776 18.976C11.394 21.8124 11.993 24.4241 13.6979 26.7272C16.4364 30.4266 21.1133 31.08 24.5231 28.2253Z" fill="black"/>
<path fill-rule="evenodd" clip-rule="evenodd" d="M31.1634 22.2449C30.9885 22.8609 30.7422 23.1727 30.2975 23.4134C30.1891 23.4721 30.1243 23.4688 30.0088 23.5034C29.9645 23.5167 29.9436 23.4952 29.9445 23.447C29.9532 22.9939 29.939 22.2288 29.9452 21.7759C29.9528 21.2246 29.9391 20.6735 29.9477 20.1222C29.9497 19.9911 29.9446 19.548 29.9426 19.4168C29.9409 19.2941 29.9679 19.2758 30.0834 19.3038C30.2723 19.3497 30.4061 19.3935 30.5649 19.5044C31.1732 19.9291 31.1371 20.5714 31.2039 20.8024C31.2783 21.0591 31.2257 22.0257 31.1634 22.2449ZM19.3637 33.3633C18.971 33.3642 18.6367 33.0424 18.6437 32.6229C18.6503 32.2364 18.9592 31.9075 19.3747 31.9112C19.7393 31.9144 20.0728 32.2288 20.0749 32.6294C20.0769 33.0414 19.7496 33.3598 19.3637 33.3633ZM8.76481 20.1846C8.77342 20.7358 8.7596 21.287 8.76728 21.8383C8.77353 22.2912 8.75927 23.0563 8.76794 23.5094C8.76881 23.5576 8.74792 23.5791 8.70372 23.5658C8.58811 23.5311 8.52339 23.5345 8.41497 23.4758C7.97025 23.2351 7.724 22.9232 7.549 22.3073C7.48675 22.0881 7.43416 21.1215 7.50852 20.8648C7.57543 20.6338 7.53929 19.9915 8.14761 19.5667C8.30638 19.4559 8.4402 19.4121 8.62913 19.3662C8.74463 19.3381 8.77156 19.3565 8.7698 19.4792C8.76794 19.6104 8.76273 20.0535 8.76481 20.1846ZM31.3236 19.1153C30.7117 18.5409 30.6453 17.9518 30.683 17.2364C30.6966 16.9788 30.6858 16.7192 30.6752 16.4611C30.5115 12.4669 28.7472 9.38741 25.4926 7.16144C24.4257 6.43179 23.2276 6.00384 22.0134 5.6137C20.2993 5.24028 18.5284 5.2395 16.7002 5.6137C15.4887 6.00312 14.2935 6.43012 13.2284 7.15738C9.96445 9.38563 8.19927 12.4715 8.03831 16.4739C8.02673 16.7618 8.01878 17.0509 8.03024 17.3385C8.05684 18.0059 7.99465 18.5568 7.39955 19.0745C7.07323 19.3583 6.94369 19.8017 6.79419 20.2128C6.63345 21.0296 6.61469 21.8234 6.79419 22.5852C6.85117 22.7226 6.90668 22.8607 6.96541 22.9973C7.35288 23.8977 8.0264 24.4024 8.99257 24.5083C9.39402 24.5523 9.57561 24.3861 9.57391 23.9698C9.56678 22.2363 9.56832 20.5026 9.57342 18.769C9.57429 18.486 9.4792 18.2895 9.19171 18.2443C9.00469 18.2149 8.9538 18.1253 8.95495 17.9411C8.96027 17.029 8.92808 16.115 9.06848 15.2095C10.1001 8.55769 16.9034 4.56233 23.0954 6.98666C27.052 8.53579 30.1287 12.4331 29.7608 17.9908C29.7512 18.1353 29.7157 18.2115 29.5658 18.2319C29.2009 18.2818 29.1367 18.5326 29.1385 18.86C29.1473 20.4415 29.1399 22.0231 29.1445 23.6046C29.1455 23.9426 29.0535 24.3081 29.436 24.5433C29.5664 24.6234 29.4727 24.7942 29.4381 24.9244C29.1673 25.9444 28.7594 26.9033 28.1768 27.7808C26.4908 30.32 24.0255 31.5477 21.1413 32.0819C20.8057 32.144 20.6202 32.0923 20.4083 31.7908C19.9379 31.1216 19.0144 31.0707 18.4288 31.6239C17.8547 32.1663 17.8516 33.0675 18.4221 33.6137C18.992 34.1593 19.8998 34.1336 20.3725 33.4944C20.6076 33.1767 20.874 33.0556 21.2265 33.0124C21.4492 32.9851 21.6707 32.9414 21.8901 32.8926C26.1721 31.9411 29.1155 29.4931 30.3154 25.1185C30.4501 24.6273 30.5505 24.1585 31.0726 23.9265C31.2001 23.8698 31.2951 23.725 31.3899 23.6081C32.1883 22.6232 32.2401 19.9755 31.3236 19.1153Z" fill="black"/>
</svg>
