<svg width="40" height="40" viewBox="0 0 40 40" fill="none" xmlns="http://www.w3.org/2000/svg">
<path fill-rule="evenodd" clip-rule="evenodd" d="M31.894 39.3333H7.43933C3.34769 39.3333 0 35.9842 0 31.8907V7.44265C0 3.34921 3.34769 0 7.43933 0H31.894C35.9856 0 39.3333 3.34921 39.3333 7.44265V31.8907C39.3333 35.9842 35.9856 39.3333 31.894 39.3333Z" fill="#8700FF"/>
<path fill-rule="evenodd" clip-rule="evenodd" d="M19.9802 5.84125C19.9479 5.57716 19.7921 5.4217 19.4901 5.35193C19.4428 5.33971 19.3927 5.33334 19.3426 5.33334H19.3425C19.0229 5.3334 18.76 5.57519 18.744 5.88386C18.7327 6.09861 18.7308 6.31678 18.7288 6.52772C18.7281 6.61376 18.7273 6.6998 18.7259 6.78584C18.7182 7.26473 18.706 7.75167 18.6942 8.22252C18.6843 8.61596 18.6742 9.02271 18.6666 9.42286C18.6605 9.7504 18.9295 9.99306 19.3061 9.99995L19.3125 10C19.4446 10 19.6121 9.92688 19.7392 9.81369C19.8616 9.70478 19.9286 9.57415 19.9281 9.4459C19.9259 8.88919 19.939 8.32286 19.9517 7.77524C19.9576 7.5221 19.9637 7.26039 19.9682 7.00285C19.9703 6.88172 19.9771 6.75822 19.9837 6.63877C19.998 6.37775 20.0129 6.10776 19.9802 5.84125Z" fill="black"/>
<path fill-rule="evenodd" clip-rule="evenodd" d="M25.9543 8.98772C25.8509 8.7807 25.6912 8.66666 25.5046 8.66666C25.3699 8.66666 25.2275 8.72868 25.1037 8.84131C24.9617 8.97045 24.8245 9.1095 24.6918 9.24394C24.642 9.29444 24.5921 9.34494 24.5419 9.39495C24.4284 9.50839 24.3151 9.622 24.2017 9.73561C23.7769 10.1615 23.3377 10.6018 22.8935 11.0214C22.8059 11.1042 22.7135 11.2047 22.6921 11.3222C22.621 11.5871 22.6984 11.7924 22.9222 11.9323C22.993 11.9766 23.0757 12 23.1612 12C23.2884 12 23.4145 11.9501 23.5165 11.8597C23.6584 11.7338 23.7935 11.5969 23.9242 11.4645C24.0086 11.3791 24.0958 11.2907 24.1838 11.2064C24.5985 10.809 25.0111 10.3955 25.4101 9.99545C25.5579 9.84732 25.7057 9.69918 25.8539 9.55142C25.9993 9.40659 26.0424 9.16427 25.9543 8.98772Z" fill="black"/>
<path fill-rule="evenodd" clip-rule="evenodd" d="M15.1406 10.4236C14.7653 10.0547 14.3904 9.67307 14.0278 9.304C13.9592 9.23407 13.8905 9.16419 13.8218 9.0943C13.7266 8.99758 13.6312 8.89774 13.5389 8.80128C13.4029 8.65915 13.2624 8.51221 13.1197 8.37171C13.0914 8.34392 13.0636 8.3137 13.0366 8.28448C12.9352 8.17452 12.8305 8.06086 12.6638 8.02231C12.612 8.00759 12.5582 8 12.5055 8H12.5055C12.33 8 12.1752 8.08386 12.081 8.23C11.955 8.42556 11.9772 8.65756 12.1392 8.83535C12.2451 8.95148 12.3595 9.07147 12.4891 9.20211C12.6331 9.34719 12.7802 9.49397 12.9225 9.63595C13.0839 9.79701 13.2508 9.96357 13.4138 10.1283C13.5351 10.2508 13.6572 10.3766 13.7752 10.4984C13.9966 10.7265 14.2254 10.9623 14.4588 11.1865C14.5573 11.2812 14.6846 11.3333 14.817 11.3333C15.0302 11.3333 15.2187 11.2024 15.2971 10.9997C15.3767 10.7939 15.3255 10.6054 15.1406 10.4236Z" fill="black"/>
<path fill-rule="evenodd" clip-rule="evenodd" d="M28.758 14.7416C28.7331 14.7407 28.7073 14.7402 28.6789 14.7402C28.624 14.7402 28.5684 14.742 28.5146 14.7437C28.4612 14.7455 28.4061 14.7473 28.3521 14.7473C28.3187 14.7473 28.2886 14.7466 28.26 14.7452C27.6534 14.7159 27.0368 14.7083 26.4404 14.701C26.2872 14.6991 26.134 14.6972 25.9807 14.695C25.8898 14.6937 25.7969 14.6872 25.707 14.681C25.605 14.674 25.4995 14.6667 25.3952 14.6667H25.3952C25.306 14.6667 25.2267 14.672 25.1525 14.683C24.8677 14.7249 24.6818 14.9575 24.6672 15.2898C24.6544 15.5823 24.8121 15.817 25.0786 15.9023L25.0857 15.9043C25.1364 15.9176 25.1888 15.9315 25.2465 15.9321C25.8981 15.9396 26.5338 15.9497 27.1358 15.9623C27.3309 15.9664 27.5292 15.9727 27.7211 15.9788C28.0467 15.9892 28.3834 16 28.7148 16C28.7329 16 28.7511 15.9999 28.7692 15.9999C28.9336 15.9993 29.0811 15.9338 29.1844 15.8154C29.2824 15.7032 29.3352 15.5505 29.3331 15.3855C29.3281 15.0019 29.1077 14.7551 28.758 14.7416Z" fill="black"/>
<path fill-rule="evenodd" clip-rule="evenodd" d="M13.4948 14.7587C13.2537 14.7419 12.9694 14.7247 12.6901 14.7247C12.6509 14.7247 12.6117 14.725 12.5725 14.7257C12.5661 14.7258 12.5597 14.7258 12.5534 14.7258C12.5079 14.7258 12.4611 14.7232 12.4158 14.7205C12.3696 14.7179 12.3218 14.7151 12.2744 14.7151C12.1913 14.7151 12.1227 14.7247 12.0602 14.7437C12.0397 14.7182 12.0106 14.7174 11.9962 14.7171C11.8356 14.7141 11.6749 14.7103 11.5143 14.7065C11.2229 14.6998 10.9217 14.6928 10.6252 14.6902C10.5333 14.6893 10.4394 14.6839 10.3486 14.6785C10.2494 14.6727 10.1468 14.6667 10.0455 14.6667C9.94278 14.6667 9.85218 14.6729 9.76867 14.6859C9.57135 14.7164 9.43071 14.8639 9.36198 15.1125C9.2987 15.3414 9.34098 15.5459 9.48755 15.7201C9.64333 15.9052 9.81965 15.929 9.95583 15.929C10.0232 15.929 10.092 15.9224 10.1585 15.916C10.2008 15.912 10.2442 15.9079 10.2868 15.9055C10.3263 15.9349 10.3682 15.9393 10.401 15.9393C10.4141 15.9393 10.4272 15.9386 10.4404 15.9379C10.4523 15.9373 10.4642 15.9366 10.476 15.9366H10.4788C10.6453 15.9382 10.8146 15.9429 10.9784 15.9476C11.1805 15.9533 11.3893 15.9591 11.5952 15.9591C11.6103 15.9591 11.6254 15.9591 11.6405 15.9591C11.664 15.959 11.6875 15.9589 11.711 15.9589C12.0727 15.9589 12.4408 15.9706 12.7967 15.9818C13.0092 15.9886 13.229 15.9955 13.4453 15.9999L13.4533 16C13.7209 16 13.9863 15.7278 13.9993 15.44C14.0159 15.0729 13.799 14.78 13.4948 14.7587Z" fill="black"/>
<path fill-rule="evenodd" clip-rule="evenodd" d="M28.2326 24.0406C28.2261 24.2753 28.2193 24.5179 28.2164 24.7568C28.2073 25.4983 28.1913 26.2522 28.1759 26.9813C28.17 27.2603 28.1641 27.5394 28.1585 27.8185C28.1411 28.6962 27.9375 29.5311 27.5537 30.3002C27.1668 31.0753 26.6535 31.7253 26.0279 32.2323C25.3143 32.8109 24.5402 33.1946 23.6618 33.4055C23.1916 33.5183 22.7016 33.5756 22.2055 33.5756C21.8207 33.5756 21.4189 33.5412 21.0113 33.4733C20.969 33.4663 20.9266 33.4595 20.8843 33.4528C20.685 33.4207 20.479 33.3877 20.2821 33.3275C19.4759 33.0575 18.8263 32.6872 18.2969 32.1958C17.7208 31.6611 17.2024 31.0024 16.6654 30.1229C16.4076 29.7008 16.1159 29.267 15.7195 28.7164C15.3162 28.1563 14.9977 27.7316 14.6866 27.3392C14.559 27.1783 14.4318 27.0124 14.3087 26.8519C14.061 26.529 13.8049 26.1951 13.5318 25.8831C13.4272 25.7638 13.3293 25.6342 13.2346 25.509L13.2323 25.506C13.0125 25.2154 13.0233 24.7949 13.2591 24.4599C13.3671 24.3064 13.6416 24.1433 13.9375 24.1433C14.0114 24.1433 14.0819 24.1538 14.1474 24.1744C14.5574 24.3036 14.9275 24.5264 15.2852 24.7419C15.3405 24.7752 15.3956 24.8084 15.451 24.8413C16.0694 25.2092 16.6981 25.6538 17.3733 26.2004C17.4582 26.2692 17.5381 26.3026 17.6178 26.3026C17.6639 26.3026 17.7094 26.2909 17.753 26.2678C17.8658 26.208 17.9196 26.1034 17.9225 25.9386C17.9303 25.4858 17.9411 25.0254 17.9515 24.5802C17.967 23.919 17.9831 23.2353 17.9896 22.5626C17.992 22.3135 17.9988 22.0603 18.0054 21.8153C18.0126 21.5481 18.0201 21.2719 18.0218 21C18.0274 20.1296 18.0484 19.2449 18.0687 18.3893C18.0734 18.1926 18.078 17.9958 18.0825 17.7991C18.0984 17.1034 18.1108 16.396 18.1227 15.7118C18.1287 15.3723 18.1346 15.0328 18.141 14.6933C18.142 14.637 18.1417 14.5801 18.1415 14.525C18.141 14.4023 18.1404 14.2756 18.1544 14.1506C18.2147 13.6094 18.7872 13.1038 19.3554 13.0896C19.3685 13.0893 19.3814 13.0891 19.3942 13.0891C19.8377 13.0891 20.1894 13.2824 20.4694 13.6801C20.6569 13.9466 20.6762 14.2688 20.669 14.5772C20.6609 14.9273 20.6515 15.2832 20.6424 15.6274C20.6293 16.123 20.6158 16.6354 20.6057 17.1395C20.5982 17.5171 20.594 17.901 20.59 18.2722C20.5864 18.6073 20.5826 18.9539 20.5764 19.2947C20.5732 19.4708 20.5665 19.6499 20.5601 19.8231C20.5483 20.1414 20.5361 20.4706 20.5446 20.7952C20.5472 20.8943 20.55 21.0053 20.6706 21.0621C20.7037 21.0776 20.7368 21.0856 20.7691 21.0856C20.8552 21.0856 20.9227 21.0319 20.9844 20.9769C21.1611 20.8195 21.3083 20.733 21.4768 20.6874C21.6039 20.6531 21.7303 20.6356 21.8525 20.6356C22.3005 20.6356 22.6909 20.8669 22.9516 21.287C23.0082 21.378 23.072 21.4622 23.156 21.4622C23.2153 21.4622 23.2755 21.4226 23.3568 21.33C23.6422 21.0054 23.9815 20.8477 24.3944 20.8477C24.4835 20.8477 24.5772 20.8553 24.6728 20.8705C25.0552 20.931 25.3494 21.1475 25.5722 21.5325C25.6249 21.6233 25.6986 21.7277 25.8032 21.7277C25.8689 21.7277 25.9406 21.6874 26.0288 21.601C26.2474 21.3867 26.5152 21.2827 26.8473 21.2827C26.931 21.2827 27.0207 21.2895 27.1139 21.3028C27.5687 21.3683 27.8913 21.6401 28.1001 22.1338C28.1975 22.3638 28.2463 22.6195 28.2494 22.9154C28.2534 23.2904 28.2428 23.6718 28.2326 24.0406ZM29.1936 21.9974C29.0092 21.3913 28.7029 20.9407 28.2572 20.6199C27.8614 20.3349 27.4178 20.1904 26.9391 20.1904C26.6727 20.1904 26.3883 20.235 26.0935 20.3232C26.069 20.3305 26.0479 20.3341 26.029 20.3341C25.9917 20.3341 25.9598 20.3206 25.9152 20.286C25.5325 19.9887 25.095 19.816 24.6152 19.7726C24.5448 19.7662 24.4735 19.7631 24.4032 19.7631C24.0598 19.7631 23.7178 19.837 23.3577 19.9891L23.3521 19.9915C23.3208 20.0047 23.2938 20.0163 23.2685 20.0163C23.2501 20.0163 23.2331 20.01 23.215 19.9967C22.8071 19.6969 22.3286 19.5449 21.7927 19.5449C21.7637 19.5449 21.7341 19.5453 21.7048 19.5462C21.7012 19.5463 21.6978 19.5463 21.6945 19.5463C21.6641 19.5463 21.6531 19.5416 21.6492 19.5376C21.6408 19.5292 21.6401 19.4992 21.6402 19.4717C21.6405 19.1881 21.6471 18.8996 21.6534 18.6207C21.6555 18.5315 21.6575 18.4423 21.6593 18.3531C21.6653 18.0636 21.6719 17.7742 21.6784 17.4848C21.6959 16.7147 21.7141 15.9185 21.7198 15.135C21.7206 15.026 21.7247 14.915 21.7286 14.8077C21.742 14.4439 21.7557 14.0678 21.6457 13.6965C21.4976 13.1965 21.2246 12.792 20.8345 12.4942C20.4048 12.1662 19.9345 12 19.4363 12C19.2483 12 19.0534 12.0238 18.8572 12.0709C18.38 12.1852 17.9394 12.4572 17.6167 12.8368C17.2894 13.2218 17.0979 13.702 17.0777 14.1891C17.0555 14.7214 17.0491 15.263 17.043 15.7869C17.0389 16.1388 17.0345 16.5029 17.0255 16.8606C17.0002 17.8614 16.9755 18.9385 16.9652 20.034C16.9599 20.5981 16.9443 21.1718 16.9294 21.7265C16.9212 22.0256 16.9129 22.3349 16.9062 22.6391C16.8968 23.0662 16.8893 23.4857 16.8814 23.9298C16.8783 24.1075 16.8751 24.2868 16.8718 24.4681C16.7796 24.4079 16.6889 24.3483 16.6008 24.2902C16.3665 24.1358 16.1453 23.9899 15.9172 23.8494C15.6159 23.6636 15.2828 23.4888 14.8689 23.2991C14.5254 23.1417 14.1956 23.0619 13.8885 23.0619C13.4267 23.0619 12.9982 23.2419 12.6147 23.5969C12.3367 23.8542 12.1429 24.1831 12.0542 24.5483C11.966 24.9114 11.9858 25.2931 12.1113 25.6521L12.122 25.6829C12.1612 25.7956 12.2017 25.9122 12.2766 26.0154C12.4759 26.2893 12.6929 26.5556 12.9028 26.813C13.0494 26.9929 13.201 27.179 13.345 27.3657C13.4475 27.4987 13.5505 27.6314 13.6534 27.7641C14.03 28.2495 14.4195 28.7514 14.782 29.2605C14.8289 29.3263 14.876 29.3921 14.9232 29.4579C15.1008 29.706 15.2847 29.9625 15.4547 30.2215C15.5596 30.3814 15.6604 30.5483 15.7579 30.7097C15.8917 30.9314 16.03 31.1606 16.1817 31.3757C16.7299 32.153 17.2107 32.6979 17.7409 33.1424C18.3869 33.684 19.0248 34.0517 19.691 34.2664C20.2361 34.4422 20.7245 34.5528 21.1841 34.6046C21.5549 34.6464 21.8966 34.6667 22.2286 34.6667C22.4988 34.6667 22.7637 34.6525 23.0158 34.6246C23.8872 34.5282 24.7045 34.2864 25.4448 33.906C26.0373 33.6016 26.564 33.2338 27.0101 32.8127C27.7507 32.1135 28.3142 31.2999 28.6849 30.3943C28.9716 29.6938 29.1502 28.9593 29.2158 28.2112C29.2569 27.7419 29.2607 27.2636 29.2643 26.801C29.2663 26.551 29.2684 26.2925 29.2763 26.0387C29.2916 25.55 29.2997 25.0531 29.3075 24.5725C29.3131 24.23 29.3189 23.8759 29.3272 23.5278C29.3385 23.0535 29.3514 22.5161 29.1936 21.9974Z" fill="black"/>
</svg>
