<svg width="40" height="40" viewBox="0 0 40 40" fill="none" xmlns="http://www.w3.org/2000/svg">
<path fill-rule="evenodd" clip-rule="evenodd" d="M31.894 39.3333H7.43933C3.34774 39.3333 0 35.9841 0 31.8908V7.44264C0 3.34921 3.34774 0 7.43933 0H31.894C35.9856 0 39.3333 3.34921 39.3333 7.44264V31.8908C39.3333 35.9841 35.9856 39.3333 31.894 39.3333Z" fill="#00C8FF"/>
<path fill-rule="evenodd" clip-rule="evenodd" d="M21.7079 30.8183C21.7078 30.818 21.7078 30.8177 21.7078 30.8173C22.0871 30.8173 22.4662 30.8168 22.8454 30.8175C24.5427 30.8204 26.24 30.8275 27.9371 30.8254C28.7985 30.8244 29.6598 30.8136 30.521 30.8377C30.7494 30.8441 30.8415 30.7472 30.8401 30.5125C30.8375 30.0632 30.8407 29.6141 30.8432 29.1649C30.8441 29.0073 30.7861 28.9089 30.6092 28.9104C30.4424 28.9119 30.2751 28.9164 30.1089 28.9063C29.8492 28.8904 29.8098 28.924 29.8154 29.1907C29.8232 29.5579 29.4322 29.8072 29.0866 29.6676C28.8631 29.5772 28.8113 29.408 28.8033 29.1977C28.7957 28.9953 28.7007 28.8707 28.5569 28.908C28.3485 28.9623 28.1482 28.8976 27.9436 28.9149C27.657 28.9392 27.6557 28.9271 27.6266 29.2271C27.6107 29.3908 27.5618 29.5469 27.4144 29.6333C27.0262 29.8605 26.6049 29.5899 26.6131 29.1674C26.6163 28.9958 26.5191 28.9067 26.3377 28.907C26.1257 28.9075 25.9137 28.911 25.7018 28.9096C25.592 28.9089 25.4954 28.9322 25.4384 29.0328C25.389 29.1199 25.4112 29.2192 25.4016 29.3128C25.3729 29.5959 25.0677 29.7823 24.794 29.6966C24.5293 29.6137 24.4419 29.421 24.4298 29.1755C24.4233 29.0435 24.3938 28.9202 24.24 28.9133C23.9847 28.902 23.7283 28.9131 23.4723 28.9158C23.3765 28.9169 23.3111 28.9646 23.2917 29.0563C23.2734 29.1426 23.261 29.2312 23.2586 29.3191C23.2553 29.444 23.2059 29.5366 23.0999 29.6051C22.9327 29.7131 22.7606 29.7489 22.5724 29.6612C22.3764 29.5699 22.288 29.4319 22.3082 29.207C22.3283 28.9843 22.2402 28.9114 22.0129 28.909C21.878 28.9076 21.743 28.9158 21.6082 28.9126C21.1542 28.9023 21.1542 28.9011 21.0683 29.3304C21.0265 29.539 20.8517 29.6915 20.6229 29.7189C20.4686 29.7375 20.2479 29.6105 20.1632 29.4672C20.0988 29.3583 20.0785 29.2428 20.0782 29.1213C20.078 28.962 20.01 28.8944 19.8392 28.9089C19.6543 28.9247 19.4669 28.9204 19.281 28.9144C19.0426 28.9067 19.0146 28.9394 18.9935 29.1775C18.9605 29.5512 18.6356 29.8124 18.2469 29.6626C18.0015 29.5681 17.9748 29.3624 17.9497 29.1546C17.9328 29.0156 17.903 28.8843 17.7308 28.9075C17.5048 28.9379 17.2817 28.9068 17.0574 28.9101C16.8951 28.9125 16.7962 28.9726 16.7931 29.1402C16.7914 29.2386 16.7596 29.326 16.7209 29.4137C16.6354 29.6075 16.383 29.7585 16.2229 29.7152C15.8622 29.6175 15.7559 29.4076 15.781 29.1524C15.7951 29.0095 15.7065 28.8959 15.5636 28.9106C15.326 28.9353 15.0896 28.915 14.8527 28.9127C14.6451 28.9106 14.5838 28.9727 14.5929 29.1855C14.6045 29.4571 14.4037 29.705 14.148 29.7069C13.8893 29.7088 13.6066 29.605 13.6097 29.2472C13.6101 29.1907 13.6087 29.13 13.5888 29.0785C13.558 28.9984 13.5303 28.892 13.4133 28.9082C13.2076 28.9367 13.0031 28.9176 12.798 28.9184C12.6511 28.9189 12.5835 28.9998 12.5868 29.1517C12.5968 29.6012 12.6026 30.0508 12.6016 30.5004C12.601 30.7834 12.6346 30.8219 12.9334 30.8215C13.9808 30.8201 15.0282 30.8187 16.0757 30.8185C17.9531 30.818 19.8305 30.8183 21.7079 30.8183ZM18.3348 27.9392H18.759C20.3408 27.9387 21.9226 27.9391 23.5045 27.9377C25.6457 27.9359 27.7868 27.9306 29.928 27.9311C31.0597 27.9314 30.8064 27.9508 31.9379 27.9414C32.4337 27.9372 33.6415 28.0561 33.6376 27.4195C33.6259 25.5296 33.6311 23.6397 33.6323 21.7499C33.6336 19.6951 33.6389 17.6404 33.6402 15.5857C33.6412 14.0636 33.6387 12.5415 33.6376 11.0195C33.6374 10.6897 33.638 10.3598 33.6356 10.0301C33.6346 9.88874 33.5752 9.80551 33.4145 9.8075C32.7528 9.81564 34.3261 9.82355 33.6644 9.82294C31.4335 9.82089 29.2026 9.81315 26.9716 9.81138C24.7405 9.80966 22.5094 9.81359 20.2783 9.81331C17.655 9.81298 17.6444 9.80949 15.0211 9.8101C14.1403 9.81032 13.2594 9.823 12.3787 9.8225C11.1699 9.82183 10.3074 9.81364 9.0986 9.80944C8.7192 9.80811 8.33985 9.80579 7.96056 9.81066C7.75277 9.81337 7.70258 9.8702 7.70359 10.0715C7.70415 10.1918 7.70937 10.312 7.70925 10.4323C7.70819 11.7451 7.70471 13.0579 7.70538 14.3706C7.70656 16.8375 7.712 19.3043 7.71183 21.7712C7.71172 23.7182 7.70589 25.6652 7.70264 27.6122C7.70224 27.8667 7.79377 27.956 8.05091 27.9538C8.75172 27.9476 9.45254 27.937 10.1533 27.9368C13.3552 27.936 11.5837 27.9383 14.7856 27.9393C15.9687 27.9397 17.1518 27.9394 18.3348 27.9392ZM20.7444 8.83586C23.5031 8.83586 26.2616 8.83519 29.0202 8.83602C31.4765 8.83685 31.6979 8.83918 34.1542 8.8415C34.4678 8.84178 34.6599 9.04117 34.6597 9.35771C34.6582 12.0091 34.6562 14.6604 34.6559 17.3117C34.6556 20.6354 34.6566 23.9592 34.6576 27.2829C34.6577 27.6444 34.6759 28.0063 34.66 28.3668C34.6422 28.7706 34.5409 28.9038 34.1302 28.9147C33.3917 28.9343 32.7149 28.9124 31.9757 28.9019C31.7404 28.8986 31.8196 28.9698 31.8209 29.1971C31.8251 29.8946 31.8276 30.5922 31.8231 31.2897C31.8211 31.5926 31.6028 31.796 31.2924 31.7961C29.659 31.7964 28.0256 31.7926 26.3923 31.7941C24.8042 31.7956 23.2161 31.8049 21.628 31.805C19.3581 31.8053 17.0882 31.7997 14.8183 31.7975C13.9245 31.7967 13.0307 31.7988 12.1369 31.7985C11.8413 31.7984 11.6073 31.5795 11.6139 31.2866C11.6296 30.5829 11.5888 29.8789 11.6286 29.1754C11.6381 29.0064 11.5526 28.9001 11.4076 28.9062C10.5398 28.9426 12.2845 28.9081 11.4166 28.9117C9.88656 28.9181 10.7172 28.9145 9.1871 28.9187C8.76922 28.9198 8.3514 28.9296 7.93398 28.9024C7.76135 28.8911 7.70247 28.9935 7.70236 29.137C7.70112 30.614 7.70241 30.073 7.70398 31.5501C7.70465 32.1841 7.70628 32.8181 7.70981 33.4522C7.71172 33.7914 7.5313 33.994 7.21511 33.9999C6.92673 34.0053 6.72573 33.8078 6.72348 33.4831C6.71743 32.6015 6.72382 31.7198 6.72303 30.8382C6.72169 29.3608 6.71692 29.9014 6.71659 28.4239C6.71619 26.534 6.719 24.6442 6.71984 22.7542C6.72057 20.972 6.72006 19.1898 6.72085 17.4076C6.72247 13.5387 6.72472 11.5637 6.72623 7.69482C6.7264 7.32715 6.72505 6.95931 6.72158 6.59163C6.71956 6.37636 6.67587 6.33099 6.46539 6.33032C6.03456 6.32899 5.60289 6.31599 5.17329 6.33906C4.95059 6.35107 4.82872 6.2389 4.74022 6.08517C4.65307 5.93371 4.63316 5.75158 4.73551 5.59459C4.83809 5.43737 4.96618 5.33466 5.19118 5.33997C5.82655 5.35497 6.46281 5.34169 7.09862 5.33344C7.50046 5.32818 7.72249 5.53394 7.71985 5.93077C7.71094 7.28752 7.69983 6.75046 7.69075 8.10726C7.68968 8.2657 7.69344 8.42436 7.69978 8.58268C7.70796 8.78965 7.77739 8.86585 7.98299 8.85639C8.70293 8.82324 9.42281 8.85108 10.1426 8.84864C11.705 8.84333 12.921 8.84289 14.4834 8.842C17.0041 8.84056 16.9121 8.84039 19.4328 8.83973C19.87 8.83962 20.3072 8.83968 20.7444 8.83968V8.83586Z" fill="black"/>
<path fill-rule="evenodd" clip-rule="evenodd" d="M11.2559 18.3202H11.2421C11.2421 20.0162 11.2426 21.7121 11.2415 23.4079C11.2413 23.6547 11.2964 23.7121 11.5626 23.7114C11.9569 23.7104 12.003 23.7077 12.3972 23.7035C12.6865 23.7004 12.7534 23.6297 12.7523 23.3432C12.7479 22.2936 12.7428 21.244 12.7406 20.1943C12.7387 19.2625 12.739 18.3307 12.7403 17.399C12.7423 16.0077 12.7473 14.6166 12.7478 13.2254C12.7479 12.9749 12.7128 12.9461 12.4553 12.9454C12.0228 12.9444 11.9382 12.945 11.5056 12.9473C11.2837 12.9486 11.2327 13.0019 11.2354 13.2145C11.2425 13.7671 11.2535 14.3197 11.255 14.8724C11.258 16.0217 11.2559 17.171 11.2559 18.3202ZM12.1211 24.6535C11.6816 24.6535 11.2421 24.6529 10.8026 24.6538C10.4536 24.6545 10.2232 24.4386 10.2197 24.1009C10.218 23.9334 10.2245 23.7658 10.2239 23.5983C10.2234 23.4589 10.1538 23.3947 10.0032 23.4112C9.93339 23.4189 9.86123 23.4106 9.79048 23.4052C9.50849 23.3838 9.34929 23.2291 9.3388 22.9687C9.3286 22.7152 9.50246 22.5122 9.76212 22.4748C9.7876 22.4711 9.81342 22.4686 9.83919 22.4674C10.2279 22.4496 10.2261 22.4497 10.2224 22.0646C10.2198 21.81 10.2208 21.5552 10.225 21.3006C10.2276 21.1476 10.1557 21.0823 9.99884 21.1005C9.96682 21.1042 9.93457 21.1064 9.90238 21.109C9.66251 21.128 9.37533 20.9579 9.36011 20.788C9.3242 20.3868 9.45493 20.1933 9.79318 20.1506C9.84398 20.1441 9.89629 20.1451 9.94771 20.1469C10.1872 20.1555 10.2347 20.1121 10.2318 19.8875C10.2283 19.6081 10.2276 19.3287 10.2225 19.0492C10.2181 18.8035 10.1834 18.7734 9.93237 18.7643C9.74087 18.7573 9.54434 18.7754 9.41722 18.5796C9.30537 18.4074 9.314 18.2307 9.39354 18.0675C9.46717 17.9163 9.61137 17.837 9.80288 17.8371C10.2354 17.8374 10.2332 17.8318 10.2252 17.4037C10.2211 17.1802 10.2264 16.9566 10.2272 16.733C10.2277 16.5773 10.1719 16.4856 9.98435 16.504C9.87684 16.5146 9.76116 16.5115 9.6576 16.4845C9.43526 16.4264 9.31112 16.1953 9.35019 15.9469C9.38148 15.7482 9.57591 15.5753 9.78078 15.564C10.2363 15.5388 10.2345 15.5388 10.2271 15.0975C10.2233 14.8676 10.2261 14.6378 10.2282 14.408C10.2295 14.2515 10.1563 14.179 9.98959 14.1926C9.87403 14.202 9.75834 14.2056 9.64644 14.1587C9.40222 14.0563 9.29652 13.8456 9.34979 13.557C9.3777 13.4062 9.60066 13.2494 9.8053 13.2365C10.2052 13.2115 10.2061 13.2116 10.2253 12.8156C10.2301 12.7166 10.2304 12.6171 10.2273 12.518C10.2185 12.2391 10.4589 12.0083 10.7455 12.0086C11.5855 12.0095 12.0774 12.0048 12.9174 12.0023C12.9367 12.0022 12.9561 12.0012 12.9756 12.0007C13.5962 11.9879 13.7528 12.1393 13.7287 12.7284C13.7274 12.7594 13.7265 12.7905 13.726 12.8216C13.7196 13.2027 13.756 13.2387 14.1481 13.2403C14.4118 13.2413 14.6519 13.4463 14.6584 13.6758C14.666 13.9406 14.4334 14.2077 14.1626 14.1987C13.6571 14.182 13.7461 14.2929 13.7302 14.6514C13.7218 14.8374 13.7286 15.024 13.7283 15.2103C13.7277 15.5265 13.7858 15.592 14.112 15.5677C14.3411 15.5508 14.5003 15.6205 14.601 15.8166C14.7701 16.1461 14.5099 16.5432 14.122 16.5091C13.7919 16.48 13.7093 16.5719 13.7284 16.8865C13.7416 17.1033 13.7396 17.3213 13.7335 17.5385C13.727 17.7731 13.7877 17.8393 14.0348 17.8357C14.1832 17.8337 14.335 17.8216 14.4595 17.9204C14.6295 18.0554 14.717 18.2906 14.6368 18.4548C14.5394 18.654 14.3633 18.7617 14.13 18.7731C13.7622 18.7912 13.7027 18.8538 13.7275 19.2077C13.7419 19.4125 13.7492 19.6168 13.7353 19.822C13.7165 20.0985 13.7847 20.162 14.0795 20.1521C14.3958 20.1416 14.5889 20.2563 14.6493 20.4908C14.7336 20.8181 14.4759 21.1089 14.0962 21.1142C14.0382 21.1151 13.9801 21.1105 13.922 21.1102C13.7844 21.1097 13.7235 21.1802 13.7238 21.3085C13.7247 21.625 13.7226 21.9414 13.7259 22.2578C13.7272 22.3798 13.787 22.4576 13.9258 22.4604C14.0226 22.4623 14.1195 22.4652 14.2162 22.471C14.4657 22.486 14.6561 22.6744 14.656 22.9039C14.656 23.1785 14.4729 23.4096 14.2168 23.3986C13.7837 23.38 13.711 23.3592 13.733 23.945C13.7393 24.1144 13.7423 24.2723 13.6367 24.4264C13.5208 24.5957 13.3722 24.6677 13.1686 24.6667C12.7034 24.664 12.5863 24.6658 12.1211 24.6658V24.6535Z" fill="black"/>
<path fill-rule="evenodd" clip-rule="evenodd" d="M22.354 17.0208C22.3402 17.6522 22.5011 18.2437 22.7845 18.8031C22.9712 19.1719 23.2508 19.4734 23.5251 19.7781C23.9868 20.2909 24.5593 20.6386 25.2188 20.8055C25.8425 20.9634 26.4706 21.0351 27.1296 20.875C27.64 20.751 28.1045 20.5639 28.5517 20.3088C28.6921 20.2287 28.6992 20.1058 28.5828 19.9899C27.7478 19.158 26.9116 18.3272 26.0793 17.4926C25.4177 16.8292 24.7614 16.1604 24.1019 15.4948C23.8549 15.2455 23.5907 15.0113 23.3634 14.7453C23.2424 14.6039 23.1715 14.6184 23.0802 14.7416C22.8231 15.0886 22.6276 15.467 22.5023 15.8818C22.3899 16.2538 22.3587 16.6353 22.354 17.0208ZM30.312 17.1728C30.3415 16.6445 30.2995 16.2132 30.1516 15.8099C29.9801 15.3425 29.7407 14.9133 29.4232 14.5112C29.0471 14.0351 28.5793 13.7086 28.0663 13.4288C27.6048 13.177 27.1013 13.052 26.5742 13.0147C26.1464 12.9844 25.7236 13.0284 25.3178 13.143C24.907 13.2589 24.5245 13.458 24.1578 13.6825C23.9337 13.8198 23.9198 13.8903 24.1121 14.0768C24.3178 14.2762 24.5286 14.4707 24.728 14.6761C25.5661 15.54 26.4393 16.3688 27.2791 17.2313C27.9689 17.9398 28.6915 18.6168 29.378 19.3293C29.4511 19.4051 29.5168 19.4056 29.5656 19.3159C29.693 19.0818 29.8741 18.8819 29.9749 18.6296C30.1746 18.1298 30.3386 17.6248 30.312 17.1728ZM26.3648 22C23.6207 22.006 21.285 19.7893 21.3343 16.9011C21.3797 14.24 23.5385 11.9749 26.4417 12.0002C28.989 12.0225 31.3195 14.1868 31.3334 16.9458C31.3478 19.7826 29.0614 21.9752 26.3648 22Z" fill="black"/>
<path fill-rule="evenodd" clip-rule="evenodd" d="M28.6527 25.331C28.6955 25.5371 28.6483 25.7202 28.4087 25.8639C28.2506 25.9587 28.0673 26.0258 27.8704 25.9904C27.6521 25.9511 27.436 25.8902 27.3874 25.6884C27.3321 25.4586 27.3028 25.2328 27.3823 25.004C27.481 24.72 27.6523 24.6402 28.098 24.6739C28.4171 24.6979 28.6466 24.8788 28.6525 25.1118C28.6542 25.1848 28.6527 25.2579 28.6527 25.331Z" fill="black"/>
<path fill-rule="evenodd" clip-rule="evenodd" d="M22.6625 25.3414C22.6399 25.4546 22.6512 25.57 22.6012 25.6816C22.5234 25.8551 22.1742 26.024 21.9391 25.9972C21.564 25.9545 21.3091 25.7475 21.3353 25.5191C21.3489 25.4001 21.3367 25.28 21.3377 25.1604C21.3403 24.87 21.5625 24.6992 21.9761 24.6686C22.273 24.6466 22.5571 24.8169 22.6413 25.0647C22.6726 25.1566 22.6688 25.2487 22.6625 25.3414Z" fill="black"/>
<path fill-rule="evenodd" clip-rule="evenodd" d="M19.3261 25.3156C19.3284 25.4602 19.3576 25.6372 19.2612 25.7985C19.1567 25.9731 19.0672 26.0324 18.9114 25.9835C18.8113 25.9521 18.6603 25.7527 18.6667 25.6129C18.6778 25.3692 18.6509 25.1218 18.7097 24.8806C18.7387 24.7617 18.7926 24.6967 18.8781 24.6814C19.1514 24.6323 19.2708 24.6941 19.3219 25.0509C19.3331 25.129 19.3384 25.2057 19.3261 25.3156Z" fill="black"/>
<path fill-rule="evenodd" clip-rule="evenodd" d="M31.33 25.3753C31.3247 25.5285 31.3454 25.6819 31.2525 25.8171C31.1628 25.9479 31.0696 26.0248 30.9323 25.9927C30.7688 25.9546 30.6738 25.7905 30.6711 25.6141C30.6673 25.3768 30.6511 25.1321 30.7152 24.8907C30.7615 24.7162 30.8584 24.6912 30.9579 24.6731C31.0666 24.6533 31.177 24.6731 31.2514 24.8135C31.3433 24.9871 31.336 25.1806 31.33 25.3753Z" fill="black"/>
</svg>
