<svg width="40" height="40" viewBox="0 0 40 40" fill="none" xmlns="http://www.w3.org/2000/svg">
<mask id="mask0" mask-type="alpha" maskUnits="userSpaceOnUse" x="0" y="0" width="40" height="40">
<path fill-rule="evenodd" clip-rule="evenodd" d="M0 0.0512695H39.3308V39.3098H0V0.0512695Z" fill="white"/>
</mask>
<g mask="url(#mask0)">
<path fill-rule="evenodd" clip-rule="evenodd" d="M31.892 39.3098H7.43886C3.34753 39.3098 0 35.967 0 31.8814V7.47975C0 3.39411 3.34753 0.0512695 7.43886 0.0512695H31.892C35.9834 0.0512695 39.3308 3.39411 39.3308 7.47975V31.8814C39.3308 35.967 35.9834 39.3098 31.892 39.3098Z" fill="#FF00A2"/>
</g>
<path fill-rule="evenodd" clip-rule="evenodd" d="M19.9926 29.4961C22.8121 29.4961 25.6317 29.4965 28.4512 29.4958C29.0912 29.4956 29.4954 29.0968 29.4955 28.4622C29.4963 22.8179 29.4963 17.1736 29.4954 11.5294C29.4953 10.9117 29.0895 10.5045 28.4738 10.5045C22.8244 10.5036 17.1749 10.5035 11.5255 10.5045C10.9102 10.5046 10.5047 10.912 10.5046 11.5301C10.5037 17.1795 10.5041 22.8289 10.5043 28.4784C10.5043 28.5768 10.508 28.6746 10.5347 28.771C10.6598 29.2232 11.0311 29.4956 11.534 29.4957C14.3535 29.4964 17.173 29.4961 19.9926 29.4961ZM13.4689 32.0462C13.4687 31.5693 13.4655 31.0924 13.4712 30.6156C13.4725 30.5071 13.4429 30.4755 13.3331 30.4765C12.737 30.4817 12.141 30.4804 11.5448 30.4786C10.3689 30.4749 9.52487 29.6324 9.52138 28.4593C9.51972 27.884 9.51584 27.3085 9.52448 26.7333C9.52681 26.5789 9.49683 26.5249 9.32655 26.5266C8.39356 26.5362 7.46047 26.5325 6.52743 26.5305C6.14436 26.5296 5.89904 26.1903 6.04046 25.856C6.13139 25.6409 6.30605 25.5508 6.53601 25.5512C7.33429 25.5526 8.13257 25.5517 8.93085 25.5516C9.08639 25.5516 9.24199 25.5475 9.39731 25.5529C9.48863 25.5561 9.52365 25.5297 9.52299 25.4315C9.51883 24.8302 9.51728 24.2288 9.52387 23.6277C9.52526 23.5047 9.46231 23.5116 9.37997 23.5117C8.43662 23.5126 7.49322 23.5129 6.54981 23.5117C6.23595 23.5113 6.02084 23.3282 6.00505 23.0545C5.98732 22.7478 6.20736 22.5308 6.5446 22.5302C7.43614 22.5283 8.32768 22.5295 9.21927 22.5295C9.52099 22.5294 9.52099 22.5294 9.52099 22.231C9.52094 21.7023 9.51551 21.1735 9.52465 20.6449C9.52709 20.5046 9.47472 20.488 9.35503 20.4886C8.41168 20.4929 7.46822 20.4917 6.52488 20.4904C6.27984 20.4901 6.10424 20.3698 6.03098 20.1611C5.96166 19.9637 6.02417 19.7473 6.18935 19.616C6.29619 19.5311 6.42048 19.5084 6.55391 19.5086C7.48695 19.5097 8.42 19.5061 9.35298 19.5122C9.48913 19.5132 9.52653 19.4799 9.52454 19.3416C9.51612 18.7663 9.51789 18.1908 9.52376 17.6155C9.52498 17.4997 9.49356 17.4673 9.37681 17.4679C8.4334 17.4726 7.49 17.4717 6.54665 17.4698C6.18054 17.4692 5.93972 17.1948 6.01419 16.8706C6.06905 16.6315 6.26549 16.4885 6.54771 16.4882C7.47559 16.4871 8.40348 16.4834 9.33126 16.4918C9.48952 16.4932 9.52781 16.4525 9.52504 16.2966C9.51479 15.7318 9.51739 15.1667 9.52382 14.6017C9.52526 14.4789 9.48968 14.4453 9.36833 14.4459C8.42493 14.4505 7.48152 14.4496 6.53812 14.4478C6.23357 14.4471 6.022 14.2641 6.00488 13.9965C5.98571 13.695 6.20293 13.471 6.52521 13.4696C7.15237 13.4669 7.77964 13.4688 8.40681 13.4687C8.73341 13.4687 9.06007 13.464 9.38645 13.4713C9.49805 13.4738 9.52415 13.4378 9.52326 13.3312C9.5185 12.7403 9.52027 12.1494 9.52127 11.5585C9.52338 10.3638 10.3624 9.52447 11.5581 9.52137C12.1438 9.51976 12.7297 9.51788 13.3153 9.5237C13.4344 9.52486 13.4726 9.49725 13.4718 9.37108C13.4662 8.4225 13.4674 7.47392 13.4695 6.5254C13.4704 6.14305 13.8112 5.89874 14.1458 6.04094C14.3609 6.13241 14.449 6.3082 14.4486 6.53793C14.447 7.41915 14.4479 8.30032 14.448 9.18154C14.448 9.52104 14.448 9.52104 14.7866 9.52104C15.2998 9.52104 15.813 9.51688 16.326 9.52397C16.4521 9.5258 16.4918 9.49709 16.4909 9.36409C16.4849 8.42073 16.4867 7.4773 16.4885 6.53394C16.4891 6.23247 16.6763 6.0202 16.9457 6.00501C17.2521 5.98766 17.4692 6.20786 17.4699 6.5448C17.4716 7.43634 17.4705 8.32793 17.4705 9.21946C17.4705 9.52109 17.4705 9.52109 17.7691 9.52109C18.2927 9.52104 18.8163 9.51632 19.3397 9.52425C19.4737 9.5263 19.5139 9.49598 19.5129 9.35533C19.5059 8.41723 19.5087 7.47897 19.5097 6.54076C19.51 6.23802 19.6925 6.02353 19.9598 6.00529C20.2668 5.98428 20.4897 6.20564 20.4902 6.53832C20.4917 7.40917 20.4907 8.27997 20.4907 9.15083C20.4907 9.52104 20.4907 9.52104 20.86 9.52104C21.368 9.52109 21.8761 9.51588 22.3839 9.52453C22.5186 9.5268 22.5317 9.47197 22.5313 9.36182C22.5282 8.42361 22.5288 7.4854 22.53 6.54719C22.5304 6.23469 22.7156 6.01915 22.9896 6.00507C23.2858 5.98977 23.5084 6.20176 23.5104 6.51598C23.5147 7.18981 23.5121 7.86364 23.5123 8.53753C23.5125 8.8278 23.5154 9.11812 23.5106 9.40833C23.5092 9.49653 23.5368 9.52314 23.6249 9.52264C24.2261 9.51926 24.8275 9.51666 25.4287 9.52403C25.5605 9.52569 25.5526 9.45784 25.5525 9.37058C25.5515 8.45826 25.5519 7.54599 25.5519 6.63367C25.5519 6.57662 25.5498 6.51936 25.5544 6.4627C25.5764 6.19245 25.7831 6.00169 26.0484 6.00463C26.3109 6.00751 26.5203 6.2073 26.529 6.4765C26.5365 6.70951 26.5312 6.94295 26.5312 7.17617C26.5313 7.91221 26.5335 8.64835 26.5289 9.38433C26.5282 9.4926 26.557 9.52447 26.6668 9.52353C27.2629 9.51832 27.859 9.51937 28.4552 9.52148C29.6319 9.52558 30.4706 10.3617 30.4784 11.5407C30.4823 12.1159 30.478 12.6912 30.4796 13.2666C30.4802 13.5038 30.4518 13.4677 30.6888 13.4681C31.6166 13.4696 32.5446 13.467 33.4724 13.4697C33.8563 13.4708 34.1004 13.8095 33.9598 14.1443C33.8692 14.3602 33.6942 14.4494 33.4643 14.4489C32.6661 14.4475 31.8678 14.4484 31.0695 14.4484C30.9141 14.4484 30.7584 14.4525 30.6031 14.4471C30.5121 14.4439 30.4762 14.4688 30.477 14.5682C30.4813 15.1694 30.4827 15.7708 30.4761 16.372C30.4748 16.4943 30.5369 16.4884 30.6196 16.4883C31.5682 16.4874 32.5168 16.4867 33.4654 16.4885C33.7663 16.4892 33.9793 16.6766 33.995 16.9452C34.0129 17.2518 33.7929 17.4692 33.4558 17.4698C32.5695 17.4716 31.6831 17.4704 30.7967 17.4705C30.479 17.4705 30.479 17.4705 30.479 17.7842C30.479 18.3025 30.4837 18.821 30.4759 19.3392C30.4737 19.4728 30.5033 19.5137 30.6446 19.5126C31.5828 19.5057 32.521 19.5084 33.4592 19.5097C33.7806 19.5101 33.9985 19.7145 33.9955 20.0066C33.9925 20.2914 33.7761 20.4901 33.462 20.4905C32.5704 20.4917 31.6789 20.491 30.7873 20.491C30.479 20.491 30.479 20.491 30.479 20.798C30.479 21.3267 30.4823 21.8554 30.4763 22.3841C30.475 22.4994 30.5056 22.5327 30.6229 22.5321C31.5662 22.5274 32.5097 22.5286 33.4531 22.53C33.7661 22.5305 33.9814 22.716 33.9951 22.9898C34.0102 23.2913 33.7931 23.5101 33.4682 23.5113C32.7684 23.5138 32.0686 23.5122 31.3688 23.5123C31.1097 23.5123 30.8504 23.5156 30.5913 23.5106C30.5028 23.5089 30.4769 23.5376 30.4774 23.6253C30.4807 24.2265 30.4829 24.8278 30.4761 25.4291C30.4746 25.5607 30.5444 25.5521 30.6313 25.5521C31.5334 25.5512 32.4353 25.5515 33.3372 25.5516C33.3994 25.5516 33.4618 25.5494 33.5237 25.5534C33.803 25.5716 34.0004 25.7806 33.9955 26.0505C33.9906 26.3204 33.7859 26.5281 33.506 26.5296C32.7752 26.5336 32.0442 26.5311 31.3134 26.5312C31.0801 26.5312 30.8466 26.5372 30.6137 26.5287C30.502 26.5245 30.4759 26.562 30.4767 26.6687C30.4815 27.2648 30.4813 27.8609 30.4784 28.457C30.4737 29.4481 29.8664 30.2247 28.9359 30.4326C28.7838 30.4666 28.6292 30.4796 28.4731 30.4792C27.8769 30.4782 27.2808 30.482 26.6848 30.4763C26.5657 30.4752 26.5275 30.5025 26.5282 30.6289C26.5338 31.5774 26.5329 32.526 26.5303 33.4746C26.5293 33.8576 26.1879 34.1014 25.8538 33.9588C25.6386 33.867 25.5508 33.6916 25.5512 33.4618C25.5529 32.6015 25.553 31.7409 25.551 30.8805C25.5507 30.7519 25.6059 30.5853 25.5258 30.5046C25.446 30.424 25.2794 30.4809 25.1511 30.4801C24.6587 30.4772 24.1662 30.4834 23.6739 30.4759C23.5471 30.474 23.5084 30.5042 23.5092 30.636C23.5151 31.5742 23.5133 32.5124 23.5118 33.4506C23.5113 33.7655 23.3279 33.9797 23.054 33.9948C22.7471 34.0118 22.5307 33.7917 22.53 33.455C22.5286 32.5531 22.5295 31.6512 22.5295 30.7492C22.5295 30.4789 22.5295 30.4789 22.2618 30.4789C21.7279 30.4789 21.194 30.4836 20.6602 30.4757C20.526 30.4737 20.4862 30.5044 20.4872 30.6448C20.4941 31.5881 20.4927 32.5315 20.4898 33.4749C20.4885 33.8645 20.1335 34.1078 19.7979 33.9521C19.5918 33.8565 19.5085 33.6837 19.5088 33.4615C19.5099 32.5285 19.5057 31.5954 19.5129 30.6624C19.5141 30.5132 19.4777 30.4724 19.3264 30.475C18.7563 30.4848 18.186 30.4821 17.6159 30.4762C17.5003 30.475 17.4674 30.5056 17.4679 30.6228C17.4726 31.5661 17.4713 32.5095 17.47 33.4529C17.4695 33.759 17.291 33.9732 17.0257 33.9945C16.7178 34.0193 16.4899 33.7997 16.4887 33.4683C16.4861 32.7996 16.4878 32.1309 16.4877 31.4623C16.4877 31.172 16.4846 30.8816 16.4894 30.5915C16.4909 30.503 16.4628 30.4768 16.375 30.4773C15.7737 30.4807 15.1724 30.4834 14.5712 30.4759C14.439 30.4743 14.4475 30.5426 14.4476 30.6296C14.4484 31.5367 14.4481 32.4438 14.448 33.3509C14.448 33.4131 14.4506 33.4756 14.4456 33.5375C14.4236 33.8128 14.2078 34.0055 13.9357 33.9952C13.675 33.9854 13.4729 33.7803 13.4704 33.5079C13.4659 33.0207 13.4691 32.5334 13.4689 32.0462Z" fill="black"/>
<path fill-rule="evenodd" clip-rule="evenodd" d="M19.6837 12.9848C17.5697 12.9848 15.4558 12.9848 13.3417 12.9849C13.0424 12.9849 12.985 13.0426 12.985 13.3432C12.985 17.5555 12.985 21.7677 12.985 25.98C12.985 26.294 13.0385 26.3486 13.347 26.3486C17.5593 26.3486 21.7715 26.3486 25.9838 26.3486C26.2945 26.3486 26.3485 26.2943 26.3485 25.9825V13.3458C26.3485 13.0433 26.2914 12.9849 25.9942 12.9849C23.8907 12.9848 21.7872 12.9848 19.6837 12.9848ZM19.6694 12.0002C21.8046 12.0002 23.9397 11.9995 26.0749 12.0008C26.7111 12.0012 27.1963 12.3889 27.3114 12.987C27.33 13.0837 27.3324 13.1847 27.3324 13.2836C27.3334 17.5383 27.3336 21.7928 27.3331 26.0475C27.3329 26.8285 26.8282 27.3328 26.0459 27.3329C21.7913 27.3335 17.5367 27.3335 13.2821 27.3329C12.5095 27.3328 12.0007 26.8269 12.0006 26.0577C11.9998 21.7978 11.9998 17.538 12.0007 13.2781C12.0008 12.5068 12.5077 12.001 13.2797 12.0006C15.4096 11.9995 17.5396 12.0002 19.6694 12.0002Z" fill="black"/>
<path fill-rule="evenodd" clip-rule="evenodd" d="M14.6668 20.3233C14.6668 19.9649 14.6659 19.6065 14.6671 19.2481C14.6682 18.9042 14.8033 18.6681 14.9973 18.6667C15.1913 18.6651 15.3311 18.9011 15.3319 19.2417C15.3335 19.9698 15.3336 20.6981 15.332 21.4262C15.3313 21.7659 15.1898 22.003 14.9963 22C14.8032 21.9969 14.668 21.7587 14.6671 21.4155C14.666 21.0514 14.6668 20.6873 14.6668 20.3233Z" fill="black"/>
<path fill-rule="evenodd" clip-rule="evenodd" d="M14.6672 24.3309C14.6672 24.152 14.6654 23.973 14.6676 23.7942C14.6709 23.5282 14.8175 23.3295 15.0041 23.3334C15.1866 23.3372 15.3286 23.5321 15.3308 23.7935C15.334 24.1512 15.3339 24.5091 15.3309 24.8668C15.3287 25.1391 15.1876 25.333 14.9993 25.3333C14.811 25.3337 14.6719 25.1394 14.6673 24.8675C14.6658 24.7782 14.6671 24.6887 14.6671 24.5992C14.6672 24.5098 14.6671 24.4203 14.6672 24.3309Z" fill="black"/>
<path fill-rule="evenodd" clip-rule="evenodd" d="M14.6674 16.9939C14.6674 16.8149 14.6651 16.6357 14.668 16.4568C14.6721 16.1952 14.8123 16.003 14.9965 16C15.1784 15.9971 15.3268 16.1904 15.3299 16.4499C15.3343 16.8174 15.3342 17.1851 15.3299 17.5526C15.3268 17.8148 15.1827 18.0013 14.9963 18C14.8115 17.9988 14.6715 17.8074 14.6678 17.5453C14.6652 17.3616 14.6673 17.1777 14.6674 16.9939Z" fill="black"/>
</svg>
