<svg width="40" height="40" viewBox="0 0 40 40" fill="none" xmlns="http://www.w3.org/2000/svg">
<path fill-rule="evenodd" clip-rule="evenodd" d="M31.894 39.3333H7.43933C3.34774 39.3333 0 35.9841 0 31.8908V7.44264C0 3.34921 3.34774 0 7.43933 0H31.894C35.9857 0 39.3333 3.34921 39.3333 7.44264V31.8908C39.3333 35.9841 35.9857 39.3333 31.894 39.3333Z" fill="#FF2D00"/>
<path fill-rule="evenodd" clip-rule="evenodd" d="M25.8238 9.78337C25.7841 9.32106 25.5576 8.88743 25.1397 8.58877C24.7879 8.33732 24.3772 8.1965 23.9269 8.24885C23.6543 8.2805 23.3742 8.26984 23.1203 8.40542C22.5561 8.70665 22.1358 9.15791 21.7946 9.68414C20.9996 10.9103 20.5947 12.2799 20.3305 13.6996C20.3076 13.8223 20.3777 13.7938 20.4395 13.7732C20.6738 13.6953 20.8974 13.5915 21.1178 13.4817C22.345 12.8703 23.5182 12.1643 24.6912 11.4577C24.9179 11.3212 25.1196 11.161 25.2941 10.9646C25.5809 10.642 25.8079 10.2916 25.8238 9.78337ZM19.0433 13.7158C19.038 13.6193 19.0381 13.5459 19.0294 13.4736C18.982 13.0828 18.8968 12.7 18.7791 12.3241C18.4053 11.1292 17.8146 10.0386 17.1713 8.97127C16.7158 8.21542 16.1897 7.52376 15.4952 6.96656C15.1684 6.7044 14.7993 6.54131 14.3957 6.45089C14.074 6.37889 13.75 6.38854 13.4612 6.55817C12.833 6.92699 12.4939 7.50774 12.3802 8.20258C12.2866 8.77407 12.4909 9.29784 12.7949 9.77997C13.1297 10.3108 13.5683 10.7485 14.057 11.136C15.5416 12.3134 17.2359 13.0901 19.0433 13.7158ZM25.9024 19.7298C27.7341 19.7298 29.5657 19.7286 31.3972 19.7323C31.5179 19.7325 31.5559 19.7036 31.5556 19.5786C31.5513 18.1035 31.551 16.6283 31.5559 15.1532C31.5564 15.0207 31.5179 14.9916 31.39 14.9916C27.7367 14.9951 24.0835 14.9951 20.4302 14.9916C20.3027 14.9916 20.2636 15.02 20.264 15.153C20.269 16.6232 20.2691 18.0934 20.264 19.5637C20.2636 19.701 20.3042 19.733 20.4374 19.7327C22.259 19.7284 24.0808 19.7298 25.9024 19.7298ZM13.413 14.9944C11.5913 14.9944 9.76964 14.9967 7.94789 14.9905C7.79284 14.9899 7.76293 15.0351 7.76343 15.1791C7.76864 16.6394 7.76819 18.0998 7.76394 19.5602C7.76355 19.691 7.79346 19.7332 7.93332 19.7331C11.5817 19.7289 15.23 19.7289 18.8784 19.7332C19.0249 19.7334 19.0559 19.6913 19.0554 19.5525C19.0503 18.0921 19.0503 16.6318 19.0554 15.1714C19.0559 15.0322 19.0242 14.9905 18.8781 14.991C17.0564 14.9963 15.2347 14.9944 13.413 14.9944ZM29.9423 26.9279C29.9423 24.9858 29.9408 23.0438 29.9454 21.1019C29.9457 20.9661 29.9093 20.9326 29.7744 20.9327C26.6646 20.9366 23.5548 20.9367 20.4451 20.9326C20.3036 20.9324 20.2638 20.9664 20.264 21.1102C20.268 24.9893 20.268 28.8684 20.2639 32.7475C20.2638 32.8877 20.3083 32.9134 20.4382 32.9133C23.5529 32.9098 26.6676 32.9098 29.7823 32.9135C29.9104 32.9137 29.9459 32.8862 29.9456 32.7538C29.9408 30.8119 29.9423 28.8698 29.9423 26.9279ZM9.37715 26.9206C9.37715 28.8626 9.37866 30.8046 9.37385 32.7466C9.37351 32.8837 9.41216 32.9136 9.54463 32.9135C12.6544 32.9097 15.7642 32.9097 18.874 32.9136C19.0117 32.9139 19.056 32.8875 19.0558 32.74C19.0514 28.8658 19.0514 24.9917 19.0558 21.1175C19.0559 20.9668 19.0156 20.932 18.8669 20.9322C15.7621 20.9369 12.6572 20.9368 9.55236 20.9324C9.40986 20.9322 9.37329 20.9663 9.37368 21.1093C9.37883 23.0464 9.37715 24.9835 9.37715 26.9206ZM32.6665 14.4288V20.336C32.6598 20.3542 32.6508 20.3717 32.6467 20.3904C32.5656 20.7581 32.3641 20.9231 31.9912 20.9243C31.7417 20.9252 31.4921 20.9237 31.2426 20.9248C31.0308 20.9258 31.0557 20.903 31.0557 21.1131C31.0553 25.1726 31.0554 29.232 31.0553 33.2915C31.0553 33.7723 30.8308 33.9948 30.3454 33.9948C23.2214 33.9949 16.0974 33.9927 8.97345 34C8.54377 34.0005 8.25636 33.731 8.25854 33.2909C8.27048 30.8787 8.26426 28.4664 8.26426 26.0541C8.26426 24.407 8.26252 22.7598 8.26723 21.1126C8.26767 20.9721 8.24398 20.9156 8.08636 20.924C7.81317 20.9385 7.53859 20.9271 7.26457 20.9267C7.10527 20.9265 6.96926 20.8696 6.85376 20.7613C6.69843 20.6155 6.66628 20.4297 6.66651 20.2275C6.6683 18.3318 6.66751 16.4361 6.66791 14.5404C6.66791 14.482 6.66925 14.4233 6.67536 14.3653C6.69681 14.1608 6.80581 14.0128 6.98019 13.9097C7.10835 13.8338 7.25096 13.8364 7.3934 13.8364C10.2117 13.8368 13.03 13.8368 15.8482 13.836C15.9015 13.836 15.9587 13.8494 16.0297 13.8133C15.96 13.7775 15.9088 13.7511 15.8574 13.725C15.3352 13.4583 14.824 13.1722 14.3346 12.8492C13.4527 12.2671 12.6376 11.6108 12.0156 10.745C11.626 10.2028 11.3599 9.60957 11.2611 8.94386C11.1163 7.96833 11.4633 7.14366 12.0408 6.39195C12.4978 5.79702 13.0945 5.42512 13.8535 5.34726C14.4662 5.28447 15.0392 5.4393 15.5815 5.70777C16.4034 6.1146 17.04 6.74866 17.5666 7.47269C18.4086 8.63046 19.1095 9.87446 19.641 11.2077C19.6558 11.2447 19.6553 11.2958 19.711 11.3137C19.8419 10.9411 19.9856 10.5742 20.154 10.2173C20.5462 9.3862 21.0281 8.61751 21.7255 8.00159C22.7296 7.11481 23.8688 6.92928 25.1252 7.35665C26.3821 7.78431 26.9807 9.08005 26.9695 9.88602C26.9542 10.9832 26.3744 11.7806 25.5247 12.3803C24.8043 12.8887 24.0214 13.3084 23.2537 13.7466C23.2196 13.766 23.1683 13.7707 23.1582 13.8367H23.3344C26.1868 13.8367 29.0394 13.8367 31.8919 13.8369C31.9604 13.8369 32.0291 13.8363 32.0973 13.8408C32.3588 13.8583 32.5787 14.0477 32.6364 14.3027C32.6459 14.3448 32.6564 14.3868 32.6665 14.4288Z" fill="black"/>
</svg>
