<?xml version="1.0" encoding="utf-8"?>
<!-- Generator: Adobe Illustrator 23.0.1, SVG Export Plug-In . SVG Version: 6.00 Build 0)  -->
<svg version="1.1" id="Layer_1" xmlns="http://www.w3.org/2000/svg" xmlns:xlink="http://www.w3.org/1999/xlink" x="0px" y="0px"
	 viewBox="0 0 1091.72 247.78" style="enable-background:new 0 0 1091.72 247.78;" xml:space="preserve">
<style type="text/css">
	.st0{fill:#1B4677;}
</style>
<g>
	<g>
		<polygon class="st0" points="1067.1,62.68 1052.25,62.68 1066.1,40.53 1080.94,40.53 		"/>
	</g>
	<g>
		<g>
			<g>
				<g>
					<path class="st0" d="M422.99,118.25c0,11.12-8.46,17.75-25.87,17.75h-32.88V72.81h31.55c15.72,0,25.14,5.92,25.14,16.33
						c0,6.51-3.75,11.36-9.91,13.96C419,105.47,422.99,110.55,422.99,118.25z M378.62,99.19h15.84c7.74,0,11.73-2.72,11.73-7.93
						c0-5.2-3.99-7.69-11.73-7.69h-15.84V99.19z M408.36,117.3c0-5.56-3.75-8.28-11.97-8.28h-17.77v16.21h17.29
						C404.01,125.23,408.36,122.74,408.36,117.3z"/>
					<path class="st0" d="M433.51,104.4c0-18.93,14.51-32.3,34.33-32.3c20.07,0,34.45,13.37,34.45,32.3
						c0,18.93-14.39,32.42-34.45,32.42C448.02,136.82,433.51,123.33,433.51,104.4z M487.07,104.4c0-12.07-8.22-19.76-19.22-19.76
						c-10.88,0-19.1,7.69-19.1,19.76c0,12.07,8.22,19.76,19.1,19.76C478.84,124.16,487.07,116.47,487.07,104.4z"/>
					<path class="st0" d="M574.95,72.81v63.18h-15.11V85.35h-24.18l-0.6,12.54c-1.09,22.48-4.47,39.28-19.71,39.28
						c-2.42,0-5.2-0.47-8.34-1.3l0.73-12.43c1.09,0.24,2.05,0.36,2.9,0.36c9.91,0,10.28-13.49,11-26.62l1.09-24.37H574.95z"/>
					<path class="st0" d="M644.83,85.35h-34.45v50.64h-15.11V72.81h49.56V85.35z"/>
					<path class="st0" d="M647.49,104.4c0-18.93,14.51-32.3,34.33-32.3c20.07,0,34.45,13.37,34.45,32.3
						c0,18.93-14.39,32.42-34.45,32.42C662,136.82,647.49,123.33,647.49,104.4z M701.04,104.4c0-12.07-8.22-19.76-19.22-19.76
						c-10.88,0-19.1,7.69-19.1,19.76c0,12.07,8.22,19.76,19.1,19.76C692.82,124.16,701.04,116.47,701.04,104.4z"/>
					<path class="st0" d="M725.59,104.4c0-18.93,14.5-32.3,34.94-32.3c12.57,0,22.61,5.09,27.56,14.67l-11.61,6.63
						c-3.87-6.03-9.67-8.76-16.08-8.76c-11.12,0-19.58,7.57-19.58,19.76c0,12.31,8.46,19.76,19.58,19.76
						c6.41,0,12.21-2.72,16.08-8.75l11.61,6.62c-4.96,9.47-14.99,14.79-27.56,14.79C740.09,136.82,725.59,123.33,725.59,104.4z"/>
					<path class="st0" d="M856.34,85.35h-22.61v50.64h-15.11V85.35H795.9V72.81h60.45V85.35z"/>
					<path class="st0" d="M935.28,104.4c0,19.64-13.9,32.42-32.76,32.42c-8.22,0-15.47-2.72-20.67-8.52v30.64h-15.11V72.81h14.38
						v8.28c5.08-6.04,12.57-8.99,21.4-8.99C921.38,72.1,935.28,84.88,935.28,104.4z M919.93,104.4c0-12.07-8.22-19.76-19.1-19.76
						c-10.88,0-19.22,7.69-19.22,19.76c0,12.07,8.34,19.76,19.22,19.76C911.71,124.16,919.93,116.47,919.93,104.4z"/>
					<path class="st0" d="M944.11,104.4c0-18.93,14.51-32.3,34.33-32.3c20.07,0,34.45,13.37,34.45,32.3
						c0,18.93-14.39,32.42-34.45,32.42C958.62,136.82,944.11,123.33,944.11,104.4z M997.66,104.4c0-12.07-8.22-19.76-19.22-19.76
						c-10.88,0-19.1,7.69-19.1,19.76c0,12.07,8.22,19.76,19.1,19.76C989.44,124.16,997.66,116.47,997.66,104.4z"/>
					<path class="st0" d="M1027.17,72.81h15.11v41.65l35.66-41.65h13.78v63.18h-15.11V94.34l-35.54,41.65h-13.9V72.81z"/>
				</g>
			</g>
			<g>
				<path class="st0" d="M370.43,190.08h-4.6v-25.85h16.37v4.31h-11.78V190.08z"/>
				<path class="st0" d="M395.54,201.57h-4.6v-37.34h4.6v3.04c0.92-1.07,2.18-1.94,3.79-2.61c1.61-0.67,3.27-1.01,5-1.01
					c3.67,0,6.57,1.23,8.67,3.68c2.18,2.41,3.28,5.55,3.28,9.42c0,3.95-1.24,7.26-3.73,9.94c-2.45,2.64-5.69,3.96-9.71,3.96
					c-3.1,0-5.53-0.59-7.3-1.78V201.57z M403,167.96c-3.06,0-5.55,1.19-7.47,3.56v12.81c2.03,1.34,4.33,2.01,6.89,2.01
					c2.72,0,4.89-0.87,6.52-2.61c1.63-1.74,2.44-4.01,2.44-6.81c0-2.72-0.75-4.89-2.24-6.52C407.66,168.78,405.61,167.96,403,167.96
					z"/>
				<path class="st0" d="M444.43,164.23h5.23l-10.34,25.85c-1.88,4.56-3.51,7.58-4.88,9.08c-1.46,1.61-3.12,2.41-5,2.41
					c-1.69,0-3.31-0.54-4.88-1.61l1.49-3.51c1.22,0.58,2.18,0.86,2.87,0.86c1.07,0,2.04-0.46,2.9-1.38
					c0.86-0.92,1.73-2.41,2.61-4.48l0.57-1.38l-12.41-25.85h5.51l7.58,16.43c0.15,0.27,0.67,1.57,1.55,3.91
					c0.34-1.26,0.74-2.58,1.21-3.97L444.43,164.23z"/>
				<path class="st0" d="M481.94,190.08h-4.6v-21.55h-14.07v21.55h-4.6v-25.85h23.27V190.08z"/>
				<path class="st0" d="M517.85,190.08h-4.6v-21.55h-14.08v21.55h-4.6v-25.85h23.27V190.08z"/>
				<path class="st0" d="M531.86,169.69l-1.2-3.68c2.57-1.57,5.44-2.35,8.62-2.35c3.49,0,6.01,0.86,7.58,2.58
					c1.57,1.72,2.36,4.38,2.36,7.99v15.86h-4.37v-3.33c-2.03,2.49-4.79,3.73-8.27,3.73c-2.38,0-4.29-0.72-5.75-2.16
					c-1.46-1.44-2.18-3.38-2.18-5.83c0-2.53,0.9-4.53,2.7-6c1.8-1.47,4.16-2.21,7.07-2.21c2.72,0,4.86,0.56,6.43,1.67
					c0-2.91-0.4-5-1.2-6.26c-0.8-1.26-2.36-1.89-4.66-1.89C536.65,167.79,534.28,168.42,531.86,169.69z M538.18,186.35
					c2.57,0,4.79-1.11,6.66-3.33v-3.28c-1.61-1.15-3.54-1.72-5.8-1.72c-1.57,0-2.88,0.37-3.94,1.12c-1.06,0.75-1.58,1.79-1.58,3.13
					c0,1.26,0.41,2.26,1.24,2.99C535.59,185.99,536.73,186.35,538.18,186.35z"/>
				<path class="st0" d="M583.05,190.08h-4.6v-25.85h4.6V190.08z M595.06,164.23h6.03l-11.32,12.35l12.41,13.5h-6.38l-11.66-13.21
					L595.06,164.23z"/>
				<path class="st0" d="M612.06,186.87c-2.53-2.6-3.79-5.84-3.79-9.71c0-3.91,1.26-7.12,3.79-9.65c2.56-2.57,5.9-3.85,9.99-3.85
					c4.1,0,7.41,1.28,9.94,3.85c2.56,2.53,3.85,5.75,3.85,9.65c0,3.91-1.28,7.14-3.85,9.71c-2.53,2.53-5.84,3.79-9.94,3.79
					C618,190.66,614.67,189.39,612.06,186.87z M613.15,177.16c0,2.72,0.82,4.92,2.47,6.61c1.69,1.72,3.83,2.58,6.43,2.58
					c2.6,0,4.74-0.85,6.41-2.56c1.67-1.7,2.5-3.91,2.5-6.63c0-2.64-0.84-4.84-2.53-6.61c-1.65-1.72-3.77-2.58-6.38-2.58
					c-2.6,0-4.73,0.86-6.38,2.58C614,172.24,613.15,174.44,613.15,177.16z"/>
				<path class="st0" d="M651.36,190.08h-4.6v-25.85h4.19l9.94,12.81l9.42-12.81h4.08v25.85h-4.6v-18.84l-8.96,12.01h-0.17
					l-9.31-12.01V190.08z"/>
				<path class="st0" d="M710.3,190.08h-4.6v-21.55h-14.08v21.55h-4.6v-25.85h23.27V190.08z"/>
				<path class="st0" d="M724.32,169.69l-1.21-3.68c2.56-1.57,5.44-2.35,8.62-2.35c3.48,0,6.01,0.86,7.58,2.58
					c1.57,1.72,2.35,4.38,2.35,7.99v15.86h-4.37v-3.33c-2.03,2.49-4.79,3.73-8.27,3.73c-2.37,0-4.29-0.72-5.75-2.16
					c-1.46-1.44-2.18-3.38-2.18-5.83c0-2.53,0.9-4.53,2.7-6c1.8-1.47,4.15-2.21,7.07-2.21c2.72,0,4.86,0.56,6.43,1.67
					c0-2.91-0.4-5-1.21-6.26c-0.8-1.26-2.36-1.89-4.65-1.89C729.11,167.79,726.73,168.42,724.32,169.69z M730.64,186.35
					c2.56,0,4.79-1.11,6.66-3.33v-3.28c-1.61-1.15-3.54-1.72-5.8-1.72c-1.57,0-2.88,0.37-3.94,1.12c-1.05,0.75-1.58,1.79-1.58,3.13
					c0,1.26,0.41,2.26,1.23,2.99C728.04,185.99,729.18,186.35,730.64,186.35z"/>
				<path class="st0" d="M777.23,190.08h-4.6v-10.92h-14.36v10.92h-4.6v-25.85h4.6v10.63h14.36v-10.63h4.6V190.08z"/>
				<path class="st0" d="M809.4,170.84l-14.94,19.25h-4.6v-25.85h4.6v19.25l14.94-19.25h4.6v25.85h-4.6V170.84z"/>
				<path class="st0" d="M846.17,170.84l-14.94,19.25h-4.6v-25.85h4.6v19.25l14.94-19.25h4.6v25.85h-4.6V170.84z M830.31,151.02
					h4.31c0.23,3.02,1.7,4.54,4.42,4.54c2.57,0,3.96-1.51,4.19-4.54h4.31c0,2.34-0.79,4.26-2.38,5.77
					c-1.59,1.51-3.63,2.27-6.12,2.27c-2.72,0-4.85-0.74-6.41-2.21C831.09,155.37,830.31,153.43,830.31,151.02z"/>
			</g>
		</g>
		<g>
			<g>
				<path class="st0" d="M264.23,177.9c-0.15,0-0.29,0.01-0.45,0.01c-18.64,0-27.09-5.13-37.78-11.62c-11.58-7.03-24.7-15-49.92-15
					c-25.19,0-38.32,7.96-49.9,14.98c-10.72,6.51-19.17,11.63-37.81,11.63c-18.64,0-27.09-5.13-37.78-11.62
					c-11.04-6.7-23.56-14.3-46.83-14.94L0,151.25v22.49l3.55,0.11c16.72,0.52,25.15,5.64,34.9,11.57c11.59,7.03,24.72,15,49.93,15
					c25.2,0,38.33-7.97,49.91-15c10.71-6.5,19.15-11.63,37.79-11.63c18.63,0,27.08,5.13,37.77,11.61
					c11.61,7.04,24.73,15.01,49.93,15.01c0.15,0,0.3-0.01,0.45-0.01V177.9z"/>
			</g>
			<g>
				<path class="st0" d="M264.23,225.27c-0.15,0-0.29,0.01-0.45,0.01c-18.64,0-27.09-5.13-37.78-11.62c-11.58-7.03-24.7-15-49.92-15
					c-25.19,0-38.32,7.96-49.9,14.98c-10.72,6.51-19.17,11.63-37.81,11.63c-18.64,0-27.09-5.13-37.78-11.62
					c-11.04-6.7-23.56-14.3-46.83-14.94L0,198.61v22.49l3.55,0.11c16.72,0.52,25.15,5.64,34.9,11.57c11.59,7.03,24.72,15,49.93,15
					c25.2,0,38.33-7.97,49.91-15c10.71-6.5,19.15-11.63,37.79-11.63c18.63,0,27.08,5.13,37.77,11.61
					c11.61,7.04,24.73,15.01,49.93,15.01c0.15,0,0.3-0.01,0.45-0.01V225.27z"/>
			</g>
			<rect x="123.91" y="89.04" class="st0" width="22.73" height="42.44"/>
			<polygon class="st0" points="135.21,0 0,72.04 0,121.45 0,150.29 0,154.17 22.73,154.17 22.73,150.29 22.73,121.45 22.73,85.62 
				135,25.93 241.5,85.5 241.5,150.31 264.23,150.31 264.23,131.54 264.23,88.97 264.23,72.16 			"/>
		</g>
	</g>
</g>
</svg>
