<svg width="43" height="48" viewBox="0 0 43 48" fill="none" xmlns="http://www.w3.org/2000/svg">
<path fill-rule="evenodd" clip-rule="evenodd" d="M23.7264 0.59247C22.3322 -0.19749 20.6255 -0.19749 19.2314 0.59247L10.7394 5.40428L2.32507 10.3504C0.943673 11.1625 0.0903286 12.6401 0.0775905 14.242L0 24L0.0775905 33.758C0.0903286 35.3599 0.943672 36.8375 2.32507 37.6496L10.7394 42.5957L19.2314 47.4075C20.6255 48.1975 22.3322 48.1975 23.7264 47.4075L32.2183 42.5957L40.6327 37.6496C42.0141 36.8375 42.8674 35.3599 42.8802 33.758L42.9578 24L42.8802 14.242C42.8674 12.6401 42.0141 11.1625 40.6327 10.3504L32.2183 5.40428L23.7264 0.59247ZM24.1376 25.1119L37.6476 17.3142C38.7376 16.6851 39.111 15.2918 38.4817 14.2021C37.8524 13.1124 36.4586 12.7391 35.3686 13.3682L22.0041 21.0819L8.63947 13.3682C7.54948 12.7391 6.15571 13.1124 5.5264 14.2021C4.89709 15.2917 5.27055 16.6851 6.36054 17.3142L19.5798 24.9441V39.568C19.5798 40.8263 20.6001 41.8463 21.8587 41.8463C23.1173 41.8463 24.1376 40.8263 24.1376 39.568V25.1119Z" fill="#FF5900"/>
</svg>
