<svg display="none" xmlns="http://www.w3.org/2000/svg">
    <symbol id="vk" viewBox="0 0 40 40">
        <g clip-path="url(#clip0_38_48)">
            <path d="M26.1387 0H13.86C2.655 0 -0.00125122 2.65625 -0.00125122 13.8612V26.14C-0.00125122 37.345 2.655 40.0012 13.86 40.0012H26.1387C37.3437 40.0012 40 37.345 40 26.14V13.8612C40 2.65625 37.3175 0 26.1387 0ZM32.2912 28.535H29.3875C28.2875 28.535 27.9487 27.6625 25.97 25.6575C24.2512 23.9912 23.49 23.77 23.0662 23.77C22.4675 23.77 22.2975 23.9388 22.2975 24.76V27.3837C22.2975 28.0875 22.0762 28.51 20.2137 28.51C17.1337 28.51 13.7162 26.6475 11.32 23.1775C7.70625 18.0925 6.7175 14.2837 6.7175 13.4962C6.7175 13.0725 6.88625 12.6762 7.7 12.6762H10.61C11.3462 12.6762 11.6262 13.015 11.9125 13.8025C13.3512 17.9562 15.7475 21.595 16.7362 21.595C17.1012 21.595 17.27 21.4262 17.27 20.495V16.205C17.1587 14.2262 16.1175 14.0562 16.1175 13.3537C16.1175 13.015 16.3975 12.6762 16.8462 12.6762H21.4225C22.0412 12.6762 22.2687 13.015 22.2687 13.7437V19.5312C22.2687 20.1562 22.5487 20.3775 22.7175 20.3775C23.0825 20.3775 23.395 20.1563 24.0712 19.4788C26.1612 17.135 27.6587 13.5213 27.6587 13.5213C27.8537 13.0975 28.1925 12.7013 28.9287 12.7013H31.8387C32.7112 12.7013 32.9062 13.15 32.7112 13.775C32.3462 15.4675 28.785 20.4938 28.785 20.4938C28.4787 21.0013 28.3612 21.2225 28.785 21.7887C29.0975 22.2125 30.1137 23.0913 30.79 23.8788C32.0337 25.2913 32.99 26.4762 33.245 27.2962C33.5312 28.11 33.1087 28.5337 32.2875 28.5337L32.2912 28.535Z"/>
        </g>
        <defs>
            <clipPath id="clip0_38_48">
                <rect width="40" height="40"/>
            </clipPath>
        </defs>
    </symbol>
    <symbol id="arrow" viewBox="0 0 10 6">
        <g>
            <path d="M5 5.5L0 0.500015H10L5 5.5Z" fill="#212121"/>
        </g>
    </symbol>
    <symbol id="logo-header" viewBox="0 0 185 48">
        <g opacity="0.3">
            <path d="M62.7775 34.1762L59.7063 39.8726C59.4627 40.3267 59.1763 40.6656 58.8472 40.8894C58.518 41.1132 58.1592 41.2251 57.7707 41.2251C57.4679 41.2251 57.1585 41.156 56.8425 41.0178L57.0992 40.228C57.3428 40.3135 57.5601 40.3563 57.751 40.3563C58.1855 40.3563 58.5443 40.1259 58.8274 39.6652L58.9854 39.4184L56.2006 34.1762H57.2572L59.4989 38.5595L61.7999 34.1762H62.7775Z" fill="#333333"/>
            <path d="M68.1078 37.5032C68.5753 37.6151 68.9275 37.8158 69.1645 38.1054C69.4081 38.3884 69.5299 38.7537 69.5299 39.2012C69.5299 39.8002 69.3093 40.2642 68.8682 40.5932C68.4337 40.9223 67.7984 41.0869 66.9623 41.0869H63.8022V34.1762H66.7747C67.5318 34.1762 68.121 34.3308 68.5424 34.6402C68.9703 34.9429 69.1843 35.3806 69.1843 35.9532C69.1843 36.3284 69.0888 36.6476 68.8979 36.9108C68.7135 37.1741 68.4502 37.3715 68.1078 37.5032ZM64.7799 37.2169H66.7055C67.1861 37.2169 67.5515 37.1214 67.8017 36.9306C68.0585 36.7397 68.1868 36.46 68.1868 36.0914C68.1868 35.7229 68.0585 35.4431 67.8017 35.2523C67.5449 35.0548 67.1796 34.9561 66.7055 34.9561H64.7799V37.2169ZM66.9426 40.3069C68.0025 40.3069 68.5325 39.912 68.5325 39.1223C68.5325 38.7274 68.3975 38.4378 68.1276 38.2535C67.8643 38.0626 67.4692 37.9672 66.9426 37.9672H64.7799V40.3069H66.9426Z" fill="#333333"/>
            <path d="M76.1964 40.228V41.0869H71.1798V34.1762H76.0582V35.0351H72.1673V37.1576H75.6336V37.9968H72.1673V40.228H76.1964Z" fill="#333333"/>
            <path d="M83.396 34.1762V41.0869H82.4282V35.0351H79.3668L79.2977 37.0589C79.2648 38.0133 79.1858 38.7866 79.0607 39.3789C78.9422 39.9713 78.7513 40.4188 78.4879 40.7216C78.2246 41.0178 77.8691 41.1658 77.4214 41.1658C77.2173 41.1658 77.0099 41.1395 76.7992 41.0869L76.8684 40.2082C76.9737 40.2345 77.079 40.2477 77.1844 40.2477C77.4675 40.2477 77.6946 40.1358 77.8658 39.912C78.0369 39.6817 78.1653 39.3394 78.2509 38.8853C78.3365 38.4312 78.3925 37.8323 78.4188 37.0885L78.5274 34.1762H83.396Z" fill="#333333"/>
            <path d="M85.5492 34.1762H86.5268V39.5073L90.6152 34.1762H91.5238V41.0869H90.556V35.7656L86.4577 41.0869H85.5492V34.1762Z" fill="#333333"/>
            <path d="M98.6015 34.1762V41.0869H97.6239V38.3522C96.8931 38.6352 96.2183 38.7767 95.5994 38.7767C94.7567 38.7767 94.1017 38.5727 93.6342 38.1646C93.1734 37.7566 92.943 37.1741 92.943 36.4172V34.1762H93.9107V36.3086C93.9107 36.822 94.0655 37.2169 94.3749 37.4933C94.6909 37.7697 95.1353 37.9079 95.7081 37.9079C96.3467 37.9079 96.9853 37.7632 97.6239 37.4736V34.1762H98.6015Z" fill="#333333"/>
            <path d="M105.774 40.228V41.0869H100.758V34.1762H105.636V35.0351H101.745V37.1576H105.211V37.9968H101.745V40.228H105.774Z" fill="#333333"/>
            <path d="M113.27 34.1762V41.0869H112.283V38.0067H108.313V41.0869H107.325V34.1762H108.313V37.1478H112.283V34.1762H113.27Z" fill="#333333"/>
            <path d="M115.426 34.1762H116.404V39.5073L120.492 34.1762H121.401V41.0869H120.433V35.7656L116.334 41.0869H115.426V34.1762Z" fill="#333333"/>
            <path d="M128.572 40.228V41.0869H123.556V34.1762H128.434V35.0351H124.543V37.1576H128.01V37.9968H124.543V40.228H128.572Z" fill="#333333"/>
            <path d="M138.73 34.1762V41.0869H137.762V35.0351H133.753V41.0869H132.775V34.1762H138.73Z" fill="#333333"/>
            <path d="M143.582 34.1762C144.477 34.1762 145.182 34.3901 145.695 34.8179C146.209 35.2457 146.465 35.8347 146.465 36.585C146.465 37.3353 146.209 37.9244 145.695 38.3522C145.182 38.78 144.477 38.9939 143.582 38.9939H141.873V41.0869H140.886V34.1762H143.582ZM143.552 38.135C144.178 38.135 144.655 38.0034 144.984 37.7401C145.313 37.4703 145.478 37.0852 145.478 36.585C145.478 36.0848 145.313 35.7031 144.984 35.4398C144.655 35.17 144.178 35.0351 143.552 35.0351H141.873V38.135H143.552Z" fill="#333333"/>
            <path d="M151.046 41.1658C150.348 41.1658 149.72 41.0145 149.16 40.7117C148.6 40.4024 148.159 39.9779 147.837 39.4382C147.521 38.8985 147.363 38.2963 147.363 37.6315C147.363 36.9668 147.521 36.3646 147.837 35.8249C148.159 35.2852 148.6 34.864 149.16 34.5612C149.72 34.2519 150.348 34.0972 151.046 34.0972C151.738 34.0972 152.363 34.2519 152.923 34.5612C153.482 34.864 153.92 35.2852 154.236 35.8249C154.552 36.358 154.71 36.9602 154.71 37.6315C154.71 38.3028 154.552 38.9084 154.236 39.448C153.92 39.9812 153.482 40.4024 152.923 40.7117C152.363 41.0145 151.738 41.1658 151.046 41.1658ZM151.046 40.2872C151.553 40.2872 152.007 40.172 152.409 39.9417C152.817 39.7113 153.137 39.3954 153.367 38.9939C153.604 38.5859 153.722 38.1317 153.722 37.6315C153.722 37.1313 153.604 36.6805 153.367 36.279C153.137 35.8709 152.817 35.5517 152.409 35.3214C152.007 35.091 151.553 34.9758 151.046 34.9758C150.539 34.9758 150.078 35.091 149.664 35.3214C149.256 35.5517 148.933 35.8709 148.696 36.279C148.466 36.6805 148.35 37.1313 148.35 37.6315C148.35 38.1317 148.466 38.5859 148.696 38.9939C148.933 39.3954 149.256 39.7113 149.664 39.9417C150.078 40.172 150.539 40.2872 151.046 40.2872Z" fill="#333333"/>
            <path d="M162.7 40.228V42.5973H161.782V41.0869H156.094L156.084 42.5973H155.166L155.175 40.228H155.511C155.946 40.2016 156.252 39.8594 156.43 39.2012C156.607 38.5365 156.716 37.6019 156.755 36.3975L156.825 34.1762H161.683V40.228H162.7ZM157.624 36.4863C157.592 37.4604 157.513 38.2666 157.387 38.9051C157.269 39.5435 157.075 39.9844 156.805 40.228H160.706V35.0351H157.674L157.624 36.4863Z" fill="#333333"/>
            <path d="M168.573 39.3592H164.899L164.139 41.0869H163.122L166.252 34.1762H167.23L170.37 41.0869H169.333L168.573 39.3592ZM168.227 38.5694L166.736 35.1832L165.245 38.5694H168.227Z" fill="#333333"/>
            <path d="M177.042 38.0462H175.728V41.0869H174.761V38.0462H173.437L171.502 41.0869H170.346L172.628 37.4933L170.514 34.1762H171.571L173.418 37.1774H174.761V34.1762H175.728V37.1774H177.052L178.908 34.1762H179.965L177.852 37.5131L180.133 41.0869H178.977L177.042 38.0462Z" fill="#333333"/>
        </g>
        <path d="M70.3192 29.881H67.3148V25.8985H59.6479V29.8699H56.5544L56.3764 23.1842H57.4558C57.9306 22.7467 58.3052 22.0421 58.5797 21.0706C58.8541 20.0991 59.047 18.8272 59.1583 17.255L59.6145 9.70162H68.9283V23.1842H70.6086L70.3192 29.881ZM60.9721 23.1842H65.6679V12.4271H62.7302L62.4632 16.8879C62.2777 19.5651 61.7807 21.6639 60.9721 23.1842Z" fill="#212121"/>
        <path d="M83.4387 19.2574C83.4387 21.4303 82.9231 23.1175 81.8919 24.3189C80.8682 25.5203 79.4439 26.121 77.6189 26.121C75.8014 26.121 74.3734 25.5277 73.3348 24.3411C72.2962 23.1471 71.7695 21.4785 71.7547 19.3352V16.5653C71.7547 14.3404 72.2703 12.605 73.3014 11.3591C74.3326 10.1058 75.7643 9.47913 77.5967 9.47913C79.3993 9.47913 80.82 10.0947 81.8585 11.3258C82.8971 12.5494 83.4238 14.27 83.4387 16.4874V19.2574ZM80.156 16.543C80.156 15.082 79.9483 13.9956 79.5329 13.2836C79.1174 12.5717 78.472 12.2157 77.5967 12.2157C76.7287 12.2157 76.087 12.5606 75.6716 13.2503C75.2562 13.9325 75.041 14.9745 75.0262 16.3762V19.2574C75.0262 20.6738 75.2376 21.7195 75.6605 22.3944C76.0833 23.0619 76.7361 23.3956 77.6189 23.3956C78.472 23.3956 79.1063 23.0693 79.5217 22.4166C79.9372 21.7566 80.1486 20.7369 80.156 19.3575V16.543Z" fill="#212121"/>
        <path d="M90.0596 9.70162L93.1196 21.4155L96.1686 9.70162H100.442V25.8985H97.1589V21.5156L97.4594 14.7632L94.2213 25.8985H91.9958L88.7576 14.7632L89.0581 21.5156V25.8985H85.7866V9.70162H90.0596Z" fill="#212121"/>
        <path d="M119.314 20.5033C119.232 22.3499 118.713 23.7478 117.756 24.6971C116.799 25.6464 115.449 26.121 113.706 26.121C111.873 26.121 110.468 25.5203 109.488 24.3189C108.516 23.1101 108.031 21.3895 108.031 19.1572V16.4318C108.031 14.2069 108.535 12.4938 109.544 11.2924C110.553 10.0835 111.955 9.47913 113.75 9.47913C115.516 9.47913 116.855 9.97231 117.767 10.9587C118.687 11.945 119.21 13.3615 119.336 15.2081H116.054C116.024 14.066 115.846 13.2799 115.519 12.8498C115.2 12.4122 114.611 12.1935 113.75 12.1935C112.875 12.1935 112.255 12.5012 111.892 13.1168C111.528 13.7249 111.335 14.7298 111.313 16.1314V19.1906C111.313 20.7999 111.491 21.9049 111.847 22.5056C112.211 23.1063 112.83 23.4067 113.706 23.4067C114.566 23.4067 115.16 23.1991 115.486 22.7837C115.812 22.361 115.998 21.6009 116.042 20.5033H119.314Z" fill="#212121"/>
        <path d="M129.062 22.5835H124.6L123.732 25.8985H120.271L125.334 9.70162H128.327L133.424 25.8985H129.93L129.062 22.5835ZM125.312 19.8581H128.338L126.825 14.0846L125.312 19.8581Z" fill="#212121"/>
        <path d="M142.882 9.70162H146.154V25.8985H142.882V15.1748L138.108 25.8985H134.826V9.70162H138.108V20.4365L142.882 9.70162ZM144.373 5.4299C144.373 6.41625 144.017 7.21349 143.305 7.82162C142.6 8.42974 141.669 8.73381 140.512 8.73381C139.347 8.73381 138.409 8.42974 137.697 7.82162C136.992 7.21349 136.64 6.41625 136.64 5.4299H138.943C138.943 5.8897 139.08 6.24939 139.355 6.50895C139.637 6.7611 140.022 6.88718 140.512 6.88718C140.994 6.88718 141.372 6.7611 141.647 6.50895C141.921 6.24939 142.059 5.8897 142.059 5.4299H144.373Z" fill="#212121"/>
        <path d="M159.262 12.4271H155.256V25.8985H151.973V12.4271H148.034V9.70162H159.262V12.4271Z" fill="#212121"/>
        <path d="M172.237 19.2574C172.237 21.4303 171.721 23.1175 170.69 24.3189C169.666 25.5203 168.242 26.121 166.417 26.121C164.599 26.121 163.171 25.5277 162.133 24.3411C161.094 23.1471 160.568 21.4785 160.553 19.3352V16.5653C160.553 14.3404 161.068 12.605 162.099 11.3591C163.131 10.1058 164.562 9.47913 166.395 9.47913C168.197 9.47913 169.618 10.0947 170.657 11.3258C171.695 12.5494 172.222 14.27 172.237 16.4874V19.2574ZM168.954 16.543C168.954 15.082 168.746 13.9956 168.331 13.2836C167.915 12.5717 167.27 12.2157 166.395 12.2157C165.527 12.2157 164.885 12.5606 164.47 13.2503C164.054 13.9325 163.839 14.9745 163.824 16.3762V19.2574C163.824 20.6738 164.036 21.7195 164.458 22.3944C164.881 23.0619 165.534 23.3956 166.417 23.3956C167.27 23.3956 167.904 23.0693 168.32 22.4166C168.735 21.7566 168.947 20.7369 168.954 19.3575V16.543Z" fill="#212121"/>
        <path d="M174.585 25.8985V9.70162H179.592C181.283 9.70162 182.567 10.0798 183.442 10.8363C184.325 11.5853 184.766 12.6866 184.766 14.1402C184.766 14.9634 184.585 15.6716 184.221 16.2649C183.858 16.8582 183.361 17.2921 182.73 17.5665C183.457 17.7741 184.017 18.1931 184.41 18.8235C184.803 19.4465 185 20.2177 185 21.1374C185 22.7096 184.566 23.8962 183.698 24.6971C182.838 25.4981 181.588 25.8985 179.948 25.8985H174.585ZM177.856 18.8569V23.1842H179.948C180.534 23.1842 180.979 23.0025 181.283 22.6391C181.588 22.2757 181.74 21.7603 181.74 21.0929C181.74 19.6393 181.213 18.894 180.159 18.8569H177.856ZM177.856 16.4763H179.559C180.842 16.4763 181.484 15.8125 181.484 14.485C181.484 13.7508 181.335 13.2243 181.039 12.9054C180.742 12.5865 180.26 12.4271 179.592 12.4271H177.856V16.4763Z" fill="#212121"/>
        <path fill-rule="evenodd" clip-rule="evenodd" d="M23.7264 0.59247C22.3322 -0.19749 20.6255 -0.19749 19.2314 0.59247L10.7394 5.40428L2.32507 10.3504C0.943673 11.1625 0.0903286 12.6401 0.0775905 14.242L0 24L0.0775905 33.758C0.0903286 35.3599 0.943672 36.8375 2.32507 37.6496L10.7394 42.5957L19.2314 47.4075C20.6255 48.1975 22.3322 48.1975 23.7264 47.4075L32.2183 42.5957L40.6327 37.6496C42.0141 36.8375 42.8674 35.3599 42.8802 33.758L42.9578 24L42.8802 14.242C42.8674 12.6401 42.0141 11.1625 40.6327 10.3504L32.2183 5.40428L23.7264 0.59247ZM24.1376 25.1119L37.6476 17.3142C38.7376 16.6851 39.111 15.2918 38.4817 14.2021C37.8524 13.1124 36.4586 12.7391 35.3686 13.3682L22.0041 21.0819L8.63947 13.3682C7.54948 12.7391 6.15571 13.1124 5.5264 14.2021C4.89709 15.2917 5.27055 16.6851 6.36054 17.3142L19.5798 24.9441V39.568C19.5798 40.8263 20.6001 41.8463 21.8587 41.8463C23.1173 41.8463 24.1376 40.8263 24.1376 39.568V25.1119Z" fill="#FF5900"/>
    </symbol>
    <symbol id="logo-footer" viewBox="0 0 185 48">
        <g opacity="0.3">
            <path d="M62.7775 34.1766L59.7063 39.873C59.4627 40.3271 59.1763 40.6661 58.8472 40.8899C58.518 41.1136 58.1592 41.2255 57.7707 41.2255C57.4679 41.2255 57.1585 41.1564 56.8425 41.0182L57.0992 40.2284C57.3428 40.314 57.5601 40.3568 57.751 40.3568C58.1855 40.3568 58.5443 40.1264 58.8274 39.6657L58.9854 39.4189L56.2006 34.1766H57.2572L59.4989 38.56L61.7999 34.1766H62.7775Z" fill="white"/>
            <path d="M68.1078 37.5036C68.5753 37.6155 68.9275 37.8163 69.1645 38.1059C69.4081 38.3889 69.5299 38.7541 69.5299 39.2017C69.5299 39.8006 69.3093 40.2646 68.8682 40.5937C68.4337 40.9228 67.7984 41.0873 66.9623 41.0873H63.8022V34.1766H66.7747C67.5318 34.1766 68.121 34.3313 68.5424 34.6406C68.9703 34.9434 69.1843 35.3811 69.1843 35.9537C69.1843 36.3288 69.0888 36.648 68.8979 36.9113C68.7135 37.1746 68.4502 37.372 68.1078 37.5036ZM64.7799 37.2173H66.7055C67.1861 37.2173 67.5515 37.1219 67.8017 36.931C68.0585 36.7402 68.1868 36.4605 68.1868 36.0919C68.1868 35.7233 68.0585 35.4436 67.8017 35.2527C67.5449 35.0553 67.1796 34.9566 66.7055 34.9566H64.7799V37.2173ZM66.9426 40.3074C68.0025 40.3074 68.5325 39.9125 68.5325 39.1227C68.5325 38.7278 68.3975 38.4382 68.1276 38.2539C67.8643 38.0631 67.4692 37.9676 66.9426 37.9676H64.7799V40.3074H66.9426Z" fill="white"/>
            <path d="M76.1964 40.2284V41.0873H71.1798V34.1766H76.0582V35.0355H72.1673V37.1581H75.6336V37.9973H72.1673V40.2284H76.1964Z" fill="white"/>
            <path d="M83.396 34.1766V41.0873H82.4282V35.0355H79.3668L79.2977 37.0594C79.2648 38.0137 79.1858 38.787 79.0607 39.3794C78.9422 39.9717 78.7513 40.4193 78.4879 40.722C78.2246 41.0182 77.8691 41.1663 77.4214 41.1663C77.2173 41.1663 77.0099 41.14 76.7992 41.0873L76.8684 40.2087C76.9737 40.235 77.079 40.2482 77.1844 40.2482C77.4675 40.2482 77.6946 40.1363 77.8658 39.9125C78.0369 39.6821 78.1653 39.3399 78.2509 38.8858C78.3365 38.4316 78.3925 37.8327 78.4188 37.089L78.5274 34.1766H83.396Z" fill="white"/>
            <path d="M85.5492 34.1766H86.5268V39.5077L90.6152 34.1766H91.5238V41.0873H90.556V35.7661L86.4577 41.0873H85.5492V34.1766Z" fill="white"/>
            <path d="M98.6015 34.1766V41.0873H97.6239V38.3527C96.8931 38.6357 96.2183 38.7772 95.5994 38.7772C94.7567 38.7772 94.1017 38.5731 93.6342 38.1651C93.1734 37.757 92.943 37.1746 92.943 36.4177V34.1766H93.9107V36.3091C93.9107 36.8224 94.0655 37.2173 94.3749 37.4938C94.6909 37.7702 95.1353 37.9084 95.7081 37.9084C96.3467 37.9084 96.9853 37.7636 97.6239 37.474V34.1766H98.6015Z" fill="white"/>
            <path d="M105.774 40.2284V41.0873H100.758V34.1766H105.636V35.0355H101.745V37.1581H105.211V37.9973H101.745V40.2284H105.774Z" fill="white"/>
            <path d="M113.27 34.1766V41.0873H112.283V38.0071H108.313V41.0873H107.325V34.1766H108.313V37.1482H112.283V34.1766H113.27Z" fill="white"/>
            <path d="M115.426 34.1766H116.404V39.5077L120.492 34.1766H121.401V41.0873H120.433V35.7661L116.334 41.0873H115.426V34.1766Z" fill="white"/>
            <path d="M128.572 40.2284V41.0873H123.556V34.1766H128.434V35.0355H124.543V37.1581H128.01V37.9973H124.543V40.2284H128.572Z" fill="white"/>
            <path d="M138.73 34.1766V41.0873H137.762V35.0355H133.753V41.0873H132.775V34.1766H138.73Z" fill="white"/>
            <path d="M143.582 34.1766C144.477 34.1766 145.182 34.3905 145.695 34.8183C146.209 35.2461 146.465 35.8352 146.465 36.5855C146.465 37.3358 146.209 37.9249 145.695 38.3527C145.182 38.7805 144.477 38.9944 143.582 38.9944H141.873V41.0873H140.886V34.1766H143.582ZM143.552 38.1355C144.178 38.1355 144.655 38.0038 144.984 37.7406C145.313 37.4707 145.478 37.0857 145.478 36.5855C145.478 36.0853 145.313 35.7036 144.984 35.4403C144.655 35.1705 144.178 35.0355 143.552 35.0355H141.873V38.1355H143.552Z" fill="white"/>
            <path d="M151.046 41.1663C150.348 41.1663 149.72 41.0149 149.16 40.7122C148.6 40.4028 148.159 39.9783 147.837 39.4386C147.521 38.8989 147.363 38.2967 147.363 37.632C147.363 36.9672 147.521 36.365 147.837 35.8253C148.159 35.2856 148.6 34.8644 149.16 34.5617C149.72 34.2523 150.348 34.0977 151.046 34.0977C151.738 34.0977 152.363 34.2523 152.923 34.5617C153.482 34.8644 153.92 35.2856 154.236 35.8253C154.552 36.3584 154.71 36.9607 154.71 37.632C154.71 38.3033 154.552 38.9088 154.236 39.4485C153.92 39.9816 153.482 40.4028 152.923 40.7122C152.363 41.0149 151.738 41.1663 151.046 41.1663ZM151.046 40.2877C151.553 40.2877 152.007 40.1725 152.409 39.9421C152.817 39.7118 153.137 39.3958 153.367 38.9944C153.604 38.5863 153.722 38.1322 153.722 37.632C153.722 37.1318 153.604 36.6809 153.367 36.2795C153.137 35.8714 152.817 35.5522 152.409 35.3218C152.007 35.0915 151.553 34.9763 151.046 34.9763C150.539 34.9763 150.078 35.0915 149.664 35.3218C149.256 35.5522 148.933 35.8714 148.696 36.2795C148.466 36.6809 148.35 37.1318 148.35 37.632C148.35 38.1322 148.466 38.5863 148.696 38.9944C148.933 39.3958 149.256 39.7118 149.664 39.9421C150.078 40.1725 150.539 40.2877 151.046 40.2877Z" fill="white"/>
            <path d="M162.7 40.2284V42.5978H161.782V41.0873H156.094L156.084 42.5978H155.166L155.175 40.2284H155.511C155.946 40.2021 156.252 39.8599 156.43 39.2017C156.607 38.5369 156.716 37.6024 156.755 36.3979L156.825 34.1766H161.683V40.2284H162.7ZM157.624 36.4868C157.592 37.4609 157.513 38.2671 157.387 38.9055C157.269 39.5439 157.075 39.9849 156.805 40.2284H160.706V35.0355H157.674L157.624 36.4868Z" fill="white"/>
            <path d="M168.573 39.3596H164.899L164.139 41.0873H163.122L166.252 34.1766H167.23L170.37 41.0873H169.333L168.573 39.3596ZM168.227 38.5699L166.736 35.1836L165.245 38.5699H168.227Z" fill="white"/>
            <path d="M177.042 38.0466H175.728V41.0873H174.761V38.0466H173.437L171.502 41.0873H170.346L172.628 37.4938L170.514 34.1766H171.571L173.418 37.1778H174.761V34.1766H175.728V37.1778H177.052L178.908 34.1766H179.965L177.852 37.5135L180.133 41.0873H178.977L177.042 38.0466Z" fill="white"/>
        </g>
        <path d="M70.3192 29.8808H67.3148V25.8983H59.6479V29.8697H56.5544L56.3764 23.184H57.4558C57.9306 22.7465 58.3052 22.0419 58.5797 21.0704C58.8541 20.0989 59.047 18.827 59.1583 17.2548L59.6145 9.7014H68.9283V23.184H70.6086L70.3192 29.8808ZM60.9721 23.184H65.6679V12.4268H62.7302L62.4632 16.8877C62.2777 19.5649 61.7807 21.6637 60.9721 23.184Z" fill="white"/>
        <path d="M83.4387 19.2571C83.4387 21.4301 82.9231 23.1173 81.8919 24.3187C80.8682 25.5201 79.4439 26.1208 77.6189 26.1208C75.8014 26.1208 74.3734 25.5275 73.3348 24.3409C72.2962 23.1469 71.7695 21.4783 71.7547 19.335V16.5651C71.7547 14.3402 72.2703 12.6048 73.3014 11.3589C74.3326 10.1056 75.7643 9.47892 77.5967 9.47892C79.3993 9.47892 80.82 10.0945 81.8585 11.3255C82.8971 12.5492 83.4238 14.2698 83.4387 16.4872V19.2571ZM80.156 16.5428C80.156 15.0818 79.9483 13.9954 79.5329 13.2834C79.1174 12.5715 78.472 12.2155 77.5967 12.2155C76.7287 12.2155 76.087 12.5603 75.6716 13.25C75.2562 13.9323 75.041 14.9743 75.0262 16.376V19.2571C75.0262 20.6736 75.2376 21.7193 75.6605 22.3942C76.0833 23.0616 76.7361 23.3954 77.6189 23.3954C78.472 23.3954 79.1063 23.0691 79.5217 22.4164C79.9372 21.7564 80.1486 20.7367 80.156 19.3573V16.5428Z" fill="white"/>
        <path d="M90.0596 9.7014L93.1196 21.4152L96.1686 9.7014H100.442V25.8983H97.1589V21.5154L97.4594 14.7629L94.2213 25.8983H91.9958L88.7576 14.7629L89.0581 21.5154V25.8983H85.7866V9.7014H90.0596Z" fill="white"/>
        <path d="M119.314 20.5031C119.232 22.3497 118.713 23.7476 117.756 24.6969C116.799 25.6462 115.449 26.1208 113.706 26.1208C111.873 26.1208 110.468 25.5201 109.488 24.3187C108.516 23.1098 108.031 21.3893 108.031 19.157V16.4316C108.031 14.2067 108.535 12.4936 109.544 11.2922C110.553 10.0833 111.955 9.47892 113.75 9.47892C115.516 9.47892 116.855 9.97209 117.767 10.9584C118.687 11.9448 119.21 13.3613 119.336 15.2079H116.054C116.024 14.0658 115.846 13.2797 115.519 12.8496C115.2 12.412 114.611 12.1932 113.75 12.1932C112.875 12.1932 112.255 12.501 111.892 13.1165C111.528 13.7247 111.335 14.7296 111.313 16.1312V19.1904C111.313 20.7997 111.491 21.9047 111.847 22.5054C112.211 23.1061 112.83 23.4065 113.706 23.4065C114.566 23.4065 115.16 23.1988 115.486 22.7835C115.812 22.3608 115.998 21.6007 116.042 20.5031H119.314Z" fill="white"/>
        <path d="M129.062 22.5833H124.6L123.732 25.8983H120.271L125.334 9.7014H128.327L133.424 25.8983H129.93L129.062 22.5833ZM125.312 19.8579H128.338L126.825 14.0844L125.312 19.8579Z" fill="white"/>
        <path d="M142.882 9.7014H146.154V25.8983H142.882V15.1745L138.108 25.8983H134.826V9.7014H138.108V20.4363L142.882 9.7014ZM144.373 5.42969C144.373 6.41604 144.017 7.21328 143.305 7.8214C142.6 8.42953 141.669 8.73359 140.512 8.73359C139.347 8.73359 138.409 8.42953 137.697 7.8214C136.992 7.21328 136.64 6.41604 136.64 5.42969H138.943C138.943 5.88949 139.08 6.24917 139.355 6.50874C139.637 6.76089 140.022 6.88697 140.512 6.88697C140.994 6.88697 141.372 6.76089 141.647 6.50874C141.921 6.24917 142.059 5.88949 142.059 5.42969H144.373Z" fill="white"/>
        <path d="M159.262 12.4268H155.256V25.8983H151.973V12.4268H148.034V9.7014H159.262V12.4268Z" fill="white"/>
        <path d="M172.237 19.2571C172.237 21.4301 171.721 23.1173 170.69 24.3187C169.666 25.5201 168.242 26.1208 166.417 26.1208C164.599 26.1208 163.171 25.5275 162.133 24.3409C161.094 23.1469 160.568 21.4783 160.553 19.335V16.5651C160.553 14.3402 161.068 12.6048 162.099 11.3589C163.131 10.1056 164.562 9.47892 166.395 9.47892C168.197 9.47892 169.618 10.0945 170.657 11.3255C171.695 12.5492 172.222 14.2698 172.237 16.4872V19.2571ZM168.954 16.5428C168.954 15.0818 168.746 13.9954 168.331 13.2834C167.915 12.5715 167.27 12.2155 166.395 12.2155C165.527 12.2155 164.885 12.5603 164.47 13.25C164.054 13.9323 163.839 14.9743 163.824 16.376V19.2571C163.824 20.6736 164.036 21.7193 164.458 22.3942C164.881 23.0616 165.534 23.3954 166.417 23.3954C167.27 23.3954 167.904 23.0691 168.32 22.4164C168.735 21.7564 168.947 20.7367 168.954 19.3573V16.5428Z" fill="white"/>
        <path d="M174.585 25.8983V9.7014H179.592C181.283 9.7014 182.567 10.0796 183.442 10.8361C184.325 11.5851 184.766 12.6864 184.766 14.14C184.766 14.9632 184.585 15.6714 184.221 16.2647C183.858 16.858 183.361 17.2919 182.73 17.5663C183.457 17.7739 184.017 18.1929 184.41 18.8233C184.803 19.4463 185 20.2175 185 21.1371C185 22.7094 184.566 23.896 183.698 24.6969C182.838 25.4979 181.588 25.8983 179.948 25.8983H174.585ZM177.856 18.8567V23.184H179.948C180.534 23.184 180.979 23.0023 181.283 22.6389C181.588 22.2755 181.74 21.7601 181.74 21.0926C181.74 19.6391 181.213 18.8937 180.159 18.8567H177.856ZM177.856 16.4761H179.559C180.842 16.4761 181.484 15.8123 181.484 14.4848C181.484 13.7506 181.335 13.2241 181.039 12.9052C180.742 12.5863 180.26 12.4268 179.592 12.4268H177.856V16.4761Z" fill="white"/>
        <path fill-rule="evenodd" clip-rule="evenodd" d="M23.7264 0.59247C22.3322 -0.19749 20.6255 -0.19749 19.2314 0.59247L10.7394 5.40428L2.32507 10.3504C0.943673 11.1625 0.0903286 12.6401 0.0775905 14.242L0 24L0.0775905 33.758C0.0903286 35.3599 0.943672 36.8375 2.32507 37.6496L10.7394 42.5957L19.2314 47.4075C20.6255 48.1975 22.3322 48.1975 23.7264 47.4075L32.2183 42.5957L40.6327 37.6496C42.0141 36.8375 42.8674 35.3599 42.8802 33.758L42.9578 24L42.8802 14.242C42.8674 12.6401 42.0141 11.1625 40.6327 10.3504L32.2183 5.40428L23.7264 0.59247ZM24.1376 25.1119L37.6476 17.3142C38.7376 16.6851 39.111 15.2918 38.4817 14.2021C37.8524 13.1124 36.4586 12.7391 35.3686 13.3682L22.0041 21.0819L8.63947 13.3682C7.54948 12.7391 6.15571 13.1124 5.5264 14.2021C4.89709 15.2917 5.27055 16.6851 6.36054 17.3142L19.5798 24.9441V39.568C19.5798 40.8263 20.6001 41.8463 21.8587 41.8463C23.1173 41.8463 24.1376 40.8263 24.1376 39.568V25.1119Z" fill="white"/>
    </symbol>
    <symbol id="main-icon" viewBox="0 0 43 48">
        <g>
            <path fill-rule="evenodd" clip-rule="evenodd" d="M23.7264 0.59247C22.3322 -0.19749 20.6255 -0.19749 19.2314 0.59247L10.7394 5.40428L2.32507 10.3504C0.943673 11.1625 0.0903286 12.6401 0.0775905 14.242L0 24L0.0775905 33.758C0.0903286 35.3599 0.943672 36.8375 2.32507 37.6496L10.7394 42.5957L19.2314 47.4075C20.6255 48.1975 22.3322 48.1975 23.7264 47.4075L32.2183 42.5957L40.6327 37.6496C42.0141 36.8375 42.8674 35.3599 42.8802 33.758L42.9578 24L42.8802 14.242C42.8674 12.6401 42.0141 11.1625 40.6327 10.3504L32.2183 5.40428L23.7264 0.59247ZM24.1376 25.1119L37.6476 17.3142C38.7376 16.6851 39.111 15.2918 38.4817 14.2021C37.8524 13.1124 36.4586 12.7391 35.3686 13.3682L22.0041 21.0819L8.63947 13.3682C7.54948 12.7391 6.15571 13.1124 5.5264 14.2021C4.89709 15.2917 5.27055 16.6851 6.36054 17.3142L19.5798 24.9441V39.568C19.5798 40.8263 20.6001 41.8463 21.8587 41.8463C23.1173 41.8463 24.1376 40.8263 24.1376 39.568V25.1119Z" fill="#FF5900"/>
        </g>
    </symbol>
    <symbol id="phone" viewBox="0 0 20 20">
        <g clip-path="url(#clip0_3410_194)">
            <path d="M18.3334 14.1V16.6C18.3344 16.8321 18.2868 17.0618 18.1939 17.2745C18.1009 17.4871 17.9645 17.678 17.7935 17.8349C17.6225 17.9918 17.4206 18.1112 17.2007 18.1856C16.9809 18.2599 16.7479 18.2876 16.5168 18.2667C13.9525 17.988 11.4893 17.1118 9.32511 15.7083C7.31163 14.4289 5.60455 12.7218 4.32511 10.7083C2.91676 8.53433 2.04031 6.05916 1.76677 3.48333C1.74595 3.25288 1.77334 3.02063 1.84719 2.80135C1.92105 2.58207 2.03975 2.38057 2.19575 2.20968C2.35174 2.03879 2.54161 1.90225 2.75327 1.80876C2.96492 1.71527 3.19372 1.66688 3.42511 1.66666H5.92511C6.32953 1.66268 6.7216 1.80589 7.02824 2.0696C7.33488 2.33332 7.53517 2.69953 7.59177 3.09999C7.69729 3.90005 7.89298 4.6856 8.17511 5.44166C8.28723 5.73993 8.31149 6.06409 8.24503 6.37573C8.17857 6.68737 8.02416 6.97342 7.80011 7.2L6.74177 8.25833C7.92807 10.3446 9.65549 12.072 11.7418 13.2583L12.8001 12.2C13.0267 11.9759 13.3127 11.8215 13.6244 11.7551C13.936 11.6886 14.2602 11.7129 14.5584 11.825C15.3145 12.1071 16.1001 12.3028 16.9001 12.4083C17.3049 12.4654 17.6746 12.6693 17.9389 12.9812C18.2032 13.2931 18.3436 13.6913 18.3334 14.1Z" stroke-width="2" stroke-linecap="round" stroke-linejoin="round"/>
        </g>
        <defs>
            <clipPath id="clip0_3410_194">
                <rect width="20" height="20" />
            </clipPath>
        </defs>
    </symbol>
    <symbol id="search" viewBox="0 0 24 24">
        <g>
            <path d="M11 19C15.4183 19 19 15.4183 19 11C19 6.58172 15.4183 3 11 3C6.58172 3 3 6.58172 3 11C3 15.4183 6.58172 19 11 19Z" stroke-width="2" stroke-linecap="round" stroke-linejoin="round"/>
            <path d="M21 21L16.65 16.65" stroke-width="2" stroke-linecap="round" stroke-linejoin="round"/>
        </g>
    </symbol>
    <symbol id="telegram" viewBox="0 0 40 40">
        <g clip-path="url(#clip0_38_50)">
            <path d="M26.5402 29.1741L29.8214 13.7054C29.9554 13.0506 29.8772 12.5818 29.5871 12.2991C29.2969 12.0164 28.9137 11.9643 28.4375 12.1429L9.15179 19.5759C8.72024 19.7396 8.42634 19.9256 8.27009 20.1339C8.11384 20.3423 8.09524 20.5394 8.21429 20.7254C8.33333 20.9115 8.57143 21.0565 8.92857 21.1607L13.8616 22.7009L25.3125 15.4911C25.625 15.2827 25.8631 15.2381 26.0268 15.3571C26.131 15.4315 26.1012 15.5432 25.9375 15.692L16.6741 24.0625L16.317 29.1518C16.6592 29.1518 16.994 28.9881 17.3214 28.6607L19.7321 26.3393L24.7321 30.0223C25.6845 30.558 26.2872 30.2753 26.5402 29.1741ZM40 20C40 22.7083 39.4717 25.2976 38.4152 27.7679C37.3586 30.2381 35.9375 32.3661 34.1518 34.1518C32.3661 35.9375 30.2381 37.3586 27.7679 38.4152C25.2976 39.4717 22.7083 40 20 40C17.2917 40 14.7024 39.4717 12.2321 38.4152C9.76191 37.3586 7.63393 35.9375 5.84821 34.1518C4.0625 32.3661 2.64137 30.2381 1.58482 27.7679C0.528274 25.2976 0 22.7083 0 20C0 17.2917 0.528274 14.7024 1.58482 12.2321C2.64137 9.76191 4.0625 7.63393 5.84821 5.84821C7.63393 4.0625 9.76191 2.64137 12.2321 1.58482C14.7024 0.528274 17.2917 0 20 0C22.7083 0 25.2976 0.528274 27.7679 1.58482C30.2381 2.64137 32.3661 4.0625 34.1518 5.84821C35.9375 7.63393 37.3586 9.76191 38.4152 12.2321C39.4717 14.7024 40 17.2917 40 20Z"/>
        </g>
        <defs>
            <clipPath id="clip0_38_50">
                <rect width="40" height="40"/>
            </clipPath>
        </defs>
    </symbol>
    <symbol id="hit" viewBox="0 0 36 16">
        <path d="M6.41096 0H36V16H6.41096L0 8L6.41096 0Z" fill="#FF5900"/>
        <path d="M12.13 5L13.58 7.12L15.03 5H16.93L14.6 8.35L17.12 12H15.21L13.58 9.68L11.97 12H10.1L12.6 8.42L10.26 5H12.13ZM17.8622 5H19.4722V9.56L22.8122 5H24.3322V12H22.7322V7.45L19.3922 12H17.8622V5ZM31.4251 6.32H29.1851V12H27.5851V6.32H25.3551V5H31.4251V6.32Z" fill="white"/>
    </symbol>
    <symbol id="benefit1" viewBox="0 0 70 70">
        <g opacity="0.3">
            <rect x="4.2" y="43.9657" width="11.4545" height="20.3072" rx="2" fill="#333333"/>
            <rect x="18.2" y="36.3505" width="11.4545" height="27.9224" rx="2" fill="#333333"/>
            <rect x="32.2" y="31.2734" width="11.4545" height="32.9992" rx="2" fill="#333333"/>
            <rect x="46.2" y="26.1965" width="11.4545" height="38.076" rx="2" fill="#333333"/>
            <path d="M4.06741 35.8504C3.52 35.9237 3.1356 36.4268 3.20883 36.9742C3.28205 37.5216 3.78518 37.906 4.33259 37.8328L4.06741 35.8504ZM47.4727 17.8036L35.9631 18.7315L42.5215 28.2352L47.4727 17.8036ZM4.33259 37.8328C10.8035 36.9672 25.7781 32.9991 40.5961 23.7627L39.5382 22.0655C24.9764 31.1421 10.2752 35.02 4.06741 35.8504L4.33259 37.8328Z" fill="#333333"/>
            <ellipse cx="57.6545" cy="15.3291" rx="8.90909" ry="8.32914" fill="#333333"/>
            <path d="M60.9954 16.7114C60.9954 17.3069 60.7801 17.8279 60.3495 18.2745C59.9259 18.714 59.3188 19.0046 58.5282 19.1464V20.3266H57.0351V19.1995C56.5056 19.1712 55.9973 19.0897 55.5102 18.955C55.0302 18.8203 54.6313 18.6537 54.3136 18.4552L55.1184 16.6264C55.4714 16.8319 55.8667 16.9985 56.3044 17.1261C56.7421 17.2466 57.1621 17.3069 57.5645 17.3069C57.9104 17.3069 58.1575 17.275 58.3058 17.2112C58.454 17.1403 58.5282 17.0375 58.5282 16.9028C58.5282 16.7469 58.4293 16.6299 58.2317 16.5519C58.041 16.474 57.7234 16.3889 57.2786 16.2967C56.7068 16.1762 56.2303 16.0486 55.8491 15.914C55.4679 15.7722 55.1361 15.5454 54.8537 15.2335C54.5713 14.9145 54.4301 14.4856 54.4301 13.9469C54.4301 13.3231 54.6525 12.7879 55.0972 12.3413C55.549 11.8947 56.195 11.6112 57.0351 11.4907V10.3317H58.5282V11.4694C59.3753 11.5474 60.0918 11.7529 60.6778 12.0861L59.9259 13.9043C59.1988 13.5357 58.5105 13.3514 57.861 13.3514C57.2186 13.3514 56.8974 13.5074 56.8974 13.8193C56.8974 13.9681 56.9927 14.0815 57.1833 14.1595C57.3739 14.2304 57.6881 14.3084 58.1258 14.3934C58.6905 14.4998 59.167 14.6238 59.5553 14.7656C59.9436 14.9003 60.2789 15.1236 60.5613 15.4355C60.8507 15.7474 60.9954 16.1727 60.9954 16.7114Z" fill="white"/>
        </g>
    </symbol>
    <symbol id="benefit2" viewBox="0 0 71 70">
        <g opacity="0.3" clip-path="url(#clip0_12_113)">
            <path fill-rule="evenodd" clip-rule="evenodd" d="M30.1917 64.1667H40.8083C41.473 64.1662 42.1176 63.9386 42.6353 63.5217C43.153 63.1047 43.5128 62.5235 43.655 61.8742L44.8596 56.3938C46.4423 55.7011 47.9429 54.8344 49.3338 53.8096L40.8083 45.2842V24.7334L49.3338 16.208C47.9394 15.1862 46.4382 14.3187 44.8567 13.6209L43.655 8.12879C43.5133 7.47895 43.1538 6.89705 42.6361 6.47956C42.1183 6.06207 41.4734 5.83407 40.8083 5.83337H30.1917C29.5266 5.83407 28.8817 6.06207 28.3639 6.47956C27.8462 6.89705 27.4867 7.47895 27.345 8.12879L26.155 13.618C25.3792 13.9534 24.6208 14.3296 23.8829 14.7438C23.1188 15.1871 22.3779 15.6771 21.6663 16.2021L16.3083 14.4959C15.6742 14.2936 14.9899 14.3144 14.3691 14.5548C13.7484 14.7951 13.2285 15.2405 12.8958 15.8171L7.58751 25.0134C7.2576 25.5908 7.13363 26.2631 7.2359 26.9202C7.33818 27.5773 7.66063 28.1802 8.15043 28.63L12.3067 32.413C12.1177 34.1306 12.1177 35.8637 12.3067 37.5813L8.15043 41.373C7.66133 41.8226 7.33931 42.4249 7.23705 43.0814C7.13479 43.7379 7.25835 44.4096 7.58751 44.9867L12.9075 54.1771C13.2402 54.7537 13.76 55.1992 14.3808 55.4395C15.0015 55.6798 15.6858 55.7006 16.32 55.4984L21.6779 53.7921C23.0699 54.8177 24.5714 55.6853 26.155 56.3792L27.3421 61.8742C27.4844 62.524 27.8446 63.1056 28.3629 63.5226C28.8812 63.9395 29.5265 64.1668 30.1917 64.1667Z" fill="#333333"/>
            <path d="M35.4883 23.3334C32.3941 23.3334 29.4267 24.5625 27.2387 26.7505C25.0508 28.9384 23.8217 31.9058 23.8217 35C23.8217 38.0942 25.0508 41.0617 27.2387 43.2496C29.4267 45.4375 32.3941 46.6667 35.4883 46.6667C38.5825 46.6667 41.55 45.4375 43.7379 43.2496C45.9258 41.0617 47.155 38.0942 47.155 35C47.155 31.9058 45.9258 28.9384 43.7379 26.7505C41.55 24.5625 38.5825 23.3334 35.4883 23.3334Z" fill="white"/>
            <circle cx="36.7963" cy="35" r="3.88889" fill="#333333"/>
            <circle cx="60.1296" cy="35" r="3.88889" fill="#333333"/>
            <circle cx="48.463" cy="27.2223" r="3.88889" fill="#333333"/>
            <circle cx="60.1296" cy="19.4444" r="3.88889" fill="#333333"/>
            <path d="M37.4445 29.8148L39.0889 27.6222C39.2778 27.3704 39.5741 27.2222 39.8889 27.2222H43.2778" stroke="#333333" stroke-width="2" stroke-linecap="round"/>
            <path d="M49.1111 22.0371L50.7555 19.8445C50.9444 19.5927 51.2408 19.4445 51.5555 19.4445H54.9444" stroke="#333333" stroke-width="2" stroke-linecap="round"/>
            <circle r="3.88889" transform="matrix(1 0 0 -1 48.463 42.7779)" fill="#333333"/>
            <circle r="3.88889" transform="matrix(1 0 0 -1 60.1297 50.5556)" fill="#333333"/>
            <path d="M37.4445 40.1852L39.0889 42.3778C39.2778 42.6296 39.5741 42.7778 39.8889 42.7778H43.2778" stroke="#333333" stroke-width="2" stroke-linecap="round"/>
            <path d="M49.1111 47.9628L50.7556 50.1554C50.9444 50.4072 51.2408 50.5554 51.5556 50.5554H54.9445" stroke="#333333" stroke-width="2" stroke-linecap="round"/>
            <path d="M41.9815 35H54.9445" stroke="#333333" stroke-width="2" stroke-linecap="round"/>
        </g>
        <defs>
            <clipPath id="clip0_12_113">
                <rect width="70" height="70" fill="white" transform="translate(0.5)"/>
            </clipPath>
        </defs>
    </symbol>
    <symbol id="benefit3" viewBox="0 0 71 70">
        <g opacity="0.3">
            <path d="M18.1273 63.0305C17.575 63.0305 17.1273 62.5828 17.1273 62.0305V60.7479C17.1273 53.184 23.318 47.0522 30.9547 47.0522H40.1729C47.8095 47.0522 54.0002 53.184 54.0002 60.7479V62.0305C54.0002 62.5828 53.5525 63.0305 53.0002 63.0305H18.1273Z" fill="#333333" stroke="#333333" stroke-width="2" stroke-linecap="round"/>
            <path d="M35.5638 40.2045C30.4727 40.2045 26.3455 36.1166 26.3455 31.074C26.3455 26.0314 30.4727 21.9436 35.5638 21.9436C40.6547 21.9436 44.782 26.0314 44.782 31.074C44.782 36.1166 40.6547 40.2045 35.5638 40.2045Z" fill="#333333" stroke="#333333" stroke-width="2" stroke-linecap="round"/>
            <path d="M59.3972 22.0112C59.5853 21.6579 60.0916 21.6579 60.2797 22.0112L61.9772 25.1979C62.0499 25.3344 62.1817 25.4295 62.3341 25.4556L65.9108 26.0686C66.3085 26.1368 66.4658 26.6236 66.1832 26.9116L63.6591 29.484C63.5497 29.5954 63.4987 29.7515 63.5211 29.906L64.0374 33.4613C64.095 33.8586 63.6846 34.1585 63.3236 33.9827L60.0574 32.392C59.9192 32.3247 59.7577 32.3247 59.6195 32.392L56.3533 33.9827C55.9923 34.1585 55.5819 33.8586 55.6395 33.4613L56.1558 29.906C56.1782 29.7515 56.1272 29.5954 56.0178 29.484L53.4937 26.9116C53.2111 26.6236 53.3684 26.1368 53.7661 26.0686L57.3428 25.4556C57.4952 25.4295 57.627 25.3344 57.6997 25.1979L59.3972 22.0112Z" fill="#333333"/>
            <path d="M10.2333 22.0112C10.4214 21.6579 10.9277 21.6579 11.1159 22.0112L12.8134 25.1979C12.8861 25.3344 13.0178 25.4295 13.1702 25.4556L16.7469 26.0686C17.1446 26.1368 17.3019 26.6236 17.0193 26.9116L14.4952 29.484C14.3859 29.5954 14.3348 29.7515 14.3573 29.906L14.8735 33.4613C14.9312 33.8586 14.5207 34.1585 14.1597 33.9827L10.8935 32.392C10.7553 32.3247 10.5938 32.3247 10.4556 32.392L7.18941 33.9827C6.82846 34.1585 6.41798 33.8586 6.47567 33.4613L6.99188 29.906C7.01431 29.7515 6.96329 29.5954 6.85395 29.484L4.32983 26.9116C4.04723 26.6236 4.20457 26.1368 4.60225 26.0686L8.17894 25.4556C8.33134 25.4295 8.46309 25.3344 8.53578 25.1979L10.2333 22.0112Z" fill="#333333"/>
            <path d="M19.4515 8.31551C19.6396 7.96227 20.1459 7.96227 20.3341 8.31551L22.0316 11.5022C22.1043 11.6387 22.236 11.7338 22.3884 11.76L25.9651 12.3729C26.3628 12.4411 26.5201 12.9279 26.2375 13.2159L23.7134 15.7883C23.6041 15.8997 23.553 16.0558 23.5755 16.2103L24.0917 19.7657C24.1494 20.163 23.7389 20.4628 23.3779 20.287L20.1117 18.6963C19.9735 18.629 19.812 18.629 19.6738 18.6963L16.4076 20.287C16.0467 20.4628 15.6362 20.163 15.6939 19.7657L16.2101 16.2103C16.2325 16.0558 16.1815 15.8997 16.0721 15.7883L13.548 13.2159C13.2654 12.9279 13.4228 12.4411 13.8205 12.3729L17.3971 11.76C17.5495 11.7338 17.6813 11.6387 17.754 11.5022L19.4515 8.31551Z" fill="#333333"/>
            <path d="M34.8152 2.22859C35.0034 1.87535 35.5097 1.87535 35.6978 2.22859L37.3953 5.4153C37.468 5.55176 37.5998 5.64692 37.7522 5.67304L41.3289 6.28601C41.7265 6.35416 41.8839 6.84102 41.6013 7.12901L39.0772 9.70138C38.9678 9.81281 38.9168 9.96892 38.9392 10.1234L39.4554 13.6787C39.5131 14.0761 39.1026 14.3759 38.7417 14.2001L35.4755 12.6094C35.3373 12.5421 35.1758 12.5421 35.0376 12.6094L31.7714 14.2001C31.4104 14.3759 31 14.0761 31.0576 13.6787L31.5738 10.1234C31.5963 9.96892 31.5453 9.81281 31.4359 9.70138L28.9118 7.12901C28.6292 6.84102 28.7865 6.35416 29.1842 6.28601L32.7609 5.67304C32.9133 5.64692 33.0451 5.55176 33.1178 5.4153L34.8152 2.22859Z" fill="#333333"/>
            <path d="M50.179 8.31551C50.3671 7.96227 50.8734 7.96227 51.0615 8.31551L52.759 11.5022C52.8317 11.6387 52.9635 11.7338 53.1159 11.76L56.6926 12.3729C57.0903 12.4411 57.2476 12.9279 56.965 13.2159L54.4409 15.7883C54.3315 15.8997 54.2805 16.0558 54.3029 16.2103L54.8191 19.7657C54.8768 20.163 54.4664 20.4628 54.1054 20.287L50.8392 18.6963C50.701 18.629 50.5395 18.629 50.4013 18.6963L47.1351 20.287C46.7741 20.4628 46.3637 20.163 46.4213 19.7657L46.9376 16.2103C46.96 16.0558 46.909 15.8997 46.7996 15.7883L44.2755 13.2159C43.9929 12.9279 44.1502 12.4411 44.5479 12.3729L48.1246 11.76C48.277 11.7338 48.4088 11.6387 48.4815 11.5022L50.179 8.31551Z" fill="#333333"/>
        </g>
    </symbol>
    <symbol id="benefit4" viewBox="0 0 71 70">
        <g opacity="0.3" clip-path="url(#clip0_12_161)">
            <g clip-path="url(#clip1_12_161)">
                <path fill-rule="evenodd" clip-rule="evenodd" d="M63.3639 14.9536C63.0989 14.9263 62.8317 14.9263 62.5667 14.9536H56L35.5 35L15 14.9536H8.12222C7.77328 14.959 7.42665 15.0113 7.09167 15.1091L33.7757 41.6823C34.5568 42.4602 35.8201 42.4594 36.6002 41.6804L63.3639 14.9536Z" fill="#333333"/>
                <path d="M66.2417 17.6562L37.9306 45.8507C37.2019 46.575 36.2163 46.9816 35.1889 46.9816C34.1615 46.9816 33.1759 46.575 32.4472 45.8507L4.38889 17.8701C4.30263 18.1872 4.2569 18.5138 4.25278 18.8424V57.7313C4.25278 58.7626 4.6625 59.7518 5.39181 60.4811C6.12111 61.2104 7.11027 61.6201 8.14167 61.6201H62.5861C63.6175 61.6201 64.6067 61.2104 65.336 60.4811C66.0653 59.7518 66.475 58.7626 66.475 57.7313V18.8424C66.4595 18.4372 66.3808 18.037 66.2417 17.6562ZM10.8056 57.7313H8.10278V54.9507L22.2389 40.9313L24.9806 43.6729L10.8056 57.7313ZM62.5472 57.7313H59.825L45.65 43.6729L48.3917 40.9313L62.5278 54.9507L62.5472 57.7313Z" fill="#333333"/>
            </g>
            <path d="M48.9522 4.21523C48.1749 3.43763 47.2521 2.82078 46.2364 2.39992C45.2207 1.97907 44.132 1.76245 43.0326 1.76245C41.9332 1.76245 40.8445 1.97907 39.8288 2.39992C38.8131 2.82078 37.8903 3.43763 37.113 4.21523L35.5 5.82827L33.887 4.21523C32.317 2.64526 30.1877 1.76326 27.9674 1.76326C25.7471 1.76326 23.6178 2.64526 22.0478 4.21523C20.4779 5.7852 19.5959 7.91453 19.5959 10.1348C19.5959 12.3551 20.4779 14.4844 22.0478 16.0544L23.6609 17.6674L35.5 29.5065L47.3391 17.6674L48.9522 16.0544C49.7298 15.2771 50.3466 14.3543 50.7675 13.3386C51.1883 12.3229 51.405 11.2342 51.405 10.1348C51.405 9.03536 51.1883 7.94669 50.7675 6.93099C50.3466 5.91529 49.7298 4.99247 48.9522 4.21523Z" fill="#333333"/>
        </g>
        <defs>
            <clipPath id="clip0_12_161">
                <rect width="70" height="70" fill="white" transform="translate(0.5)"/>
            </clipPath>
            <clipPath id="clip1_12_161">
                <rect width="70" height="70" fill="white" transform="translate(0.5 3.28687)"/>
            </clipPath>
        </defs>
    </symbol>
    <symbol id="benefit5" viewBox="0 0 71 70" fill="none">
        <g opacity="0.3">
            <circle cx="35.5" cy="35.0001" r="20.1064" fill="#333333"/>
            <circle cx="35.5" cy="35.0001" r="26.8333" stroke="#333333" stroke-width="7"/>
            <path d="M38.8444 21.8312C38.5171 21.9331 38.2134 22.264 37.9307 22.8286C37.7396 23.2092 37.6479 23.4803 37.5537 23.9505C37.3678 24.846 37.2395 25.331 37.0798 25.7141C36.8861 26.1867 36.7369 26.4155 36.407 26.7513C36.064 27.0996 35.6373 27.5896 35.0273 28.3259C33.9461 29.6318 33.2313 30.393 32.7837 30.7089C32.5349 30.8855 32.514 30.8954 32.2679 30.9352C31.9145 30.9949 31.6762 31.1566 31.5139 31.4526L31.4406 31.5845V36.4226V41.2606L31.5113 41.3875C31.6684 41.6736 32.0113 41.875 32.4093 41.9198C32.8936 41.9745 33.645 42.1785 34.9357 42.6039C35.331 42.7357 35.708 42.8576 35.7734 42.875C35.8389 42.8949 36.1138 42.9795 36.3887 43.0616C37.5354 43.4148 38.9988 43.6909 40.0801 43.7605C40.5958 43.7929 42.3839 43.7929 42.8683 43.7605C43.9443 43.6859 44.7323 43.3849 45.3292 42.8153C45.9523 42.2258 46.2455 41.4771 46.2455 40.4846V40.0766L46.3947 39.91C46.7272 39.5393 46.921 39.1762 47.0571 38.6712C47.1985 38.1513 47.2116 37.6514 47.0937 37.2086L47.0519 37.0494L47.1618 36.8952C47.3294 36.6589 47.5231 36.2559 47.5938 35.9873C47.7482 35.4102 47.7273 34.8206 47.531 34.1739L47.4786 34.0023L47.5938 33.863C47.8739 33.5247 48.0676 33.1441 48.2038 32.6665C48.2666 32.4476 48.2719 32.3929 48.2719 31.8954C48.2719 31.383 48.2692 31.3506 48.2012 31.1367C47.9027 30.2089 47.1068 29.4527 46.167 29.2114C45.8004 29.1169 45.5858 29.1094 43.3866 29.1094C42.2085 29.1094 41.2451 29.1045 41.2451 29.0995C41.2451 29.0323 41.4467 28.607 41.7399 28.0573C42.1195 27.3434 42.2504 27.0225 42.3813 26.4653C42.4887 26.0151 42.5096 25.7812 42.4939 25.1245C42.4703 24.04 42.342 23.55 41.9153 22.9306C41.5435 22.3859 40.9571 22.0451 40.0984 21.8685C39.7685 21.8013 39.0093 21.7789 38.8444 21.8312Z" fill="white"/>
            <path d="M24.8904 30.9601C24.6312 31.0397 24.3982 31.2312 24.2751 31.4675L24.2149 31.5845V36.435V41.2855L24.3039 41.4422C24.4139 41.6338 24.55 41.7532 24.7752 41.8551L24.9479 41.9323H27.3173C29.574 41.9323 29.6918 41.9298 29.8175 41.885C29.9981 41.8203 30.1997 41.6736 30.2966 41.5343C30.472 41.283 30.4589 41.681 30.4536 36.3852L30.4458 31.5845L30.3856 31.4675C30.2887 31.281 30.1107 31.1118 29.9143 31.0198L29.7389 30.9377L27.3696 30.9327C25.4585 30.9278 24.9794 30.9352 24.8904 30.9601ZM27.4246 38.3254C27.6916 38.415 27.9587 38.6986 28.0241 38.9622C28.0686 39.1339 28.0451 39.4174 27.977 39.5642C27.9011 39.7259 27.689 39.9323 27.5084 40.0194C27.3696 40.0841 27.333 40.0915 27.0947 40.0915C26.8617 40.0915 26.8172 40.0841 26.6863 40.0244C26.5083 39.9398 26.2936 39.7433 26.2203 39.5965C26.1051 39.3602 26.1025 39.0219 26.2177 38.8005C26.2936 38.6488 26.4612 38.4747 26.6052 38.3951C26.8355 38.2657 27.1654 38.2384 27.4246 38.3254Z" fill="white"/>
            <path d="M27.4246 38.3254C27.6916 38.415 27.9587 38.6986 28.0241 38.9622C28.0686 39.1339 28.0451 39.4174 27.977 39.5642C27.9011 39.7259 27.689 39.9323 27.5084 40.0194C27.3696 40.0841 27.333 40.0915 27.0947 40.0915C26.8617 40.0915 26.8172 40.0841 26.6863 40.0244C26.5083 39.9398 26.2936 39.7433 26.2203 39.5965C26.1051 39.3602 26.1025 39.0219 26.2177 38.8005C26.2936 38.6488 26.4612 38.4747 26.6052 38.3951C26.8355 38.2657 27.1654 38.2384 27.4246 38.3254Z" fill="white"/>
        </g>
    </symbol>
    <symbol id="benefit6" viewBox="0 0 71 70">
        <g opacity="0.3">
            <path d="M60.9309 33.4083C61.7317 39.2036 60.6922 45.1041 57.9592 50.2769C55.2261 55.4497 50.9374 59.6334 45.6985 62.2376C40.4597 64.8417 34.5352 65.7347 28.7615 64.7906C22.9878 63.8464 17.6564 61.1128 13.5199 56.9755C9.38349 52.8382 6.65088 47.5063 5.70785 41.7324C4.76482 35.9585 5.65901 30.0343 8.26418 24.7959C10.8694 19.5576 15.0539 15.2697 20.2272 12.5376C25.4005 9.80553 31.3012 8.7672 37.0964 9.56921L35.3138 11.3518C34.6648 12 34.1499 12.7698 33.7985 13.6171C33.4471 14.4644 33.2662 15.3727 33.266 16.29C29.1236 16.29 25.0743 17.5183 21.63 19.8197C18.1858 22.1211 15.5013 25.3921 13.9161 29.2191C12.3309 33.0462 11.9161 37.2573 12.7242 41.3201C13.5324 45.3829 15.5271 49.1148 18.4562 52.0439C21.3853 54.9729 25.1172 56.9677 29.18 57.7758C33.2427 58.584 37.4539 58.1692 41.2809 56.584C45.108 54.9988 48.379 52.3143 50.6804 48.87C52.9818 45.4258 54.2101 41.3765 54.2101 37.2341C56.0611 37.2325 57.8356 36.4959 59.1436 35.1862L60.9309 33.4083Z" fill="#333333"/>
            <path d="M51.4921 5.6865C51.7478 6.06996 51.8838 6.52069 51.883 6.98156V18.6172H63.5186C63.9795 18.6164 64.4302 18.7524 64.8137 19.0081C65.1971 19.2637 65.496 19.6275 65.6725 20.0532C65.849 20.4789 65.8951 20.9475 65.805 21.3995C65.7148 21.8514 65.4925 22.2665 65.1662 22.5919L55.8577 31.9004C55.6412 32.1164 55.3842 32.2876 55.1015 32.4042C54.8188 32.5208 54.5159 32.5805 54.2101 32.58H41.2108L37.762 36.0288C37.9332 36.6686 37.9659 37.3376 37.8579 37.9911C37.7499 38.6446 37.5036 39.2675 37.1356 39.8182C36.7675 40.3689 36.2862 40.8347 35.7237 41.1845C35.1612 41.5343 34.5305 41.76 33.8738 41.8465C33.2172 41.933 32.5496 41.8783 31.9157 41.6862C31.2818 41.494 30.6962 41.1688 30.1981 40.7322C29.7 40.2956 29.3008 39.7577 29.0273 39.1545C28.7537 38.5513 28.612 37.8966 28.6117 37.2342C28.6127 36.5204 28.7776 35.8164 29.0937 35.1764C29.4097 34.5363 29.8684 33.9774 30.4345 33.5426C31.0006 33.1078 31.659 32.8087 32.3589 32.6685C33.0587 32.5282 33.7815 32.5505 34.4714 32.7336L37.9202 29.2894V16.2901C37.9197 15.9843 37.9794 15.6813 38.096 15.3986C38.2126 15.1159 38.3838 14.859 38.5997 14.6425L47.9082 5.33395C48.2337 5.00766 48.6487 4.78535 49.1007 4.69521C49.5527 4.60508 50.0212 4.65117 50.447 4.82764C50.8727 5.00412 51.2365 5.30304 51.4921 5.6865Z" fill="#333333"/>
            <path d="M33.266 20.9441C30.0441 20.9441 26.8947 21.8995 24.2158 23.6894C21.5369 25.4794 19.449 28.0235 18.2161 31.0001C16.9831 33.9767 16.6605 37.2521 17.2891 40.412C17.9176 43.5719 19.4691 46.4745 21.7473 48.7527C24.0255 51.0309 26.928 52.5823 30.088 53.2109C33.2479 53.8394 36.5233 53.5168 39.4998 52.2839C42.4764 51.0509 45.0206 48.963 46.8105 46.2842C48.6005 43.6053 49.5559 40.4558 49.5559 37.234H43.1377L42.5559 37.8158C42.444 39.6038 41.8185 41.3216 40.7545 42.7629C39.6905 44.2042 38.2331 45.3079 36.5573 45.9415C34.8816 46.575 33.0586 46.7115 31.3071 46.3346C29.5557 45.9577 27.9502 45.0833 26.6834 43.8165C25.4166 42.5497 24.5423 40.9443 24.1654 39.1928C23.7884 37.4414 23.9249 35.6184 24.5585 33.9426C25.192 32.2669 26.2957 30.8095 27.7371 29.7455C29.1784 28.6815 30.8962 28.056 32.6842 27.9441L33.266 27.3623V20.9441Z" fill="#333333"/>
        </g>
    </symbol>
</svg>
