<svg width="1100" height="482" viewBox="0 0 1100 482" fill="none" xmlns="http://www.w3.org/2000/svg">
<path d="M0 20C0 8.9543 8.9543 0 20 0H1080C1091.05 0 1100 8.95431 1100 20V482H0V20Z" fill="#112133"/>
<mask id="mask0" mask-type="alpha" maskUnits="userSpaceOnUse" x="0" y="0" width="1100" height="482">
<path d="M0 20C0 8.9543 8.9543 0 20 0H1080C1091.05 0 1100 8.95431 1100 20V482H0V20Z" fill="#112133"/>
</mask>
<g mask="url(#mask0)">
<path fill-rule="evenodd" clip-rule="evenodd" d="M1155 137.5C1155 243.815 1068.81 330 962.5 330C856.185 330 770 243.815 770 137.5C770 31.1852 856.185 -55 962.5 -55C1068.81 -55 1155 31.1852 1155 137.5ZM961.617 5.86137C952.133 5.90832 943.078 6.76988 935.115 8.2726C911.633 12.6917 907.371 21.9377 907.371 38.997V61.5223H962.837V69.0293H907.371H886.559C870.438 69.0293 856.312 79.353 851.905 98.9822C846.812 121.486 846.586 135.547 851.905 159.042C855.848 176.538 865.266 188.995 881.386 188.995H900.459V161.996C900.459 142.49 916.3 125.276 935.113 125.276H990.516C1005.94 125.276 1018.26 111.748 1018.26 95.2574V38.9882C1018.26 22.9736 1005.58 10.9527 990.516 8.26378C980.987 6.57394 971.1 5.80627 961.615 5.85256L961.617 5.86137ZM931.618 23.9764C937.349 23.9764 942.027 29.0435 942.027 35.2721C942.027 41.4787 937.347 46.4995 931.618 46.4995C925.869 46.4995 921.21 41.4809 921.21 35.2721C921.21 29.0435 925.869 23.9764 931.618 23.9764ZM1025.17 95.2606V69.0105L1025.19 69.0193H1046.01C1062.15 69.0193 1069.76 81.8755 1073.75 98.9722C1079.29 122.71 1079.54 140.521 1073.75 159.032C1068.14 177.006 1062.13 188.985 1046.01 188.985H1018.26H962.858V196.492H1018.26V219.018C1018.26 236.059 1004.48 244.73 990.519 249.037C969.52 255.532 952.673 254.538 935.115 249.037C920.444 244.452 907.371 235.032 907.371 219.018V162.748C907.371 146.566 919.937 132.729 935.115 132.729H990.519C1008.98 132.729 1025.17 115.606 1025.17 95.2606ZM1004.42 222.751C1004.42 216.542 999.764 211.524 994.015 211.524C988.286 211.524 983.607 216.545 983.607 222.751C983.607 228.98 988.284 234.047 994.015 234.047C999.764 234.047 1004.42 228.98 1004.42 222.751Z" fill="white" fill-opacity="0.2"/>
</g>
</svg>
