<svg width="385" height="385" viewBox="0 0 385 385" fill="none" xmlns="http://www.w3.org/2000/svg">
<path fill-rule="evenodd" clip-rule="evenodd" d="M385 192.5C385 298.815 298.815 385 192.5 385C86.1852 385 0 298.815 0 192.5C0 86.1852 86.1852 0 192.5 0C298.815 0 385 86.1852 385 192.5ZM191.617 60.8614C182.133 60.9083 173.078 61.7699 165.115 63.2726C141.633 67.6917 137.371 76.9377 137.371 93.997V116.522H192.837V124.029H137.371H116.559C100.438 124.029 86.3118 134.353 81.9052 153.982C76.8116 176.486 76.5861 190.547 81.9052 214.042C85.8484 231.538 95.2658 243.995 111.386 243.995H130.459V216.996C130.459 197.49 146.3 180.276 165.113 180.276H220.516C235.94 180.276 248.26 166.748 248.26 150.257V93.9882C248.26 77.9736 235.578 65.9527 220.516 63.2638C210.987 61.5739 201.1 60.8063 191.615 60.8526L191.617 60.8614ZM161.618 78.9764C167.349 78.9764 172.027 84.0435 172.027 90.2721C172.027 96.4787 167.347 101.5 161.618 101.5C155.869 101.5 151.21 96.4809 151.21 90.2721C151.21 84.0435 155.869 78.9764 161.618 78.9764ZM255.172 150.261V124.01L255.193 124.019H276.005C292.155 124.019 299.764 136.875 303.749 153.972C309.293 177.71 309.539 195.521 303.749 214.032C298.142 232.006 292.126 243.985 276.005 243.985H248.262H192.858V251.492H248.262V274.018C248.262 291.059 234.483 299.73 220.519 304.037C199.52 310.532 182.673 309.538 165.115 304.037C150.444 299.452 137.371 290.032 137.371 274.018V217.748C137.371 201.566 149.937 187.729 165.115 187.729H220.519C238.981 187.729 255.172 170.606 255.172 150.261ZM234.423 277.751C234.423 271.542 229.764 266.524 224.015 266.524C218.286 266.524 213.607 271.545 213.607 277.751C213.607 283.98 218.284 289.047 224.015 289.047C229.764 289.047 234.423 283.98 234.423 277.751Z" fill="white" fill-opacity="0.2"/>
</svg>
