<svg width="213" height="52" viewBox="0 0 213 52" fill="none" xmlns="http://www.w3.org/2000/svg">
<path d="M80.1252 26.2679C80.1252 19.7522 78.2668 16.4071 74.5498 16.2241C73.0706 16.1543 71.6272 16.3896 70.2223 16.9351C69.1011 17.336 68.3465 17.7333 67.9495 18.1347V33.687C70.327 35.1788 72.4382 35.8724 74.2795 35.7632C78.1746 35.505 80.1252 32.3433 80.1252 26.2679ZM84.71 26.5382C84.71 29.8484 83.9335 32.5962 82.3715 34.781C80.6309 37.2541 78.2185 38.5275 75.1343 38.5973C72.8092 38.6711 70.4138 37.9431 67.9491 36.4165V50.5517L63.9617 49.1298V17.7548C64.616 16.9525 65.4583 16.2635 66.4788 15.6787C68.8522 14.296 71.7355 13.5855 75.1298 13.5506L75.1862 13.607C78.2883 13.568 80.6783 14.8415 82.3581 17.4232C83.9246 19.7916 84.71 22.8271 84.71 26.5382ZM109.079 35.8151C109.079 40.2551 108.634 43.3295 107.744 45.0392C106.85 46.7484 105.148 48.1136 102.636 49.1302C100.598 49.9325 98.3949 50.3687 96.0308 50.443L95.3716 47.931C97.7755 47.6044 99.4682 47.2769 100.45 46.9498C102.382 46.2956 103.708 45.2929 104.437 43.9492C105.022 42.8548 105.309 40.7656 105.309 37.6738V36.6357C102.583 37.8747 99.7255 38.4895 96.7375 38.4895C94.7741 38.4895 93.0424 37.8747 91.5502 36.6357C89.875 35.288 89.0376 33.5788 89.0376 31.5071V14.9158L93.025 13.5506V30.2497C93.025 32.0333 93.6005 33.4074 94.7521 34.3712C95.9037 35.335 97.3959 35.7976 99.2238 35.7623C101.052 35.7229 103.01 35.0164 105.091 33.6338V14.152H109.078V35.8151H109.079ZM124.644 38.3794C124.207 38.4163 123.769 38.4351 123.331 38.4358C121.075 38.4358 119.317 37.8997 118.061 36.8223C116.809 35.7453 116.181 34.2584 116.181 32.3608V16.6599H113.45V14.1524H116.181V7.49262L120.164 6.07511V14.1524H124.644V16.6599H120.164V32.2516C120.164 33.7479 120.565 34.8074 121.367 35.4272C122.056 35.9372 123.152 36.2294 124.643 36.3037V38.3794H124.644ZM148.786 38.0523H144.799V22.6655C144.799 21.0999 144.433 19.7522 143.704 18.6273C142.862 17.3534 141.693 16.7167 140.192 16.7167C138.364 16.7167 136.078 17.6805 133.334 19.6081V38.0523H129.347V1.27356L133.334 0.0175781V16.7691C135.882 14.9153 138.665 13.9864 141.689 13.9864C143.8 13.9864 145.51 14.6974 146.819 16.1149C148.132 17.532 148.787 19.2985 148.787 21.4095V38.0523H148.786ZM169.979 25.6402C169.979 23.1367 169.504 21.0695 168.557 19.4341C167.431 17.4411 165.682 16.3896 163.317 16.2809C158.946 16.5337 156.765 19.665 156.765 25.6666C156.765 28.4183 157.218 30.7169 158.135 32.5617C159.304 34.9126 161.058 36.0728 163.396 36.0334C167.785 35.9981 169.979 32.5353 169.979 25.6402ZM174.346 25.6661C174.346 29.2296 173.434 32.1952 171.615 34.5631C169.612 37.2151 166.847 38.545 163.317 38.545C159.819 38.545 157.092 37.2147 155.125 34.5631C153.34 32.1952 152.45 29.2296 152.45 25.6661C152.45 22.317 153.414 19.4994 155.343 17.2053C157.38 14.7717 160.058 13.5506 163.37 13.5506C166.68 13.5506 169.377 14.7717 171.453 17.2053C173.382 19.4994 174.346 22.317 174.346 25.6661ZM197.205 38.0523H193.218V21.7935C193.218 20.0099 192.681 18.6184 191.608 17.6152C190.535 16.6165 189.104 16.1324 187.32 16.1713C185.427 16.2062 183.624 16.8255 181.915 18.0251V38.0523H177.927V17.5324C180.222 15.8626 182.334 14.7717 184.262 14.2616C186.081 13.7864 187.686 13.5506 189.069 13.5506C190.015 13.5506 190.906 13.6419 191.743 13.8253C193.309 14.1873 194.584 14.8589 195.565 15.8447C196.66 16.9351 197.205 18.243 197.205 19.7741V38.0523Z" fill="white"/>
<path d="M24.5801 1.42085C22.5284 1.43024 20.5694 1.6052 18.8458 1.91035C13.7677 2.80748 12.8457 4.68452 12.8457 8.14686V12.7193H24.8459V14.2433H8.34184C4.85439 14.2433 1.80018 16.3392 0.845072 20.3259C-0.256841 24.8957 -0.305626 27.7473 0.845072 32.5188C1.69814 36.0707 3.73547 38.6014 7.22292 38.6014H11.3491V33.1202C11.3491 29.1603 14.7761 25.6675 18.8458 25.6675H30.8321C34.1688 25.6675 36.8322 22.9211 36.8322 19.5711V8.14642C36.8322 4.89527 34.0887 2.45266 30.8321 1.90991C28.7702 1.56716 26.6317 1.411 24.5801 1.42085ZM18.0903 5.09796C19.3301 5.09796 20.342 6.12664 20.342 7.39113C20.342 8.65114 19.3296 9.67042 18.0903 9.67042C16.8465 9.67042 15.8386 8.65158 15.8386 7.39113C15.8386 6.12664 16.8465 5.09796 18.0903 5.09796Z" fill="url(#paint0_linear)"/>
<path d="M38.3289 14.2427V19.57C38.3289 23.7004 34.8262 27.1766 30.8321 27.1766H18.8458C15.5624 27.1766 12.8457 29.9856 12.8457 33.273V44.6968C12.8457 47.9484 15.6734 49.8608 18.8458 50.7932C22.6443 51.9101 26.2871 52.1119 30.8321 50.7932C33.8532 49.9189 36.8322 48.1587 36.8322 44.6968V40.1248H24.8459V38.6008H42.8323C46.3202 38.6008 47.6195 36.1685 48.8324 32.5182C50.0856 28.7605 50.0324 25.1461 48.8324 20.3253C47.9704 16.8544 46.3243 14.2427 42.8323 14.2427H38.3289ZM31.5872 43.1728C32.831 43.1728 33.8389 44.1916 33.8389 45.4521C33.8389 46.7166 32.831 47.7452 31.5872 47.7452C30.3474 47.7452 29.3355 46.7166 29.3355 45.4521C29.3355 44.1921 30.3479 43.1728 31.5872 43.1728Z" fill="url(#paint1_linear)"/>
<path d="M204.97 10.5987H205.669V6.21549H207.324V5.69287H203.313V6.21549H204.969V10.5987H204.97ZM207.945 10.5987H208.542V6.59537L209.838 10.5982H210.502L211.854 6.60879V10.5987H212.505V5.69332H211.643L210.167 9.89618L208.908 5.69332H207.945V10.5987Z" fill="white"/>
<defs>
<linearGradient id="paint0_linear" x1="-1.18331" y1="2.84864" x2="26.4828" y2="26.4274" gradientUnits="userSpaceOnUse">
<stop stop-color="#5A9FD4"/>
<stop offset="1" stop-color="#306998"/>
</linearGradient>
<linearGradient id="paint1_linear" x1="36.8725" y1="41.114" x2="26.9479" y2="27.2042" gradientUnits="userSpaceOnUse">
<stop stop-color="#FFD43B"/>
<stop offset="1" stop-color="#FFE873"/>
</linearGradient>
</defs>
</svg>
