<svg width="530" height="350" viewBox="0 0 530 350" fill="none" xmlns="http://www.w3.org/2000/svg">
<rect width="530" height="350" rx="10" fill="url(#paint0_linear)"/>
<mask id="mask0" mask-type="alpha" maskUnits="userSpaceOnUse" x="0" y="0" width="530" height="350">
<rect width="530" height="350" rx="10" fill="url(#paint1_linear)"/>
</mask>
<g mask="url(#mask0)">
<path d="M509.5 425C586.544 425 649 362.544 649 285.5C649 208.456 586.544 146 509.5 146C432.456 146 370 208.456 370 285.5C370 362.544 432.456 425 509.5 425Z" fill="url(#paint2_linear)" fill-opacity="0.4"/>
<path d="M134.5 130C217.619 130 285 62.6189 285 -20.5C285 -103.619 217.619 -171 134.5 -171C51.3811 -171 -16 -103.619 -16 -20.5C-16 62.6189 51.3811 130 134.5 130Z" fill="url(#paint3_linear)" fill-opacity="0.3"/>
<path d="M8.5 230C34.1812 230 55 209.181 55 183.5C55 157.819 34.1812 137 8.5 137C-17.1812 137 -38 157.819 -38 183.5C-38 209.181 -17.1812 230 8.5 230Z" fill="url(#paint4_linear)" fill-opacity="0.3"/>
</g>
<path d="M182.58 173H187.159V159.188H195.432C204.24 159.188 208.21 153.832 208.21 147.148C208.21 140.463 204.24 135.182 195.358 135.182H182.58V173ZM187.159 155.125V139.244H195.21C201.359 139.244 203.705 142.605 203.705 147.148C203.705 151.69 201.359 155.125 195.284 155.125H187.159ZM217.803 183.636C221.737 183.636 224.506 181.55 226.15 177.136L238.227 144.71L233.462 144.636L225.633 167.239H225.337L217.508 144.636H212.781L223.269 173.148L222.457 175.364C220.869 179.685 218.911 180.091 215.735 179.278L214.627 183.119C215.07 183.341 216.326 183.636 217.803 183.636ZM256.328 144.636H250.271V137.841H245.913V144.636H241.629V148.33H245.913V166.057C245.913 171.006 249.902 173.369 253.595 173.369C255.22 173.369 256.254 173.074 256.845 172.852L255.958 168.938C255.589 169.011 254.998 169.159 254.038 169.159C252.118 169.159 250.271 168.568 250.271 164.875V148.33H256.328V144.636ZM267.85 155.938C267.85 150.989 271.008 148.182 275.311 148.182C279.41 148.182 281.885 150.767 281.885 155.273V173H286.243V154.977C286.243 147.683 282.365 144.267 276.566 144.267C272.098 144.267 269.549 146.132 268.22 149.068H267.85V135.182H263.493V173H267.85V155.938ZM305.738 173.591C313.42 173.591 318.59 167.756 318.59 158.966C318.59 150.102 313.42 144.267 305.738 144.267C298.056 144.267 292.886 150.102 292.886 158.966C292.886 167.756 298.056 173.591 305.738 173.591ZM305.738 169.676C299.903 169.676 297.244 164.653 297.244 158.966C297.244 153.278 299.903 148.182 305.738 148.182C311.573 148.182 314.232 153.278 314.232 158.966C314.232 164.653 311.573 169.676 305.738 169.676ZM329.6 155.938C329.6 150.989 332.666 148.182 336.839 148.182C340.883 148.182 343.339 150.822 343.339 155.273V173H347.697V154.977C347.697 147.739 343.838 144.267 338.095 144.267C333.811 144.267 331.152 146.188 329.822 149.068H329.453V144.636H325.243V173H329.6V155.938Z" fill="white"/>
<path d="M179 205.985H181.058V209.291H181.123C181.346 209.008 181.633 208.79 181.985 208.635C182.336 208.481 182.718 208.404 183.13 208.404C185.017 208.404 185.96 209.493 185.96 211.672C185.96 212.778 185.656 213.627 185.047 214.219C184.438 214.802 183.571 215.094 182.448 215.094C181.916 215.094 181.436 215.042 181.007 214.939C180.578 214.836 180.265 214.716 180.068 214.579V206.847H179V205.985ZM183.001 209.266C182.486 209.266 182.071 209.412 181.753 209.703C181.436 209.995 181.204 210.406 181.058 210.938V213.897C181.256 214 181.492 214.082 181.766 214.142C182.04 214.202 182.328 214.232 182.628 214.232C182.971 214.232 183.28 214.185 183.554 214.09C183.837 213.987 184.077 213.833 184.275 213.627C184.472 213.413 184.622 213.142 184.725 212.817C184.837 212.491 184.892 212.105 184.892 211.659C184.892 211.333 184.858 211.024 184.789 210.732C184.721 210.441 184.609 210.188 184.455 209.973C184.309 209.75 184.116 209.579 183.876 209.459C183.636 209.33 183.344 209.266 183.001 209.266Z" fill="white" fill-opacity="0.5"/>
<path d="M190.689 214H191.178L192.774 208.558H193.816L192.027 214.335C191.933 214.635 191.834 214.974 191.732 215.351C191.637 215.737 191.5 216.097 191.32 216.432C191.14 216.766 190.895 217.049 190.587 217.281C190.278 217.512 189.875 217.628 189.377 217.628C189.266 217.628 189.146 217.615 189.017 217.59C188.897 217.564 188.777 217.53 188.657 217.487C188.537 217.452 188.425 217.409 188.322 217.358C188.219 217.307 188.142 217.255 188.091 217.204L188.451 216.277C188.502 216.32 188.571 216.363 188.657 216.406C188.751 216.449 188.85 216.483 188.953 216.509C189.064 216.543 189.171 216.569 189.274 216.586C189.377 216.612 189.463 216.625 189.532 216.625C190.175 216.625 190.612 216.08 190.844 214.991H189.982L187.28 208.558H188.438L190.689 214Z" fill="white" fill-opacity="0.5"/>
<path d="M212.554 211.063H218.276C219.146 211.063 219.88 210.782 220.478 210.219C221.084 209.657 221.387 208.857 221.387 207.82C221.387 207.055 221.071 206.37 220.438 205.763C219.805 205.148 219.085 204.84 218.276 204.84H210.128V221.927H209.179V203.891H218.276C219.348 203.891 220.293 204.291 221.111 205.091C221.928 205.882 222.337 206.792 222.337 207.82C222.337 209.086 221.941 210.101 221.15 210.866C220.359 211.63 219.401 212.013 218.276 212.013H212.554V211.063ZM212.554 212.962H218.276C219.647 212.962 220.825 212.483 221.809 211.525C222.794 210.558 223.286 209.323 223.286 207.82C223.286 206.528 222.781 205.394 221.77 204.418C220.768 203.434 219.603 202.942 218.276 202.942H208.23V221.927H207.28V201.993H218.276C219.322 201.993 220.302 202.261 221.216 202.797C222.139 203.333 222.873 204.054 223.418 204.959C223.963 205.855 224.235 206.809 224.235 207.82C224.235 209.551 223.646 211.002 222.469 212.171C221.3 213.331 219.902 213.911 218.276 213.911H212.554V212.962ZM212.554 214.86H218.276C219.507 214.86 220.649 214.557 221.704 213.951C222.759 213.344 223.602 212.5 224.235 211.419C224.868 210.329 225.185 209.13 225.185 207.82C225.185 206.633 224.868 205.521 224.235 204.484C223.611 203.438 222.767 202.603 221.704 201.979C220.64 201.355 219.498 201.043 218.276 201.043H206.331V221.927H205.382V200.094H218.276C219.656 200.094 220.952 200.45 222.165 201.162C223.378 201.865 224.341 202.814 225.053 204.01C225.773 205.196 226.134 206.466 226.134 207.82C226.134 209.384 225.795 210.76 225.119 211.947C224.451 213.133 223.541 214.06 222.389 214.728L224.842 221.927H223.84L221.493 215.177C221.141 215.317 220.873 215.414 220.689 215.467L222.89 221.927H221.888L219.739 215.691C219.66 215.709 219.379 215.739 218.896 215.783L220.939 221.927H219.937L217.92 215.81H217.063L218.988 221.927H217.986L216.048 215.81H212.554V214.86ZM212.027 221.927H211.077V205.79H218.276C218.865 205.79 219.37 205.992 219.792 206.396C220.223 206.792 220.438 207.266 220.438 207.82C220.438 209.349 219.717 210.114 218.276 210.114H212.554V209.165H218.276C218.654 209.165 218.948 209.068 219.159 208.875C219.379 208.673 219.489 208.321 219.489 207.82C219.489 207.512 219.37 207.257 219.133 207.055C218.904 206.844 218.619 206.739 218.276 206.739H212.027V221.927Z" fill="white" fill-opacity="0.5"/>
<path d="M232.91 221.927H231.961V200.094H232.91V221.927ZM231.012 221.927H230.063V200.094H231.012V221.927ZM229.113 221.927H228.164V200.094H229.113V221.927ZM234.809 217.181H244.908V218.13H234.809V219.079H244.908V220.029H234.809V220.978H244.908V221.927H233.86V200.094H244.908V201.043H234.809V201.993H244.908V202.942H234.809V203.891H244.908V204.84H234.809V208.637H239.99V209.587H234.809V210.536H239.99V211.485H234.809V212.434H239.99V213.384H234.809V217.181Z" fill="white" fill-opacity="0.5"/>
<path d="M263.762 214.32C263.762 213.977 263.656 213.748 263.445 213.634C263.243 213.52 262.944 213.463 262.549 213.463H256.431V212.514H262.549C263.99 212.514 264.711 213.116 264.711 214.32C264.711 214.997 264.513 215.484 264.118 215.783C263.722 216.082 263.199 216.231 262.549 216.231H256.431V215.282H262.549C263.357 215.282 263.762 214.961 263.762 214.32ZM255.904 221.927H254.955V205.79H262.549C263.146 205.79 263.656 205.974 264.078 206.343C264.5 206.704 264.711 207.156 264.711 207.701C264.711 208.422 264.513 208.945 264.118 209.27C263.722 209.587 263.199 209.745 262.549 209.745H256.431V208.796H262.549C263.357 208.796 263.762 208.431 263.762 207.701C263.762 207.402 263.647 207.17 263.419 207.003C263.19 206.827 262.9 206.739 262.549 206.739H255.904V221.927ZM256.431 210.694H262.549C263.419 210.694 264.153 210.435 264.75 209.916C265.357 209.389 265.66 208.651 265.66 207.701C265.66 206.937 265.344 206.269 264.711 205.697C264.087 205.126 263.366 204.84 262.549 204.84H254.005V221.927H253.056V203.891H262.549C263.63 203.891 264.575 204.273 265.383 205.038C266.201 205.794 266.609 206.682 266.609 207.701C266.609 208.501 266.42 209.2 266.043 209.798C265.673 210.395 265.172 210.857 264.54 211.182C265.919 211.674 266.609 212.676 266.609 214.188C266.609 215.383 266.214 216.341 265.423 217.062C264.632 217.774 263.674 218.13 262.549 218.13H256.431V217.181H262.549C263.419 217.181 264.153 216.921 264.75 216.403C265.357 215.876 265.66 215.137 265.66 214.188C265.66 213.546 265.432 212.979 264.975 212.487C264.518 211.995 263.845 211.709 262.957 211.63C262.87 211.639 262.733 211.643 262.549 211.643H256.431V210.694ZM268.508 207.701C268.508 208.932 268.073 210.044 267.203 211.037C268.073 212.004 268.508 213.054 268.508 214.188C268.508 215.287 268.231 216.289 267.677 217.194C267.132 218.09 266.403 218.789 265.489 219.29C264.583 219.782 263.603 220.029 262.549 220.029H256.431V219.079H262.549C263.92 219.079 265.098 218.622 266.082 217.708C267.067 216.785 267.559 215.612 267.559 214.188C267.559 213.678 267.427 213.116 267.163 212.5C266.908 211.876 266.552 211.402 266.095 211.076C267.071 210.162 267.559 209.037 267.559 207.701C267.559 206.418 267.058 205.306 266.056 204.366C265.054 203.416 263.885 202.942 262.549 202.942H252.107V221.927H251.158V201.993H262.549C263.595 201.993 264.575 202.252 265.489 202.77C266.412 203.28 267.146 203.979 267.691 204.867C268.236 205.746 268.508 206.691 268.508 207.701ZM268.284 211.09C269.066 210.044 269.457 208.914 269.457 207.701C269.457 206.515 269.141 205.412 268.508 204.392C267.884 203.364 267.04 202.551 265.977 201.953C264.913 201.346 263.77 201.043 262.549 201.043H250.208V221.927H249.259V200.094H262.549C263.937 200.094 265.234 200.437 266.438 201.122C267.651 201.808 268.613 202.74 269.325 203.917C270.046 205.086 270.407 206.348 270.407 207.701C270.407 208.993 270.042 210.127 269.312 211.103C270.042 212.114 270.407 213.142 270.407 214.188C270.407 215.366 270.196 216.447 269.774 217.431C269.352 218.407 268.78 219.22 268.06 219.87C267.348 220.521 266.517 221.026 265.568 221.387C264.619 221.747 263.612 221.927 262.549 221.927H256.431V220.978H262.549C263.472 220.978 264.355 220.806 265.199 220.464C266.043 220.112 266.776 219.637 267.401 219.04C268.025 218.442 268.521 217.721 268.89 216.878C269.268 216.034 269.457 215.137 269.457 214.188C269.457 213.766 269.356 213.261 269.154 212.672C268.961 212.074 268.671 211.547 268.284 211.09Z" fill="white" fill-opacity="0.5"/>
<path d="M279.715 211.063H285.437C286.307 211.063 287.041 210.782 287.638 210.219C288.245 209.657 288.548 208.857 288.548 207.82C288.548 207.055 288.232 206.37 287.599 205.763C286.966 205.148 286.245 204.84 285.437 204.84H277.289V221.927H276.339V203.891H285.437C286.509 203.891 287.454 204.291 288.271 205.091C289.089 205.882 289.497 206.792 289.497 207.82C289.497 209.086 289.102 210.101 288.311 210.866C287.52 211.63 286.562 212.013 285.437 212.013H279.715V211.063ZM279.715 212.962H285.437C286.808 212.962 287.985 212.483 288.97 211.525C289.954 210.558 290.447 209.323 290.447 207.82C290.447 206.528 289.941 205.394 288.93 204.418C287.928 203.434 286.764 202.942 285.437 202.942H275.39V221.927H274.441V201.993H285.437C286.482 201.993 287.463 202.261 288.377 202.797C289.3 203.333 290.033 204.054 290.578 204.959C291.123 205.855 291.396 206.809 291.396 207.82C291.396 209.551 290.807 211.002 289.629 212.171C288.46 213.331 287.063 213.911 285.437 213.911H279.715V212.962ZM279.715 214.86H285.437C286.667 214.86 287.81 214.557 288.864 213.951C289.919 213.344 290.763 212.5 291.396 211.419C292.029 210.329 292.345 209.13 292.345 207.82C292.345 206.633 292.029 205.521 291.396 204.484C290.772 203.438 289.928 202.603 288.864 201.979C287.801 201.355 286.658 201.043 285.437 201.043H273.492V221.927H272.542V200.094H285.437C286.816 200.094 288.113 200.45 289.326 201.162C290.539 201.865 291.501 202.814 292.213 204.01C292.934 205.196 293.294 206.466 293.294 207.82C293.294 209.384 292.956 210.76 292.279 211.947C291.611 213.133 290.701 214.06 289.55 214.728L292.002 221.927H291L288.653 215.177C288.302 215.317 288.034 215.414 287.849 215.467L290.051 221.927H289.049L286.9 215.691C286.821 215.709 286.54 215.739 286.056 215.783L288.1 221.927H287.098L285.081 215.81H284.224L286.148 221.927H285.146L283.208 215.81H279.715V214.86ZM279.187 221.927H278.238V205.79H285.437C286.025 205.79 286.531 205.992 286.953 206.396C287.383 206.792 287.599 207.266 287.599 207.82C287.599 209.349 286.878 210.114 285.437 210.114H279.715V209.165H285.437C285.814 209.165 286.109 209.068 286.32 208.875C286.54 208.673 286.649 208.321 286.649 207.82C286.649 207.512 286.531 207.257 286.294 207.055C286.065 206.844 285.779 206.739 285.437 206.739H279.187V221.927Z" fill="white" fill-opacity="0.5"/>
<path d="M304.751 215.52L305.134 214.57H308.377L308.759 215.52H304.751ZM304.013 217.418L304.382 216.469H309.115L309.524 217.418H304.013ZM303.275 219.317L303.644 218.367H309.867L310.262 219.317H303.275ZM295.562 221.927H294.534L303.169 200.094H304.198L312.82 221.927H311.805L303.683 201.373L295.562 221.927ZM303.802 203.627L304.343 204.84L297.592 221.927H296.577L303.802 203.627ZM304.857 206.132L305.358 207.438L299.649 221.927H298.621L304.857 206.132ZM305.859 208.743L306.36 210.074L301.679 221.927H300.664L305.859 208.743ZM318.951 221.927H317.922L309.3 200.094H310.315L318.951 221.927ZM308.272 200.094L316.907 221.927H315.892L307.256 200.094H308.272ZM306.228 200.094L314.864 221.927H313.835L305.213 200.094H306.228Z" fill="white" fill-opacity="0.5"/>
<path d="M326.308 200.094H327.257V221.927H326.308V200.094ZM324.409 200.094H325.358V221.927H324.409V200.094ZM322.511 200.094H323.46V221.927H322.511V200.094ZM320.612 200.094H321.561V221.927H320.612V200.094Z" fill="white" fill-opacity="0.5"/>
<path d="M345.267 211.419L344.317 209.85V200.094H345.267V211.419ZM347.165 214.531L346.216 212.935V200.094H347.165V214.531ZM349.064 217.682L348.114 216.073V200.094H349.064V217.682ZM335.457 210.602L336.407 212.171V221.927H335.457V210.602ZM333.559 207.49L334.508 209.086V221.927H333.559V207.49ZM331.66 204.339L332.61 205.948V221.927H331.66V204.339ZM331.99 200.094H333.097L346.519 221.927H345.412L331.99 200.094ZM334.231 200.094H335.352L348.76 221.927H347.627L334.231 200.094ZM336.459 200.094H337.567L350.013 220.385V200.094H350.962V221.927C350.962 221.927 350.589 221.927 349.841 221.927L336.459 200.094ZM330.711 201.637V221.927H329.762V200.094C329.762 200.094 330.14 200.094 330.896 200.094L344.278 221.927H343.183L330.711 201.637Z" fill="white" fill-opacity="0.5"/>
<defs>
<linearGradient id="paint0_linear" x1="0" y1="0" x2="530" y2="350" gradientUnits="userSpaceOnUse">
<stop stop-color="#112133"/>
<stop offset="1" stop-color="#0D1926"/>
</linearGradient>
<linearGradient id="paint1_linear" x1="0" y1="0" x2="530" y2="350" gradientUnits="userSpaceOnUse">
<stop stop-color="#112133"/>
<stop offset="1" stop-color="#0D1926"/>
</linearGradient>
<linearGradient id="paint2_linear" x1="429.533" y1="438" x2="429.533" y2="169.5" gradientUnits="userSpaceOnUse">
<stop stop-color="white" stop-opacity="0.4"/>
<stop offset="1" stop-color="white" stop-opacity="0.2"/>
</linearGradient>
<linearGradient id="paint3_linear" x1="48.2278" y1="144.025" x2="239" y2="109" gradientUnits="userSpaceOnUse">
<stop stop-color="white" stop-opacity="0.4"/>
<stop offset="1" stop-color="white" stop-opacity="0.2"/>
</linearGradient>
<linearGradient id="paint4_linear" x1="-18.1555" y1="234.333" x2="40.7874" y2="223.512" gradientUnits="userSpaceOnUse">
<stop stop-color="white" stop-opacity="0.4"/>
<stop offset="1" stop-color="white" stop-opacity="0.2"/>
</linearGradient>
</defs>
</svg>
