<?xml version="1.0" encoding="utf-8"?><svg xmlns="http://www.w3.org/2000/svg" xmlns:xlink="http://www.w3.org/1999/xlink"><symbol fill="none" viewBox="0 0 5 10" id="si-arrow" xmlns="http://www.w3.org/2000/svg"><path d="M0 10l5-5-5-5v10z" fill="#5BFFDA"/></symbol><symbol fill="none" viewBox="0 0 14 9" id="si-arrowAccordoin" xmlns="http://www.w3.org/2000/svg"><path d="M12.42 8.113l1.18-1.18L7 .333l-6.6 6.6 1.18 1.18L7 2.693l5.42 5.42z" fill="#3A5165"/></symbol><symbol fill="none" viewBox="0 0 324 120" id="si-competition" xmlns="http://www.w3.org/2000/svg"><circle cx="89.082" cy="60.082" r="61.183" stroke="#FE5955" stroke-opacity=".5" stroke-width="17.799"/><circle cx="89" cy="60" r="126" stroke="#FE5955" stroke-opacity=".08" stroke-width="8"/><circle cx="89" cy="60" r="95" stroke="#FE5955" stroke-opacity=".2" stroke-width="40"/><path fill-rule="evenodd" clip-rule="evenodd" d="M89.055 106.11c25.435 0 46.055-20.62 46.055-46.055S114.49 14 89.055 14C63.619 14 43 34.62 43 60.055s20.62 46.055 46.055 46.055zm-.597-76.979c-2.569.012-5.022.229-7.178.607-6.36 1.111-7.515 3.437-7.515 7.727v5.665h15.023v1.889h-20.66c-4.366 0-8.193 2.596-9.386 7.533-1.38 5.66-1.44 9.196 0 15.106 1.068 4.4 3.619 7.533 7.985 7.533h5.166v-6.79c0-4.906 4.29-9.236 9.386-9.236h15.006c4.178 0 7.515-3.402 7.515-7.55V37.463c0-4.028-3.435-7.051-7.515-7.727a47.377 47.377 0 00-7.828-.607v.002zm-8.126 4.556c1.553 0 2.82 1.275 2.82 2.841a2.824 2.824 0 01-2.82 2.824 2.82 2.82 0 01-2.819-2.824c0-1.566 1.262-2.84 2.82-2.84zm25.341 11.327v6.602c0 5.117-4.386 9.424-9.386 9.424H81.28c-4.11 0-7.514 3.48-7.514 7.55v14.152c0 4.028 3.54 6.397 7.514 7.55 4.756 1.383 9.319 1.633 15.007 0 3.782-1.083 7.514-3.264 7.514-7.55v-5.665H88.795v-1.888h22.52c4.367 0 5.996-3.013 7.515-7.534 1.568-4.656 1.502-9.135 0-15.105-1.079-4.3-3.14-7.534-7.515-7.534h-5.637l-.005-.002zm-8.44 35.843a2.82 2.82 0 012.82 2.824c0 1.567-1.262 2.84-2.82 2.84-1.552 0-2.819-1.273-2.819-2.84a2.824 2.824 0 012.82-2.824z" fill="#FE5955"/><path d="M194.341 71h4.016l-9.055-12.049 8.725-9.77h-4.016l-8.246 9.216h-1.076v-9.215h-3.292V71h3.292v-9.78h2.322l7.33 9.78zm24.934-10.91c0-6.977-4.176-11.207-9.822-11.207-5.668 0-9.833 4.23-9.833 11.208 0 6.967 4.165 11.207 9.833 11.207 5.646 0 9.822-4.23 9.822-11.207zm-3.26 0c0 5.317-2.812 8.204-6.562 8.204-3.761 0-6.563-2.887-6.563-8.203 0-5.316 2.802-8.203 6.563-8.203 3.75 0 6.562 2.887 6.562 8.203zM223.379 71h3.292v-9.514h10.877V71h3.303V49.182h-3.303v9.481h-10.877v-9.481h-3.292V71zm35.21 0h4.016l-9.055-12.049 8.725-9.77h-4.016l-8.246 9.216h-1.076v-9.215h-3.292V71h3.292v-9.78h2.322l7.33 9.78zm8.611.298h1.491c3.409 0 4.538-1.907 5.497-4.08l7.543-18.036h-3.452l-5.092 12.613-5.721-12.613h-3.494l7.67 16.374-.309.778c-.469 1.14-1.193 2.067-2.823 2.067h-1.31v2.897zM284.844 71h3.292v-7.67h4.475c5.06 0 7.564-3.058 7.564-7.085 0-4.016-2.483-7.063-7.554-7.063h-7.777V71zm3.292-10.462v-8.533h4.134c3.26 0 4.591 1.768 4.591 4.24 0 2.472-1.331 4.293-4.549 4.293h-4.176zm34.019-4.261c-.746-4.666-4.4-7.394-9.013-7.394-5.646 0-9.811 4.23-9.811 11.208s4.144 11.207 9.811 11.207c4.794 0 8.299-3.004 9.013-7.319l-3.324-.01c-.564 2.79-2.908 4.325-5.667 4.325-3.74 0-6.563-2.866-6.563-8.203 0-5.295 2.813-8.203 6.573-8.203 2.781 0 5.114 1.566 5.657 4.389h3.324z" fill="#FE5955"/></symbol><symbol fill="none" viewBox="0 0 48 48" id="si-icon1" xmlns="http://www.w3.org/2000/svg"><rect width="48" height="48" rx="10" fill="#fff" fill-opacity=".2"/><path d="M22.943 41a1.06 1.06 0 01-1.042-1.27l1.063-5.313c.041-.206.142-.395.29-.543l10.81-10.81c1.521-1.524 4.218-1.526 5.74.002a4.066 4.066 0 01.008 5.751l-10.805 10.81c-.148.147-.338.249-.542.29l-5.313 1.062c-.07.014-.14.021-.209.021zm5.313-2.125h.014-.014zm-3.272-3.726l-.686 3.434 3.433-.687L38.31 27.315h.002a1.938 1.938 0 00.002-2.737c-.75-.75-2.02-.738-2.746-.011L24.984 35.148zM18.688 36.75h-8.5A3.191 3.191 0 017 33.562V10.189A3.191 3.191 0 0110.188 7h21.25a3.191 3.191 0 013.187 3.188v9.562a1.063 1.063 0 01-2.125 0v-9.563c0-.585-.477-1.062-1.062-1.062h-21.25c-.586 0-1.063.477-1.063 1.063v23.374c0 .586.477 1.063 1.063 1.063h8.5a1.063 1.063 0 010 2.125z" fill="#fff"/><path d="M27.188 15.5h-8.5a1.063 1.063 0 010-2.125h8.5a1.063 1.063 0 010 2.125zM27.188 21.875h-12.75a1.063 1.063 0 010-2.125h12.75a1.063 1.063 0 010 2.125zM25.063 28.25H14.438a1.063 1.063 0 010-2.125h10.625a1.063 1.063 0 010 2.125z" fill="#fff"/></symbol><symbol fill="none" viewBox="0 0 48 48" id="si-icon2" xmlns="http://www.w3.org/2000/svg"><rect width="48" height="48" rx="10" fill="#fff" fill-opacity=".2"/><g clip-path="url(#eclip0)" fill="#fff"><path d="M39.6 32.4a1.2 1.2 0 01-1.2-1.2v-18c0-.662-.539-1.2-1.2-1.2H10.8c-.66 0-1.2.538-1.2 1.2v18a1.2 1.2 0 01-2.4 0v-18c0-1.985 1.616-3.6 3.6-3.6h26.4c1.984 0 3.6 1.615 3.6 3.6v18a1.2 1.2 0 01-1.2 1.2z"/><path d="M37.2 39.6H10.8c-3.308 0-6-2.691-6-6v-2.4A1.2 1.2 0 016 30h13.866a1.2 1.2 0 011.042.605A3.568 3.568 0 0024 32.4c1.275 0 2.46-.687 3.092-1.795A1.2 1.2 0 0128.134 30H42a1.2 1.2 0 011.2 1.2v2.4c0 3.309-2.692 6-6 6zm-30-7.2v1.2c0 1.985 1.616 3.6 3.6 3.6h26.4c1.984 0 3.6-1.615 3.6-3.6v-1.2H28.78A5.977 5.977 0 0124 34.8a5.972 5.972 0 01-4.78-2.4H7.2zM21.697 26.4c-.442 0-.884-.115-1.28-.341a2.42 2.42 0 01-1.217-2.071v-5.962a2.43 2.43 0 011.222-2.087 2.56 2.56 0 012.369-.094l5.582 2.635C29.35 18.906 30 19.9 30 21s-.651 2.095-1.658 2.535l-5.551 2.62c-.347.164-.72.245-1.094.245zm0-8.4a.166.166 0 00-.083.023l-.014 5.951.678 1.096-.512-1.085 5.583-2.635c.165-.073.251-.205.251-.35a.366.366 0 00-.22-.336l-5.614-2.649a.162.162 0 00-.07-.015z"/></g><defs><clipPath id="eclip0"><path fill="#fff" transform="translate(4.8 9.6)" d="M0 0h38.4v30H0z"/></clipPath></defs></symbol><symbol fill="none" viewBox="0 0 48 48" id="si-icon3" xmlns="http://www.w3.org/2000/svg"><rect width="48" height="48" rx="10" fill="#fff" fill-opacity=".2"/><path d="M40.875 41H7.125A1.131 1.131 0 016 39.864c0-.628.504-1.137 1.125-1.137h33.75c.62 0 1.125.51 1.125 1.137S41.496 41 40.875 41z" fill="#fff"/><path d="M16.125 41h-6.75a1.131 1.131 0 01-1.125-1.136v-7.636C8.25 31 9.26 30 10.5 30H15c1.24 0 2.25.999 2.25 2.227v7.636c0 .627-.503 1.136-1.125 1.136zM10.5 38.727H15v-6.453h-4.5v6.453zM27.375 41h-6.75a1.131 1.131 0 01-1.125-1.136V21.319c0-1.228 1.01-2.227 2.25-2.227h4.5c1.24 0 2.25.999 2.25 2.227v18.545c0 .627-.504 1.136-1.125 1.136zm-5.625-2.273h4.5V21.365h-4.5v17.362zM38.625 41h-6.75a1.13 1.13 0 01-1.125-1.136V25.682c0-1.228 1.01-2.227 2.25-2.227h4.5c1.24 0 2.25.999 2.25 2.227v14.182A1.13 1.13 0 0138.625 41zM33 38.727h4.5v-13H33v13zM40.875 14.819a1.131 1.131 0 01-1.125-1.136v-5.41h-5.625A1.131 1.131 0 0133 7.137c0-.627.504-1.136 1.125-1.136h6.75C41.495 6 42 6.51 42 7.137v6.546c0 .627-.504 1.136-1.125 1.136z" fill="#fff"/><path d="M9.375 23.55c-.295 0-.591-.117-.812-.35a1.144 1.144 0 01.033-1.606l8.748-8.482a4.577 4.577 0 014.317-1.13l8.563 2.22c.843.25 1.707.034 2.296-.538l7.576-7.347a1.116 1.116 0 011.59.033c.431.453.416 1.172-.032 1.607l-7.576 7.346a4.562 4.562 0 01-4.446 1.092l-8.53-2.21a2.345 2.345 0 00-2.2.566l-8.748 8.482a1.115 1.115 0 01-.779.317z" fill="#fff"/></symbol><symbol fill="none" viewBox="0 0 48 48" id="si-icon4" xmlns="http://www.w3.org/2000/svg"><rect width="48" height="48" rx="10" fill="#fff" fill-opacity=".2"/><path d="M37 39H11c-1.654 0-3-1.346-3-3V12c0-1.654 1.346-3 3-3h26c1.654 0 3 1.346 3 3v24c0 1.654-1.346 3-3 3zM11 11c-.55 0-1 .45-1 1v24c0 .55.45 1 1 1h26c.55 0 1-.45 1-1V12c0-.55-.45-1-1-1H11z" fill="#fff"/><path d="M15 13a1 1 0 01-1-1V8a1 1 0 012 0v4a1 1 0 01-1 1zM33 13a1 1 0 01-1-1V8a1 1 0 012 0v4a1 1 0 01-1 1zM31 32h-6a1 1 0 010-2h6a1 1 0 010 2zM31 22h-6a1 1 0 010-2h6a1 1 0 010 2zM17 34a.996.996 0 01-.707-.293l-3-3a1 1 0 111.414-1.414l2.185 2.185 3.509-4.679A1 1 0 1122 28l-4.2 5.601a1 1 0 01-.8.4zM17 23.6a.996.996 0 01-.707-.293l-3-3a1 1 0 111.414-1.414l2.185 2.185L20.4 16.4A1 1 0 1122 17.6l-4.2 5.6a1 1 0 01-.8.4z" fill="#fff"/></symbol><symbol fill="none" viewBox="0 0 48 48" id="si-icon5" xmlns="http://www.w3.org/2000/svg"><rect width="48" height="48" rx="10" fill="#fff" fill-opacity=".2"/><path d="M8.062 36.756a1.061 1.061 0 01-.958-1.517l3.54-7.43c-2.503-4.418-2.396-9.96.318-14.28C13.783 9.04 19 6.507 24.288 7.08c5.275.572 9.84 4.163 11.631 9.152a1.061 1.061 0 11-2 .715C32.4 12.72 28.53 9.674 24.059 9.19c-4.472-.486-8.906 1.662-11.296 5.466-2.39 3.805-2.396 8.725-.015 12.536.193.307.215.691.058 1.018l-2.498 5.242 5.249-2.496a1.062 1.062 0 011.018.057 11.749 11.749 0 004.404 1.64 1.06 1.06 0 11-.332 2.096 13.852 13.852 0 01-4.689-1.633l-7.44 3.537c-.144.07-.3.103-.456.103z" fill="#fff"/><path d="M27.188 17.654H16.563a1.062 1.062 0 110-2.122h10.625a1.062 1.062 0 110 2.122zM20.813 24.021h-4.25a1.062 1.062 0 110-2.122h4.25a1.062 1.062 0 110 2.122zM38.988 41a1.06 1.06 0 01-.558-.158l-4.601-2.834a8.721 8.721 0 01-8.267-3.121 8.683 8.683 0 01-1.039-9.15 8.713 8.713 0 017.806-4.9h.039a8.646 8.646 0 017.865 5.064 8.628 8.628 0 01-1.066 8.872l.868 4.984A1.063 1.063 0 0138.988 41zm-4.959-5.175c.195 0 .389.053.558.157l2.95 1.817-.547-3.145a1.059 1.059 0 01.252-.886 6.5 6.5 0 001.054-6.99 6.515 6.515 0 00-5.928-3.818c-.013 0-.03-.002-.035 0h-.004a6.574 6.574 0 00-5.891 3.698 6.554 6.554 0 00.784 6.905 6.576 6.576 0 006.57 2.288c.078-.017.158-.026.237-.026zm-1.696-13.926h.014-.014z" fill="#fff"/><path d="M34.626 28.266h-4.25a1.062 1.062 0 110-2.122h4.25a1.062 1.062 0 110 2.122zM34.626 32.51h-4.25a1.062 1.062 0 110-2.122h4.25a1.062 1.062 0 110 2.122z" fill="#fff"/></symbol><symbol fill="none" viewBox="0 0 213 52" id="si-logoPython" xmlns="http://www.w3.org/2000/svg"><path d="M80.125 26.268c0-6.516-1.858-9.86-5.575-10.044a10.47 10.47 0 00-4.328.711c-1.12.401-1.875.798-2.272 1.2v15.552c2.377 1.492 4.488 2.185 6.33 2.076 3.895-.258 5.845-3.42 5.845-9.495zm4.585.27c0 3.31-.776 6.058-2.338 8.243-1.741 2.473-4.153 3.747-7.238 3.816-2.325.074-4.72-.654-7.185-2.18v14.135l-3.987-1.422V17.755c.654-.802 1.496-1.491 2.517-2.076 2.373-1.383 5.257-2.094 8.65-2.128l.057.056c3.102-.039 5.492 1.235 7.172 3.816 1.567 2.369 2.352 5.404 2.352 9.115zm24.369 9.277c0 4.44-.445 7.515-1.335 9.224-.894 1.71-2.596 3.075-5.108 4.091-2.038.802-4.241 1.239-6.605 1.313l-.66-2.512c2.404-.327 4.097-.654 5.079-.981 1.932-.654 3.258-1.657 3.987-3 .585-1.095.872-3.184.872-6.276v-1.038a20.48 20.48 0 01-8.572 1.853c-1.963 0-3.695-.614-5.187-1.853-1.675-1.348-2.512-3.057-2.512-5.129V14.916l3.987-1.365V30.25c0 1.783.575 3.157 1.727 4.121 1.152.964 2.644 1.427 4.472 1.391 1.828-.04 3.786-.746 5.867-2.128V14.152h3.987v21.663h.001zm15.565 2.564c-.437.037-.875.056-1.313.057-2.256 0-4.014-.536-5.27-1.614-1.252-1.077-1.88-2.564-1.88-4.461V16.66h-2.731v-2.508h2.731v-6.66l3.983-1.417v8.077h4.48v2.508h-4.48v15.592c0 1.496.401 2.555 1.203 3.175.689.51 1.785.802 3.276.877v2.075h.001zm24.142-.327h-3.987V22.666c0-1.566-.366-2.914-1.095-4.039-.842-1.274-2.011-1.91-3.512-1.91-1.828 0-4.114.963-6.858 2.891v18.444h-3.987V1.274l3.987-1.256v16.751c2.548-1.854 5.331-2.783 8.355-2.783 2.111 0 3.821.711 5.13 2.129 1.313 1.417 1.968 3.184 1.968 5.295v16.642h-.001zm21.193-12.412c0-2.503-.475-4.57-1.422-6.206-1.126-1.993-2.875-3.044-5.24-3.153-4.371.253-6.552 3.384-6.552 9.386 0 2.751.453 5.05 1.37 6.895 1.169 2.35 2.923 3.51 5.261 3.471 4.389-.035 6.583-3.498 6.583-10.393zm4.367.026c0 3.564-.912 6.53-2.731 8.897-2.003 2.652-4.768 3.982-8.298 3.982-3.498 0-6.225-1.33-8.192-3.982-1.785-2.368-2.675-5.333-2.675-8.897 0-3.349.964-6.167 2.893-8.46 2.037-2.434 4.715-3.655 8.027-3.655 3.31 0 6.007 1.22 8.083 3.654 1.929 2.294 2.893 5.112 2.893 8.461zm22.859 12.386h-3.987V21.794c0-1.784-.537-3.176-1.61-4.179-1.073-.998-2.504-1.483-4.288-1.444-1.893.035-3.696.655-5.405 1.854v20.027h-3.988v-20.52c2.295-1.67 4.407-2.76 6.335-3.27 1.819-.476 3.424-.711 4.807-.711.946 0 1.837.09 2.674.274 1.566.362 2.841 1.034 3.822 2.02 1.095 1.09 1.64 2.398 1.64 3.93v18.277z" fill="#fff"/><path d="M24.58 1.42c-2.052.01-4.01.185-5.734.49-5.078.897-6 2.775-6 6.237v4.572h12v1.524H8.342c-3.488 0-6.542 2.096-7.497 6.083-1.102 4.57-1.15 7.421 0 12.193.853 3.552 2.89 6.082 6.378 6.082h4.126v-5.48c0-3.96 3.427-7.454 7.497-7.454h11.986c3.337 0 6-2.746 6-6.096V8.146c0-3.25-2.743-5.693-6-6.236a37.442 37.442 0 00-6.252-.49zm-6.49 3.678c1.24 0 2.252 1.029 2.252 2.293 0 1.26-1.012 2.28-2.252 2.28-1.244 0-2.251-1.02-2.251-2.28 0-1.264 1.007-2.293 2.251-2.293z" fill="url(#ipaint0_linear)"/><path d="M38.329 14.243v5.327c0 4.13-3.503 7.607-7.497 7.607H18.846c-3.284 0-6 2.809-6 6.096v11.424c0 3.251 2.827 5.164 6 6.096 3.798 1.117 7.441 1.319 11.986 0 3.021-.874 6-2.634 6-6.096v-4.572H24.846V38.6h17.986c3.488 0 4.788-2.432 6-6.083 1.254-3.758 1.2-7.372 0-12.193-.862-3.47-2.508-6.082-6-6.082H38.33zm-6.742 28.93c1.244 0 2.252 1.019 2.252 2.28 0 1.264-1.008 2.292-2.252 2.292-1.24 0-2.252-1.028-2.252-2.293 0-1.26 1.013-2.28 2.252-2.28z" fill="url(#ipaint1_linear)"/><path d="M204.97 10.599h.699V6.215h1.655v-.522h-4.011v.522h1.656V10.6h.001zm2.975 0h.597V6.595l1.296 4.003h.664l1.352-3.99v3.99h.651V5.694h-.862l-1.476 4.203-1.259-4.203h-.963V10.6z" fill="#fff"/><defs><linearGradient id="ipaint0_linear" x1="-1.183" y1="2.849" x2="26.483" y2="26.427" gradientUnits="userSpaceOnUse"><stop stop-color="#5A9FD4"/><stop offset="1" stop-color="#306998"/></linearGradient><linearGradient id="ipaint1_linear" x1="36.873" y1="41.114" x2="26.948" y2="27.204" gradientUnits="userSpaceOnUse"><stop stop-color="#FFD43B"/><stop offset="1" stop-color="#FFE873"/></linearGradient></defs></symbol><symbol fill="none" viewBox="0 0 215 50" id="si-logotype" xmlns="http://www.w3.org/2000/svg"><path d="M10.592 25.2h8.45c1.286 0 2.37-.415 3.252-1.246.896-.831 1.344-2.012 1.344-3.544 0-1.13-.467-2.142-1.402-3.037-.935-.91-1.999-1.363-3.193-1.363H7.01v25.234H5.608V14.608h13.435c1.583 0 2.979.59 4.186 1.772 1.207 1.168 1.81 2.511 1.81 4.03 0 1.87-.583 3.369-1.752 4.498-1.168 1.13-2.583 1.694-4.244 1.694h-8.45V25.2zm0 2.804h8.45c2.026 0 3.765-.708 5.219-2.123 1.454-1.427 2.18-3.251 2.18-5.47 0-1.91-.746-3.584-2.238-5.025-1.48-1.453-3.2-2.18-5.16-2.18H4.206v28.038H2.804v-29.44h16.239a8.44 8.44 0 014.342 1.188 9.021 9.021 0 013.252 3.193c.804 1.324 1.207 2.732 1.207 4.225 0 2.557-.87 4.7-2.61 6.425-1.726 1.714-3.79 2.57-6.191 2.57h-8.45v-1.401zm0 2.804h8.45a9.983 9.983 0 005.063-1.344c1.558-.895 2.804-2.142 3.739-3.738.934-1.61 1.402-3.382 1.402-5.316 0-1.752-.468-3.394-1.402-4.926a10.42 10.42 0 00-3.739-3.7 9.834 9.834 0 00-5.062-1.382H1.402v30.842H0V9h19.043c2.038 0 3.952.526 5.744 1.577a11.722 11.722 0 014.264 4.206c1.064 1.752 1.597 3.628 1.597 5.627 0 2.31-.5 4.342-1.5 6.095-.986 1.752-2.33 3.121-4.03 4.108l3.621 10.631h-1.48l-3.465-9.969c-.52.208-.915.35-1.188.428l3.252 9.541h-1.48l-3.174-9.21c-.117.026-.532.072-1.246.137l3.018 9.073h-1.48l-2.979-9.034h-1.266l2.843 9.034h-1.48l-2.862-9.034h-5.16v-1.402zm-.779 10.436H8.412V17.412h10.63c.87 0 1.617.298 2.24.895.636.584.954 1.285.954 2.103 0 2.259-1.064 3.388-3.193 3.388h-8.45v-1.402h8.45c.558 0 .993-.143 1.304-.428.325-.299.487-.818.487-1.558 0-.454-.175-.83-.526-1.13-.337-.31-.759-.467-1.265-.467h-9.23v22.431zM40.656 41.244h-1.402V9h1.402v32.244zm-2.804 0H36.45V9h1.402v32.244zm-2.804 0h-1.402V9h1.402v32.244zm8.411-7.01h14.915v1.402H43.46v1.402h14.915v1.402H43.46v1.402h14.915v1.402H42.058V9h16.316v1.402H43.46v1.402h14.915v1.402H43.46v1.402h14.915v1.402H43.46v5.607h7.653v1.402h-7.653v1.402h7.653v1.402h-7.653v1.402h7.653v1.402h-7.653v5.608zM86.218 30.01c0-.507-.156-.844-.467-1.013-.299-.169-.74-.253-1.324-.253h-9.035v-1.402h9.035c2.128 0 3.193.889 3.193 2.667 0 1-.292 1.72-.876 2.162-.584.441-1.357.662-2.317.662h-9.035V31.43h9.035c1.194 0 1.791-.474 1.791-1.422zM74.613 41.243h-1.402V17.412h11.216c.882 0 1.635.272 2.258.817.623.533.935 1.201.935 2.006 0 1.064-.292 1.837-.876 2.317-.584.467-1.357.7-2.317.7h-9.035v-1.401h9.035c1.194 0 1.791-.539 1.791-1.616 0-.441-.169-.785-.506-1.032-.338-.26-.766-.39-1.285-.39h-9.814v22.431zm.78-16.59h9.034c1.285 0 2.369-.382 3.251-1.148.896-.779 1.344-1.87 1.344-3.271 0-1.13-.467-2.116-1.402-2.96-.922-.843-1.986-1.265-3.193-1.265H71.809v25.234h-1.401V14.608h14.019c1.596 0 2.992.564 4.186 1.694 1.207 1.116 1.81 2.427 1.81 3.933 0 1.181-.278 2.213-.837 3.096a5.528 5.528 0 01-2.22 2.044c2.039.727 3.058 2.207 3.058 4.44 0 1.765-.584 3.18-1.753 4.244-1.168 1.052-2.583 1.578-4.244 1.578h-9.035v-1.402h9.035c1.285 0 2.369-.383 3.251-1.15.896-.778 1.344-1.869 1.344-3.27 0-.948-.338-1.785-1.013-2.512-.675-.727-1.668-1.149-2.979-1.266-.13.013-.33.02-.603.02h-9.035v-1.402zm17.835-4.42c0 1.818-.643 3.46-1.928 4.927 1.285 1.428 1.928 2.98 1.928 4.654 0 1.622-.41 3.102-1.227 4.439a8.507 8.507 0 01-3.232 3.096 8.945 8.945 0 01-4.342 1.09h-9.035v-1.402h9.035c2.025 0 3.764-.675 5.218-2.025 1.454-1.363 2.18-3.095 2.18-5.198 0-.753-.194-1.584-.583-2.493-.377-.921-.903-1.622-1.578-2.103 1.441-1.35 2.162-3.011 2.162-4.984 0-1.895-.74-3.537-2.22-4.926-1.48-1.402-3.206-2.103-5.18-2.103h-15.42v28.038h-1.402v-29.44h16.823c1.544 0 2.992.383 4.342 1.149a8.663 8.663 0 013.251 3.096c.805 1.298 1.208 2.693 1.208 4.186zm-.331 5.005c1.155-1.545 1.732-3.213 1.732-5.004a9.097 9.097 0 00-1.401-4.887 10.06 10.06 0 00-3.739-3.603 10.054 10.054 0 00-5.062-1.343H66.202v30.842H64.8V9h19.627c2.05 0 3.965.506 5.744 1.519a11.517 11.517 0 014.264 4.128c1.064 1.726 1.596 3.589 1.596 5.588 0 1.908-.538 3.582-1.616 5.023 1.078 1.493 1.616 3.012 1.616 4.557 0 1.739-.311 3.336-.934 4.79-.623 1.44-1.467 2.641-2.531 3.602a11.386 11.386 0 01-3.68 2.239 12.455 12.455 0 01-4.46.798h-9.034v-1.402h9.035c1.363 0 2.667-.253 3.913-.76 1.246-.518 2.33-1.22 3.252-2.102.922-.883 1.655-1.947 2.2-3.193a9.606 9.606 0 00.837-3.972c0-.623-.149-1.37-.447-2.24a6.83 6.83 0 00-1.285-2.336zM109.778 25.2h8.451c1.285 0 2.369-.415 3.251-1.246.896-.831 1.344-2.012 1.344-3.544 0-1.13-.468-2.142-1.402-3.037-.935-.91-1.999-1.363-3.193-1.363h-12.034v25.234h-1.402V14.608h13.436c1.583 0 2.979.59 4.186 1.772 1.207 1.168 1.811 2.511 1.811 4.03 0 1.87-.584 3.369-1.753 4.498-1.168 1.13-2.583 1.694-4.244 1.694h-8.451V25.2zm0 2.804h8.451c2.025 0 3.764-.708 5.218-2.123 1.454-1.427 2.181-3.251 2.181-5.47 0-1.91-.747-3.584-2.24-5.025-1.479-1.453-3.199-2.18-5.159-2.18h-14.837v28.038h-1.402v-29.44h16.239c1.544 0 2.992.396 4.342 1.188a9.02 9.02 0 013.251 3.193c.805 1.324 1.207 2.732 1.207 4.225 0 2.557-.869 4.7-2.609 6.425-1.726 1.714-3.79 2.57-6.191 2.57h-8.451v-1.401zm0 2.804h8.451a9.983 9.983 0 005.062-1.344c1.558-.895 2.804-2.142 3.738-3.738.935-1.61 1.402-3.382 1.402-5.316 0-1.752-.467-3.394-1.402-4.926a10.411 10.411 0 00-3.738-3.7 9.834 9.834 0 00-5.062-1.382h-17.641v30.842h-1.402V9h19.043c2.038 0 3.952.526 5.744 1.577a11.73 11.73 0 014.264 4.206c1.064 1.752 1.596 3.628 1.596 5.627 0 2.31-.499 4.342-1.499 6.095-.986 1.752-2.33 3.121-4.03 4.108l3.621 10.631h-1.48l-3.466-9.969c-.519.208-.915.35-1.187.428l3.251 9.541h-1.479l-3.174-9.21c-.117.026-.532.072-1.246.137l3.018 9.073h-1.48l-2.979-9.034h-1.266l2.843 9.034h-1.48l-2.862-9.034h-5.16v-1.402zm-.779 10.436h-1.402V17.412h10.632c.869 0 1.616.298 2.239.895.636.584.954 1.285.954 2.103 0 2.259-1.065 3.388-3.193 3.388h-8.451v-1.402h8.451c.558 0 .993-.143 1.304-.428.325-.299.487-.818.487-1.558 0-.454-.175-.83-.526-1.13-.337-.31-.759-.467-1.265-.467h-9.23v22.431zM146.754 31.781l.564-1.402h4.79l.565 1.402h-5.919zm-1.091 2.804l.546-1.402h6.99l.603 1.402h-8.139zm-1.09 2.804l.545-1.402h9.191l.584 1.402h-10.32zm-11.391 3.855h-1.518L144.417 9h1.519l12.734 32.244h-1.499L145.177 10.89l-11.995 30.355zm12.17-27.026l.798 1.792-9.969 25.234h-1.499l10.67-27.026zm1.557 3.7l.74 1.927-8.431 21.4H137.7l9.209-23.327zm1.48 3.855l.74 1.967-6.912 17.504h-1.499l7.671-19.471zm19.335 19.471h-1.519L153.471 9h1.5l12.753 32.244zM151.952 9l12.754 32.244h-1.499L150.453 9h1.499zm-3.018 0l12.754 32.244h-1.519L147.435 9h1.499zM178.589 9h1.402v32.244h-1.402V9zm-2.804 0h1.402v32.244h-1.402V9zm-2.804 0h1.402v32.244h-1.402V9zm-2.804 0h1.402v32.244h-1.402V9zM206.588 25.726l-1.401-2.317V9h1.401v16.726zm2.804 4.595l-1.402-2.356V9h1.402v21.32zm2.804 4.653l-1.402-2.375V9h1.402v25.974zM192.102 24.52l1.402 2.317v14.408h-1.402V24.518zm-2.804-4.596l1.402 2.356v18.965h-1.402v-21.32zm-2.804-4.653l1.402 2.375v23.6h-1.402V15.27zm.487-6.27h1.636l19.821 32.244h-1.635L186.981 9zm3.31 0h1.655l19.802 32.244h-1.674L190.291 9zm3.291 0h1.635l18.381 29.966V9H215v32.244h-1.655L193.582 9zm-8.49 2.278v29.966h-1.402V9h1.675l19.763 32.244h-1.616l-18.42-29.966z" fill="#fff"/></symbol><symbol fill="none" viewBox="0 0 214 300" id="si-tablet2" xmlns="http://www.w3.org/2000/svg"><path d="M107 0C90.708 0 78.161 13.593 78.161 29.846c0 15.655-.11 29.352-.11 29.352H49.084c-.545 0-1.073.06-1.593.146h-8.057v28.144h135.132V59.344h-8.057a9.696 9.696 0 00-1.593-.146h-28.967s.33-12.399.33-29.26C136.279 14.283 123.292 0 107 0zM.799 28.546V300H213.2V28.546H145.91v19.666h47.846v232.086H20.263V48.212H68.09V28.546H.8zM107 28.912c5.338 0 9.65 4.295 9.65 9.613 0 5.328-4.312 9.632-9.65 9.632-5.337 0-9.65-4.304-9.65-9.632 0-5.317 4.313-9.613 9.65-9.613zm-67.566 77.655v9.632h9.65v-9.632h-9.65zm28.967.184v9.631h106.165v-9.631H68.401zm-28.967 36.144v9.632h9.65v-9.632h-9.65zm28.967.184v9.649h106.165v-9.649H68.401zm-28.967 36.145v9.631h9.65v-9.631h-9.65zm28.967.201v9.631h106.165v-9.631H68.401zM39.434 215.57v9.631h9.65v-9.631h-9.65zm28.967.201v9.632h106.165v-9.632H68.401zm-28.967 36.127v9.632h9.65v-9.632h-9.65zm28.967.202v9.631h106.165V252.1H68.401z" fill="#B2BFCA" fill-opacity=".2"/></symbol></svg>