<svg viewBox="0 0 8 11" fill="none" xmlns="http://www.w3.org/2000/svg">
<path d="M2.20192 10.5575C1.89404 10.8346 1.41982 10.8096 1.14272 10.5017C0.86563 10.1938 0.890589 9.71962 1.19847 9.44253L2.20192 10.5575ZM6.7002 5.5L7.20192 4.94253C7.35995 5.08476 7.4502 5.28739 7.4502 5.5C7.4502 5.71261 7.35995 5.91524 7.20192 6.05747L6.7002 5.5ZM1.19847 1.55747C0.89059 1.28038 0.865631 0.806158 1.14272 0.498276C1.41982 0.190393 1.89404 0.165435 2.20192 0.442529L1.19847 1.55747ZM1.19847 9.44253L6.19847 4.94253L7.20192 6.05747L2.20192 10.5575L1.19847 9.44253ZM6.19847 6.05747L1.19847 1.55747L2.20192 0.442529L7.20192 4.94253L6.19847 6.05747Z" fill="#E31E24"/>
</svg>
