<svg viewBox="0 0 21 23" xmlns="http://www.w3.org/2000/svg">
<path d="M4.52762 11.9038C4.94184 11.9038 5.27762 11.568 5.27762 11.1538C5.27762 10.7396 4.94184 10.4038 4.52762 10.4038V11.9038ZM16.8573 10.4038C16.4431 10.4038 16.1073 10.7396 16.1073 11.1538C16.1073 11.568 16.4431 11.9038 16.8573 11.9038V10.4038ZM19.2502 14.1538V19.1538H20.7502V14.1538H19.2502ZM17.0002 21.4038H4.38477V22.9038H17.0002V21.4038ZM2.13477 19.1538V14.1538H0.634766V19.1538H2.13477ZM4.38477 11.9038C4.38486 11.9038 4.38495 11.9038 4.38504 11.9038C4.38514 11.9038 4.38523 11.9038 4.38532 11.9038C4.38542 11.9038 4.38551 11.9038 4.3856 11.9038C4.3857 11.9038 4.38579 11.9038 4.38588 11.9038C4.38597 11.9038 4.38607 11.9038 4.38616 11.9038C4.38625 11.9038 4.38635 11.9038 4.38644 11.9038C4.38653 11.9038 4.38663 11.9038 4.38672 11.9038C4.38681 11.9038 4.3869 11.9038 4.387 11.9038C4.38709 11.9038 4.38718 11.9038 4.38728 11.9038C4.38737 11.9038 4.38746 11.9038 4.38756 11.9038C4.38765 11.9038 4.38774 11.9038 4.38783 11.9038C4.38793 11.9038 4.38802 11.9038 4.38811 11.9038C4.38821 11.9038 4.3883 11.9038 4.38839 11.9038C4.38849 11.9038 4.38858 11.9038 4.38867 11.9038C4.38876 11.9038 4.38886 11.9038 4.38895 11.9038C4.38904 11.9038 4.38914 11.9038 4.38923 11.9038C4.38932 11.9038 4.38942 11.9038 4.38951 11.9038C4.3896 11.9038 4.38969 11.9038 4.38979 11.9038C4.38988 11.9038 4.38997 11.9038 4.39007 11.9038C4.39016 11.9038 4.39025 11.9038 4.39035 11.9038C4.39044 11.9038 4.39053 11.9038 4.39062 11.9038C4.39072 11.9038 4.39081 11.9038 4.3909 11.9038C4.391 11.9038 4.39109 11.9038 4.39118 11.9038C4.39128 11.9038 4.39137 11.9038 4.39146 11.9038C4.39155 11.9038 4.39165 11.9038 4.39174 11.9038C4.39183 11.9038 4.39193 11.9038 4.39202 11.9038C4.39211 11.9038 4.39221 11.9038 4.3923 11.9038C4.39239 11.9038 4.39248 11.9038 4.39258 11.9038C4.39267 11.9038 4.39276 11.9038 4.39286 11.9038C4.39295 11.9038 4.39304 11.9038 4.39314 11.9038C4.39323 11.9038 4.39332 11.9038 4.39341 11.9038C4.39351 11.9038 4.3936 11.9038 4.39369 11.9038C4.39379 11.9038 4.39388 11.9038 4.39397 11.9038C4.39407 11.9038 4.39416 11.9038 4.39425 11.9038C4.39434 11.9038 4.39444 11.9038 4.39453 11.9038C4.39462 11.9038 4.39472 11.9038 4.39481 11.9038C4.3949 11.9038 4.395 11.9038 4.39509 11.9038C4.39518 11.9038 4.39527 11.9038 4.39537 11.9038C4.39546 11.9038 4.39555 11.9038 4.39565 11.9038C4.39574 11.9038 4.39583 11.9038 4.39593 11.9038C4.39602 11.9038 4.39611 11.9038 4.3962 11.9038C4.3963 11.9038 4.39639 11.9038 4.39648 11.9038C4.39658 11.9038 4.39667 11.9038 4.39676 11.9038C4.39686 11.9038 4.39695 11.9038 4.39704 11.9038C4.39713 11.9038 4.39723 11.9038 4.39732 11.9038C4.39741 11.9038 4.39751 11.9038 4.3976 11.9038C4.39769 11.9038 4.39779 11.9038 4.39788 11.9038C4.39797 11.9038 4.39806 11.9038 4.39816 11.9038C4.39825 11.9038 4.39834 11.9038 4.39844 11.9038C4.39853 11.9038 4.39862 11.9038 4.39872 11.9038C4.39881 11.9038 4.3989 11.9038 4.39899 11.9038C4.39909 11.9038 4.39918 11.9038 4.39927 11.9038C4.39937 11.9038 4.39946 11.9038 4.39955 11.9038C4.39965 11.9038 4.39974 11.9038 4.39983 11.9038C4.39992 11.9038 4.40002 11.9038 4.40011 11.9038C4.4002 11.9038 4.4003 11.9038 4.40039 11.9038C4.40048 11.9038 4.40058 11.9038 4.40067 11.9038C4.40076 11.9038 4.40085 11.9038 4.40095 11.9038C4.40104 11.9038 4.40113 11.9038 4.40123 11.9038C4.40132 11.9038 4.40141 11.9038 4.40151 11.9038C4.4016 11.9038 4.40169 11.9038 4.40178 11.9038C4.40188 11.9038 4.40197 11.9038 4.40206 11.9038C4.40216 11.9038 4.40225 11.9038 4.40234 11.9038C4.40244 11.9038 4.40253 11.9038 4.40262 11.9038C4.40271 11.9038 4.40281 11.9038 4.4029 11.9038C4.40299 11.9038 4.40309 11.9038 4.40318 11.9038C4.40327 11.9038 4.40337 11.9038 4.40346 11.9038C4.40355 11.9038 4.40364 11.9038 4.40374 11.9038C4.40383 11.9038 4.40392 11.9038 4.40402 11.9038C4.40411 11.9038 4.4042 11.9038 4.4043 11.9038C4.40439 11.9038 4.40448 11.9038 4.40457 11.9038C4.40467 11.9038 4.40476 11.9038 4.40485 11.9038C4.40495 11.9038 4.40504 11.9038 4.40513 11.9038C4.40523 11.9038 4.40532 11.9038 4.40541 11.9038C4.4055 11.9038 4.4056 11.9038 4.40569 11.9038C4.40578 11.9038 4.40588 11.9038 4.40597 11.9038C4.40606 11.9038 4.40616 11.9038 4.40625 11.9038C4.40634 11.9038 4.40643 11.9038 4.40653 11.9038C4.40662 11.9038 4.40671 11.9038 4.40681 11.9038C4.4069 11.9038 4.40699 11.9038 4.40709 11.9038C4.40718 11.9038 4.40727 11.9038 4.40736 11.9038C4.40746 11.9038 4.40755 11.9038 4.40764 11.9038C4.40774 11.9038 4.40783 11.9038 4.40792 11.9038C4.40802 11.9038 4.40811 11.9038 4.4082 11.9038C4.40829 11.9038 4.40839 11.9038 4.40848 11.9038C4.40857 11.9038 4.40867 11.9038 4.40876 11.9038C4.40885 11.9038 4.40895 11.9038 4.40904 11.9038C4.40913 11.9038 4.40922 11.9038 4.40932 11.9038C4.40941 11.9038 4.4095 11.9038 4.4096 11.9038C4.40969 11.9038 4.40978 11.9038 4.40988 11.9038C4.40997 11.9038 4.41006 11.9038 4.41016 11.9038C4.41025 11.9038 4.41034 11.9038 4.41043 11.9038C4.41053 11.9038 4.41062 11.9038 4.41071 11.9038C4.41081 11.9038 4.4109 11.9038 4.41099 11.9038C4.41109 11.9038 4.41118 11.9038 4.41127 11.9038C4.41136 11.9038 4.41146 11.9038 4.41155 11.9038C4.41164 11.9038 4.41174 11.9038 4.41183 11.9038C4.41192 11.9038 4.41202 11.9038 4.41211 11.9038C4.4122 11.9038 4.41229 11.9038 4.41239 11.9038C4.41248 11.9038 4.41257 11.9038 4.41267 11.9038C4.41276 11.9038 4.41285 11.9038 4.41295 11.9038C4.41304 11.9038 4.41313 11.9038 4.41322 11.9038C4.41332 11.9038 4.41341 11.9038 4.4135 11.9038C4.4136 11.9038 4.41369 11.9038 4.41378 11.9038C4.41388 11.9038 4.41397 11.9038 4.41406 11.9038C4.41415 11.9038 4.41425 11.9038 4.41434 11.9038C4.41443 11.9038 4.41453 11.9038 4.41462 11.9038C4.41471 11.9038 4.41481 11.9038 4.4149 11.9038C4.41499 11.9038 4.41508 11.9038 4.41518 11.9038C4.41527 11.9038 4.41536 11.9038 4.41546 11.9038C4.41555 11.9038 4.41564 11.9038 4.41574 11.9038C4.41583 11.9038 4.41592 11.9038 4.41601 11.9038C4.41611 11.9038 4.4162 11.9038 4.41629 11.9038C4.41639 11.9038 4.41648 11.9038 4.41657 11.9038C4.41667 11.9038 4.41676 11.9038 4.41685 11.9038C4.41694 11.9038 4.41704 11.9038 4.41713 11.9038C4.41722 11.9038 4.41732 11.9038 4.41741 11.9038C4.4175 11.9038 4.4176 11.9038 4.41769 11.9038C4.41778 11.9038 4.41787 11.9038 4.41797 11.9038C4.41806 11.9038 4.41815 11.9038 4.41825 11.9038C4.41834 11.9038 4.41843 11.9038 4.41853 11.9038C4.41862 11.9038 4.41871 11.9038 4.4188 11.9038C4.4189 11.9038 4.41899 11.9038 4.41908 11.9038C4.41918 11.9038 4.41927 11.9038 4.41936 11.9038C4.41946 11.9038 4.41955 11.9038 4.41964 11.9038C4.41973 11.9038 4.41983 11.9038 4.41992 11.9038C4.42001 11.9038 4.42011 11.9038 4.4202 11.9038C4.42029 11.9038 4.42039 11.9038 4.42048 11.9038C4.42057 11.9038 4.42067 11.9038 4.42076 11.9038C4.42085 11.9038 4.42094 11.9038 4.42104 11.9038C4.42113 11.9038 4.42122 11.9038 4.42132 11.9038C4.42141 11.9038 4.4215 11.9038 4.4216 11.9038C4.42169 11.9038 4.42178 11.9038 4.42187 11.9038C4.42197 11.9038 4.42206 11.9038 4.42215 11.9038C4.42225 11.9038 4.42234 11.9038 4.42243 11.9038C4.42253 11.9038 4.42262 11.9038 4.42271 11.9038C4.4228 11.9038 4.4229 11.9038 4.42299 11.9038C4.42308 11.9038 4.42318 11.9038 4.42327 11.9038C4.42336 11.9038 4.42346 11.9038 4.42355 11.9038C4.42364 11.9038 4.42373 11.9038 4.42383 11.9038C4.42392 11.9038 4.42401 11.9038 4.42411 11.9038C4.4242 11.9038 4.42429 11.9038 4.42439 11.9038C4.42448 11.9038 4.42457 11.9038 4.42466 11.9038C4.42476 11.9038 4.42485 11.9038 4.42494 11.9038C4.42504 11.9038 4.42513 11.9038 4.42522 11.9038C4.42532 11.9038 4.42541 11.9038 4.4255 11.9038C4.42559 11.9038 4.42569 11.9038 4.42578 11.9038C4.42587 11.9038 4.42597 11.9038 4.42606 11.9038C4.42615 11.9038 4.42625 11.9038 4.42634 11.9038C4.42643 11.9038 4.42652 11.9038 4.42662 11.9038C4.42671 11.9038 4.4268 11.9038 4.4269 11.9038C4.42699 11.9038 4.42708 11.9038 4.42718 11.9038C4.42727 11.9038 4.42736 11.9038 4.42745 11.9038C4.42755 11.9038 4.42764 11.9038 4.42773 11.9038C4.42783 11.9038 4.42792 11.9038 4.42801 11.9038C4.42811 11.9038 4.4282 11.9038 4.42829 11.9038C4.42839 11.9038 4.42848 11.9038 4.42857 11.9038C4.42866 11.9038 4.42876 11.9038 4.42885 11.9038C4.42894 11.9038 4.42904 11.9038 4.42913 11.9038C4.42922 11.9038 4.42932 11.9038 4.42941 11.9038C4.4295 11.9038 4.42959 11.9038 4.42969 11.9038C4.42978 11.9038 4.42987 11.9038 4.42997 11.9038C4.43006 11.9038 4.43015 11.9038 4.43025 11.9038C4.43034 11.9038 4.43043 11.9038 4.43052 11.9038C4.43062 11.9038 4.43071 11.9038 4.4308 11.9038C4.4309 11.9038 4.43099 11.9038 4.43108 11.9038C4.43118 11.9038 4.43127 11.9038 4.43136 11.9038C4.43145 11.9038 4.43155 11.9038 4.43164 11.9038C4.43173 11.9038 4.43183 11.9038 4.43192 11.9038C4.43201 11.9038 4.43211 11.9038 4.4322 11.9038C4.43229 11.9038 4.43238 11.9038 4.43248 11.9038C4.43257 11.9038 4.43266 11.9038 4.43276 11.9038C4.43285 11.9038 4.43294 11.9038 4.43304 11.9038C4.43313 11.9038 4.43322 11.9038 4.43331 11.9038C4.43341 11.9038 4.4335 11.9038 4.43359 11.9038C4.43369 11.9038 4.43378 11.9038 4.43387 11.9038C4.43397 11.9038 4.43406 11.9038 4.43415 11.9038C4.43424 11.9038 4.43434 11.9038 4.43443 11.9038C4.43452 11.9038 4.43462 11.9038 4.43471 11.9038C4.4348 11.9038 4.4349 11.9038 4.43499 11.9038C4.43508 11.9038 4.43517 11.9038 4.43527 11.9038C4.43536 11.9038 4.43545 11.9038 4.43555 11.9038C4.43564 11.9038 4.43573 11.9038 4.43583 11.9038C4.43592 11.9038 4.43601 11.9038 4.43611 11.9038C4.4362 11.9038 4.43629 11.9038 4.43638 11.9038C4.43648 11.9038 4.43657 11.9038 4.43666 11.9038C4.43676 11.9038 4.43685 11.9038 4.43694 11.9038C4.43704 11.9038 4.43713 11.9038 4.43722 11.9038C4.43731 11.9038 4.43741 11.9038 4.4375 11.9038C4.43759 11.9038 4.43769 11.9038 4.43778 11.9038C4.43787 11.9038 4.43797 11.9038 4.43806 11.9038C4.43815 11.9038 4.43824 11.9038 4.43834 11.9038C4.43843 11.9038 4.43852 11.9038 4.43862 11.9038C4.43871 11.9038 4.4388 11.9038 4.4389 11.9038C4.43899 11.9038 4.43908 11.9038 4.43917 11.9038C4.43927 11.9038 4.43936 11.9038 4.43945 11.9038C4.43955 11.9038 4.43964 11.9038 4.43973 11.9038C4.43983 11.9038 4.43992 11.9038 4.44001 11.9038C4.4401 11.9038 4.4402 11.9038 4.44029 11.9038C4.44038 11.9038 4.44048 11.9038 4.44057 11.9038C4.44066 11.9038 4.44076 11.9038 4.44085 11.9038C4.44094 11.9038 4.44103 11.9038 4.44113 11.9038C4.44122 11.9038 4.44131 11.9038 4.44141 11.9038C4.4415 11.9038 4.44159 11.9038 4.44169 11.9038C4.44178 11.9038 4.44187 11.9038 4.44196 11.9038C4.44206 11.9038 4.44215 11.9038 4.44224 11.9038C4.44234 11.9038 4.44243 11.9038 4.44252 11.9038C4.44262 11.9038 4.44271 11.9038 4.4428 11.9038C4.44289 11.9038 4.44299 11.9038 4.44308 11.9038C4.44317 11.9038 4.44327 11.9038 4.44336 11.9038C4.44345 11.9038 4.44355 11.9038 4.44364 11.9038C4.44373 11.9038 4.44383 11.9038 4.44392 11.9038C4.44401 11.9038 4.4441 11.9038 4.4442 11.9038C4.44429 11.9038 4.44438 11.9038 4.44448 11.9038C4.44457 11.9038 4.44466 11.9038 4.44476 11.9038C4.44485 11.9038 4.44494 11.9038 4.44503 11.9038C4.44513 11.9038 4.44522 11.9038 4.44531 11.9038C4.44541 11.9038 4.4455 11.9038 4.44559 11.9038C4.44569 11.9038 4.44578 11.9038 4.44587 11.9038C4.44596 11.9038 4.44606 11.9038 4.44615 11.9038C4.44624 11.9038 4.44634 11.9038 4.44643 11.9038C4.44652 11.9038 4.44662 11.9038 4.44671 11.9038C4.4468 11.9038 4.44689 11.9038 4.44699 11.9038C4.44708 11.9038 4.44717 11.9038 4.44727 11.9038C4.44736 11.9038 4.44745 11.9038 4.44755 11.9038C4.44764 11.9038 4.44773 11.9038 4.44782 11.9038C4.44792 11.9038 4.44801 11.9038 4.4481 11.9038C4.4482 11.9038 4.44829 11.9038 4.44838 11.9038C4.44848 11.9038 4.44857 11.9038 4.44866 11.9038C4.44875 11.9038 4.44885 11.9038 4.44894 11.9038C4.44903 11.9038 4.44913 11.9038 4.44922 11.9038C4.44931 11.9038 4.44941 11.9038 4.4495 11.9038C4.44959 11.9038 4.44969 11.9038 4.44978 11.9038C4.44987 11.9038 4.44996 11.9038 4.45006 11.9038C4.45015 11.9038 4.45024 11.9038 4.45034 11.9038C4.45043 11.9038 4.45052 11.9038 4.45062 11.9038C4.45071 11.9038 4.4508 11.9038 4.45089 11.9038C4.45099 11.9038 4.45108 11.9038 4.45117 11.9038C4.45127 11.9038 4.45136 11.9038 4.45145 11.9038C4.45155 11.9038 4.45164 11.9038 4.45173 11.9038C4.45182 11.9038 4.45192 11.9038 4.45201 11.9038C4.4521 11.9038 4.4522 11.9038 4.45229 11.9038C4.45238 11.9038 4.45248 11.9038 4.45257 11.9038C4.45266 11.9038 4.45275 11.9038 4.45285 11.9038C4.45294 11.9038 4.45303 11.9038 4.45313 11.9038C4.45322 11.9038 4.45331 11.9038 4.45341 11.9038C4.4535 11.9038 4.45359 11.9038 4.45368 11.9038C4.45378 11.9038 4.45387 11.9038 4.45396 11.9038C4.45406 11.9038 4.45415 11.9038 4.45424 11.9038C4.45434 11.9038 4.45443 11.9038 4.45452 11.9038C4.45461 11.9038 4.45471 11.9038 4.4548 11.9038C4.45489 11.9038 4.45499 11.9038 4.45508 11.9038C4.45517 11.9038 4.45527 11.9038 4.45536 11.9038C4.45545 11.9038 4.45554 11.9038 4.45564 11.9038C4.45573 11.9038 4.45582 11.9038 4.45592 11.9038C4.45601 11.9038 4.4561 11.9038 4.4562 11.9038C4.45629 11.9038 4.45638 11.9038 4.45648 11.9038C4.45657 11.9038 4.45666 11.9038 4.45675 11.9038C4.45685 11.9038 4.45694 11.9038 4.45703 11.9038C4.45713 11.9038 4.45722 11.9038 4.45731 11.9038C4.45741 11.9038 4.4575 11.9038 4.45759 11.9038C4.45768 11.9038 4.45778 11.9038 4.45787 11.9038C4.45796 11.9038 4.45806 11.9038 4.45815 11.9038C4.45824 11.9038 4.45834 11.9038 4.45843 11.9038C4.45852 11.9038 4.45861 11.9038 4.45871 11.9038C4.4588 11.9038 4.45889 11.9038 4.45899 11.9038C4.45908 11.9038 4.45917 11.9038 4.45927 11.9038C4.45936 11.9038 4.45945 11.9038 4.45954 11.9038C4.45964 11.9038 4.45973 11.9038 4.45982 11.9038C4.45992 11.9038 4.46001 11.9038 4.4601 11.9038C4.4602 11.9038 4.46029 11.9038 4.46038 11.9038C4.46047 11.9038 4.46057 11.9038 4.46066 11.9038C4.46075 11.9038 4.46085 11.9038 4.46094 11.9038C4.46103 11.9038 4.46113 11.9038 4.46122 11.9038C4.46131 11.9038 4.4614 11.9038 4.4615 11.9038C4.46159 11.9038 4.46168 11.9038 4.46178 11.9038C4.46187 11.9038 4.46196 11.9038 4.46206 11.9038C4.46215 11.9038 4.46224 11.9038 4.46233 11.9038C4.46243 11.9038 4.46252 11.9038 4.46261 11.9038C4.46271 11.9038 4.4628 11.9038 4.46289 11.9038C4.46299 11.9038 4.46308 11.9038 4.46317 11.9038C4.46326 11.9038 4.46336 11.9038 4.46345 11.9038C4.46354 11.9038 4.46364 11.9038 4.46373 11.9038C4.46382 11.9038 4.46392 11.9038 4.46401 11.9038C4.4641 11.9038 4.4642 11.9038 4.46429 11.9038C4.46438 11.9038 4.46447 11.9038 4.46457 11.9038C4.46466 11.9038 4.46475 11.9038 4.46485 11.9038C4.46494 11.9038 4.46503 11.9038 4.46513 11.9038C4.46522 11.9038 4.46531 11.9038 4.4654 11.9038C4.4655 11.9038 4.46559 11.9038 4.46568 11.9038C4.46578 11.9038 4.46587 11.9038 4.46596 11.9038C4.46606 11.9038 4.46615 11.9038 4.46624 11.9038C4.46633 11.9038 4.46643 11.9038 4.46652 11.9038C4.46661 11.9038 4.46671 11.9038 4.4668 11.9038C4.46689 11.9038 4.46699 11.9038 4.46708 11.9038C4.46717 11.9038 4.46726 11.9038 4.46736 11.9038C4.46745 11.9038 4.46754 11.9038 4.46764 11.9038C4.46773 11.9038 4.46782 11.9038 4.46792 11.9038C4.46801 11.9038 4.4681 11.9038 4.46819 11.9038C4.46829 11.9038 4.46838 11.9038 4.46847 11.9038C4.46857 11.9038 4.46866 11.9038 4.46875 11.9038C4.46885 11.9038 4.46894 11.9038 4.46903 11.9038C4.46912 11.9038 4.46922 11.9038 4.46931 11.9038C4.4694 11.9038 4.4695 11.9038 4.46959 11.9038C4.46968 11.9038 4.46978 11.9038 4.46987 11.9038C4.46996 11.9038 4.47005 11.9038 4.47015 11.9038C4.47024 11.9038 4.47033 11.9038 4.47043 11.9038C4.47052 11.9038 4.47061 11.9038 4.47071 11.9038C4.4708 11.9038 4.47089 11.9038 4.47098 11.9038C4.47108 11.9038 4.47117 11.9038 4.47126 11.9038C4.47136 11.9038 4.47145 11.9038 4.47154 11.9038C4.47164 11.9038 4.47173 11.9038 4.47182 11.9038C4.47192 11.9038 4.47201 11.9038 4.4721 11.9038C4.47219 11.9038 4.47229 11.9038 4.47238 11.9038C4.47247 11.9038 4.47257 11.9038 4.47266 11.9038C4.47275 11.9038 4.47285 11.9038 4.47294 11.9038C4.47303 11.9038 4.47312 11.9038 4.47322 11.9038C4.47331 11.9038 4.4734 11.9038 4.4735 11.9038C4.47359 11.9038 4.47368 11.9038 4.47378 11.9038C4.47387 11.9038 4.47396 11.9038 4.47405 11.9038C4.47415 11.9038 4.47424 11.9038 4.47433 11.9038C4.47443 11.9038 4.47452 11.9038 4.47461 11.9038C4.47471 11.9038 4.4748 11.9038 4.47489 11.9038C4.47498 11.9038 4.47508 11.9038 4.47517 11.9038C4.47526 11.9038 4.47536 11.9038 4.47545 11.9038C4.47554 11.9038 4.47564 11.9038 4.47573 11.9038C4.47582 11.9038 4.47591 11.9038 4.47601 11.9038C4.4761 11.9038 4.47619 11.9038 4.47629 11.9038C4.47638 11.9038 4.47647 11.9038 4.47657 11.9038C4.47666 11.9038 4.47675 11.9038 4.47684 11.9038C4.47694 11.9038 4.47703 11.9038 4.47712 11.9038C4.47722 11.9038 4.47731 11.9038 4.4774 11.9038C4.4775 11.9038 4.47759 11.9038 4.47768 11.9038C4.47777 11.9038 4.47787 11.9038 4.47796 11.9038C4.47805 11.9038 4.47815 11.9038 4.47824 11.9038C4.47833 11.9038 4.47843 11.9038 4.47852 11.9038C4.47861 11.9038 4.4787 11.9038 4.4788 11.9038C4.47889 11.9038 4.47898 11.9038 4.47908 11.9038C4.47917 11.9038 4.47926 11.9038 4.47936 11.9038C4.47945 11.9038 4.47954 11.9038 4.47964 11.9038C4.47973 11.9038 4.47982 11.9038 4.47991 11.9038C4.48001 11.9038 4.4801 11.9038 4.48019 11.9038C4.48029 11.9038 4.48038 11.9038 4.48047 11.9038C4.48057 11.9038 4.48066 11.9038 4.48075 11.9038C4.48084 11.9038 4.48094 11.9038 4.48103 11.9038C4.48112 11.9038 4.48122 11.9038 4.48131 11.9038C4.4814 11.9038 4.4815 11.9038 4.48159 11.9038C4.48168 11.9038 4.48177 11.9038 4.48187 11.9038C4.48196 11.9038 4.48205 11.9038 4.48215 11.9038C4.48224 11.9038 4.48233 11.9038 4.48243 11.9038C4.48252 11.9038 4.48261 11.9038 4.4827 11.9038C4.4828 11.9038 4.48289 11.9038 4.48298 11.9038C4.48308 11.9038 4.48317 11.9038 4.48326 11.9038C4.48336 11.9038 4.48345 11.9038 4.48354 11.9038C4.48363 11.9038 4.48373 11.9038 4.48382 11.9038C4.48391 11.9038 4.48401 11.9038 4.4841 11.9038C4.48419 11.9038 4.48429 11.9038 4.48438 11.9038C4.48447 11.9038 4.48456 11.9038 4.48466 11.9038C4.48475 11.9038 4.48484 11.9038 4.48494 11.9038C4.48503 11.9038 4.48512 11.9038 4.48522 11.9038C4.48531 11.9038 4.4854 11.9038 4.48549 11.9038C4.48559 11.9038 4.48568 11.9038 4.48577 11.9038C4.48587 11.9038 4.48596 11.9038 4.48605 11.9038C4.48615 11.9038 4.48624 11.9038 4.48633 11.9038C4.48642 11.9038 4.48652 11.9038 4.48661 11.9038C4.4867 11.9038 4.4868 11.9038 4.48689 11.9038C4.48698 11.9038 4.48708 11.9038 4.48717 11.9038C4.48726 11.9038 4.48735 11.9038 4.48745 11.9038C4.48754 11.9038 4.48763 11.9038 4.48773 11.9038C4.48782 11.9038 4.48791 11.9038 4.48801 11.9038C4.4881 11.9038 4.48819 11.9038 4.48828 11.9038C4.48838 11.9038 4.48847 11.9038 4.48856 11.9038C4.48866 11.9038 4.48875 11.9038 4.48884 11.9038C4.48894 11.9038 4.48903 11.9038 4.48912 11.9038C4.48921 11.9038 4.48931 11.9038 4.4894 11.9038C4.48949 11.9038 4.48959 11.9038 4.48968 11.9038C4.48977 11.9038 4.48987 11.9038 4.48996 11.9038C4.49005 11.9038 4.49014 11.9038 4.49024 11.9038C4.49033 11.9038 4.49042 11.9038 4.49052 11.9038C4.49061 11.9038 4.4907 11.9038 4.4908 11.9038C4.49089 11.9038 4.49098 11.9038 4.49108 11.9038C4.49117 11.9038 4.49126 11.9038 4.49135 11.9038C4.49145 11.9038 4.49154 11.9038 4.49163 11.9038C4.49173 11.9038 4.49182 11.9038 4.49191 11.9038C4.49201 11.9038 4.4921 11.9038 4.49219 11.9038C4.49228 11.9038 4.49238 11.9038 4.49247 11.9038C4.49256 11.9038 4.49266 11.9038 4.49275 11.9038C4.49284 11.9038 4.49294 11.9038 4.49303 11.9038C4.49312 11.9038 4.49321 11.9038 4.49331 11.9038C4.4934 11.9038 4.49349 11.9038 4.49359 11.9038C4.49368 11.9038 4.49377 11.9038 4.49387 11.9038C4.49396 11.9038 4.49405 11.9038 4.49414 11.9038C4.49424 11.9038 4.49433 11.9038 4.49442 11.9038C4.49452 11.9038 4.49461 11.9038 4.4947 11.9038C4.4948 11.9038 4.49489 11.9038 4.49498 11.9038C4.49507 11.9038 4.49517 11.9038 4.49526 11.9038C4.49535 11.9038 4.49545 11.9038 4.49554 11.9038C4.49563 11.9038 4.49573 11.9038 4.49582 11.9038C4.49591 11.9038 4.496 11.9038 4.4961 11.9038C4.49619 11.9038 4.49628 11.9038 4.49638 11.9038C4.49647 11.9038 4.49656 11.9038 4.49666 11.9038C4.49675 11.9038 4.49684 11.9038 4.49693 11.9038C4.49703 11.9038 4.49712 11.9038 4.49721 11.9038C4.49731 11.9038 4.4974 11.9038 4.49749 11.9038C4.49759 11.9038 4.49768 11.9038 4.49777 11.9038C4.49786 11.9038 4.49796 11.9038 4.49805 11.9038C4.49814 11.9038 4.49824 11.9038 4.49833 11.9038C4.49842 11.9038 4.49852 11.9038 4.49861 11.9038C4.4987 11.9038 4.49879 11.9038 4.49889 11.9038C4.49898 11.9038 4.49907 11.9038 4.49917 11.9038C4.49926 11.9038 4.49935 11.9038 4.49945 11.9038C4.49954 11.9038 4.49963 11.9038 4.49972 11.9038C4.49982 11.9038 4.49991 11.9038 4.5 11.9038C4.5001 11.9038 4.50019 11.9038 4.50028 11.9038C4.50038 11.9038 4.50047 11.9038 4.50056 11.9038C4.50065 11.9038 4.50075 11.9038 4.50084 11.9038C4.50093 11.9038 4.50103 11.9038 4.50112 11.9038C4.50121 11.9038 4.50131 11.9038 4.5014 11.9038C4.50149 11.9038 4.50158 11.9038 4.50168 11.9038C4.50177 11.9038 4.50186 11.9038 4.50196 11.9038C4.50205 11.9038 4.50214 11.9038 4.50224 11.9038C4.50233 11.9038 4.50242 11.9038 4.50251 11.9038C4.50261 11.9038 4.5027 11.9038 4.50279 11.9038C4.50289 11.9038 4.50298 11.9038 4.50307 11.9038C4.50317 11.9038 4.50326 11.9038 4.50335 11.9038C4.50344 11.9038 4.50354 11.9038 4.50363 11.9038C4.50372 11.9038 4.50382 11.9038 4.50391 11.9038C4.504 11.9038 4.5041 11.9038 4.50419 11.9038C4.50428 11.9038 4.50437 11.9038 4.50447 11.9038C4.50456 11.9038 4.50465 11.9038 4.50475 11.9038C4.50484 11.9038 4.50493 11.9038 4.50503 11.9038C4.50512 11.9038 4.50521 11.9038 4.5053 11.9038C4.5054 11.9038 4.50549 11.9038 4.50558 11.9038C4.50568 11.9038 4.50577 11.9038 4.50586 11.9038C4.50596 11.9038 4.50605 11.9038 4.50614 11.9038C4.50623 11.9038 4.50633 11.9038 4.50642 11.9038C4.50651 11.9038 4.50661 11.9038 4.5067 11.9038C4.50679 11.9038 4.50689 11.9038 4.50698 11.9038C4.50707 11.9038 4.50716 11.9038 4.50726 11.9038C4.50735 11.9038 4.50744 11.9038 4.50754 11.9038C4.50763 11.9038 4.50772 11.9038 4.50782 11.9038C4.50791 11.9038 4.508 11.9038 4.50809 11.9038C4.50819 11.9038 4.50828 11.9038 4.50837 11.9038C4.50847 11.9038 4.50856 11.9038 4.50865 11.9038C4.50875 11.9038 4.50884 11.9038 4.50893 11.9038C4.50902 11.9038 4.50912 11.9038 4.50921 11.9038C4.5093 11.9038 4.5094 11.9038 4.50949 11.9038C4.50958 11.9038 4.50968 11.9038 4.50977 11.9038C4.50986 11.9038 4.50995 11.9038 4.51005 11.9038C4.51014 11.9038 4.51023 11.9038 4.51033 11.9038C4.51042 11.9038 4.51051 11.9038 4.51061 11.9038C4.5107 11.9038 4.51079 11.9038 4.51088 11.9038C4.51098 11.9038 4.51107 11.9038 4.51116 11.9038C4.51126 11.9038 4.51135 11.9038 4.51144 11.9038C4.51154 11.9038 4.51163 11.9038 4.51172 11.9038C4.51181 11.9038 4.51191 11.9038 4.512 11.9038C4.51209 11.9038 4.51219 11.9038 4.51228 11.9038C4.51237 11.9038 4.51247 11.9038 4.51256 11.9038C4.51265 11.9038 4.51274 11.9038 4.51284 11.9038C4.51293 11.9038 4.51302 11.9038 4.51312 11.9038C4.51321 11.9038 4.5133 11.9038 4.5134 11.9038C4.51349 11.9038 4.51358 11.9038 4.51367 11.9038C4.51377 11.9038 4.51386 11.9038 4.51395 11.9038C4.51405 11.9038 4.51414 11.9038 4.51423 11.9038C4.51433 11.9038 4.51442 11.9038 4.51451 11.9038C4.5146 11.9038 4.5147 11.9038 4.51479 11.9038C4.51488 11.9038 4.51498 11.9038 4.51507 11.9038C4.51516 11.9038 4.51526 11.9038 4.51535 11.9038C4.51544 11.9038 4.51553 11.9038 4.51563 11.9038C4.51572 11.9038 4.51581 11.9038 4.51591 11.9038C4.516 11.9038 4.51609 11.9038 4.51619 11.9038C4.51628 11.9038 4.51637 11.9038 4.51646 11.9038C4.51656 11.9038 4.51665 11.9038 4.51674 11.9038C4.51684 11.9038 4.51693 11.9038 4.51702 11.9038C4.51712 11.9038 4.51721 11.9038 4.5173 11.9038C4.51739 11.9038 4.51749 11.9038 4.51758 11.9038C4.51767 11.9038 4.51777 11.9038 4.51786 11.9038C4.51795 11.9038 4.51804 11.9038 4.51814 11.9038C4.51823 11.9038 4.51832 11.9038 4.51842 11.9038C4.51851 11.9038 4.5186 11.9038 4.5187 11.9038C4.51879 11.9038 4.51888 11.9038 4.51898 11.9038C4.51907 11.9038 4.51916 11.9038 4.51925 11.9038C4.51935 11.9038 4.51944 11.9038 4.51953 11.9038C4.51963 11.9038 4.51972 11.9038 4.51981 11.9038C4.5199 11.9038 4.52 11.9038 4.52009 11.9038C4.52018 11.9038 4.52028 11.9038 4.52037 11.9038C4.52046 11.9038 4.52056 11.9038 4.52065 11.9038C4.52074 11.9038 4.52083 11.9038 4.52093 11.9038C4.52102 11.9038 4.52111 11.9038 4.52121 11.9038C4.5213 11.9038 4.52139 11.9038 4.52149 11.9038C4.52158 11.9038 4.52167 11.9038 4.52176 11.9038C4.52186 11.9038 4.52195 11.9038 4.52204 11.9038C4.52214 11.9038 4.52223 11.9038 4.52232 11.9038C4.52242 11.9038 4.52251 11.9038 4.5226 11.9038C4.52269 11.9038 4.52279 11.9038 4.52288 11.9038C4.52297 11.9038 4.52307 11.9038 4.52316 11.9038C4.52325 11.9038 4.52335 11.9038 4.52344 11.9038C4.52353 11.9038 4.52362 11.9038 4.52372 11.9038C4.52381 11.9038 4.5239 11.9038 4.524 11.9038C4.52409 11.9038 4.52418 11.9038 4.52428 11.9038C4.52437 11.9038 4.52446 11.9038 4.52455 11.9038C4.52465 11.9038 4.52474 11.9038 4.52483 11.9038C4.52493 11.9038 4.52502 11.9038 4.52511 11.9038C4.52521 11.9038 4.5253 11.9038 4.52539 11.9038C4.52548 11.9038 4.52558 11.9038 4.52567 11.9038C4.52576 11.9038 4.52586 11.9038 4.52595 11.9038C4.52604 11.9038 4.52614 11.9038 4.52623 11.9038C4.52632 11.9038 4.52641 11.9038 4.52651 11.9038C4.5266 11.9038 4.52669 11.9038 4.52679 11.9038C4.52688 11.9038 4.52697 11.9038 4.52707 11.9038C4.52716 11.9038 4.52725 11.9038 4.52734 11.9038C4.52744 11.9038 4.52753 11.9038 4.52762 11.9038V10.4038C4.52753 10.4038 4.52744 10.4038 4.52734 10.4038C4.52725 10.4038 4.52716 10.4038 4.52707 10.4038C4.52697 10.4038 4.52688 10.4038 4.52679 10.4038C4.52669 10.4038 4.5266 10.4038 4.52651 10.4038C4.52641 10.4038 4.52632 10.4038 4.52623 10.4038C4.52614 10.4038 4.52604 10.4038 4.52595 10.4038C4.52586 10.4038 4.52576 10.4038 4.52567 10.4038C4.52558 10.4038 4.52548 10.4038 4.52539 10.4038C4.5253 10.4038 4.52521 10.4038 4.52511 10.4038C4.52502 10.4038 4.52493 10.4038 4.52483 10.4038C4.52474 10.4038 4.52465 10.4038 4.52455 10.4038C4.52446 10.4038 4.52437 10.4038 4.52428 10.4038C4.52418 10.4038 4.52409 10.4038 4.524 10.4038C4.5239 10.4038 4.52381 10.4038 4.52372 10.4038C4.52362 10.4038 4.52353 10.4038 4.52344 10.4038C4.52335 10.4038 4.52325 10.4038 4.52316 10.4038C4.52307 10.4038 4.52297 10.4038 4.52288 10.4038C4.52279 10.4038 4.52269 10.4038 4.5226 10.4038C4.52251 10.4038 4.52242 10.4038 4.52232 10.4038C4.52223 10.4038 4.52214 10.4038 4.52204 10.4038C4.52195 10.4038 4.52186 10.4038 4.52176 10.4038C4.52167 10.4038 4.52158 10.4038 4.52149 10.4038C4.52139 10.4038 4.5213 10.4038 4.52121 10.4038C4.52111 10.4038 4.52102 10.4038 4.52093 10.4038C4.52083 10.4038 4.52074 10.4038 4.52065 10.4038C4.52056 10.4038 4.52046 10.4038 4.52037 10.4038C4.52028 10.4038 4.52018 10.4038 4.52009 10.4038C4.52 10.4038 4.5199 10.4038 4.51981 10.4038C4.51972 10.4038 4.51963 10.4038 4.51953 10.4038C4.51944 10.4038 4.51935 10.4038 4.51925 10.4038C4.51916 10.4038 4.51907 10.4038 4.51898 10.4038C4.51888 10.4038 4.51879 10.4038 4.5187 10.4038C4.5186 10.4038 4.51851 10.4038 4.51842 10.4038C4.51832 10.4038 4.51823 10.4038 4.51814 10.4038C4.51804 10.4038 4.51795 10.4038 4.51786 10.4038C4.51777 10.4038 4.51767 10.4038 4.51758 10.4038C4.51749 10.4038 4.51739 10.4038 4.5173 10.4038C4.51721 10.4038 4.51712 10.4038 4.51702 10.4038C4.51693 10.4038 4.51684 10.4038 4.51674 10.4038C4.51665 10.4038 4.51656 10.4038 4.51646 10.4038C4.51637 10.4038 4.51628 10.4038 4.51619 10.4038C4.51609 10.4038 4.516 10.4038 4.51591 10.4038C4.51581 10.4038 4.51572 10.4038 4.51563 10.4038C4.51553 10.4038 4.51544 10.4038 4.51535 10.4038C4.51526 10.4038 4.51516 10.4038 4.51507 10.4038C4.51498 10.4038 4.51488 10.4038 4.51479 10.4038C4.5147 10.4038 4.5146 10.4038 4.51451 10.4038C4.51442 10.4038 4.51433 10.4038 4.51423 10.4038C4.51414 10.4038 4.51405 10.4038 4.51395 10.4038C4.51386 10.4038 4.51377 10.4038 4.51367 10.4038C4.51358 10.4038 4.51349 10.4038 4.5134 10.4038C4.5133 10.4038 4.51321 10.4038 4.51312 10.4038C4.51302 10.4038 4.51293 10.4038 4.51284 10.4038C4.51274 10.4038 4.51265 10.4038 4.51256 10.4038C4.51247 10.4038 4.51237 10.4038 4.51228 10.4038C4.51219 10.4038 4.51209 10.4038 4.512 10.4038C4.51191 10.4038 4.51181 10.4038 4.51172 10.4038C4.51163 10.4038 4.51154 10.4038 4.51144 10.4038C4.51135 10.4038 4.51126 10.4038 4.51116 10.4038C4.51107 10.4038 4.51098 10.4038 4.51088 10.4038C4.51079 10.4038 4.5107 10.4038 4.51061 10.4038C4.51051 10.4038 4.51042 10.4038 4.51033 10.4038C4.51023 10.4038 4.51014 10.4038 4.51005 10.4038C4.50995 10.4038 4.50986 10.4038 4.50977 10.4038C4.50968 10.4038 4.50958 10.4038 4.50949 10.4038C4.5094 10.4038 4.5093 10.4038 4.50921 10.4038C4.50912 10.4038 4.50902 10.4038 4.50893 10.4038C4.50884 10.4038 4.50875 10.4038 4.50865 10.4038C4.50856 10.4038 4.50847 10.4038 4.50837 10.4038C4.50828 10.4038 4.50819 10.4038 4.50809 10.4038C4.508 10.4038 4.50791 10.4038 4.50782 10.4038C4.50772 10.4038 4.50763 10.4038 4.50754 10.4038C4.50744 10.4038 4.50735 10.4038 4.50726 10.4038C4.50716 10.4038 4.50707 10.4038 4.50698 10.4038C4.50689 10.4038 4.50679 10.4038 4.5067 10.4038C4.50661 10.4038 4.50651 10.4038 4.50642 10.4038C4.50633 10.4038 4.50623 10.4038 4.50614 10.4038C4.50605 10.4038 4.50596 10.4038 4.50586 10.4038C4.50577 10.4038 4.50568 10.4038 4.50558 10.4038C4.50549 10.4038 4.5054 10.4038 4.5053 10.4038C4.50521 10.4038 4.50512 10.4038 4.50503 10.4038C4.50493 10.4038 4.50484 10.4038 4.50475 10.4038C4.50465 10.4038 4.50456 10.4038 4.50447 10.4038C4.50437 10.4038 4.50428 10.4038 4.50419 10.4038C4.5041 10.4038 4.504 10.4038 4.50391 10.4038C4.50382 10.4038 4.50372 10.4038 4.50363 10.4038C4.50354 10.4038 4.50344 10.4038 4.50335 10.4038C4.50326 10.4038 4.50317 10.4038 4.50307 10.4038C4.50298 10.4038 4.50289 10.4038 4.50279 10.4038C4.5027 10.4038 4.50261 10.4038 4.50251 10.4038C4.50242 10.4038 4.50233 10.4038 4.50224 10.4038C4.50214 10.4038 4.50205 10.4038 4.50196 10.4038C4.50186 10.4038 4.50177 10.4038 4.50168 10.4038C4.50158 10.4038 4.50149 10.4038 4.5014 10.4038C4.50131 10.4038 4.50121 10.4038 4.50112 10.4038C4.50103 10.4038 4.50093 10.4038 4.50084 10.4038C4.50075 10.4038 4.50065 10.4038 4.50056 10.4038C4.50047 10.4038 4.50038 10.4038 4.50028 10.4038C4.50019 10.4038 4.5001 10.4038 4.5 10.4038C4.49991 10.4038 4.49982 10.4038 4.49972 10.4038C4.49963 10.4038 4.49954 10.4038 4.49945 10.4038C4.49935 10.4038 4.49926 10.4038 4.49917 10.4038C4.49907 10.4038 4.49898 10.4038 4.49889 10.4038C4.49879 10.4038 4.4987 10.4038 4.49861 10.4038C4.49852 10.4038 4.49842 10.4038 4.49833 10.4038C4.49824 10.4038 4.49814 10.4038 4.49805 10.4038C4.49796 10.4038 4.49786 10.4038 4.49777 10.4038C4.49768 10.4038 4.49759 10.4038 4.49749 10.4038C4.4974 10.4038 4.49731 10.4038 4.49721 10.4038C4.49712 10.4038 4.49703 10.4038 4.49693 10.4038C4.49684 10.4038 4.49675 10.4038 4.49666 10.4038C4.49656 10.4038 4.49647 10.4038 4.49638 10.4038C4.49628 10.4038 4.49619 10.4038 4.4961 10.4038C4.496 10.4038 4.49591 10.4038 4.49582 10.4038C4.49573 10.4038 4.49563 10.4038 4.49554 10.4038C4.49545 10.4038 4.49535 10.4038 4.49526 10.4038C4.49517 10.4038 4.49507 10.4038 4.49498 10.4038C4.49489 10.4038 4.4948 10.4038 4.4947 10.4038C4.49461 10.4038 4.49452 10.4038 4.49442 10.4038C4.49433 10.4038 4.49424 10.4038 4.49414 10.4038C4.49405 10.4038 4.49396 10.4038 4.49387 10.4038C4.49377 10.4038 4.49368 10.4038 4.49359 10.4038C4.49349 10.4038 4.4934 10.4038 4.49331 10.4038C4.49321 10.4038 4.49312 10.4038 4.49303 10.4038C4.49294 10.4038 4.49284 10.4038 4.49275 10.4038C4.49266 10.4038 4.49256 10.4038 4.49247 10.4038C4.49238 10.4038 4.49228 10.4038 4.49219 10.4038C4.4921 10.4038 4.49201 10.4038 4.49191 10.4038C4.49182 10.4038 4.49173 10.4038 4.49163 10.4038C4.49154 10.4038 4.49145 10.4038 4.49135 10.4038C4.49126 10.4038 4.49117 10.4038 4.49108 10.4038C4.49098 10.4038 4.49089 10.4038 4.4908 10.4038C4.4907 10.4038 4.49061 10.4038 4.49052 10.4038C4.49042 10.4038 4.49033 10.4038 4.49024 10.4038C4.49014 10.4038 4.49005 10.4038 4.48996 10.4038C4.48987 10.4038 4.48977 10.4038 4.48968 10.4038C4.48959 10.4038 4.48949 10.4038 4.4894 10.4038C4.48931 10.4038 4.48921 10.4038 4.48912 10.4038C4.48903 10.4038 4.48894 10.4038 4.48884 10.4038C4.48875 10.4038 4.48866 10.4038 4.48856 10.4038C4.48847 10.4038 4.48838 10.4038 4.48828 10.4038C4.48819 10.4038 4.4881 10.4038 4.48801 10.4038C4.48791 10.4038 4.48782 10.4038 4.48773 10.4038C4.48763 10.4038 4.48754 10.4038 4.48745 10.4038C4.48735 10.4038 4.48726 10.4038 4.48717 10.4038C4.48708 10.4038 4.48698 10.4038 4.48689 10.4038C4.4868 10.4038 4.4867 10.4038 4.48661 10.4038C4.48652 10.4038 4.48642 10.4038 4.48633 10.4038C4.48624 10.4038 4.48615 10.4038 4.48605 10.4038C4.48596 10.4038 4.48587 10.4038 4.48577 10.4038C4.48568 10.4038 4.48559 10.4038 4.48549 10.4038C4.4854 10.4038 4.48531 10.4038 4.48522 10.4038C4.48512 10.4038 4.48503 10.4038 4.48494 10.4038C4.48484 10.4038 4.48475 10.4038 4.48466 10.4038C4.48456 10.4038 4.48447 10.4038 4.48438 10.4038C4.48429 10.4038 4.48419 10.4038 4.4841 10.4038C4.48401 10.4038 4.48391 10.4038 4.48382 10.4038C4.48373 10.4038 4.48363 10.4038 4.48354 10.4038C4.48345 10.4038 4.48336 10.4038 4.48326 10.4038C4.48317 10.4038 4.48308 10.4038 4.48298 10.4038C4.48289 10.4038 4.4828 10.4038 4.4827 10.4038C4.48261 10.4038 4.48252 10.4038 4.48243 10.4038C4.48233 10.4038 4.48224 10.4038 4.48215 10.4038C4.48205 10.4038 4.48196 10.4038 4.48187 10.4038C4.48177 10.4038 4.48168 10.4038 4.48159 10.4038C4.4815 10.4038 4.4814 10.4038 4.48131 10.4038C4.48122 10.4038 4.48112 10.4038 4.48103 10.4038C4.48094 10.4038 4.48084 10.4038 4.48075 10.4038C4.48066 10.4038 4.48057 10.4038 4.48047 10.4038C4.48038 10.4038 4.48029 10.4038 4.48019 10.4038C4.4801 10.4038 4.48001 10.4038 4.47991 10.4038C4.47982 10.4038 4.47973 10.4038 4.47964 10.4038C4.47954 10.4038 4.47945 10.4038 4.47936 10.4038C4.47926 10.4038 4.47917 10.4038 4.47908 10.4038C4.47898 10.4038 4.47889 10.4038 4.4788 10.4038C4.4787 10.4038 4.47861 10.4038 4.47852 10.4038C4.47843 10.4038 4.47833 10.4038 4.47824 10.4038C4.47815 10.4038 4.47805 10.4038 4.47796 10.4038C4.47787 10.4038 4.47777 10.4038 4.47768 10.4038C4.47759 10.4038 4.4775 10.4038 4.4774 10.4038C4.47731 10.4038 4.47722 10.4038 4.47712 10.4038C4.47703 10.4038 4.47694 10.4038 4.47684 10.4038C4.47675 10.4038 4.47666 10.4038 4.47657 10.4038C4.47647 10.4038 4.47638 10.4038 4.47629 10.4038C4.47619 10.4038 4.4761 10.4038 4.47601 10.4038C4.47591 10.4038 4.47582 10.4038 4.47573 10.4038C4.47564 10.4038 4.47554 10.4038 4.47545 10.4038C4.47536 10.4038 4.47526 10.4038 4.47517 10.4038C4.47508 10.4038 4.47498 10.4038 4.47489 10.4038C4.4748 10.4038 4.47471 10.4038 4.47461 10.4038C4.47452 10.4038 4.47443 10.4038 4.47433 10.4038C4.47424 10.4038 4.47415 10.4038 4.47405 10.4038C4.47396 10.4038 4.47387 10.4038 4.47378 10.4038C4.47368 10.4038 4.47359 10.4038 4.4735 10.4038C4.4734 10.4038 4.47331 10.4038 4.47322 10.4038C4.47312 10.4038 4.47303 10.4038 4.47294 10.4038C4.47285 10.4038 4.47275 10.4038 4.47266 10.4038C4.47257 10.4038 4.47247 10.4038 4.47238 10.4038C4.47229 10.4038 4.47219 10.4038 4.4721 10.4038C4.47201 10.4038 4.47192 10.4038 4.47182 10.4038C4.47173 10.4038 4.47164 10.4038 4.47154 10.4038C4.47145 10.4038 4.47136 10.4038 4.47126 10.4038C4.47117 10.4038 4.47108 10.4038 4.47098 10.4038C4.47089 10.4038 4.4708 10.4038 4.47071 10.4038C4.47061 10.4038 4.47052 10.4038 4.47043 10.4038C4.47033 10.4038 4.47024 10.4038 4.47015 10.4038C4.47005 10.4038 4.46996 10.4038 4.46987 10.4038C4.46978 10.4038 4.46968 10.4038 4.46959 10.4038C4.4695 10.4038 4.4694 10.4038 4.46931 10.4038C4.46922 10.4038 4.46912 10.4038 4.46903 10.4038C4.46894 10.4038 4.46885 10.4038 4.46875 10.4038C4.46866 10.4038 4.46857 10.4038 4.46847 10.4038C4.46838 10.4038 4.46829 10.4038 4.46819 10.4038C4.4681 10.4038 4.46801 10.4038 4.46792 10.4038C4.46782 10.4038 4.46773 10.4038 4.46764 10.4038C4.46754 10.4038 4.46745 10.4038 4.46736 10.4038C4.46726 10.4038 4.46717 10.4038 4.46708 10.4038C4.46699 10.4038 4.46689 10.4038 4.4668 10.4038C4.46671 10.4038 4.46661 10.4038 4.46652 10.4038C4.46643 10.4038 4.46633 10.4038 4.46624 10.4038C4.46615 10.4038 4.46606 10.4038 4.46596 10.4038C4.46587 10.4038 4.46578 10.4038 4.46568 10.4038C4.46559 10.4038 4.4655 10.4038 4.4654 10.4038C4.46531 10.4038 4.46522 10.4038 4.46513 10.4038C4.46503 10.4038 4.46494 10.4038 4.46485 10.4038C4.46475 10.4038 4.46466 10.4038 4.46457 10.4038C4.46447 10.4038 4.46438 10.4038 4.46429 10.4038C4.4642 10.4038 4.4641 10.4038 4.46401 10.4038C4.46392 10.4038 4.46382 10.4038 4.46373 10.4038C4.46364 10.4038 4.46354 10.4038 4.46345 10.4038C4.46336 10.4038 4.46326 10.4038 4.46317 10.4038C4.46308 10.4038 4.46299 10.4038 4.46289 10.4038C4.4628 10.4038 4.46271 10.4038 4.46261 10.4038C4.46252 10.4038 4.46243 10.4038 4.46233 10.4038C4.46224 10.4038 4.46215 10.4038 4.46206 10.4038C4.46196 10.4038 4.46187 10.4038 4.46178 10.4038C4.46168 10.4038 4.46159 10.4038 4.4615 10.4038C4.4614 10.4038 4.46131 10.4038 4.46122 10.4038C4.46113 10.4038 4.46103 10.4038 4.46094 10.4038C4.46085 10.4038 4.46075 10.4038 4.46066 10.4038C4.46057 10.4038 4.46047 10.4038 4.46038 10.4038C4.46029 10.4038 4.4602 10.4038 4.4601 10.4038C4.46001 10.4038 4.45992 10.4038 4.45982 10.4038C4.45973 10.4038 4.45964 10.4038 4.45954 10.4038C4.45945 10.4038 4.45936 10.4038 4.45927 10.4038C4.45917 10.4038 4.45908 10.4038 4.45899 10.4038C4.45889 10.4038 4.4588 10.4038 4.45871 10.4038C4.45861 10.4038 4.45852 10.4038 4.45843 10.4038C4.45834 10.4038 4.45824 10.4038 4.45815 10.4038C4.45806 10.4038 4.45796 10.4038 4.45787 10.4038C4.45778 10.4038 4.45768 10.4038 4.45759 10.4038C4.4575 10.4038 4.45741 10.4038 4.45731 10.4038C4.45722 10.4038 4.45713 10.4038 4.45703 10.4038C4.45694 10.4038 4.45685 10.4038 4.45675 10.4038C4.45666 10.4038 4.45657 10.4038 4.45648 10.4038C4.45638 10.4038 4.45629 10.4038 4.4562 10.4038C4.4561 10.4038 4.45601 10.4038 4.45592 10.4038C4.45582 10.4038 4.45573 10.4038 4.45564 10.4038C4.45554 10.4038 4.45545 10.4038 4.45536 10.4038C4.45527 10.4038 4.45517 10.4038 4.45508 10.4038C4.45499 10.4038 4.45489 10.4038 4.4548 10.4038C4.45471 10.4038 4.45461 10.4038 4.45452 10.4038C4.45443 10.4038 4.45434 10.4038 4.45424 10.4038C4.45415 10.4038 4.45406 10.4038 4.45396 10.4038C4.45387 10.4038 4.45378 10.4038 4.45368 10.4038C4.45359 10.4038 4.4535 10.4038 4.45341 10.4038C4.45331 10.4038 4.45322 10.4038 4.45313 10.4038C4.45303 10.4038 4.45294 10.4038 4.45285 10.4038C4.45275 10.4038 4.45266 10.4038 4.45257 10.4038C4.45248 10.4038 4.45238 10.4038 4.45229 10.4038C4.4522 10.4038 4.4521 10.4038 4.45201 10.4038C4.45192 10.4038 4.45182 10.4038 4.45173 10.4038C4.45164 10.4038 4.45155 10.4038 4.45145 10.4038C4.45136 10.4038 4.45127 10.4038 4.45117 10.4038C4.45108 10.4038 4.45099 10.4038 4.45089 10.4038C4.4508 10.4038 4.45071 10.4038 4.45062 10.4038C4.45052 10.4038 4.45043 10.4038 4.45034 10.4038C4.45024 10.4038 4.45015 10.4038 4.45006 10.4038C4.44996 10.4038 4.44987 10.4038 4.44978 10.4038C4.44969 10.4038 4.44959 10.4038 4.4495 10.4038C4.44941 10.4038 4.44931 10.4038 4.44922 10.4038C4.44913 10.4038 4.44903 10.4038 4.44894 10.4038C4.44885 10.4038 4.44875 10.4038 4.44866 10.4038C4.44857 10.4038 4.44848 10.4038 4.44838 10.4038C4.44829 10.4038 4.4482 10.4038 4.4481 10.4038C4.44801 10.4038 4.44792 10.4038 4.44782 10.4038C4.44773 10.4038 4.44764 10.4038 4.44755 10.4038C4.44745 10.4038 4.44736 10.4038 4.44727 10.4038C4.44717 10.4038 4.44708 10.4038 4.44699 10.4038C4.44689 10.4038 4.4468 10.4038 4.44671 10.4038C4.44662 10.4038 4.44652 10.4038 4.44643 10.4038C4.44634 10.4038 4.44624 10.4038 4.44615 10.4038C4.44606 10.4038 4.44596 10.4038 4.44587 10.4038C4.44578 10.4038 4.44569 10.4038 4.44559 10.4038C4.4455 10.4038 4.44541 10.4038 4.44531 10.4038C4.44522 10.4038 4.44513 10.4038 4.44503 10.4038C4.44494 10.4038 4.44485 10.4038 4.44476 10.4038C4.44466 10.4038 4.44457 10.4038 4.44448 10.4038C4.44438 10.4038 4.44429 10.4038 4.4442 10.4038C4.4441 10.4038 4.44401 10.4038 4.44392 10.4038C4.44383 10.4038 4.44373 10.4038 4.44364 10.4038C4.44355 10.4038 4.44345 10.4038 4.44336 10.4038C4.44327 10.4038 4.44317 10.4038 4.44308 10.4038C4.44299 10.4038 4.44289 10.4038 4.4428 10.4038C4.44271 10.4038 4.44262 10.4038 4.44252 10.4038C4.44243 10.4038 4.44234 10.4038 4.44224 10.4038C4.44215 10.4038 4.44206 10.4038 4.44196 10.4038C4.44187 10.4038 4.44178 10.4038 4.44169 10.4038C4.44159 10.4038 4.4415 10.4038 4.44141 10.4038C4.44131 10.4038 4.44122 10.4038 4.44113 10.4038C4.44103 10.4038 4.44094 10.4038 4.44085 10.4038C4.44076 10.4038 4.44066 10.4038 4.44057 10.4038C4.44048 10.4038 4.44038 10.4038 4.44029 10.4038C4.4402 10.4038 4.4401 10.4038 4.44001 10.4038C4.43992 10.4038 4.43983 10.4038 4.43973 10.4038C4.43964 10.4038 4.43955 10.4038 4.43945 10.4038C4.43936 10.4038 4.43927 10.4038 4.43917 10.4038C4.43908 10.4038 4.43899 10.4038 4.4389 10.4038C4.4388 10.4038 4.43871 10.4038 4.43862 10.4038C4.43852 10.4038 4.43843 10.4038 4.43834 10.4038C4.43824 10.4038 4.43815 10.4038 4.43806 10.4038C4.43797 10.4038 4.43787 10.4038 4.43778 10.4038C4.43769 10.4038 4.43759 10.4038 4.4375 10.4038C4.43741 10.4038 4.43731 10.4038 4.43722 10.4038C4.43713 10.4038 4.43704 10.4038 4.43694 10.4038C4.43685 10.4038 4.43676 10.4038 4.43666 10.4038C4.43657 10.4038 4.43648 10.4038 4.43638 10.4038C4.43629 10.4038 4.4362 10.4038 4.43611 10.4038C4.43601 10.4038 4.43592 10.4038 4.43583 10.4038C4.43573 10.4038 4.43564 10.4038 4.43555 10.4038C4.43545 10.4038 4.43536 10.4038 4.43527 10.4038C4.43517 10.4038 4.43508 10.4038 4.43499 10.4038C4.4349 10.4038 4.4348 10.4038 4.43471 10.4038C4.43462 10.4038 4.43452 10.4038 4.43443 10.4038C4.43434 10.4038 4.43424 10.4038 4.43415 10.4038C4.43406 10.4038 4.43397 10.4038 4.43387 10.4038C4.43378 10.4038 4.43369 10.4038 4.43359 10.4038C4.4335 10.4038 4.43341 10.4038 4.43331 10.4038C4.43322 10.4038 4.43313 10.4038 4.43304 10.4038C4.43294 10.4038 4.43285 10.4038 4.43276 10.4038C4.43266 10.4038 4.43257 10.4038 4.43248 10.4038C4.43238 10.4038 4.43229 10.4038 4.4322 10.4038C4.43211 10.4038 4.43201 10.4038 4.43192 10.4038C4.43183 10.4038 4.43173 10.4038 4.43164 10.4038C4.43155 10.4038 4.43145 10.4038 4.43136 10.4038C4.43127 10.4038 4.43118 10.4038 4.43108 10.4038C4.43099 10.4038 4.4309 10.4038 4.4308 10.4038C4.43071 10.4038 4.43062 10.4038 4.43052 10.4038C4.43043 10.4038 4.43034 10.4038 4.43025 10.4038C4.43015 10.4038 4.43006 10.4038 4.42997 10.4038C4.42987 10.4038 4.42978 10.4038 4.42969 10.4038C4.42959 10.4038 4.4295 10.4038 4.42941 10.4038C4.42932 10.4038 4.42922 10.4038 4.42913 10.4038C4.42904 10.4038 4.42894 10.4038 4.42885 10.4038C4.42876 10.4038 4.42866 10.4038 4.42857 10.4038C4.42848 10.4038 4.42839 10.4038 4.42829 10.4038C4.4282 10.4038 4.42811 10.4038 4.42801 10.4038C4.42792 10.4038 4.42783 10.4038 4.42773 10.4038C4.42764 10.4038 4.42755 10.4038 4.42745 10.4038C4.42736 10.4038 4.42727 10.4038 4.42718 10.4038C4.42708 10.4038 4.42699 10.4038 4.4269 10.4038C4.4268 10.4038 4.42671 10.4038 4.42662 10.4038C4.42652 10.4038 4.42643 10.4038 4.42634 10.4038C4.42625 10.4038 4.42615 10.4038 4.42606 10.4038C4.42597 10.4038 4.42587 10.4038 4.42578 10.4038C4.42569 10.4038 4.42559 10.4038 4.4255 10.4038C4.42541 10.4038 4.42532 10.4038 4.42522 10.4038C4.42513 10.4038 4.42504 10.4038 4.42494 10.4038C4.42485 10.4038 4.42476 10.4038 4.42466 10.4038C4.42457 10.4038 4.42448 10.4038 4.42439 10.4038C4.42429 10.4038 4.4242 10.4038 4.42411 10.4038C4.42401 10.4038 4.42392 10.4038 4.42383 10.4038C4.42373 10.4038 4.42364 10.4038 4.42355 10.4038C4.42346 10.4038 4.42336 10.4038 4.42327 10.4038C4.42318 10.4038 4.42308 10.4038 4.42299 10.4038C4.4229 10.4038 4.4228 10.4038 4.42271 10.4038C4.42262 10.4038 4.42253 10.4038 4.42243 10.4038C4.42234 10.4038 4.42225 10.4038 4.42215 10.4038C4.42206 10.4038 4.42197 10.4038 4.42187 10.4038C4.42178 10.4038 4.42169 10.4038 4.4216 10.4038C4.4215 10.4038 4.42141 10.4038 4.42132 10.4038C4.42122 10.4038 4.42113 10.4038 4.42104 10.4038C4.42094 10.4038 4.42085 10.4038 4.42076 10.4038C4.42067 10.4038 4.42057 10.4038 4.42048 10.4038C4.42039 10.4038 4.42029 10.4038 4.4202 10.4038C4.42011 10.4038 4.42001 10.4038 4.41992 10.4038C4.41983 10.4038 4.41973 10.4038 4.41964 10.4038C4.41955 10.4038 4.41946 10.4038 4.41936 10.4038C4.41927 10.4038 4.41918 10.4038 4.41908 10.4038C4.41899 10.4038 4.4189 10.4038 4.4188 10.4038C4.41871 10.4038 4.41862 10.4038 4.41853 10.4038C4.41843 10.4038 4.41834 10.4038 4.41825 10.4038C4.41815 10.4038 4.41806 10.4038 4.41797 10.4038C4.41787 10.4038 4.41778 10.4038 4.41769 10.4038C4.4176 10.4038 4.4175 10.4038 4.41741 10.4038C4.41732 10.4038 4.41722 10.4038 4.41713 10.4038C4.41704 10.4038 4.41694 10.4038 4.41685 10.4038C4.41676 10.4038 4.41667 10.4038 4.41657 10.4038C4.41648 10.4038 4.41639 10.4038 4.41629 10.4038C4.4162 10.4038 4.41611 10.4038 4.41601 10.4038C4.41592 10.4038 4.41583 10.4038 4.41574 10.4038C4.41564 10.4038 4.41555 10.4038 4.41546 10.4038C4.41536 10.4038 4.41527 10.4038 4.41518 10.4038C4.41508 10.4038 4.41499 10.4038 4.4149 10.4038C4.41481 10.4038 4.41471 10.4038 4.41462 10.4038C4.41453 10.4038 4.41443 10.4038 4.41434 10.4038C4.41425 10.4038 4.41415 10.4038 4.41406 10.4038C4.41397 10.4038 4.41388 10.4038 4.41378 10.4038C4.41369 10.4038 4.4136 10.4038 4.4135 10.4038C4.41341 10.4038 4.41332 10.4038 4.41322 10.4038C4.41313 10.4038 4.41304 10.4038 4.41295 10.4038C4.41285 10.4038 4.41276 10.4038 4.41267 10.4038C4.41257 10.4038 4.41248 10.4038 4.41239 10.4038C4.41229 10.4038 4.4122 10.4038 4.41211 10.4038C4.41202 10.4038 4.41192 10.4038 4.41183 10.4038C4.41174 10.4038 4.41164 10.4038 4.41155 10.4038C4.41146 10.4038 4.41136 10.4038 4.41127 10.4038C4.41118 10.4038 4.41109 10.4038 4.41099 10.4038C4.4109 10.4038 4.41081 10.4038 4.41071 10.4038C4.41062 10.4038 4.41053 10.4038 4.41043 10.4038C4.41034 10.4038 4.41025 10.4038 4.41016 10.4038C4.41006 10.4038 4.40997 10.4038 4.40988 10.4038C4.40978 10.4038 4.40969 10.4038 4.4096 10.4038C4.4095 10.4038 4.40941 10.4038 4.40932 10.4038C4.40922 10.4038 4.40913 10.4038 4.40904 10.4038C4.40895 10.4038 4.40885 10.4038 4.40876 10.4038C4.40867 10.4038 4.40857 10.4038 4.40848 10.4038C4.40839 10.4038 4.40829 10.4038 4.4082 10.4038C4.40811 10.4038 4.40802 10.4038 4.40792 10.4038C4.40783 10.4038 4.40774 10.4038 4.40764 10.4038C4.40755 10.4038 4.40746 10.4038 4.40736 10.4038C4.40727 10.4038 4.40718 10.4038 4.40709 10.4038C4.40699 10.4038 4.4069 10.4038 4.40681 10.4038C4.40671 10.4038 4.40662 10.4038 4.40653 10.4038C4.40643 10.4038 4.40634 10.4038 4.40625 10.4038C4.40616 10.4038 4.40606 10.4038 4.40597 10.4038C4.40588 10.4038 4.40578 10.4038 4.40569 10.4038C4.4056 10.4038 4.4055 10.4038 4.40541 10.4038C4.40532 10.4038 4.40523 10.4038 4.40513 10.4038C4.40504 10.4038 4.40495 10.4038 4.40485 10.4038C4.40476 10.4038 4.40467 10.4038 4.40457 10.4038C4.40448 10.4038 4.40439 10.4038 4.4043 10.4038C4.4042 10.4038 4.40411 10.4038 4.40402 10.4038C4.40392 10.4038 4.40383 10.4038 4.40374 10.4038C4.40364 10.4038 4.40355 10.4038 4.40346 10.4038C4.40337 10.4038 4.40327 10.4038 4.40318 10.4038C4.40309 10.4038 4.40299 10.4038 4.4029 10.4038C4.40281 10.4038 4.40271 10.4038 4.40262 10.4038C4.40253 10.4038 4.40244 10.4038 4.40234 10.4038C4.40225 10.4038 4.40216 10.4038 4.40206 10.4038C4.40197 10.4038 4.40188 10.4038 4.40178 10.4038C4.40169 10.4038 4.4016 10.4038 4.40151 10.4038C4.40141 10.4038 4.40132 10.4038 4.40123 10.4038C4.40113 10.4038 4.40104 10.4038 4.40095 10.4038C4.40085 10.4038 4.40076 10.4038 4.40067 10.4038C4.40058 10.4038 4.40048 10.4038 4.40039 10.4038C4.4003 10.4038 4.4002 10.4038 4.40011 10.4038C4.40002 10.4038 4.39992 10.4038 4.39983 10.4038C4.39974 10.4038 4.39965 10.4038 4.39955 10.4038C4.39946 10.4038 4.39937 10.4038 4.39927 10.4038C4.39918 10.4038 4.39909 10.4038 4.39899 10.4038C4.3989 10.4038 4.39881 10.4038 4.39872 10.4038C4.39862 10.4038 4.39853 10.4038 4.39844 10.4038C4.39834 10.4038 4.39825 10.4038 4.39816 10.4038C4.39806 10.4038 4.39797 10.4038 4.39788 10.4038C4.39779 10.4038 4.39769 10.4038 4.3976 10.4038C4.39751 10.4038 4.39741 10.4038 4.39732 10.4038C4.39723 10.4038 4.39713 10.4038 4.39704 10.4038C4.39695 10.4038 4.39686 10.4038 4.39676 10.4038C4.39667 10.4038 4.39658 10.4038 4.39648 10.4038C4.39639 10.4038 4.3963 10.4038 4.3962 10.4038C4.39611 10.4038 4.39602 10.4038 4.39593 10.4038C4.39583 10.4038 4.39574 10.4038 4.39565 10.4038C4.39555 10.4038 4.39546 10.4038 4.39537 10.4038C4.39527 10.4038 4.39518 10.4038 4.39509 10.4038C4.395 10.4038 4.3949 10.4038 4.39481 10.4038C4.39472 10.4038 4.39462 10.4038 4.39453 10.4038C4.39444 10.4038 4.39434 10.4038 4.39425 10.4038C4.39416 10.4038 4.39407 10.4038 4.39397 10.4038C4.39388 10.4038 4.39379 10.4038 4.39369 10.4038C4.3936 10.4038 4.39351 10.4038 4.39341 10.4038C4.39332 10.4038 4.39323 10.4038 4.39314 10.4038C4.39304 10.4038 4.39295 10.4038 4.39286 10.4038C4.39276 10.4038 4.39267 10.4038 4.39258 10.4038C4.39248 10.4038 4.39239 10.4038 4.3923 10.4038C4.39221 10.4038 4.39211 10.4038 4.39202 10.4038C4.39193 10.4038 4.39183 10.4038 4.39174 10.4038C4.39165 10.4038 4.39155 10.4038 4.39146 10.4038C4.39137 10.4038 4.39128 10.4038 4.39118 10.4038C4.39109 10.4038 4.391 10.4038 4.3909 10.4038C4.39081 10.4038 4.39072 10.4038 4.39062 10.4038C4.39053 10.4038 4.39044 10.4038 4.39035 10.4038C4.39025 10.4038 4.39016 10.4038 4.39007 10.4038C4.38997 10.4038 4.38988 10.4038 4.38979 10.4038C4.38969 10.4038 4.3896 10.4038 4.38951 10.4038C4.38942 10.4038 4.38932 10.4038 4.38923 10.4038C4.38914 10.4038 4.38904 10.4038 4.38895 10.4038C4.38886 10.4038 4.38876 10.4038 4.38867 10.4038C4.38858 10.4038 4.38849 10.4038 4.38839 10.4038C4.3883 10.4038 4.38821 10.4038 4.38811 10.4038C4.38802 10.4038 4.38793 10.4038 4.38783 10.4038C4.38774 10.4038 4.38765 10.4038 4.38756 10.4038C4.38746 10.4038 4.38737 10.4038 4.38728 10.4038C4.38718 10.4038 4.38709 10.4038 4.387 10.4038C4.3869 10.4038 4.38681 10.4038 4.38672 10.4038C4.38663 10.4038 4.38653 10.4038 4.38644 10.4038C4.38635 10.4038 4.38625 10.4038 4.38616 10.4038C4.38607 10.4038 4.38597 10.4038 4.38588 10.4038C4.38579 10.4038 4.3857 10.4038 4.3856 10.4038C4.38551 10.4038 4.38542 10.4038 4.38532 10.4038C4.38523 10.4038 4.38514 10.4038 4.38504 10.4038C4.38495 10.4038 4.38486 10.4038 4.38477 10.4038V11.9038ZM16.8573 11.9038C16.8574 11.9038 16.8575 11.9038 16.8576 11.9038C16.8577 11.9038 16.8578 11.9038 16.8579 11.9038C16.8579 11.9038 16.858 11.9038 16.8581 11.9038C16.8582 11.9038 16.8583 11.9038 16.8584 11.9038C16.8585 11.9038 16.8586 11.9038 16.8587 11.9038C16.8588 11.9038 16.8589 11.9038 16.859 11.9038C16.8591 11.9038 16.8592 11.9038 16.8592 11.9038C16.8593 11.9038 16.8594 11.9038 16.8595 11.9038C16.8596 11.9038 16.8597 11.9038 16.8598 11.9038C16.8599 11.9038 16.86 11.9038 16.8601 11.9038C16.8602 11.9038 16.8603 11.9038 16.8604 11.9038C16.8605 11.9038 16.8605 11.9038 16.8606 11.9038C16.8607 11.9038 16.8608 11.9038 16.8609 11.9038C16.861 11.9038 16.8611 11.9038 16.8612 11.9038C16.8613 11.9038 16.8614 11.9038 16.8615 11.9038C16.8616 11.9038 16.8617 11.9038 16.8618 11.9038C16.8618 11.9038 16.8619 11.9038 16.862 11.9038C16.8621 11.9038 16.8622 11.9038 16.8623 11.9038C16.8624 11.9038 16.8625 11.9038 16.8626 11.9038C16.8627 11.9038 16.8628 11.9038 16.8629 11.9038C16.863 11.9038 16.8631 11.9038 16.8632 11.9038C16.8632 11.9038 16.8633 11.9038 16.8634 11.9038C16.8635 11.9038 16.8636 11.9038 16.8637 11.9038C16.8638 11.9038 16.8639 11.9038 16.864 11.9038C16.8641 11.9038 16.8642 11.9038 16.8643 11.9038C16.8644 11.9038 16.8645 11.9038 16.8645 11.9038C16.8646 11.9038 16.8647 11.9038 16.8648 11.9038C16.8649 11.9038 16.865 11.9038 16.8651 11.9038C16.8652 11.9038 16.8653 11.9038 16.8654 11.9038C16.8655 11.9038 16.8656 11.9038 16.8657 11.9038C16.8658 11.9038 16.8658 11.9038 16.8659 11.9038C16.866 11.9038 16.8661 11.9038 16.8662 11.9038C16.8663 11.9038 16.8664 11.9038 16.8665 11.9038C16.8666 11.9038 16.8667 11.9038 16.8668 11.9038C16.8669 11.9038 16.867 11.9038 16.8671 11.9038C16.8671 11.9038 16.8672 11.9038 16.8673 11.9038C16.8674 11.9038 16.8675 11.9038 16.8676 11.9038C16.8677 11.9038 16.8678 11.9038 16.8679 11.9038C16.868 11.9038 16.8681 11.9038 16.8682 11.9038C16.8683 11.9038 16.8684 11.9038 16.8685 11.9038C16.8685 11.9038 16.8686 11.9038 16.8687 11.9038C16.8688 11.9038 16.8689 11.9038 16.869 11.9038C16.8691 11.9038 16.8692 11.9038 16.8693 11.9038C16.8694 11.9038 16.8695 11.9038 16.8696 11.9038C16.8697 11.9038 16.8698 11.9038 16.8698 11.9038C16.8699 11.9038 16.87 11.9038 16.8701 11.9038C16.8702 11.9038 16.8703 11.9038 16.8704 11.9038C16.8705 11.9038 16.8706 11.9038 16.8707 11.9038C16.8708 11.9038 16.8709 11.9038 16.871 11.9038C16.8711 11.9038 16.8711 11.9038 16.8712 11.9038C16.8713 11.9038 16.8714 11.9038 16.8715 11.9038C16.8716 11.9038 16.8717 11.9038 16.8718 11.9038C16.8719 11.9038 16.872 11.9038 16.8721 11.9038C16.8722 11.9038 16.8723 11.9038 16.8724 11.9038C16.8724 11.9038 16.8725 11.9038 16.8726 11.9038C16.8727 11.9038 16.8728 11.9038 16.8729 11.9038C16.873 11.9038 16.8731 11.9038 16.8732 11.9038C16.8733 11.9038 16.8734 11.9038 16.8735 11.9038C16.8736 11.9038 16.8737 11.9038 16.8738 11.9038C16.8738 11.9038 16.8739 11.9038 16.874 11.9038C16.8741 11.9038 16.8742 11.9038 16.8743 11.9038C16.8744 11.9038 16.8745 11.9038 16.8746 11.9038C16.8747 11.9038 16.8748 11.9038 16.8749 11.9038C16.875 11.9038 16.8751 11.9038 16.8751 11.9038C16.8752 11.9038 16.8753 11.9038 16.8754 11.9038C16.8755 11.9038 16.8756 11.9038 16.8757 11.9038C16.8758 11.9038 16.8759 11.9038 16.876 11.9038C16.8761 11.9038 16.8762 11.9038 16.8763 11.9038C16.8764 11.9038 16.8764 11.9038 16.8765 11.9038C16.8766 11.9038 16.8767 11.9038 16.8768 11.9038C16.8769 11.9038 16.877 11.9038 16.8771 11.9038C16.8772 11.9038 16.8773 11.9038 16.8774 11.9038C16.8775 11.9038 16.8776 11.9038 16.8777 11.9038C16.8778 11.9038 16.8778 11.9038 16.8779 11.9038C16.878 11.9038 16.8781 11.9038 16.8782 11.9038C16.8783 11.9038 16.8784 11.9038 16.8785 11.9038C16.8786 11.9038 16.8787 11.9038 16.8788 11.9038C16.8789 11.9038 16.879 11.9038 16.8791 11.9038C16.8791 11.9038 16.8792 11.9038 16.8793 11.9038C16.8794 11.9038 16.8795 11.9038 16.8796 11.9038C16.8797 11.9038 16.8798 11.9038 16.8799 11.9038C16.88 11.9038 16.8801 11.9038 16.8802 11.9038C16.8803 11.9038 16.8804 11.9038 16.8804 11.9038C16.8805 11.9038 16.8806 11.9038 16.8807 11.9038C16.8808 11.9038 16.8809 11.9038 16.881 11.9038C16.8811 11.9038 16.8812 11.9038 16.8813 11.9038C16.8814 11.9038 16.8815 11.9038 16.8816 11.9038C16.8817 11.9038 16.8818 11.9038 16.8818 11.9038C16.8819 11.9038 16.882 11.9038 16.8821 11.9038C16.8822 11.9038 16.8823 11.9038 16.8824 11.9038C16.8825 11.9038 16.8826 11.9038 16.8827 11.9038C16.8828 11.9038 16.8829 11.9038 16.883 11.9038C16.8831 11.9038 16.8831 11.9038 16.8832 11.9038C16.8833 11.9038 16.8834 11.9038 16.8835 11.9038C16.8836 11.9038 16.8837 11.9038 16.8838 11.9038C16.8839 11.9038 16.884 11.9038 16.8841 11.9038C16.8842 11.9038 16.8843 11.9038 16.8844 11.9038C16.8844 11.9038 16.8845 11.9038 16.8846 11.9038C16.8847 11.9038 16.8848 11.9038 16.8849 11.9038C16.885 11.9038 16.8851 11.9038 16.8852 11.9038C16.8853 11.9038 16.8854 11.9038 16.8855 11.9038C16.8856 11.9038 16.8857 11.9038 16.8857 11.9038C16.8858 11.9038 16.8859 11.9038 16.886 11.9038C16.8861 11.9038 16.8862 11.9038 16.8863 11.9038C16.8864 11.9038 16.8865 11.9038 16.8866 11.9038C16.8867 11.9038 16.8868 11.9038 16.8869 11.9038C16.887 11.9038 16.8871 11.9038 16.8871 11.9038C16.8872 11.9038 16.8873 11.9038 16.8874 11.9038C16.8875 11.9038 16.8876 11.9038 16.8877 11.9038C16.8878 11.9038 16.8879 11.9038 16.888 11.9038C16.8881 11.9038 16.8882 11.9038 16.8883 11.9038C16.8884 11.9038 16.8884 11.9038 16.8885 11.9038C16.8886 11.9038 16.8887 11.9038 16.8888 11.9038C16.8889 11.9038 16.889 11.9038 16.8891 11.9038C16.8892 11.9038 16.8893 11.9038 16.8894 11.9038C16.8895 11.9038 16.8896 11.9038 16.8897 11.9038C16.8897 11.9038 16.8898 11.9038 16.8899 11.9038C16.89 11.9038 16.8901 11.9038 16.8902 11.9038C16.8903 11.9038 16.8904 11.9038 16.8905 11.9038C16.8906 11.9038 16.8907 11.9038 16.8908 11.9038C16.8909 11.9038 16.891 11.9038 16.8911 11.9038C16.8911 11.9038 16.8912 11.9038 16.8913 11.9038C16.8914 11.9038 16.8915 11.9038 16.8916 11.9038C16.8917 11.9038 16.8918 11.9038 16.8919 11.9038C16.892 11.9038 16.8921 11.9038 16.8922 11.9038C16.8923 11.9038 16.8924 11.9038 16.8924 11.9038C16.8925 11.9038 16.8926 11.9038 16.8927 11.9038C16.8928 11.9038 16.8929 11.9038 16.893 11.9038C16.8931 11.9038 16.8932 11.9038 16.8933 11.9038C16.8934 11.9038 16.8935 11.9038 16.8936 11.9038C16.8937 11.9038 16.8937 11.9038 16.8938 11.9038C16.8939 11.9038 16.894 11.9038 16.8941 11.9038C16.8942 11.9038 16.8943 11.9038 16.8944 11.9038C16.8945 11.9038 16.8946 11.9038 16.8947 11.9038C16.8948 11.9038 16.8949 11.9038 16.895 11.9038C16.8951 11.9038 16.8951 11.9038 16.8952 11.9038C16.8953 11.9038 16.8954 11.9038 16.8955 11.9038C16.8956 11.9038 16.8957 11.9038 16.8958 11.9038C16.8959 11.9038 16.896 11.9038 16.8961 11.9038C16.8962 11.9038 16.8963 11.9038 16.8964 11.9038C16.8964 11.9038 16.8965 11.9038 16.8966 11.9038C16.8967 11.9038 16.8968 11.9038 16.8969 11.9038C16.897 11.9038 16.8971 11.9038 16.8972 11.9038C16.8973 11.9038 16.8974 11.9038 16.8975 11.9038C16.8976 11.9038 16.8977 11.9038 16.8977 11.9038C16.8978 11.9038 16.8979 11.9038 16.898 11.9038C16.8981 11.9038 16.8982 11.9038 16.8983 11.9038C16.8984 11.9038 16.8985 11.9038 16.8986 11.9038C16.8987 11.9038 16.8988 11.9038 16.8989 11.9038C16.899 11.9038 16.899 11.9038 16.8991 11.9038C16.8992 11.9038 16.8993 11.9038 16.8994 11.9038C16.8995 11.9038 16.8996 11.9038 16.8997 11.9038C16.8998 11.9038 16.8999 11.9038 16.9 11.9038C16.9001 11.9038 16.9002 11.9038 16.9003 11.9038C16.9004 11.9038 16.9004 11.9038 16.9005 11.9038C16.9006 11.9038 16.9007 11.9038 16.9008 11.9038C16.9009 11.9038 16.901 11.9038 16.9011 11.9038C16.9012 11.9038 16.9013 11.9038 16.9014 11.9038C16.9015 11.9038 16.9016 11.9038 16.9017 11.9038C16.9017 11.9038 16.9018 11.9038 16.9019 11.9038C16.902 11.9038 16.9021 11.9038 16.9022 11.9038C16.9023 11.9038 16.9024 11.9038 16.9025 11.9038C16.9026 11.9038 16.9027 11.9038 16.9028 11.9038C16.9029 11.9038 16.903 11.9038 16.903 11.9038C16.9031 11.9038 16.9032 11.9038 16.9033 11.9038C16.9034 11.9038 16.9035 11.9038 16.9036 11.9038C16.9037 11.9038 16.9038 11.9038 16.9039 11.9038C16.904 11.9038 16.9041 11.9038 16.9042 11.9038C16.9043 11.9038 16.9044 11.9038 16.9044 11.9038C16.9045 11.9038 16.9046 11.9038 16.9047 11.9038C16.9048 11.9038 16.9049 11.9038 16.905 11.9038C16.9051 11.9038 16.9052 11.9038 16.9053 11.9038C16.9054 11.9038 16.9055 11.9038 16.9056 11.9038C16.9057 11.9038 16.9057 11.9038 16.9058 11.9038C16.9059 11.9038 16.906 11.9038 16.9061 11.9038C16.9062 11.9038 16.9063 11.9038 16.9064 11.9038C16.9065 11.9038 16.9066 11.9038 16.9067 11.9038C16.9068 11.9038 16.9069 11.9038 16.907 11.9038C16.907 11.9038 16.9071 11.9038 16.9072 11.9038C16.9073 11.9038 16.9074 11.9038 16.9075 11.9038C16.9076 11.9038 16.9077 11.9038 16.9078 11.9038C16.9079 11.9038 16.908 11.9038 16.9081 11.9038C16.9082 11.9038 16.9083 11.9038 16.9083 11.9038C16.9084 11.9038 16.9085 11.9038 16.9086 11.9038C16.9087 11.9038 16.9088 11.9038 16.9089 11.9038C16.909 11.9038 16.9091 11.9038 16.9092 11.9038C16.9093 11.9038 16.9094 11.9038 16.9095 11.9038C16.9096 11.9038 16.9097 11.9038 16.9097 11.9038C16.9098 11.9038 16.9099 11.9038 16.91 11.9038C16.9101 11.9038 16.9102 11.9038 16.9103 11.9038C16.9104 11.9038 16.9105 11.9038 16.9106 11.9038C16.9107 11.9038 16.9108 11.9038 16.9109 11.9038C16.911 11.9038 16.911 11.9038 16.9111 11.9038C16.9112 11.9038 16.9113 11.9038 16.9114 11.9038C16.9115 11.9038 16.9116 11.9038 16.9117 11.9038C16.9118 11.9038 16.9119 11.9038 16.912 11.9038C16.9121 11.9038 16.9122 11.9038 16.9123 11.9038C16.9123 11.9038 16.9124 11.9038 16.9125 11.9038C16.9126 11.9038 16.9127 11.9038 16.9128 11.9038C16.9129 11.9038 16.913 11.9038 16.9131 11.9038C16.9132 11.9038 16.9133 11.9038 16.9134 11.9038C16.9135 11.9038 16.9136 11.9038 16.9137 11.9038C16.9137 11.9038 16.9138 11.9038 16.9139 11.9038C16.914 11.9038 16.9141 11.9038 16.9142 11.9038C16.9143 11.9038 16.9144 11.9038 16.9145 11.9038C16.9146 11.9038 16.9147 11.9038 16.9148 11.9038C16.9149 11.9038 16.915 11.9038 16.915 11.9038C16.9151 11.9038 16.9152 11.9038 16.9153 11.9038C16.9154 11.9038 16.9155 11.9038 16.9156 11.9038C16.9157 11.9038 16.9158 11.9038 16.9159 11.9038C16.916 11.9038 16.9161 11.9038 16.9162 11.9038C16.9163 11.9038 16.9163 11.9038 16.9164 11.9038C16.9165 11.9038 16.9166 11.9038 16.9167 11.9038C16.9168 11.9038 16.9169 11.9038 16.917 11.9038C16.9171 11.9038 16.9172 11.9038 16.9173 11.9038C16.9174 11.9038 16.9175 11.9038 16.9176 11.9038C16.9177 11.9038 16.9177 11.9038 16.9178 11.9038C16.9179 11.9038 16.918 11.9038 16.9181 11.9038C16.9182 11.9038 16.9183 11.9038 16.9184 11.9038C16.9185 11.9038 16.9186 11.9038 16.9187 11.9038C16.9188 11.9038 16.9189 11.9038 16.919 11.9038C16.919 11.9038 16.9191 11.9038 16.9192 11.9038C16.9193 11.9038 16.9194 11.9038 16.9195 11.9038C16.9196 11.9038 16.9197 11.9038 16.9198 11.9038C16.9199 11.9038 16.92 11.9038 16.9201 11.9038C16.9202 11.9038 16.9203 11.9038 16.9203 11.9038C16.9204 11.9038 16.9205 11.9038 16.9206 11.9038C16.9207 11.9038 16.9208 11.9038 16.9209 11.9038C16.921 11.9038 16.9211 11.9038 16.9212 11.9038C16.9213 11.9038 16.9214 11.9038 16.9215 11.9038C16.9216 11.9038 16.9217 11.9038 16.9217 11.9038C16.9218 11.9038 16.9219 11.9038 16.922 11.9038C16.9221 11.9038 16.9222 11.9038 16.9223 11.9038C16.9224 11.9038 16.9225 11.9038 16.9226 11.9038C16.9227 11.9038 16.9228 11.9038 16.9229 11.9038C16.923 11.9038 16.923 11.9038 16.9231 11.9038C16.9232 11.9038 16.9233 11.9038 16.9234 11.9038C16.9235 11.9038 16.9236 11.9038 16.9237 11.9038C16.9238 11.9038 16.9239 11.9038 16.924 11.9038C16.9241 11.9038 16.9242 11.9038 16.9243 11.9038C16.9243 11.9038 16.9244 11.9038 16.9245 11.9038C16.9246 11.9038 16.9247 11.9038 16.9248 11.9038C16.9249 11.9038 16.925 11.9038 16.9251 11.9038C16.9252 11.9038 16.9253 11.9038 16.9254 11.9038C16.9255 11.9038 16.9256 11.9038 16.9257 11.9038C16.9257 11.9038 16.9258 11.9038 16.9259 11.9038C16.926 11.9038 16.9261 11.9038 16.9262 11.9038C16.9263 11.9038 16.9264 11.9038 16.9265 11.9038C16.9266 11.9038 16.9267 11.9038 16.9268 11.9038C16.9269 11.9038 16.927 11.9038 16.927 11.9038C16.9271 11.9038 16.9272 11.9038 16.9273 11.9038C16.9274 11.9038 16.9275 11.9038 16.9276 11.9038C16.9277 11.9038 16.9278 11.9038 16.9279 11.9038C16.928 11.9038 16.9281 11.9038 16.9282 11.9038C16.9283 11.9038 16.9283 11.9038 16.9284 11.9038C16.9285 11.9038 16.9286 11.9038 16.9287 11.9038C16.9288 11.9038 16.9289 11.9038 16.929 11.9038C16.9291 11.9038 16.9292 11.9038 16.9293 11.9038C16.9294 11.9038 16.9295 11.9038 16.9296 11.9038C16.9297 11.9038 16.9297 11.9038 16.9298 11.9038C16.9299 11.9038 16.93 11.9038 16.9301 11.9038C16.9302 11.9038 16.9303 11.9038 16.9304 11.9038C16.9305 11.9038 16.9306 11.9038 16.9307 11.9038C16.9308 11.9038 16.9309 11.9038 16.931 11.9038C16.931 11.9038 16.9311 11.9038 16.9312 11.9038C16.9313 11.9038 16.9314 11.9038 16.9315 11.9038C16.9316 11.9038 16.9317 11.9038 16.9318 11.9038C16.9319 11.9038 16.932 11.9038 16.9321 11.9038C16.9322 11.9038 16.9323 11.9038 16.9323 11.9038C16.9324 11.9038 16.9325 11.9038 16.9326 11.9038C16.9327 11.9038 16.9328 11.9038 16.9329 11.9038C16.933 11.9038 16.9331 11.9038 16.9332 11.9038C16.9333 11.9038 16.9334 11.9038 16.9335 11.9038C16.9336 11.9038 16.9337 11.9038 16.9337 11.9038C16.9338 11.9038 16.9339 11.9038 16.934 11.9038C16.9341 11.9038 16.9342 11.9038 16.9343 11.9038C16.9344 11.9038 16.9345 11.9038 16.9346 11.9038C16.9347 11.9038 16.9348 11.9038 16.9349 11.9038C16.935 11.9038 16.935 11.9038 16.9351 11.9038C16.9352 11.9038 16.9353 11.9038 16.9354 11.9038C16.9355 11.9038 16.9356 11.9038 16.9357 11.9038C16.9358 11.9038 16.9359 11.9038 16.936 11.9038C16.9361 11.9038 16.9362 11.9038 16.9363 11.9038C16.9363 11.9038 16.9364 11.9038 16.9365 11.9038C16.9366 11.9038 16.9367 11.9038 16.9368 11.9038C16.9369 11.9038 16.937 11.9038 16.9371 11.9038C16.9372 11.9038 16.9373 11.9038 16.9374 11.9038C16.9375 11.9038 16.9376 11.9038 16.9376 11.9038C16.9377 11.9038 16.9378 11.9038 16.9379 11.9038C16.938 11.9038 16.9381 11.9038 16.9382 11.9038C16.9383 11.9038 16.9384 11.9038 16.9385 11.9038C16.9386 11.9038 16.9387 11.9038 16.9388 11.9038C16.9389 11.9038 16.939 11.9038 16.939 11.9038C16.9391 11.9038 16.9392 11.9038 16.9393 11.9038C16.9394 11.9038 16.9395 11.9038 16.9396 11.9038C16.9397 11.9038 16.9398 11.9038 16.9399 11.9038C16.94 11.9038 16.9401 11.9038 16.9402 11.9038C16.9403 11.9038 16.9403 11.9038 16.9404 11.9038C16.9405 11.9038 16.9406 11.9038 16.9407 11.9038C16.9408 11.9038 16.9409 11.9038 16.941 11.9038C16.9411 11.9038 16.9412 11.9038 16.9413 11.9038C16.9414 11.9038 16.9415 11.9038 16.9416 11.9038C16.9416 11.9038 16.9417 11.9038 16.9418 11.9038C16.9419 11.9038 16.942 11.9038 16.9421 11.9038C16.9422 11.9038 16.9423 11.9038 16.9424 11.9038C16.9425 11.9038 16.9426 11.9038 16.9427 11.9038C16.9428 11.9038 16.9429 11.9038 16.943 11.9038C16.943 11.9038 16.9431 11.9038 16.9432 11.9038C16.9433 11.9038 16.9434 11.9038 16.9435 11.9038C16.9436 11.9038 16.9437 11.9038 16.9438 11.9038C16.9439 11.9038 16.944 11.9038 16.9441 11.9038C16.9442 11.9038 16.9443 11.9038 16.9443 11.9038C16.9444 11.9038 16.9445 11.9038 16.9446 11.9038C16.9447 11.9038 16.9448 11.9038 16.9449 11.9038C16.945 11.9038 16.9451 11.9038 16.9452 11.9038C16.9453 11.9038 16.9454 11.9038 16.9455 11.9038C16.9456 11.9038 16.9456 11.9038 16.9457 11.9038C16.9458 11.9038 16.9459 11.9038 16.946 11.9038C16.9461 11.9038 16.9462 11.9038 16.9463 11.9038C16.9464 11.9038 16.9465 11.9038 16.9466 11.9038C16.9467 11.9038 16.9468 11.9038 16.9469 11.9038C16.947 11.9038 16.947 11.9038 16.9471 11.9038C16.9472 11.9038 16.9473 11.9038 16.9474 11.9038C16.9475 11.9038 16.9476 11.9038 16.9477 11.9038C16.9478 11.9038 16.9479 11.9038 16.948 11.9038C16.9481 11.9038 16.9482 11.9038 16.9483 11.9038C16.9483 11.9038 16.9484 11.9038 16.9485 11.9038C16.9486 11.9038 16.9487 11.9038 16.9488 11.9038C16.9489 11.9038 16.949 11.9038 16.9491 11.9038C16.9492 11.9038 16.9493 11.9038 16.9494 11.9038C16.9495 11.9038 16.9496 11.9038 16.9496 11.9038C16.9497 11.9038 16.9498 11.9038 16.9499 11.9038C16.95 11.9038 16.9501 11.9038 16.9502 11.9038C16.9503 11.9038 16.9504 11.9038 16.9505 11.9038C16.9506 11.9038 16.9507 11.9038 16.9508 11.9038C16.9509 11.9038 16.951 11.9038 16.951 11.9038C16.9511 11.9038 16.9512 11.9038 16.9513 11.9038C16.9514 11.9038 16.9515 11.9038 16.9516 11.9038C16.9517 11.9038 16.9518 11.9038 16.9519 11.9038C16.952 11.9038 16.9521 11.9038 16.9522 11.9038C16.9523 11.9038 16.9523 11.9038 16.9524 11.9038C16.9525 11.9038 16.9526 11.9038 16.9527 11.9038C16.9528 11.9038 16.9529 11.9038 16.953 11.9038C16.9531 11.9038 16.9532 11.9038 16.9533 11.9038C16.9534 11.9038 16.9535 11.9038 16.9536 11.9038C16.9536 11.9038 16.9537 11.9038 16.9538 11.9038C16.9539 11.9038 16.954 11.9038 16.9541 11.9038C16.9542 11.9038 16.9543 11.9038 16.9544 11.9038C16.9545 11.9038 16.9546 11.9038 16.9547 11.9038C16.9548 11.9038 16.9549 11.9038 16.955 11.9038C16.955 11.9038 16.9551 11.9038 16.9552 11.9038C16.9553 11.9038 16.9554 11.9038 16.9555 11.9038C16.9556 11.9038 16.9557 11.9038 16.9558 11.9038C16.9559 11.9038 16.956 11.9038 16.9561 11.9038C16.9562 11.9038 16.9563 11.9038 16.9563 11.9038C16.9564 11.9038 16.9565 11.9038 16.9566 11.9038C16.9567 11.9038 16.9568 11.9038 16.9569 11.9038C16.957 11.9038 16.9571 11.9038 16.9572 11.9038C16.9573 11.9038 16.9574 11.9038 16.9575 11.9038C16.9576 11.9038 16.9576 11.9038 16.9577 11.9038C16.9578 11.9038 16.9579 11.9038 16.958 11.9038C16.9581 11.9038 16.9582 11.9038 16.9583 11.9038C16.9584 11.9038 16.9585 11.9038 16.9586 11.9038C16.9587 11.9038 16.9588 11.9038 16.9589 11.9038C16.9589 11.9038 16.959 11.9038 16.9591 11.9038C16.9592 11.9038 16.9593 11.9038 16.9594 11.9038C16.9595 11.9038 16.9596 11.9038 16.9597 11.9038C16.9598 11.9038 16.9599 11.9038 16.96 11.9038C16.9601 11.9038 16.9602 11.9038 16.9603 11.9038C16.9603 11.9038 16.9604 11.9038 16.9605 11.9038C16.9606 11.9038 16.9607 11.9038 16.9608 11.9038C16.9609 11.9038 16.961 11.9038 16.9611 11.9038C16.9612 11.9038 16.9613 11.9038 16.9614 11.9038C16.9615 11.9038 16.9616 11.9038 16.9616 11.9038C16.9617 11.9038 16.9618 11.9038 16.9619 11.9038C16.962 11.9038 16.9621 11.9038 16.9622 11.9038C16.9623 11.9038 16.9624 11.9038 16.9625 11.9038C16.9626 11.9038 16.9627 11.9038 16.9628 11.9038C16.9629 11.9038 16.9629 11.9038 16.963 11.9038C16.9631 11.9038 16.9632 11.9038 16.9633 11.9038C16.9634 11.9038 16.9635 11.9038 16.9636 11.9038C16.9637 11.9038 16.9638 11.9038 16.9639 11.9038C16.964 11.9038 16.9641 11.9038 16.9642 11.9038C16.9643 11.9038 16.9643 11.9038 16.9644 11.9038C16.9645 11.9038 16.9646 11.9038 16.9647 11.9038C16.9648 11.9038 16.9649 11.9038 16.965 11.9038C16.9651 11.9038 16.9652 11.9038 16.9653 11.9038C16.9654 11.9038 16.9655 11.9038 16.9656 11.9038C16.9656 11.9038 16.9657 11.9038 16.9658 11.9038C16.9659 11.9038 16.966 11.9038 16.9661 11.9038C16.9662 11.9038 16.9663 11.9038 16.9664 11.9038C16.9665 11.9038 16.9666 11.9038 16.9667 11.9038C16.9668 11.9038 16.9669 11.9038 16.9669 11.9038C16.967 11.9038 16.9671 11.9038 16.9672 11.9038C16.9673 11.9038 16.9674 11.9038 16.9675 11.9038C16.9676 11.9038 16.9677 11.9038 16.9678 11.9038C16.9679 11.9038 16.968 11.9038 16.9681 11.9038C16.9682 11.9038 16.9683 11.9038 16.9683 11.9038C16.9684 11.9038 16.9685 11.9038 16.9686 11.9038C16.9687 11.9038 16.9688 11.9038 16.9689 11.9038C16.969 11.9038 16.9691 11.9038 16.9692 11.9038C16.9693 11.9038 16.9694 11.9038 16.9695 11.9038C16.9696 11.9038 16.9696 11.9038 16.9697 11.9038C16.9698 11.9038 16.9699 11.9038 16.97 11.9038C16.9701 11.9038 16.9702 11.9038 16.9703 11.9038C16.9704 11.9038 16.9705 11.9038 16.9706 11.9038C16.9707 11.9038 16.9708 11.9038 16.9709 11.9038C16.9709 11.9038 16.971 11.9038 16.9711 11.9038C16.9712 11.9038 16.9713 11.9038 16.9714 11.9038C16.9715 11.9038 16.9716 11.9038 16.9717 11.9038C16.9718 11.9038 16.9719 11.9038 16.972 11.9038C16.9721 11.9038 16.9722 11.9038 16.9722 11.9038C16.9723 11.9038 16.9724 11.9038 16.9725 11.9038C16.9726 11.9038 16.9727 11.9038 16.9728 11.9038C16.9729 11.9038 16.973 11.9038 16.9731 11.9038C16.9732 11.9038 16.9733 11.9038 16.9734 11.9038C16.9735 11.9038 16.9736 11.9038 16.9736 11.9038C16.9737 11.9038 16.9738 11.9038 16.9739 11.9038C16.974 11.9038 16.9741 11.9038 16.9742 11.9038C16.9743 11.9038 16.9744 11.9038 16.9745 11.9038C16.9746 11.9038 16.9747 11.9038 16.9748 11.9038C16.9749 11.9038 16.9749 11.9038 16.975 11.9038C16.9751 11.9038 16.9752 11.9038 16.9753 11.9038C16.9754 11.9038 16.9755 11.9038 16.9756 11.9038C16.9757 11.9038 16.9758 11.9038 16.9759 11.9038C16.976 11.9038 16.9761 11.9038 16.9762 11.9038C16.9762 11.9038 16.9763 11.9038 16.9764 11.9038C16.9765 11.9038 16.9766 11.9038 16.9767 11.9038C16.9768 11.9038 16.9769 11.9038 16.977 11.9038C16.9771 11.9038 16.9772 11.9038 16.9773 11.9038C16.9774 11.9038 16.9775 11.9038 16.9776 11.9038C16.9776 11.9038 16.9777 11.9038 16.9778 11.9038C16.9779 11.9038 16.978 11.9038 16.9781 11.9038C16.9782 11.9038 16.9783 11.9038 16.9784 11.9038C16.9785 11.9038 16.9786 11.9038 16.9787 11.9038C16.9788 11.9038 16.9789 11.9038 16.9789 11.9038C16.979 11.9038 16.9791 11.9038 16.9792 11.9038C16.9793 11.9038 16.9794 11.9038 16.9795 11.9038C16.9796 11.9038 16.9797 11.9038 16.9798 11.9038C16.9799 11.9038 16.98 11.9038 16.9801 11.9038C16.9802 11.9038 16.9802 11.9038 16.9803 11.9038C16.9804 11.9038 16.9805 11.9038 16.9806 11.9038C16.9807 11.9038 16.9808 11.9038 16.9809 11.9038C16.981 11.9038 16.9811 11.9038 16.9812 11.9038C16.9813 11.9038 16.9814 11.9038 16.9815 11.9038C16.9816 11.9038 16.9816 11.9038 16.9817 11.9038C16.9818 11.9038 16.9819 11.9038 16.982 11.9038C16.9821 11.9038 16.9822 11.9038 16.9823 11.9038C16.9824 11.9038 16.9825 11.9038 16.9826 11.9038C16.9827 11.9038 16.9828 11.9038 16.9829 11.9038C16.9829 11.9038 16.983 11.9038 16.9831 11.9038C16.9832 11.9038 16.9833 11.9038 16.9834 11.9038C16.9835 11.9038 16.9836 11.9038 16.9837 11.9038C16.9838 11.9038 16.9839 11.9038 16.984 11.9038C16.9841 11.9038 16.9842 11.9038 16.9842 11.9038C16.9843 11.9038 16.9844 11.9038 16.9845 11.9038C16.9846 11.9038 16.9847 11.9038 16.9848 11.9038C16.9849 11.9038 16.985 11.9038 16.9851 11.9038C16.9852 11.9038 16.9853 11.9038 16.9854 11.9038C16.9855 11.9038 16.9855 11.9038 16.9856 11.9038C16.9857 11.9038 16.9858 11.9038 16.9859 11.9038C16.986 11.9038 16.9861 11.9038 16.9862 11.9038C16.9863 11.9038 16.9864 11.9038 16.9865 11.9038C16.9866 11.9038 16.9867 11.9038 16.9868 11.9038C16.9869 11.9038 16.9869 11.9038 16.987 11.9038C16.9871 11.9038 16.9872 11.9038 16.9873 11.9038C16.9874 11.9038 16.9875 11.9038 16.9876 11.9038C16.9877 11.9038 16.9878 11.9038 16.9879 11.9038C16.988 11.9038 16.9881 11.9038 16.9882 11.9038C16.9882 11.9038 16.9883 11.9038 16.9884 11.9038C16.9885 11.9038 16.9886 11.9038 16.9887 11.9038C16.9888 11.9038 16.9889 11.9038 16.989 11.9038C16.9891 11.9038 16.9892 11.9038 16.9893 11.9038C16.9894 11.9038 16.9895 11.9038 16.9895 11.9038C16.9896 11.9038 16.9897 11.9038 16.9898 11.9038C16.9899 11.9038 16.99 11.9038 16.9901 11.9038C16.9902 11.9038 16.9903 11.9038 16.9904 11.9038C16.9905 11.9038 16.9906 11.9038 16.9907 11.9038C16.9908 11.9038 16.9909 11.9038 16.9909 11.9038C16.991 11.9038 16.9911 11.9038 16.9912 11.9038C16.9913 11.9038 16.9914 11.9038 16.9915 11.9038C16.9916 11.9038 16.9917 11.9038 16.9918 11.9038C16.9919 11.9038 16.992 11.9038 16.9921 11.9038C16.9922 11.9038 16.9922 11.9038 16.9923 11.9038C16.9924 11.9038 16.9925 11.9038 16.9926 11.9038C16.9927 11.9038 16.9928 11.9038 16.9929 11.9038C16.993 11.9038 16.9931 11.9038 16.9932 11.9038C16.9933 11.9038 16.9934 11.9038 16.9935 11.9038C16.9935 11.9038 16.9936 11.9038 16.9937 11.9038C16.9938 11.9038 16.9939 11.9038 16.994 11.9038C16.9941 11.9038 16.9942 11.9038 16.9943 11.9038C16.9944 11.9038 16.9945 11.9038 16.9946 11.9038C16.9947 11.9038 16.9948 11.9038 16.9949 11.9038C16.9949 11.9038 16.995 11.9038 16.9951 11.9038C16.9952 11.9038 16.9953 11.9038 16.9954 11.9038C16.9955 11.9038 16.9956 11.9038 16.9957 11.9038C16.9958 11.9038 16.9959 11.9038 16.996 11.9038C16.9961 11.9038 16.9962 11.9038 16.9962 11.9038C16.9963 11.9038 16.9964 11.9038 16.9965 11.9038C16.9966 11.9038 16.9967 11.9038 16.9968 11.9038C16.9969 11.9038 16.997 11.9038 16.9971 11.9038C16.9972 11.9038 16.9973 11.9038 16.9974 11.9038C16.9975 11.9038 16.9975 11.9038 16.9976 11.9038C16.9977 11.9038 16.9978 11.9038 16.9979 11.9038C16.998 11.9038 16.9981 11.9038 16.9982 11.9038C16.9983 11.9038 16.9984 11.9038 16.9985 11.9038C16.9986 11.9038 16.9987 11.9038 16.9988 11.9038C16.9988 11.9038 16.9989 11.9038 16.999 11.9038C16.9991 11.9038 16.9992 11.9038 16.9993 11.9038C16.9994 11.9038 16.9995 11.9038 16.9996 11.9038C16.9997 11.9038 16.9998 11.9038 16.9999 11.9038C17 11.9038 17.0001 11.9038 17.0002 11.9038V10.4038C17.0001 10.4038 17 10.4038 16.9999 10.4038C16.9998 10.4038 16.9997 10.4038 16.9996 10.4038C16.9995 10.4038 16.9994 10.4038 16.9993 10.4038C16.9992 10.4038 16.9991 10.4038 16.999 10.4038C16.9989 10.4038 16.9988 10.4038 16.9988 10.4038C16.9987 10.4038 16.9986 10.4038 16.9985 10.4038C16.9984 10.4038 16.9983 10.4038 16.9982 10.4038C16.9981 10.4038 16.998 10.4038 16.9979 10.4038C16.9978 10.4038 16.9977 10.4038 16.9976 10.4038C16.9975 10.4038 16.9975 10.4038 16.9974 10.4038C16.9973 10.4038 16.9972 10.4038 16.9971 10.4038C16.997 10.4038 16.9969 10.4038 16.9968 10.4038C16.9967 10.4038 16.9966 10.4038 16.9965 10.4038C16.9964 10.4038 16.9963 10.4038 16.9962 10.4038C16.9962 10.4038 16.9961 10.4038 16.996 10.4038C16.9959 10.4038 16.9958 10.4038 16.9957 10.4038C16.9956 10.4038 16.9955 10.4038 16.9954 10.4038C16.9953 10.4038 16.9952 10.4038 16.9951 10.4038C16.995 10.4038 16.9949 10.4038 16.9949 10.4038C16.9948 10.4038 16.9947 10.4038 16.9946 10.4038C16.9945 10.4038 16.9944 10.4038 16.9943 10.4038C16.9942 10.4038 16.9941 10.4038 16.994 10.4038C16.9939 10.4038 16.9938 10.4038 16.9937 10.4038C16.9936 10.4038 16.9935 10.4038 16.9935 10.4038C16.9934 10.4038 16.9933 10.4038 16.9932 10.4038C16.9931 10.4038 16.993 10.4038 16.9929 10.4038C16.9928 10.4038 16.9927 10.4038 16.9926 10.4038C16.9925 10.4038 16.9924 10.4038 16.9923 10.4038C16.9922 10.4038 16.9922 10.4038 16.9921 10.4038C16.992 10.4038 16.9919 10.4038 16.9918 10.4038C16.9917 10.4038 16.9916 10.4038 16.9915 10.4038C16.9914 10.4038 16.9913 10.4038 16.9912 10.4038C16.9911 10.4038 16.991 10.4038 16.9909 10.4038C16.9909 10.4038 16.9908 10.4038 16.9907 10.4038C16.9906 10.4038 16.9905 10.4038 16.9904 10.4038C16.9903 10.4038 16.9902 10.4038 16.9901 10.4038C16.99 10.4038 16.9899 10.4038 16.9898 10.4038C16.9897 10.4038 16.9896 10.4038 16.9895 10.4038C16.9895 10.4038 16.9894 10.4038 16.9893 10.4038C16.9892 10.4038 16.9891 10.4038 16.989 10.4038C16.9889 10.4038 16.9888 10.4038 16.9887 10.4038C16.9886 10.4038 16.9885 10.4038 16.9884 10.4038C16.9883 10.4038 16.9882 10.4038 16.9882 10.4038C16.9881 10.4038 16.988 10.4038 16.9879 10.4038C16.9878 10.4038 16.9877 10.4038 16.9876 10.4038C16.9875 10.4038 16.9874 10.4038 16.9873 10.4038C16.9872 10.4038 16.9871 10.4038 16.987 10.4038C16.9869 10.4038 16.9869 10.4038 16.9868 10.4038C16.9867 10.4038 16.9866 10.4038 16.9865 10.4038C16.9864 10.4038 16.9863 10.4038 16.9862 10.4038C16.9861 10.4038 16.986 10.4038 16.9859 10.4038C16.9858 10.4038 16.9857 10.4038 16.9856 10.4038C16.9855 10.4038 16.9855 10.4038 16.9854 10.4038C16.9853 10.4038 16.9852 10.4038 16.9851 10.4038C16.985 10.4038 16.9849 10.4038 16.9848 10.4038C16.9847 10.4038 16.9846 10.4038 16.9845 10.4038C16.9844 10.4038 16.9843 10.4038 16.9842 10.4038C16.9842 10.4038 16.9841 10.4038 16.984 10.4038C16.9839 10.4038 16.9838 10.4038 16.9837 10.4038C16.9836 10.4038 16.9835 10.4038 16.9834 10.4038C16.9833 10.4038 16.9832 10.4038 16.9831 10.4038C16.983 10.4038 16.9829 10.4038 16.9829 10.4038C16.9828 10.4038 16.9827 10.4038 16.9826 10.4038C16.9825 10.4038 16.9824 10.4038 16.9823 10.4038C16.9822 10.4038 16.9821 10.4038 16.982 10.4038C16.9819 10.4038 16.9818 10.4038 16.9817 10.4038C16.9816 10.4038 16.9816 10.4038 16.9815 10.4038C16.9814 10.4038 16.9813 10.4038 16.9812 10.4038C16.9811 10.4038 16.981 10.4038 16.9809 10.4038C16.9808 10.4038 16.9807 10.4038 16.9806 10.4038C16.9805 10.4038 16.9804 10.4038 16.9803 10.4038C16.9802 10.4038 16.9802 10.4038 16.9801 10.4038C16.98 10.4038 16.9799 10.4038 16.9798 10.4038C16.9797 10.4038 16.9796 10.4038 16.9795 10.4038C16.9794 10.4038 16.9793 10.4038 16.9792 10.4038C16.9791 10.4038 16.979 10.4038 16.9789 10.4038C16.9789 10.4038 16.9788 10.4038 16.9787 10.4038C16.9786 10.4038 16.9785 10.4038 16.9784 10.4038C16.9783 10.4038 16.9782 10.4038 16.9781 10.4038C16.978 10.4038 16.9779 10.4038 16.9778 10.4038C16.9777 10.4038 16.9776 10.4038 16.9776 10.4038C16.9775 10.4038 16.9774 10.4038 16.9773 10.4038C16.9772 10.4038 16.9771 10.4038 16.977 10.4038C16.9769 10.4038 16.9768 10.4038 16.9767 10.4038C16.9766 10.4038 16.9765 10.4038 16.9764 10.4038C16.9763 10.4038 16.9762 10.4038 16.9762 10.4038C16.9761 10.4038 16.976 10.4038 16.9759 10.4038C16.9758 10.4038 16.9757 10.4038 16.9756 10.4038C16.9755 10.4038 16.9754 10.4038 16.9753 10.4038C16.9752 10.4038 16.9751 10.4038 16.975 10.4038C16.9749 10.4038 16.9749 10.4038 16.9748 10.4038C16.9747 10.4038 16.9746 10.4038 16.9745 10.4038C16.9744 10.4038 16.9743 10.4038 16.9742 10.4038C16.9741 10.4038 16.974 10.4038 16.9739 10.4038C16.9738 10.4038 16.9737 10.4038 16.9736 10.4038C16.9736 10.4038 16.9735 10.4038 16.9734 10.4038C16.9733 10.4038 16.9732 10.4038 16.9731 10.4038C16.973 10.4038 16.9729 10.4038 16.9728 10.4038C16.9727 10.4038 16.9726 10.4038 16.9725 10.4038C16.9724 10.4038 16.9723 10.4038 16.9722 10.4038C16.9722 10.4038 16.9721 10.4038 16.972 10.4038C16.9719 10.4038 16.9718 10.4038 16.9717 10.4038C16.9716 10.4038 16.9715 10.4038 16.9714 10.4038C16.9713 10.4038 16.9712 10.4038 16.9711 10.4038C16.971 10.4038 16.9709 10.4038 16.9709 10.4038C16.9708 10.4038 16.9707 10.4038 16.9706 10.4038C16.9705 10.4038 16.9704 10.4038 16.9703 10.4038C16.9702 10.4038 16.9701 10.4038 16.97 10.4038C16.9699 10.4038 16.9698 10.4038 16.9697 10.4038C16.9696 10.4038 16.9696 10.4038 16.9695 10.4038C16.9694 10.4038 16.9693 10.4038 16.9692 10.4038C16.9691 10.4038 16.969 10.4038 16.9689 10.4038C16.9688 10.4038 16.9687 10.4038 16.9686 10.4038C16.9685 10.4038 16.9684 10.4038 16.9683 10.4038C16.9683 10.4038 16.9682 10.4038 16.9681 10.4038C16.968 10.4038 16.9679 10.4038 16.9678 10.4038C16.9677 10.4038 16.9676 10.4038 16.9675 10.4038C16.9674 10.4038 16.9673 10.4038 16.9672 10.4038C16.9671 10.4038 16.967 10.4038 16.9669 10.4038C16.9669 10.4038 16.9668 10.4038 16.9667 10.4038C16.9666 10.4038 16.9665 10.4038 16.9664 10.4038C16.9663 10.4038 16.9662 10.4038 16.9661 10.4038C16.966 10.4038 16.9659 10.4038 16.9658 10.4038C16.9657 10.4038 16.9656 10.4038 16.9656 10.4038C16.9655 10.4038 16.9654 10.4038 16.9653 10.4038C16.9652 10.4038 16.9651 10.4038 16.965 10.4038C16.9649 10.4038 16.9648 10.4038 16.9647 10.4038C16.9646 10.4038 16.9645 10.4038 16.9644 10.4038C16.9643 10.4038 16.9643 10.4038 16.9642 10.4038C16.9641 10.4038 16.964 10.4038 16.9639 10.4038C16.9638 10.4038 16.9637 10.4038 16.9636 10.4038C16.9635 10.4038 16.9634 10.4038 16.9633 10.4038C16.9632 10.4038 16.9631 10.4038 16.963 10.4038C16.9629 10.4038 16.9629 10.4038 16.9628 10.4038C16.9627 10.4038 16.9626 10.4038 16.9625 10.4038C16.9624 10.4038 16.9623 10.4038 16.9622 10.4038C16.9621 10.4038 16.962 10.4038 16.9619 10.4038C16.9618 10.4038 16.9617 10.4038 16.9616 10.4038C16.9616 10.4038 16.9615 10.4038 16.9614 10.4038C16.9613 10.4038 16.9612 10.4038 16.9611 10.4038C16.961 10.4038 16.9609 10.4038 16.9608 10.4038C16.9607 10.4038 16.9606 10.4038 16.9605 10.4038C16.9604 10.4038 16.9603 10.4038 16.9603 10.4038C16.9602 10.4038 16.9601 10.4038 16.96 10.4038C16.9599 10.4038 16.9598 10.4038 16.9597 10.4038C16.9596 10.4038 16.9595 10.4038 16.9594 10.4038C16.9593 10.4038 16.9592 10.4038 16.9591 10.4038C16.959 10.4038 16.9589 10.4038 16.9589 10.4038C16.9588 10.4038 16.9587 10.4038 16.9586 10.4038C16.9585 10.4038 16.9584 10.4038 16.9583 10.4038C16.9582 10.4038 16.9581 10.4038 16.958 10.4038C16.9579 10.4038 16.9578 10.4038 16.9577 10.4038C16.9576 10.4038 16.9576 10.4038 16.9575 10.4038C16.9574 10.4038 16.9573 10.4038 16.9572 10.4038C16.9571 10.4038 16.957 10.4038 16.9569 10.4038C16.9568 10.4038 16.9567 10.4038 16.9566 10.4038C16.9565 10.4038 16.9564 10.4038 16.9563 10.4038C16.9563 10.4038 16.9562 10.4038 16.9561 10.4038C16.956 10.4038 16.9559 10.4038 16.9558 10.4038C16.9557 10.4038 16.9556 10.4038 16.9555 10.4038C16.9554 10.4038 16.9553 10.4038 16.9552 10.4038C16.9551 10.4038 16.955 10.4038 16.955 10.4038C16.9549 10.4038 16.9548 10.4038 16.9547 10.4038C16.9546 10.4038 16.9545 10.4038 16.9544 10.4038C16.9543 10.4038 16.9542 10.4038 16.9541 10.4038C16.954 10.4038 16.9539 10.4038 16.9538 10.4038C16.9537 10.4038 16.9536 10.4038 16.9536 10.4038C16.9535 10.4038 16.9534 10.4038 16.9533 10.4038C16.9532 10.4038 16.9531 10.4038 16.953 10.4038C16.9529 10.4038 16.9528 10.4038 16.9527 10.4038C16.9526 10.4038 16.9525 10.4038 16.9524 10.4038C16.9523 10.4038 16.9523 10.4038 16.9522 10.4038C16.9521 10.4038 16.952 10.4038 16.9519 10.4038C16.9518 10.4038 16.9517 10.4038 16.9516 10.4038C16.9515 10.4038 16.9514 10.4038 16.9513 10.4038C16.9512 10.4038 16.9511 10.4038 16.951 10.4038C16.951 10.4038 16.9509 10.4038 16.9508 10.4038C16.9507 10.4038 16.9506 10.4038 16.9505 10.4038C16.9504 10.4038 16.9503 10.4038 16.9502 10.4038C16.9501 10.4038 16.95 10.4038 16.9499 10.4038C16.9498 10.4038 16.9497 10.4038 16.9496 10.4038C16.9496 10.4038 16.9495 10.4038 16.9494 10.4038C16.9493 10.4038 16.9492 10.4038 16.9491 10.4038C16.949 10.4038 16.9489 10.4038 16.9488 10.4038C16.9487 10.4038 16.9486 10.4038 16.9485 10.4038C16.9484 10.4038 16.9483 10.4038 16.9483 10.4038C16.9482 10.4038 16.9481 10.4038 16.948 10.4038C16.9479 10.4038 16.9478 10.4038 16.9477 10.4038C16.9476 10.4038 16.9475 10.4038 16.9474 10.4038C16.9473 10.4038 16.9472 10.4038 16.9471 10.4038C16.947 10.4038 16.947 10.4038 16.9469 10.4038C16.9468 10.4038 16.9467 10.4038 16.9466 10.4038C16.9465 10.4038 16.9464 10.4038 16.9463 10.4038C16.9462 10.4038 16.9461 10.4038 16.946 10.4038C16.9459 10.4038 16.9458 10.4038 16.9457 10.4038C16.9456 10.4038 16.9456 10.4038 16.9455 10.4038C16.9454 10.4038 16.9453 10.4038 16.9452 10.4038C16.9451 10.4038 16.945 10.4038 16.9449 10.4038C16.9448 10.4038 16.9447 10.4038 16.9446 10.4038C16.9445 10.4038 16.9444 10.4038 16.9443 10.4038C16.9443 10.4038 16.9442 10.4038 16.9441 10.4038C16.944 10.4038 16.9439 10.4038 16.9438 10.4038C16.9437 10.4038 16.9436 10.4038 16.9435 10.4038C16.9434 10.4038 16.9433 10.4038 16.9432 10.4038C16.9431 10.4038 16.943 10.4038 16.943 10.4038C16.9429 10.4038 16.9428 10.4038 16.9427 10.4038C16.9426 10.4038 16.9425 10.4038 16.9424 10.4038C16.9423 10.4038 16.9422 10.4038 16.9421 10.4038C16.942 10.4038 16.9419 10.4038 16.9418 10.4038C16.9417 10.4038 16.9416 10.4038 16.9416 10.4038C16.9415 10.4038 16.9414 10.4038 16.9413 10.4038C16.9412 10.4038 16.9411 10.4038 16.941 10.4038C16.9409 10.4038 16.9408 10.4038 16.9407 10.4038C16.9406 10.4038 16.9405 10.4038 16.9404 10.4038C16.9403 10.4038 16.9403 10.4038 16.9402 10.4038C16.9401 10.4038 16.94 10.4038 16.9399 10.4038C16.9398 10.4038 16.9397 10.4038 16.9396 10.4038C16.9395 10.4038 16.9394 10.4038 16.9393 10.4038C16.9392 10.4038 16.9391 10.4038 16.939 10.4038C16.939 10.4038 16.9389 10.4038 16.9388 10.4038C16.9387 10.4038 16.9386 10.4038 16.9385 10.4038C16.9384 10.4038 16.9383 10.4038 16.9382 10.4038C16.9381 10.4038 16.938 10.4038 16.9379 10.4038C16.9378 10.4038 16.9377 10.4038 16.9376 10.4038C16.9376 10.4038 16.9375 10.4038 16.9374 10.4038C16.9373 10.4038 16.9372 10.4038 16.9371 10.4038C16.937 10.4038 16.9369 10.4038 16.9368 10.4038C16.9367 10.4038 16.9366 10.4038 16.9365 10.4038C16.9364 10.4038 16.9363 10.4038 16.9363 10.4038C16.9362 10.4038 16.9361 10.4038 16.936 10.4038C16.9359 10.4038 16.9358 10.4038 16.9357 10.4038C16.9356 10.4038 16.9355 10.4038 16.9354 10.4038C16.9353 10.4038 16.9352 10.4038 16.9351 10.4038C16.935 10.4038 16.935 10.4038 16.9349 10.4038C16.9348 10.4038 16.9347 10.4038 16.9346 10.4038C16.9345 10.4038 16.9344 10.4038 16.9343 10.4038C16.9342 10.4038 16.9341 10.4038 16.934 10.4038C16.9339 10.4038 16.9338 10.4038 16.9337 10.4038C16.9337 10.4038 16.9336 10.4038 16.9335 10.4038C16.9334 10.4038 16.9333 10.4038 16.9332 10.4038C16.9331 10.4038 16.933 10.4038 16.9329 10.4038C16.9328 10.4038 16.9327 10.4038 16.9326 10.4038C16.9325 10.4038 16.9324 10.4038 16.9323 10.4038C16.9323 10.4038 16.9322 10.4038 16.9321 10.4038C16.932 10.4038 16.9319 10.4038 16.9318 10.4038C16.9317 10.4038 16.9316 10.4038 16.9315 10.4038C16.9314 10.4038 16.9313 10.4038 16.9312 10.4038C16.9311 10.4038 16.931 10.4038 16.931 10.4038C16.9309 10.4038 16.9308 10.4038 16.9307 10.4038C16.9306 10.4038 16.9305 10.4038 16.9304 10.4038C16.9303 10.4038 16.9302 10.4038 16.9301 10.4038C16.93 10.4038 16.9299 10.4038 16.9298 10.4038C16.9297 10.4038 16.9297 10.4038 16.9296 10.4038C16.9295 10.4038 16.9294 10.4038 16.9293 10.4038C16.9292 10.4038 16.9291 10.4038 16.929 10.4038C16.9289 10.4038 16.9288 10.4038 16.9287 10.4038C16.9286 10.4038 16.9285 10.4038 16.9284 10.4038C16.9283 10.4038 16.9283 10.4038 16.9282 10.4038C16.9281 10.4038 16.928 10.4038 16.9279 10.4038C16.9278 10.4038 16.9277 10.4038 16.9276 10.4038C16.9275 10.4038 16.9274 10.4038 16.9273 10.4038C16.9272 10.4038 16.9271 10.4038 16.927 10.4038C16.927 10.4038 16.9269 10.4038 16.9268 10.4038C16.9267 10.4038 16.9266 10.4038 16.9265 10.4038C16.9264 10.4038 16.9263 10.4038 16.9262 10.4038C16.9261 10.4038 16.926 10.4038 16.9259 10.4038C16.9258 10.4038 16.9257 10.4038 16.9257 10.4038C16.9256 10.4038 16.9255 10.4038 16.9254 10.4038C16.9253 10.4038 16.9252 10.4038 16.9251 10.4038C16.925 10.4038 16.9249 10.4038 16.9248 10.4038C16.9247 10.4038 16.9246 10.4038 16.9245 10.4038C16.9244 10.4038 16.9243 10.4038 16.9243 10.4038C16.9242 10.4038 16.9241 10.4038 16.924 10.4038C16.9239 10.4038 16.9238 10.4038 16.9237 10.4038C16.9236 10.4038 16.9235 10.4038 16.9234 10.4038C16.9233 10.4038 16.9232 10.4038 16.9231 10.4038C16.923 10.4038 16.923 10.4038 16.9229 10.4038C16.9228 10.4038 16.9227 10.4038 16.9226 10.4038C16.9225 10.4038 16.9224 10.4038 16.9223 10.4038C16.9222 10.4038 16.9221 10.4038 16.922 10.4038C16.9219 10.4038 16.9218 10.4038 16.9217 10.4038C16.9217 10.4038 16.9216 10.4038 16.9215 10.4038C16.9214 10.4038 16.9213 10.4038 16.9212 10.4038C16.9211 10.4038 16.921 10.4038 16.9209 10.4038C16.9208 10.4038 16.9207 10.4038 16.9206 10.4038C16.9205 10.4038 16.9204 10.4038 16.9203 10.4038C16.9203 10.4038 16.9202 10.4038 16.9201 10.4038C16.92 10.4038 16.9199 10.4038 16.9198 10.4038C16.9197 10.4038 16.9196 10.4038 16.9195 10.4038C16.9194 10.4038 16.9193 10.4038 16.9192 10.4038C16.9191 10.4038 16.919 10.4038 16.919 10.4038C16.9189 10.4038 16.9188 10.4038 16.9187 10.4038C16.9186 10.4038 16.9185 10.4038 16.9184 10.4038C16.9183 10.4038 16.9182 10.4038 16.9181 10.4038C16.918 10.4038 16.9179 10.4038 16.9178 10.4038C16.9177 10.4038 16.9177 10.4038 16.9176 10.4038C16.9175 10.4038 16.9174 10.4038 16.9173 10.4038C16.9172 10.4038 16.9171 10.4038 16.917 10.4038C16.9169 10.4038 16.9168 10.4038 16.9167 10.4038C16.9166 10.4038 16.9165 10.4038 16.9164 10.4038C16.9163 10.4038 16.9163 10.4038 16.9162 10.4038C16.9161 10.4038 16.916 10.4038 16.9159 10.4038C16.9158 10.4038 16.9157 10.4038 16.9156 10.4038C16.9155 10.4038 16.9154 10.4038 16.9153 10.4038C16.9152 10.4038 16.9151 10.4038 16.915 10.4038C16.915 10.4038 16.9149 10.4038 16.9148 10.4038C16.9147 10.4038 16.9146 10.4038 16.9145 10.4038C16.9144 10.4038 16.9143 10.4038 16.9142 10.4038C16.9141 10.4038 16.914 10.4038 16.9139 10.4038C16.9138 10.4038 16.9137 10.4038 16.9137 10.4038C16.9136 10.4038 16.9135 10.4038 16.9134 10.4038C16.9133 10.4038 16.9132 10.4038 16.9131 10.4038C16.913 10.4038 16.9129 10.4038 16.9128 10.4038C16.9127 10.4038 16.9126 10.4038 16.9125 10.4038C16.9124 10.4038 16.9123 10.4038 16.9123 10.4038C16.9122 10.4038 16.9121 10.4038 16.912 10.4038C16.9119 10.4038 16.9118 10.4038 16.9117 10.4038C16.9116 10.4038 16.9115 10.4038 16.9114 10.4038C16.9113 10.4038 16.9112 10.4038 16.9111 10.4038C16.911 10.4038 16.911 10.4038 16.9109 10.4038C16.9108 10.4038 16.9107 10.4038 16.9106 10.4038C16.9105 10.4038 16.9104 10.4038 16.9103 10.4038C16.9102 10.4038 16.9101 10.4038 16.91 10.4038C16.9099 10.4038 16.9098 10.4038 16.9097 10.4038C16.9097 10.4038 16.9096 10.4038 16.9095 10.4038C16.9094 10.4038 16.9093 10.4038 16.9092 10.4038C16.9091 10.4038 16.909 10.4038 16.9089 10.4038C16.9088 10.4038 16.9087 10.4038 16.9086 10.4038C16.9085 10.4038 16.9084 10.4038 16.9083 10.4038C16.9083 10.4038 16.9082 10.4038 16.9081 10.4038C16.908 10.4038 16.9079 10.4038 16.9078 10.4038C16.9077 10.4038 16.9076 10.4038 16.9075 10.4038C16.9074 10.4038 16.9073 10.4038 16.9072 10.4038C16.9071 10.4038 16.907 10.4038 16.907 10.4038C16.9069 10.4038 16.9068 10.4038 16.9067 10.4038C16.9066 10.4038 16.9065 10.4038 16.9064 10.4038C16.9063 10.4038 16.9062 10.4038 16.9061 10.4038C16.906 10.4038 16.9059 10.4038 16.9058 10.4038C16.9057 10.4038 16.9057 10.4038 16.9056 10.4038C16.9055 10.4038 16.9054 10.4038 16.9053 10.4038C16.9052 10.4038 16.9051 10.4038 16.905 10.4038C16.9049 10.4038 16.9048 10.4038 16.9047 10.4038C16.9046 10.4038 16.9045 10.4038 16.9044 10.4038C16.9044 10.4038 16.9043 10.4038 16.9042 10.4038C16.9041 10.4038 16.904 10.4038 16.9039 10.4038C16.9038 10.4038 16.9037 10.4038 16.9036 10.4038C16.9035 10.4038 16.9034 10.4038 16.9033 10.4038C16.9032 10.4038 16.9031 10.4038 16.903 10.4038C16.903 10.4038 16.9029 10.4038 16.9028 10.4038C16.9027 10.4038 16.9026 10.4038 16.9025 10.4038C16.9024 10.4038 16.9023 10.4038 16.9022 10.4038C16.9021 10.4038 16.902 10.4038 16.9019 10.4038C16.9018 10.4038 16.9017 10.4038 16.9017 10.4038C16.9016 10.4038 16.9015 10.4038 16.9014 10.4038C16.9013 10.4038 16.9012 10.4038 16.9011 10.4038C16.901 10.4038 16.9009 10.4038 16.9008 10.4038C16.9007 10.4038 16.9006 10.4038 16.9005 10.4038C16.9004 10.4038 16.9004 10.4038 16.9003 10.4038C16.9002 10.4038 16.9001 10.4038 16.9 10.4038C16.8999 10.4038 16.8998 10.4038 16.8997 10.4038C16.8996 10.4038 16.8995 10.4038 16.8994 10.4038C16.8993 10.4038 16.8992 10.4038 16.8991 10.4038C16.899 10.4038 16.899 10.4038 16.8989 10.4038C16.8988 10.4038 16.8987 10.4038 16.8986 10.4038C16.8985 10.4038 16.8984 10.4038 16.8983 10.4038C16.8982 10.4038 16.8981 10.4038 16.898 10.4038C16.8979 10.4038 16.8978 10.4038 16.8977 10.4038C16.8977 10.4038 16.8976 10.4038 16.8975 10.4038C16.8974 10.4038 16.8973 10.4038 16.8972 10.4038C16.8971 10.4038 16.897 10.4038 16.8969 10.4038C16.8968 10.4038 16.8967 10.4038 16.8966 10.4038C16.8965 10.4038 16.8964 10.4038 16.8964 10.4038C16.8963 10.4038 16.8962 10.4038 16.8961 10.4038C16.896 10.4038 16.8959 10.4038 16.8958 10.4038C16.8957 10.4038 16.8956 10.4038 16.8955 10.4038C16.8954 10.4038 16.8953 10.4038 16.8952 10.4038C16.8951 10.4038 16.8951 10.4038 16.895 10.4038C16.8949 10.4038 16.8948 10.4038 16.8947 10.4038C16.8946 10.4038 16.8945 10.4038 16.8944 10.4038C16.8943 10.4038 16.8942 10.4038 16.8941 10.4038C16.894 10.4038 16.8939 10.4038 16.8938 10.4038C16.8937 10.4038 16.8937 10.4038 16.8936 10.4038C16.8935 10.4038 16.8934 10.4038 16.8933 10.4038C16.8932 10.4038 16.8931 10.4038 16.893 10.4038C16.8929 10.4038 16.8928 10.4038 16.8927 10.4038C16.8926 10.4038 16.8925 10.4038 16.8924 10.4038C16.8924 10.4038 16.8923 10.4038 16.8922 10.4038C16.8921 10.4038 16.892 10.4038 16.8919 10.4038C16.8918 10.4038 16.8917 10.4038 16.8916 10.4038C16.8915 10.4038 16.8914 10.4038 16.8913 10.4038C16.8912 10.4038 16.8911 10.4038 16.8911 10.4038C16.891 10.4038 16.8909 10.4038 16.8908 10.4038C16.8907 10.4038 16.8906 10.4038 16.8905 10.4038C16.8904 10.4038 16.8903 10.4038 16.8902 10.4038C16.8901 10.4038 16.89 10.4038 16.8899 10.4038C16.8898 10.4038 16.8897 10.4038 16.8897 10.4038C16.8896 10.4038 16.8895 10.4038 16.8894 10.4038C16.8893 10.4038 16.8892 10.4038 16.8891 10.4038C16.889 10.4038 16.8889 10.4038 16.8888 10.4038C16.8887 10.4038 16.8886 10.4038 16.8885 10.4038C16.8884 10.4038 16.8884 10.4038 16.8883 10.4038C16.8882 10.4038 16.8881 10.4038 16.888 10.4038C16.8879 10.4038 16.8878 10.4038 16.8877 10.4038C16.8876 10.4038 16.8875 10.4038 16.8874 10.4038C16.8873 10.4038 16.8872 10.4038 16.8871 10.4038C16.8871 10.4038 16.887 10.4038 16.8869 10.4038C16.8868 10.4038 16.8867 10.4038 16.8866 10.4038C16.8865 10.4038 16.8864 10.4038 16.8863 10.4038C16.8862 10.4038 16.8861 10.4038 16.886 10.4038C16.8859 10.4038 16.8858 10.4038 16.8857 10.4038C16.8857 10.4038 16.8856 10.4038 16.8855 10.4038C16.8854 10.4038 16.8853 10.4038 16.8852 10.4038C16.8851 10.4038 16.885 10.4038 16.8849 10.4038C16.8848 10.4038 16.8847 10.4038 16.8846 10.4038C16.8845 10.4038 16.8844 10.4038 16.8844 10.4038C16.8843 10.4038 16.8842 10.4038 16.8841 10.4038C16.884 10.4038 16.8839 10.4038 16.8838 10.4038C16.8837 10.4038 16.8836 10.4038 16.8835 10.4038C16.8834 10.4038 16.8833 10.4038 16.8832 10.4038C16.8831 10.4038 16.8831 10.4038 16.883 10.4038C16.8829 10.4038 16.8828 10.4038 16.8827 10.4038C16.8826 10.4038 16.8825 10.4038 16.8824 10.4038C16.8823 10.4038 16.8822 10.4038 16.8821 10.4038C16.882 10.4038 16.8819 10.4038 16.8818 10.4038C16.8818 10.4038 16.8817 10.4038 16.8816 10.4038C16.8815 10.4038 16.8814 10.4038 16.8813 10.4038C16.8812 10.4038 16.8811 10.4038 16.881 10.4038C16.8809 10.4038 16.8808 10.4038 16.8807 10.4038C16.8806 10.4038 16.8805 10.4038 16.8804 10.4038C16.8804 10.4038 16.8803 10.4038 16.8802 10.4038C16.8801 10.4038 16.88 10.4038 16.8799 10.4038C16.8798 10.4038 16.8797 10.4038 16.8796 10.4038C16.8795 10.4038 16.8794 10.4038 16.8793 10.4038C16.8792 10.4038 16.8791 10.4038 16.8791 10.4038C16.879 10.4038 16.8789 10.4038 16.8788 10.4038C16.8787 10.4038 16.8786 10.4038 16.8785 10.4038C16.8784 10.4038 16.8783 10.4038 16.8782 10.4038C16.8781 10.4038 16.878 10.4038 16.8779 10.4038C16.8778 10.4038 16.8778 10.4038 16.8777 10.4038C16.8776 10.4038 16.8775 10.4038 16.8774 10.4038C16.8773 10.4038 16.8772 10.4038 16.8771 10.4038C16.877 10.4038 16.8769 10.4038 16.8768 10.4038C16.8767 10.4038 16.8766 10.4038 16.8765 10.4038C16.8764 10.4038 16.8764 10.4038 16.8763 10.4038C16.8762 10.4038 16.8761 10.4038 16.876 10.4038C16.8759 10.4038 16.8758 10.4038 16.8757 10.4038C16.8756 10.4038 16.8755 10.4038 16.8754 10.4038C16.8753 10.4038 16.8752 10.4038 16.8751 10.4038C16.8751 10.4038 16.875 10.4038 16.8749 10.4038C16.8748 10.4038 16.8747 10.4038 16.8746 10.4038C16.8745 10.4038 16.8744 10.4038 16.8743 10.4038C16.8742 10.4038 16.8741 10.4038 16.874 10.4038C16.8739 10.4038 16.8738 10.4038 16.8738 10.4038C16.8737 10.4038 16.8736 10.4038 16.8735 10.4038C16.8734 10.4038 16.8733 10.4038 16.8732 10.4038C16.8731 10.4038 16.873 10.4038 16.8729 10.4038C16.8728 10.4038 16.8727 10.4038 16.8726 10.4038C16.8725 10.4038 16.8724 10.4038 16.8724 10.4038C16.8723 10.4038 16.8722 10.4038 16.8721 10.4038C16.872 10.4038 16.8719 10.4038 16.8718 10.4038C16.8717 10.4038 16.8716 10.4038 16.8715 10.4038C16.8714 10.4038 16.8713 10.4038 16.8712 10.4038C16.8711 10.4038 16.8711 10.4038 16.871 10.4038C16.8709 10.4038 16.8708 10.4038 16.8707 10.4038C16.8706 10.4038 16.8705 10.4038 16.8704 10.4038C16.8703 10.4038 16.8702 10.4038 16.8701 10.4038C16.87 10.4038 16.8699 10.4038 16.8698 10.4038C16.8698 10.4038 16.8697 10.4038 16.8696 10.4038C16.8695 10.4038 16.8694 10.4038 16.8693 10.4038C16.8692 10.4038 16.8691 10.4038 16.869 10.4038C16.8689 10.4038 16.8688 10.4038 16.8687 10.4038C16.8686 10.4038 16.8685 10.4038 16.8685 10.4038C16.8684 10.4038 16.8683 10.4038 16.8682 10.4038C16.8681 10.4038 16.868 10.4038 16.8679 10.4038C16.8678 10.4038 16.8677 10.4038 16.8676 10.4038C16.8675 10.4038 16.8674 10.4038 16.8673 10.4038C16.8672 10.4038 16.8671 10.4038 16.8671 10.4038C16.867 10.4038 16.8669 10.4038 16.8668 10.4038C16.8667 10.4038 16.8666 10.4038 16.8665 10.4038C16.8664 10.4038 16.8663 10.4038 16.8662 10.4038C16.8661 10.4038 16.866 10.4038 16.8659 10.4038C16.8658 10.4038 16.8658 10.4038 16.8657 10.4038C16.8656 10.4038 16.8655 10.4038 16.8654 10.4038C16.8653 10.4038 16.8652 10.4038 16.8651 10.4038C16.865 10.4038 16.8649 10.4038 16.8648 10.4038C16.8647 10.4038 16.8646 10.4038 16.8645 10.4038C16.8645 10.4038 16.8644 10.4038 16.8643 10.4038C16.8642 10.4038 16.8641 10.4038 16.864 10.4038C16.8639 10.4038 16.8638 10.4038 16.8637 10.4038C16.8636 10.4038 16.8635 10.4038 16.8634 10.4038C16.8633 10.4038 16.8632 10.4038 16.8632 10.4038C16.8631 10.4038 16.863 10.4038 16.8629 10.4038C16.8628 10.4038 16.8627 10.4038 16.8626 10.4038C16.8625 10.4038 16.8624 10.4038 16.8623 10.4038C16.8622 10.4038 16.8621 10.4038 16.862 10.4038C16.8619 10.4038 16.8618 10.4038 16.8618 10.4038C16.8617 10.4038 16.8616 10.4038 16.8615 10.4038C16.8614 10.4038 16.8613 10.4038 16.8612 10.4038C16.8611 10.4038 16.861 10.4038 16.8609 10.4038C16.8608 10.4038 16.8607 10.4038 16.8606 10.4038C16.8605 10.4038 16.8605 10.4038 16.8604 10.4038C16.8603 10.4038 16.8602 10.4038 16.8601 10.4038C16.86 10.4038 16.8599 10.4038 16.8598 10.4038C16.8597 10.4038 16.8596 10.4038 16.8595 10.4038C16.8594 10.4038 16.8593 10.4038 16.8592 10.4038C16.8592 10.4038 16.8591 10.4038 16.859 10.4038C16.8589 10.4038 16.8588 10.4038 16.8587 10.4038C16.8586 10.4038 16.8585 10.4038 16.8584 10.4038C16.8583 10.4038 16.8582 10.4038 16.8581 10.4038C16.858 10.4038 16.8579 10.4038 16.8579 10.4038C16.8578 10.4038 16.8577 10.4038 16.8576 10.4038C16.8575 10.4038 16.8574 10.4038 16.8573 10.4038V11.9038ZM4.38477 21.4038C3.14213 21.4038 2.13477 20.3964 2.13477 19.1538H0.634766C0.634766 21.2249 2.3137 22.9038 4.38477 22.9038V21.4038ZM19.2502 19.1538C19.2502 20.3965 18.2428 21.4038 17.0002 21.4038V22.9038C19.0712 22.9038 20.7502 21.2249 20.7502 19.1538H19.2502ZM20.7502 14.1538C20.7502 12.0827 19.0712 10.4038 17.0002 10.4038V11.9038C18.2428 11.9038 19.2502 12.9112 19.2502 14.1538H20.7502ZM2.13477 14.1538C2.13477 12.9112 3.14212 11.9038 4.38477 11.9038V10.4038C2.3137 10.4038 0.634766 12.0827 0.634766 14.1538H2.13477Z" fill="#67040B"/>
<path d="M9.94238 12.8462C9.94238 13.2604 10.2782 13.5962 10.6924 13.5962C11.1066 13.5962 11.4424 13.2604 11.4424 12.8462H9.94238ZM11.2227 0.46967C10.9298 0.176777 10.4549 0.176777 10.1621 0.46967L5.38908 5.24264C5.09619 5.53553 5.09619 6.01041 5.38908 6.3033C5.68198 6.59619 6.15685 6.59619 6.44974 6.3033L10.6924 2.06066L14.935 6.3033C15.2279 6.59619 15.7028 6.59619 15.9957 6.3033C16.2886 6.01041 16.2886 5.53553 15.9957 5.24264L11.2227 0.46967ZM11.4424 12.8462V1H9.94238V12.8462H11.4424Z" fill="#67040B"/>
</svg>
