<svg width="13" height="18" viewBox="0 0 13 18" fill="none" xmlns="http://www.w3.org/2000/svg">
<path d="M1.625 0.5C1.625 0.93605 2.02312 1.35 2.4375 1.35H10.5625C10.9793 1.35 11.375 0.9335 11.375 0.5H13C13 1.1763 12.7432 1.8249 12.2861 2.30312C11.829 2.78134 11.209 3.05 10.5625 3.05H7.3125L7.31331 4.8027C8.8839 5.01029 10.3281 5.81022 11.3751 7.05246C12.4221 8.29469 12.9998 9.89386 13 11.55V16.65C13 16.8754 12.9144 17.0916 12.762 17.251C12.6097 17.4104 12.403 17.5 12.1875 17.5H0.8125C0.597012 17.5 0.390349 17.4104 0.237976 17.251C0.0856026 17.0916 0 16.8754 0 16.65V11.55C2.68725e-05 9.89368 0.577839 8.2943 1.625 7.05201C2.67217 5.80972 4.11669 5.00992 5.6875 4.8027V3.05H2.4375C1.08875 3.05 0 1.911 0 0.5H1.625ZM6.5 6.45C3.86913 6.45 1.625 8.796 1.625 11.55V15.8H11.375V11.55C11.375 8.7977 9.13087 6.45 6.5 6.45ZM6.5 8.15C7.10287 8.15 7.66675 8.3217 8.151 8.6209L5.92475 10.9491C5.77903 11.102 5.69443 11.3073 5.68813 11.5231C5.68183 11.739 5.7543 11.9493 5.89083 12.1112C6.02735 12.2732 6.2177 12.3748 6.4232 12.3952C6.6287 12.4157 6.83394 12.3536 6.99725 12.2215L7.07444 12.151L9.30069 9.8228C9.59212 10.3392 9.74776 10.9271 9.75181 11.5268C9.75586 12.1265 9.60818 12.7167 9.32376 13.2374C9.03933 13.758 8.6283 14.1907 8.13236 14.4915C7.63643 14.7923 7.07325 14.9505 6.5 14.95C4.70437 14.95 3.25 13.4285 3.25 11.55C3.25 9.6715 4.70437 8.15 6.5 8.15Z" fill="#EF3340"/>
</svg>
